<svg id="svg" version="1.1" width="400" height="81" xmlns="http://www.w3.org/2000/svg" xmlns:xlink="http://www.w3.org/1999/xlink" style="display: block;"><g id="svgg"><path id="path0" d="M22.500 0.674 C 15.332 1.569,15.318 1.582,13.502 8.991 L 11.785 16.000 6.861 16.000 C 1.478 16.000,1.485 15.992,0.513 23.250 L -0.123 28.000 4.439 28.000 C 6.947 28.000,8.994 28.337,8.987 28.750 C 8.979 29.163,7.863 37.310,6.505 46.856 C 2.710 73.553,6.133 80.994,22.212 80.998 C 26.904 81.000,39.000 77.796,39.000 76.553 C 39.000 72.536,33.716 65.158,31.455 66.017 C 23.904 68.888,21.190 66.424,22.336 57.737 C 22.643 55.407,23.659 47.782,24.594 40.792 L 26.294 28.085 32.763 27.792 L 39.233 27.500 41.008 21.750 L 42.784 16.000 35.312 16.000 L 27.841 16.000 28.368 13.250 C 30.971 -0.345,30.954 -0.381,22.500 0.674 M66.404 15.763 C 41.370 24.731,33.024 70.341,54.718 79.623 C 62.258 82.849,74.831 79.844,79.701 73.652 L 81.600 71.238 83.204 74.033 C 87.802 82.044,95.050 82.755,98.362 75.520 L 100.924 69.924 98.858 67.858 C 97.423 66.423,96.949 64.983,97.308 63.146 C 99.022 54.362,103.138 21.801,102.683 20.617 C 100.732 15.531,76.209 12.250,66.404 15.763 M145.241 16.567 C 142.407 17.979,138.719 20.695,137.045 22.602 L 134.000 26.070 134.000 21.035 L 134.000 16.000 126.737 16.000 L 119.473 16.000 115.654 43.750 C 113.554 59.013,111.590 73.188,111.290 75.250 L 110.744 79.000 119.372 79.000 C 124.117 79.000,128.000 78.630,128.000 78.178 C 128.000 59.555,135.547 35.480,142.982 30.386 C 153.325 23.299,154.069 32.928,146.529 76.250 L 146.050 79.000 154.775 79.000 L 163.501 79.000 166.787 54.750 C 168.594 41.412,170.054 29.600,170.031 28.500 C 169.766 15.863,158.010 10.204,145.241 16.567 M333.200 15.672 C 331.386 16.566,328.348 19.112,326.450 21.329 L 323.000 25.360 323.000 20.680 L 323.000 16.000 315.579 16.000 C 308.286 16.000,308.149 16.047,307.603 18.750 C 307.297 20.262,305.453 33.200,303.505 47.500 C 301.557 61.800,299.707 74.756,299.393 76.290 L 298.823 79.080 307.662 78.790 L 316.500 78.500 318.574 63.500 C 321.928 39.251,327.911 29.588,338.507 31.307 L 341.982 31.871 343.559 26.186 C 344.426 23.059,345.520 19.297,345.989 17.827 C 347.321 13.656,339.847 12.396,333.200 15.672 M365.343 15.789 C 338.682 25.303,333.519 71.369,358.194 79.564 C 365.426 81.966,377.670 81.143,385.000 77.761 C 394.492 73.382,394.523 73.327,390.830 67.333 L 387.647 62.165 382.725 64.739 C 373.453 69.587,363.276 68.487,360.957 62.387 C 358.892 56.956,359.275 56.644,370.757 54.408 C 390.799 50.504,399.108 44.289,399.759 32.713 C 400.595 17.848,383.345 9.366,365.343 15.789 M180.568 19.250 C 181.149 23.524,185.000 73.258,185.000 76.493 L 185.000 79.000 195.425 79.000 L 205.850 79.000 213.175 56.924 L 220.500 34.848 221.189 40.174 C 221.568 43.103,222.179 53.052,222.547 62.283 L 223.216 79.065 233.724 78.783 L 244.232 78.500 250.721 60.000 C 254.290 49.825,258.995 36.390,261.177 30.145 C 263.358 23.900,265.384 18.162,265.679 17.395 C 266.111 16.270,264.584 16.000,257.781 16.000 L 249.349 16.000 241.924 40.718 L 234.500 65.436 233.735 45.968 C 233.315 35.261,232.720 24.137,232.413 21.250 L 231.856 16.000 223.550 16.000 L 215.244 16.000 213.163 21.750 C 212.019 24.913,208.565 34.925,205.489 44.000 C 202.412 53.075,199.499 61.400,199.015 62.500 C 198.476 63.726,198.109 55.113,198.068 40.250 L 198.000 16.000 189.063 16.000 L 180.126 16.000 180.568 19.250 M274.604 17.750 C 274.312 18.712,273.590 23.550,273.000 28.500 C 272.410 33.450,271.291 41.550,270.514 46.500 C 269.737 51.450,268.627 59.325,268.048 64.000 C 267.469 68.675,266.721 73.963,266.386 75.750 L 265.777 79.000 274.309 79.000 C 282.814 79.000,282.843 78.991,283.402 76.250 C 283.711 74.737,285.573 61.837,287.540 47.581 C 289.508 33.326,291.372 20.389,291.684 18.831 L 292.250 16.000 283.692 16.000 C 276.411 16.000,275.056 16.261,274.604 17.750 M381.104 28.104 C 385.576 32.576,380.436 40.607,371.665 42.855 C 359.469 45.981,358.638 45.156,363.843 35.081 C 368.147 26.747,376.408 23.408,381.104 28.104 M84.656 28.547 C 84.983 29.398,84.271 36.710,83.074 44.797 L 80.899 59.500 76.508 63.750 C 63.382 76.454,54.693 58.361,63.901 37.500 C 67.715 28.858,82.353 22.544,84.656 28.547 " stroke="none" fill="#ffffff" fill-rule="evenodd"></path></g></svg>