<svg id="Capa_2" data-name="Capa 2" xmlns="http://www.w3.org/2000/svg" viewBox="0 0 442.37 440.32"><defs><style>.cls-1{fill:#090909;}</style></defs><title>logo</title><path class="cls-1" d="M392.05,106.74,442.37,90S351.67-69.88,194,36.54c-26.07,16.3-73.62,68.15-82.43,131.82l-25.93,15L81.85,207l31.27,16.66v0c.73,3,1.6,6,2.58,9l.09.28A113,113,0,0,0,121,245.88q1,2.13,2.15,4.22c-.59-.34-1.18-.68-1.76-1-26.49-16-110.42-57-52.94-165L30.85,46.71S-70.91,199.83,95.2,292.45c25.84,15.62,91.59,34.23,151.51,15.15,2-.43,4-.89,6-1.43.32-.08.64-.17,1-.27,3-.83,5.94-1.77,8.82-2.85h0L292,318.65l17.51-16.46-2.12-29.82v0a113.33,113.33,0,0,0,13.19-18.07q2.88-4,5.62-8.21a88.67,88.67,0,0,1,.85,12c0,30.95,8.31,124-113.83,130.66l-12.52,51.52s183.68,7.89,177-182.18c0-33.51-22.26-111-82-150.17l-1.5-21.11-21.5-11.41L251.61,87.57c-2.17-.56-4.36-1-6.57-1.49l-1.37-.25c-1.69-.31-3.4-.58-5.12-.82-.67-.1-1.35-.18-2-.26-1.6-.19-3.2-.34-4.81-.46-.66-.05-1.31-.12-2-.15-2.22-.14-4.46-.22-6.72-.22-2.93,0-5.83.15-8.7.37l-.29,0c2.25-1.74,4.55-3.35,6.88-4.81C247.16,63.09,321.66,6.71,392.05,106.74ZM223,130.35a63.88,63.88,0,1,1-63.87,63.87A63.88,63.88,0,0,1,223,130.35Z"/></svg>
