<?xml version="1.0" encoding="iso-8859-1"?>
<!-- Generator: Adobe Illustrator 19.0.0, SVG Export Plug-In . SVG Version: 6.00 Build 0)  -->
<svg version="1.1" id="Capa_1" xmlns="http://www.w3.org/2000/svg" xmlns:xlink="http://www.w3.org/1999/xlink" x="0px" y="0px"
	 viewBox="0 0 512 512" style="enable-background:new 0 0 512 512;" xml:space="preserve">
<g>
	<g transform="translate(0 1)">
		<g>
			<rect x="187.733" y="412.525" style="fill:#7FACFA;" width="136.533" height="77.483"/>
			<path style="fill:#7FACFA;" d="M42.667,84.333h426.667c18.851,0,34.133,15.282,34.133,34.133v281.6
				c0,18.851-15.282,34.133-34.133,34.133H42.667c-18.851,0-34.133-15.282-34.133-34.133v-281.6
				C8.533,99.615,23.815,84.333,42.667,84.333z"/>
			<path style="fill:#7FACFA;" d="M128,468.333h256c4.713,0,8.533,3.821,8.533,8.533v17.067c0,4.713-3.82,8.533-8.533,8.533H128
				c-4.713,0-8.533-3.821-8.533-8.533v-17.067C119.467,472.154,123.287,468.333,128,468.333z"/>
		</g>
		<g>
			<polygon style="fill:#E3E7F2;" points="298.667,412.525 298.667,490.008 162.133,490.008 162.133,468.333 187.733,468.333 
				187.733,434.2 162.133,434.2 162.133,412.525 			"/>
			<path style="fill:#E3E7F2;" d="M42.667,84.333h401.067c18.851,0,34.133,15.282,34.133,34.133v281.6
				c0,18.851-15.282,34.133-34.133,34.133H42.667c-18.851,0-34.133-15.282-34.133-34.133v-281.6
				C8.533,99.615,23.815,84.333,42.667,84.333z"/>
			<path style="fill:#E3E7F2;" d="M128,468.333h230.4c4.713,0,8.533,3.821,8.533,8.533v17.067c0,4.713-3.82,8.533-8.533,8.533H128
				c-4.713,0-8.533-3.821-8.533-8.533v-17.067C119.467,472.154,123.287,468.333,128,468.333z"/>
		</g>
		<path style="fill:#7FACFA;" d="M503.467,365.933V118.467c0.002-9.053-3.593-17.737-9.995-24.139
			c-6.402-6.402-15.085-9.997-24.139-9.995H42.667c-9.053-0.002-17.737,3.593-24.139,9.995c-6.402,6.402-9.997,15.085-9.995,24.139
			l0,247.467H503.467z"/>
		
			<linearGradient id="SVGID_1_" gradientUnits="userSpaceOnUse" x1="-48.7852" y1="651.6212" x2="-48.006" y2="650.3224" gradientTransform="matrix(469.3565 0 0 -281.6 22957.9883 183548.5469)">
			<stop  offset="0" style="stop-color:#D4E1F4"/>
			<stop  offset="0.1717" style="stop-color:#D4E1F4"/>
			<stop  offset="0.2" style="stop-color:#D4E1F4"/>
			<stop  offset="0.2001" style="stop-color:#DAE4F4"/>
			<stop  offset="0.2007" style="stop-color:#EBEBF4"/>
			<stop  offset="0.2014" style="stop-color:#F6F1F4"/>
			<stop  offset="0.2023" style="stop-color:#FDF4F4"/>
			<stop  offset="0.205" style="stop-color:#FFF5F4"/>
			<stop  offset="0.2522" style="stop-color:#FFF5F4"/>
			<stop  offset="0.26" style="stop-color:#FFF5F4"/>
			<stop  offset="0.26" style="stop-color:#D4E1F4"/>
			<stop  offset="0.3974" style="stop-color:#D4E1F4"/>
			<stop  offset="0.42" style="stop-color:#D4E1F4"/>
			<stop  offset="0.4201" style="stop-color:#DAE4F4"/>
			<stop  offset="0.4207" style="stop-color:#EBEBF4"/>
			<stop  offset="0.4214" style="stop-color:#F6F1F4"/>
			<stop  offset="0.4223" style="stop-color:#FDF4F4"/>
			<stop  offset="0.425" style="stop-color:#FFF5F4"/>
			<stop  offset="0.4894" style="stop-color:#FFF5F4"/>
			<stop  offset="0.5" style="stop-color:#FFF5F4"/>
			<stop  offset="0.5" style="stop-color:#F9F2F4"/>
			<stop  offset="0.5001" style="stop-color:#E8EBF4"/>
			<stop  offset="0.5003" style="stop-color:#DDE5F4"/>
			<stop  offset="0.5005" style="stop-color:#D6E2F4"/>
			<stop  offset="0.501" style="stop-color:#D4E1F4"/>
			<stop  offset="0.7062" style="stop-color:#D4E1F4"/>
			<stop  offset="0.74" style="stop-color:#D4E1F4"/>
			<stop  offset="0.741" style="stop-color:#FFF5F4"/>
			<stop  offset="0.8346" style="stop-color:#FFF5F4"/>
			<stop  offset="0.85" style="stop-color:#FFF5F4"/>
			<stop  offset="0.851" style="stop-color:#D4E1F4"/>
		</linearGradient>
		<path style="fill:url(#SVGID_1_);" d="M477.867,365.933V118.467c0.48-18.361-14.008-33.638-32.368-34.133H40.901
			c-18.36,0.495-32.847,15.773-32.368,34.133v247.467H477.867z"/>
		<path style="fill:#E3E7F2;" d="M341.333,195.267l26.539,62.72c1.045,3.314,4.119,5.568,7.595,5.568
			c3.475,0,6.549-2.254,7.595-5.568l26.539-62.72h25.6c9.414-0.028,17.039-7.652,17.067-17.067V24.6
			c-0.028-9.414-7.652-17.039-17.067-17.067H315.733c-9.414,0.028-17.039,7.652-17.067,17.067v17.067L341.333,195.267z"/>
		<g>
			<path style="fill:#A4C2F7;" d="M341.333,115.992c4.305-4.567,9.505-8.198,15.275-10.667c0.085,0,0.171-0.085,0.256-0.085h33.707
				c0.085,0,0.171,0.085,0.256,0.085c16.516,6.914,27.277,23.056,27.307,40.96v7.424c-0.003,4.099-3.325,7.421-7.424,7.424h-69.376
				V115.992z"/>
			<path style="fill:#A4C2F7;" d="M341.333,64.963c5.312-15.845,21.325-25.505,37.819-22.814
				c16.494,2.691,28.606,16.94,28.606,33.652s-12.112,30.961-28.606,33.652c-16.494,2.691-32.507-6.969-37.819-22.814V64.963z"/>
		</g>
		<g>
			<path style="fill:#E3E7F2;" d="M170.667,195.267l-26.539,62.72c-1.045,3.314-4.119,5.568-7.595,5.568s-6.549-2.254-7.595-5.568
				l-26.539-62.72H76.8c-9.414-0.028-17.039-7.652-17.067-17.067V24.6C59.761,15.186,67.386,7.561,76.8,7.533h119.467
				c9.414,0.028,17.039,7.652,17.067,17.067v17.067L170.667,195.267z"/>
			<path style="fill:#E3E7F2;" d="M341.333,58.733v187.733c-0.028,9.414-7.652,17.039-17.067,17.067h-34.133l-26.539,62.72
				c-1.046,3.314-4.119,5.568-7.595,5.568c-3.475,0-6.549-2.253-7.595-5.568l-26.539-62.72h-34.133
				c-9.414-0.028-17.039-7.653-17.067-17.067V58.733c0.028-9.414,7.652-17.039,17.067-17.067h136.533
				C333.681,41.694,341.306,49.319,341.333,58.733z"/>
		</g>
		<g>
			<path style="fill:#A4C2F7;" d="M275.456,156.44c19.216,7.876,31.761,26.592,31.744,47.36v8.533
				c-0.014,4.707-3.826,8.52-8.533,8.533h-85.333c-4.707-0.014-8.52-3.826-8.533-8.533V203.8
				c-0.017-20.768,12.528-39.484,31.744-47.36H275.456z"/>
			<path style="fill:#A4C2F7;" d="M170.667,115.992c-4.305-4.567-9.505-8.198-15.275-10.667c-0.085,0-0.171-0.085-0.256-0.085
				h-33.707c-0.085,0-0.171,0.085-0.256,0.085c-16.516,6.914-27.277,23.056-27.307,40.96v7.424c0.003,4.099,3.325,7.421,7.424,7.424
				h69.376V115.992z"/>
			<circle style="fill:#A4C2F7;" cx="136.533" cy="314.733" r="25.6"/>
			<circle style="fill:#A4C2F7;" cx="375.467" cy="314.733" r="25.6"/>
			<path style="fill:#A4C2F7;" d="M298.667,118.467c0,23.564-19.102,42.667-42.667,42.667c-23.564,0-42.667-19.102-42.667-42.667
				S232.436,75.8,256,75.8c11.323-0.022,22.188,4.466,30.194,12.472S298.689,107.144,298.667,118.467z"/>
			<path style="fill:#A4C2F7;" d="M170.667,64.963c-5.312-15.845-21.325-25.505-37.819-22.814
				c-16.494,2.691-28.606,16.94-28.606,33.652s12.112,30.961,28.606,33.652c16.494,2.691,32.507-6.969,37.819-22.814V64.963z"/>
		</g>
	</g>
	<g transform="translate(0 10)">
		<path style="fill:#FFFFFF;" d="M68.267,425.2h-25.6c-9.053,0.002-17.737-3.593-24.139-9.995s-9.997-15.085-9.995-24.139v-281.6
			C8.059,91.118,22.527,75.848,40.875,75.333h16.299v1.451c-13.967,4.728-23.28,17.939-23.04,32.683v281.6
			c-0.002,9.053,3.593,17.737,9.995,24.139S59.213,425.202,68.267,425.2z"/>
		<path style="fill:#FFFFFF;" d="M145.067,467.867v17.067c0.014,4.707,3.826,8.519,8.533,8.533H128
			c-4.707-0.014-8.519-3.826-8.533-8.533v-17.067c0.014-4.707,3.826-8.519,8.533-8.533h25.6
			C148.893,459.347,145.081,463.16,145.067,467.867z"/>
		<rect x="187.733" y="425.2" style="fill:#FFFFFF;" width="25.6" height="34.133"/>
	</g>
	<g>
		<polygon style="fill:#FFFFFF;" points="17.067,119.467 17.067,230.4 17.067,366.933 0,366.933 0,230.4 0,119.467 		"/>
		<g>
			<path style="fill:#428DFF;" d="M8.533,196.267c2.259-0.034,4.422-0.918,6.059-2.475c3.3-3.365,3.3-8.752,0-12.117l-1.279-1.025
				c-0.476-0.324-0.993-0.583-1.538-0.771c-0.484-0.246-1.003-0.417-1.538-0.509c-0.563-0.096-1.133-0.153-1.704-0.171
				c-2.259,0.031-4.423,0.915-6.059,2.475c-3.222,3.397-3.222,8.721,0,12.117c0.815,0.771,1.77,1.379,2.813,1.792
				C6.314,196.022,7.417,196.254,8.533,196.267z"/>
			<path style="fill:#428DFF;" d="M469.333,76.8H460.8V25.6C460.785,11.468,449.332,0.015,435.2,0H315.733
				c-14.132,0.015-25.585,11.468-25.6,25.6v8.533h-68.267V25.6c-0.015-14.132-11.468-25.585-25.6-25.6H76.8
				C62.668,0.015,51.215,11.468,51.2,25.6v51.2h-8.533C19.114,76.828,0.028,95.914,0,119.467V153.6c0,4.713,3.821,8.533,8.533,8.533
				s8.533-3.821,8.533-8.533v-34.133c0.015-14.132,11.468-25.585,25.6-25.6H51.2V179.2c0.015,14.132,11.468,25.585,25.6,25.6h19.945
				l24.309,57.454c2.366,6.494,8.535,10.82,15.446,10.833c6.912,0.013,13.096-4.29,15.487-10.775l10.146-23.98v9.134
				c0.015,14.132,11.468,25.585,25.6,25.6h28.479l24.309,57.454c2.366,6.494,8.535,10.82,15.446,10.833s13.096-4.29,15.487-10.775
				l24.334-57.513h28.479c14.132-0.015,25.585-11.468,25.6-25.6v-9.133l10.121,23.921c2.366,6.494,8.535,10.82,15.446,10.833
				c6.912,0.013,13.096-4.29,15.487-10.775l24.334-57.513H435.2c14.132-0.015,25.585-11.468,25.6-25.6V93.867h8.533
				c14.132,0.015,25.585,11.468,25.6,25.6V358.4H17.067V221.867c0-4.713-3.821-8.533-8.533-8.533S0,217.154,0,221.867v179.2
				c0.028,23.553,19.114,42.639,42.667,42.667H179.2V460.8h-59.733c-4.713,0-8.533,3.821-8.533,8.533v34.133
				c0,4.713,3.821,8.533,8.533,8.533h273.067c4.713,0,8.533-3.82,8.533-8.533v-34.133c0-4.713-3.82-8.533-8.533-8.533H332.8v-17.067
				h136.533c23.553-0.028,42.639-19.114,42.667-42.667v-281.6C511.972,95.914,492.886,76.828,469.333,76.8z M136.5,254.958
				l-26.235-62.001c-0.44-1.035-1.08-1.973-1.884-2.76c-0.406-0.333-0.843-0.628-1.304-0.879c-0.442-0.357-0.92-0.668-1.426-0.928
				c-1.04-0.434-2.156-0.657-3.283-0.657H76.8c-4.71-0.006-8.527-3.823-8.533-8.533V25.6c0.006-4.71,3.823-8.527,8.533-8.533
				h119.467c4.71,0.006,8.527,3.823,8.533,8.533v8.533h-17.067c-8.368,0.01-16.201,4.116-20.971,10.992
				c-16.792-15.174-42.523-14.554-58.565,1.411s-16.784,41.693-1.689,58.557c-13.319,9.935-21.168,25.573-21.175,42.19v7.425
				c0.01,8.81,7.149,15.949,15.958,15.958h60.842v23.866L136.5,254.958z M162.133,85.929c-2.048,5.316-5.799,9.805-10.667,12.764
				c-0.23,0.114-0.451,0.242-0.669,0.374c-7.737,4.333-17.165,4.352-24.919,0.05c-0.236-0.148-0.48-0.286-0.73-0.411
				c-9.61-5.742-14.366-17.069-11.735-27.951c2.631-10.881,12.036-18.785,23.208-19.503c11.172-0.718,21.511,5.918,25.512,16.374
				V85.929z M121.221,115.849c10.811,4.801,23.145,4.824,33.974,0.065c2.493,1.368,4.821,3.019,6.938,4.918V153.6H102.4v-6.317
				C102.405,134.138,109.636,122.06,121.221,115.849z M324.267,256h-34.109c-1.128,0-2.244,0.224-3.285,0.658
				c-0.918,0.589-1.826,1.192-2.726,1.809c-0.802,0.786-1.44,1.723-1.879,2.757l-26.302,62.001l-26.235-62.001
				c-0.44-1.035-1.08-1.973-1.884-2.76c-0.9-0.617-1.811-1.219-2.73-1.807c-1.04-0.434-2.156-0.657-3.283-0.657h-34.102
				c-4.71-0.006-8.527-3.823-8.533-8.533V59.733c0.006-4.71,3.823-8.527,8.533-8.533h136.533c4.71,0.006,8.527,3.823,8.533,8.533
				v187.733C332.794,252.177,328.977,255.994,324.267,256z M349.867,120.832c2.116-1.899,4.444-3.549,6.936-4.917
				c10.83,4.759,23.164,4.735,33.975-0.066c11.586,6.211,18.818,18.289,18.822,31.435v6.317h-59.733V120.832z M386.799,98.75
				c-0.195,0.1-0.385,0.206-0.572,0.32c-7.739,4.338-17.174,4.354-24.928,0.041c-0.276-0.176-0.562-0.337-0.856-0.482
				c-4.823-2.959-8.54-7.421-10.577-12.7V67.626c4.015-10.446,14.36-17.064,25.528-16.331s20.558,8.647,23.173,19.528
				C401.183,81.705,396.414,93.022,386.799,98.75L386.799,98.75z M443.733,179.2c-0.005,4.711-3.822,8.529-8.533,8.533h-25.6
				l-0.109,0.022c-1.077,0.012-2.141,0.227-3.138,0.634c-0.923,0.587-1.835,1.19-2.736,1.809c-0.803,0.787-1.443,1.726-1.882,2.761
				l-26.301,61.999l-25.567-60.422v-23.87h60.842c8.81-0.01,15.949-7.149,15.958-15.958v-7.425
				c-0.006-16.616-7.854-32.254-21.173-42.189c15.102-16.863,14.363-42.597-1.682-58.566s-41.782-16.585-58.573-1.403
				c-4.769-6.876-12.603-10.982-20.971-10.992H307.2V25.6c0.006-4.71,3.823-8.527,8.533-8.533H435.2
				c4.711,0.005,8.529,3.822,8.533,8.533V179.2z M384,494.933H128v-17.067h256V494.933z M315.733,460.8H196.267v-17.067h119.467
				V460.8z M469.333,426.667H42.667c-14.132-0.015-25.585-11.468-25.6-25.6v-25.6h477.867v25.6
				C494.918,415.199,483.465,426.651,469.333,426.667z"/>
			<path style="fill:#428DFF;" d="M291.181,156.67c15.234-14.408,20.143-36.649,12.39-56.131
				C295.817,81.057,276.968,68.271,256,68.271s-39.817,12.785-47.571,32.267c-7.754,19.482-2.844,41.723,12.39,56.131
				c-15.438,11.17-24.572,29.075-24.552,48.13v8.533c0.009,9.422,7.645,17.057,17.067,17.067h85.333
				c9.422-0.009,17.057-7.645,17.067-17.067V204.8C315.754,185.745,306.62,167.839,291.181,156.67z M256,85.333
				c15.769,0.002,29.485,10.805,33.182,26.135c3.697,15.33-3.588,31.197-17.623,38.386c-9.796,4.906-21.332,4.902-31.125-0.009
				c-14.031-7.191-21.312-23.057-17.613-38.384C226.519,96.134,240.233,85.334,256,85.333z M298.667,213.333h-85.334l0-8.533
				c-0.031-16.074,9.044-30.779,23.426-37.958c12.321,5.099,26.163,5.1,38.484,0.002c14.38,7.179,23.454,21.884,23.423,37.957
				L298.667,213.333z"/>
			<path style="fill:#428DFF;" d="M170.667,315.733c0-18.851-15.282-34.133-34.133-34.133S102.4,296.882,102.4,315.733
				c0,18.851,15.282,34.133,34.133,34.133C155.376,349.845,170.645,334.576,170.667,315.733z M119.467,315.733
				c0-9.426,7.641-17.067,17.067-17.067c9.426,0,17.067,7.641,17.067,17.067c0,9.426-7.641,17.067-17.067,17.067
				C127.112,332.791,119.476,325.155,119.467,315.733z"/>
			<path style="fill:#428DFF;" d="M409.6,315.733c0-18.851-15.282-34.133-34.133-34.133c-18.851,0-34.133,15.282-34.133,34.133
				c0,18.851,15.282,34.133,34.133,34.133C394.309,349.845,409.578,334.576,409.6,315.733z M358.4,315.733
				c0-9.426,7.641-17.067,17.067-17.067c9.426,0,17.067,7.641,17.067,17.067c0,9.426-7.641,17.067-17.067,17.067
				C366.045,332.791,358.409,325.155,358.4,315.733z"/>
		</g>
	</g>
</g>
<g>
</g>
<g>
</g>
<g>
</g>
<g>
</g>
<g>
</g>
<g>
</g>
<g>
</g>
<g>
</g>
<g>
</g>
<g>
</g>
<g>
</g>
<g>
</g>
<g>
</g>
<g>
</g>
<g>
</g>
</svg>
