<?xml version="1.0" encoding="UTF-8"?>
<svg xmlns="http://www.w3.org/2000/svg" xmlns:xlink="http://www.w3.org/1999/xlink" width="512" height="512" viewBox="0 0 60 60" version="1.1"><!-- Generator: Sketch 51.3 (57544) - http://www.bohemiancoding.com/sketch --><title>041 - Wireframe</title><desc>Created with Sketch.</desc><defs><linearGradient x1="0.282222222%" y1="5.61034483%" x2="80.5555556%" y2="130.172414%" id="linearGradient-1"><stop stop-color="#D3DFF2" offset="0%"/><stop stop-color="#D3DFF2" offset="17.2%"/><stop stop-color="#D3DFF2" offset="20%"/><stop stop-color="#DAE2F2" offset="20%"/><stop stop-color="#EBEAF2" offset="20.1%"/><stop stop-color="#F6EFF2" offset="20.1%"/><stop stop-color="#FDF2F2" offset="20.2%"/><stop stop-color="#FFF3F2" offset="20.5%"/><stop stop-color="#FFF3F2" offset="25.2%"/><stop stop-color="#FFF3F2" offset="26%"/><stop stop-color="#D3DFF2" offset="26%"/><stop stop-color="#D3DFF2" offset="39.7%"/><stop stop-color="#D3DFF2" offset="42%"/><stop stop-color="#DAE2F2" offset="42%"/><stop stop-color="#EBEAF2" offset="42.1%"/><stop stop-color="#F6EFF2" offset="42.1%"/><stop stop-color="#FDF2F2" offset="42.2%"/><stop stop-color="#FFF3F2" offset="42.5%"/><stop stop-color="#FFF3F2" offset="48.9%"/><stop stop-color="#FFF3F2" offset="50%"/><stop stop-color="#F8F0F2" offset="50%"/><stop stop-color="#E7E8F2" offset="50%"/><stop stop-color="#DCE3F2" offset="50%"/><stop stop-color="#D5E0F2" offset="50%"/><stop stop-color="#D3DFF2" offset="50.1%"/><stop stop-color="#D3DFF2" offset="70.6%"/><stop stop-color="#D3DFF2" offset="74%"/><stop stop-color="#FFF3F2" offset="74.1%"/><stop stop-color="#FFF3F2" offset="83.5%"/><stop stop-color="#FFF3F2" offset="85%"/><stop stop-color="#D3DFF2" offset="85.1%"/></linearGradient></defs><g id="Page-1" stroke="none" stroke-width="1" fill="none" fill-rule="evenodd"><g id="041---Wireframe" fill-rule="nonzero"><polygon id="Shape" fill="#CAD9FC" points="33 55 25.04 58 23.53 57.44 17 55 19.67 49 23.41 45.97 24.88 44.79 30.33 49"/><polygon id="Shape" fill="#E8EDFC" points="30 55 23.53 57.44 17 55 19.67 49 23.41 45.97 27.33 49"/><path d="M49,40 L49,46 C49,47.6568542 47.6568542,49 46,49 L4,49 C2.34314575,49 1,47.6568542 1,46 L1,40 L49,40 Z" id="Shape" fill="#CAD9FC"/><path d="M46,40 L46,46 C46,47.6568542 44.6568542,49 43,49 L4,49 C2.34314575,49 1,47.6568542 1,46 L1,40 L46,40 Z" id="Shape" fill="#E8EDFC"/><path d="M35,57 C34.9918328,58.1011688 34.1011688,58.9918328 33,59 L17,59 C15.8967981,58.9967052 15.0032948,58.1032019 15,57 C15.0081672,55.8988312 15.8988312,55.0081672 17,55 L33,55 C34.1032019,55.0032948 34.9967052,55.8967981 35,57 Z" id="Shape" fill="#CAD9FC"/><path d="M32,57 C31.9918328,58.1011688 31.1011688,58.9918328 30,59 L17,59 C15.8967981,58.9967052 15.0032948,58.1032019 15,57 C15.0081672,55.8988312 15.8988312,55.0081672 17,55 L30,55 C31.1032019,55.0032948 31.9967052,55.8967981 32,57 Z" id="Shape" fill="#E8EDFC"/><path d="M49,38 L49,42 L1,42 L1,16 C1,14.3431458 2.34314575,13 4,13 L27,13 L27.64,13.73 L28.18,14.34 L49,38 Z" id="Shape" fill="#A4C2F7"/><path d="M46,38 L46,42 L1,42 L1,16 C1,14.3431458 2.34314575,13 4,13 L27,13 L26.64,13.73 L27.18,14.34 L46,38 Z" id="Shape" fill="url(#linearGradient-1)"/><path d="M59,7 L59,36 C58.9967052,37.1032019 58.1032019,37.9967052 57,38 L29,38 C27.8967981,37.9967052 27.0032948,37.1032019 27,36 L27,7 L59,7 Z" id="Shape" fill="#E8EDFC"/><path d="M56,7 L56,36 C55.9967052,37.1032019 55.1032019,37.9967052 54,38 L29,38 C27.8967981,37.9967052 27.0032948,37.1032019 27,36 L27,7 L56,7 Z" id="Shape" fill="#FFFFFF"/><path d="M59,3 L59,9 L27,9 L27,3 C27.0032948,1.89679813 27.8967981,1.0032948 29,1 L57,1 C58.1032019,1.0032948 58.9967052,1.89679813 59,3 Z" id="Shape" fill="#7FACFA"/><path d="M56,3 L56,9 L27,9 L27,3 C27.0032948,1.89679813 27.8967981,1.0032948 29,1 L54,1 C55.1032019,1.0032948 55.9967052,1.89679813 56,3 Z" id="Shape" fill="#A4C2F7"/><path d="M17.625,57.042 C17.6331672,55.9408312 18.5238312,55.0501672 19.625,55.042 L22.295,49.042 L19.295,49.042 L16.625,55.042 C15.5238312,55.0501672 14.6331672,55.9408312 14.625,57.042 C14.6282948,58.1452019 15.5217981,59.0387052 16.625,59.042 L19.625,59.042 C18.5217981,59.0387052 17.6282948,58.1452019 17.625,57.042 Z" id="Shape" fill="#FFFFFF"/><path d="M3.625,46.042 L3.625,16.042 C3.625,14.3851458 4.96814575,13.042 6.625,13.042 L3.625,13.042 C1.96814575,13.042 0.625,14.3851458 0.625,16.042 L0.625,46.042 C0.625,47.6988542 1.96814575,49.042 3.625,49.042 L6.625,49.042 C4.96814575,49.042 3.625,47.6988542 3.625,46.042 Z" id="Shape" fill="#FFFFFF"/><polygon id="Shape" fill="#FFFFFF" points="2 16 2 29 2 46 0 46 0 29 0 16"/><path d="M1,21 C1.55228475,21 2,20.5522847 2,20 L2,16 L0,16 L0,20 C6.76353751e-17,20.5522847 0.44771525,21 1,21 Z" id="Shape" fill="#428DFF"/><path d="M0,46 L2,46 L2,28 C2,27.4477153 1.55228475,27 1,27 C0.44771525,27 6.76353751e-17,27.4477153 0,28 L0,46 Z" id="Shape" fill="#428DFF"/><path d="M2,24 C1.99611961,23.7352731 1.89256504,23.481743 1.71,23.29 L1.56,23.17 C1.50427287,23.1321227 1.44373808,23.1018554 1.38,23.08 C1.32333758,23.0511123 1.26266255,23.0308873 1.2,23.02 C1.13385548,23.0088692 1.06703885,23.0021875 1,23 C0.735273141,23.0038804 0.481742984,23.107435 0.29,23.29 C0.199603156,23.3856071 0.12832305,23.4976187 0.08,23.62 C-0.0708765757,23.9929737 0.0113519394,24.4197788 0.29,24.71 C0.385607086,24.8003968 0.497618681,24.871677 0.62,24.92 C0.740222313,24.971241 0.869322743,24.99842 1,25 C1.26472686,24.9961196 1.51825702,24.892565 1.71,24.71 C1.89256504,24.518257 1.99611961,24.2647269 2,24 Z" id="Shape" fill="#428DFF"/><path d="M1,17 C0.44771525,17 6.76353751e-17,16.5522847 0,16 C-2.705415e-16,13.790861 1.790861,12 4,12 L27,12 C27.5522847,12 28,12.4477153 28,13 C28,13.5522847 27.5522847,14 27,14 L4,14 C2.8954305,14 2,14.8954305 2,16 C2,16.5522847 1.55228475,17 1,17 Z" id="Shape" fill="#428DFF"/><path d="M46,50 L4,50 C1.790861,50 2.705415e-16,48.209139 0,46 C-6.76353751e-17,45.4477153 0.44771525,45 1,45 C1.55228475,45 2,45.4477153 2,46 C2,47.1045695 2.8954305,48 4,48 L46,48 C47.1045695,48 48,47.1045695 48,46 L48,38 C48,37.4477153 48.4477153,37 49,37 C49.5522847,37 50,37.4477153 50,38 L50,46 C50,48.209139 48.209139,50 46,50 Z" id="Shape" fill="#428DFF"/><path d="M33,60 L17,60 C15.3431458,60 14,58.6568542 14,57 C14,55.3431458 15.3431458,54 17,54 L33,54 C34.6568542,54 36,55.3431458 36,57 C36,58.6568542 34.6568542,60 33,60 Z M17,56 C16.4477153,56 16,56.4477153 16,57 C16,57.5522847 16.4477153,58 17,58 L33,58 C33.5522847,58 34,57.5522847 34,57 C34,56.4477153 33.5522847,56 33,56 L17,56 Z" id="Shape" fill="#428DFF"/><path d="M33,56 L17,56 C16.661497,56.000043 16.3459511,55.8288367 16.1614567,55.5450303 C15.9769623,55.2612238 15.9485678,54.9033488 16.086,54.594 L18.752,48.594 C18.9126347,48.2324237 19.2713478,47.9995542 19.667,48 L30.333,48 C30.7286522,47.9995542 31.0873653,48.2324237 31.248,48.594 L33.914,54.594 C34.0514322,54.9033488 34.0230377,55.2612238 33.8385433,55.5450303 C33.6540489,55.8288367 33.338503,56.000043 33,56 Z M18.539,54 L31.461,54 L29.684,50 L20.316,50 L18.539,54 Z" id="Shape" fill="#428DFF"/><path d="M49,43 L1,43 C0.44771525,43 6.76353751e-17,42.5522847 0,42 C-6.76353751e-17,41.4477153 0.44771525,41 1,41 L49,41 C49.5522847,41 50,41.4477153 50,42 C50,42.5522847 49.5522847,43 49,43 Z" id="Shape" fill="#428DFF"/><path d="M25,50 C24.4477153,50 24,49.5522847 24,49 L24,47 C24,46.4477153 24.4477153,46 25,46 C25.5522847,46 26,46.4477153 26,47 L26,49 C26,49.5522847 25.5522847,50 25,50 Z" id="Shape" fill="#428DFF"/><path d="M57,39 L29,39 C27.3431458,39 26,37.6568542 26,36 L26,3 C26,1.34314575 27.3431458,3.04359188e-16 29,0 L57,0 C58.6568542,1.01453063e-16 60,1.34314575 60,3 L60,36 C60,37.6568542 58.6568542,39 57,39 Z M29,2 C28.4477153,2 28,2.44771525 28,3 L28,36 C28,36.5522847 28.4477153,37 29,37 L57,37 C57.5522847,37 58,36.5522847 58,36 L58,3 C58,2.44771525 57.5522847,2 57,2 L29,2 Z" id="Shape" fill="#428DFF"/><path d="M59,10 L27,10 C26.4477153,10 26,9.55228475 26,9 C26,8.44771525 26.4477153,8 27,8 L59,8 C59.5522847,8 60,8.44771525 60,9 C60,9.55228475 59.5522847,10 59,10 Z" id="Shape" fill="#428DFF"/><path d="M55,22 L31,22 C30.4477153,22 30,21.5522847 30,21 L30,13 C30,12.4477153 30.4477153,12 31,12 L55,12 C55.5522847,12 56,12.4477153 56,13 L56,21 C56,21.5522847 55.5522847,22 55,22 Z M32,20 L54,20 L54,14 L32,14 L32,20 Z" id="Shape" fill="#428DFF"/><path d="M31,22 C30.5103795,21.9988921 30.0935663,21.6434312 30.0151659,21.1601271 C29.9367654,20.676823 30.2198373,20.2078283 30.684,20.052 L54.684,12.052 C55.0234023,11.9391041 55.3972523,12.0158529 55.6647242,12.253336 C55.9321961,12.490819 56.0526546,12.852957 55.9807242,13.203336 C55.9087937,13.553715 55.6554023,13.8391041 55.316,13.952 L31.316,21.952 C31.2139215,21.984839 31.1072256,22.0010459 31,22 Z" id="Shape" fill="#428DFF"/><path d="M55,22 C54.8925571,21.9997552 54.7858558,21.9821968 54.684,21.948 L30.684,13.948 C30.3445977,13.8351041 30.0912063,13.549715 30.0192758,13.199336 C29.9473454,12.848957 30.067804,12.486819 30.3352759,12.249336 C30.6027478,12.0118529 30.9765977,11.9351041 31.316,12.048 L55.316,20.048 C55.7867044,20.1992604 56.0762173,20.6717981 55.997208,21.1598554 C55.9181987,21.6479127 55.4943861,22.0049735 55,22 Z" id="Shape" fill="#428DFF"/><path d="M42,26 L31,26 C30.4477153,26 30,25.5522847 30,25 C30,24.4477153 30.4477153,24 31,24 L42,24 C42.5522847,24 43,24.4477153 43,25 C43,25.5522847 42.5522847,26 42,26 Z" id="Shape" fill="#428DFF"/><path d="M55,26 L46,26 C45.4477153,26 45,25.5522847 45,25 C45,24.4477153 45.4477153,24 46,24 L55,24 C55.5522847,24 56,24.4477153 56,25 C56,25.5522847 55.5522847,26 55,26 Z" id="Shape" fill="#428DFF"/><path d="M55,30 L31,30 C30.4477153,30 30,29.5522847 30,29 C30,28.4477153 30.4477153,28 31,28 L55,28 C55.5522847,28 56,28.4477153 56,29 C56,29.5522847 55.5522847,30 55,30 Z" id="Shape" fill="#428DFF"/><path d="M38,34 L31,34 C30.4477153,34 30,33.5522847 30,33 C30,32.4477153 30.4477153,32 31,32 L38,32 C38.5522847,32 39,32.4477153 39,33 C39,33.5522847 38.5522847,34 38,34 Z" id="Shape" fill="#428DFF"/><path d="M55,34 L43,34 C42.4477153,34 42,33.5522847 42,33 C42,32.4477153 42.4477153,32 43,32 L55,32 C55.5522847,32 56,32.4477153 56,33 C56,33.5522847 55.5522847,34 55,34 Z" id="Shape" fill="#428DFF"/><path d="M15,18 L6,18 C5.44771525,18 5,17.5522847 5,17 C5,16.4477153 5.44771525,16 6,16 L15,16 C15.5522847,16 16,16.4477153 16,17 C16,17.5522847 15.5522847,18 15,18 Z" id="Shape" fill="#428DFF"/><path d="M21,18 L19,18 C18.4477153,18 18,17.5522847 18,17 C18,16.4477153 18.4477153,16 19,16 L21,16 C21.5522847,16 22,16.4477153 22,17 C22,17.5522847 21.5522847,18 21,18 Z" id="Shape" fill="#428DFF"/><circle id="Oval" fill="#428DFF" cx="31" cy="5" r="1"/><circle id="Oval" fill="#428DFF" cx="35" cy="5" r="1"/><circle id="Oval" fill="#428DFF" cx="39" cy="5" r="1"/></g></g></svg>
