<?xml version="1.0" encoding="UTF-8"?>
<!DOCTYPE svg  PUBLIC '-//W3C//DTD SVG 20010904//EN'  'http://www.w3.org/TR/2001/REC-SVG-20010904/DTD/svg10.dtd'>
<svg width="2362pt" height="2362pt" version="1.0" viewBox="0 0 2362.000000 2362.000000" xmlns="http://www.w3.org/2000/svg">
<g transform="translate(0 2362) scale(.1 -.1)" fill="#1e1e1e">
<path d="m14675 20984c-22-2-96-9-165-14-1113-95-2321-536-3510-1283-663-416-1052-734-1527-1249-1176-1274-1976-2824-2210-4284l-28-174-540-312-540-311-78-486c-43-267-78-493-77-501 0-9 242-144 649-360l649-345 27-105c37-142 112-369 170-514 55-140 158-366 187-414 11-18 19-35 17-36-5-4-528 305-709 419-1468 920-2220 1973-2346 3285-20 203-14 636 10 835 87 699 303 1369 690 2142l105 210-712 710c-392 390-746 742-788 782l-77 72-54-88c-84-136-129-214-222-392-471-895-802-1895-935-2826-59-409-66-519-66-1015 0-489 7-595 61-950 306-1998 1565-3639 3762-4904 375-216 521-289 822-411 802-326 1724-534 2710-611 267-22 954-25 1200-6 593 46 1129 140 1610 285 63 19 158 45 210 57 117 26 367 99 476 137l80 29 610-323c335-177 614-322 621-320 21 4 733 680 733 696 0 9-20 288-44 621l-44 605 93 110c131 156 230 290 344 467 55 84 153 231 218 326 137 200 123 202 143-25 16-184 17-1221 2-1433-45-602-119-1013-259-1445-333-1025-986-1779-1948-2250-641-313-1403-503-2298-572l-227-17-10-36c-25-95-510-2100-510-2109 0-14 304-14 533-1 1530 92 2960 538 4057 1265 1397 926 2278 2285 2631 4057 67 341 119 747 151 1183 20 278 16 1219-6 1445-129 1321-710 2860-1519 4025-262 377-507 674-812 984-333 339-646 604-966 818l-105 71-28 418c-15 231-31 430-35 442-5 19-96 72-446 258-242 128-445 234-452 234-6 0-197-107-425-238-227-132-423-244-436-251-19-10-42-8-130 13-383 91-900 140-1265 120-92-5-167-9-167-8 0 13 629 421 923 598 1212 731 2255 989 3287 811 417-71 887-252 1290-495 608-366 1198-927 1739-1655 61-82 122-163 134-180l23-29 1047 347c687 228 1047 352 1047 361 0 20-142 243-275 431-640 907-1421 1676-2285 2250-773 514-1597 848-2435 989-340 57-481 68-910 71-220 2-418 1-440-1zm-2355-5467c817-145 1489-623 1889-1342 152-273 252-570 302-896 27-173 32-541 10-699-83-603-326-1108-736-1529-426-437-945-700-1560-788-174-26-540-22-724 6-390 60-757 200-1071 409-178 119-281 202-420 342-342 340-583 763-700 1225-63 247-75 353-75 650 0 272 6 341 51 557 177 850 800 1588 1614 1911 351 139 623 188 1025 183 215-3 270-7 395-29z"/>
</g>
</svg>