<?xml version="1.0" encoding="UTF-8"?>
<svg xmlns="http://www.w3.org/2000/svg" xmlns:xlink="http://www.w3.org/1999/xlink" width="512" height="512" viewBox="0 0 60 60" version="1.1"><!-- Generator: Sketch 51.3 (57544) - http://www.bohemiancoding.com/sketch --><title>025 - Design</title><desc>Created with Sketch.</desc><defs/><g id="Page-1" stroke="none" stroke-width="1" fill="none" fill-rule="evenodd"><g id="025---Design" fill-rule="nonzero"><path d="M16.49,46.52 L11.812,48.859 C11.6194508,48.9554682 11.386765,48.9178046 11.2344802,48.7655198 C11.0821954,48.613235 11.0445318,48.3805492 11.141,48.188 L13.48,43.51 C14.23,43.68 16.54,42.837 17.062,43.359 C17.584,43.881 16.32,45.77 16.49,46.52 Z" id="Shape" fill="#7FACFA"/><path d="M42.9,43.49 C42.9513145,43.3555709 43.0295856,43.2330597 43.13,43.13 C43.4312256,42.8312597 43.8881681,42.7551026 44.27,42.94 C44.3697662,42.9881736 44.4609725,43.0523557 44.54,43.13 L47.43,46.02 L46.84,38.35 C43.5053321,36.6516877 40.4142801,34.5125048 37.65,31.99 L36.98,31.33 C37.2067804,31.55495 37.3958664,31.8149432 37.54,32.1 L36.78,32.86 L32.1,37.54 C31.8149432,37.3958664 31.55495,37.2067804 31.33,36.98 L31.99,37.65 C34.3268855,40.1738325 36.3207405,42.994818 37.92,46.04 C38.2,46.54 38.35,46.84 38.35,46.84 L46.02,47.43 L43.13,44.54 C42.8557529,44.2644615 42.766051,43.8549529 42.9,43.49 Z M41.18,41.18 C40.8944723,41.4672316 40.4638888,41.5538792 40.089484,41.3994478 C39.7150791,41.2450163 39.4707927,40.8800038 39.4707927,40.475 C39.4707927,40.0699962 39.7150791,39.7049837 40.089484,39.5505522 C40.4638888,39.3961208 40.8944723,39.4827684 41.18,39.77 C41.5677236,40.1600375 41.5677236,40.7899625 41.18,41.18 Z" id="Shape" fill="#CAD9FC"/><path d="M44.43,45.02 L44.27,42.94 L43.84,37.35 C41.3567498,36.0681334 38.9938881,34.5654069 36.78,32.86 L32.1,37.54 C31.8149432,37.3958664 31.55495,37.2067804 31.33,36.98 L31.99,37.65 C34.3268855,40.1738325 36.3207405,42.994818 37.92,46.04 L45.954,47 L44.43,45.02 Z" id="Shape" fill="#E8EDFC"/><path d="M36.63,36.63 L34.82,34.82 L37.54,32.1 C38.2487759,33.6478393 37.8815386,35.4759546 36.63,36.63 Z" id="Shape" fill="#E8EDFC"/><path d="M36.63,36.63 C35.4759546,37.8815386 33.6478393,38.2487759 32.1,37.54 L34.82,34.82 L36.63,36.63 Z" id="Shape" fill="#F0C419"/><path d="M36.63,36.63 C35.7759808,37.5194207 34.5696589,37.9814163 33.34,37.89 C32.9072115,37.858613 32.4853279,37.739533 32.1,37.54 C31.8149432,37.3958664 31.55495,37.2067804 31.33,36.98 L27.18,32.83 L24.35,30 L11.22,16.87 C10.0501865,15.6987298 10.0501865,13.8012702 11.22,12.63 L12.63,11.22 C13.8012702,10.0501865 15.6987298,10.0501865 16.87,11.22 L36.98,31.33 C37.2067804,31.55495 37.3958664,31.8149432 37.54,32.1 C38.2487759,33.6478393 37.8815386,35.4759546 36.63,36.63 Z" id="Shape" fill="#7FACFA"/><path d="M33.63,37.63 C33.5381175,37.7218591 33.4413079,37.8086538 33.34,37.89 C32.9072115,37.858613 32.4853279,37.739533 32.1,37.54 C31.8149432,37.3958664 31.55495,37.2067804 31.33,36.98 L27.18,32.83 L24.35,30 L11.22,16.87 C10.0501865,15.6987298 10.0501865,13.8012702 11.22,12.63 L12.42,11.43 C12.968996,11.5490896 13.4722629,11.8232833 13.87,12.22 L33.98,32.33 C34.2067804,32.55495 34.3958664,32.8149432 34.54,33.1 C35.2487759,34.6478393 34.8815386,36.4759546 33.63,37.63 Z" id="Shape" fill="#A4C2F7"/><rect id="Rectangle-path" fill="#CAD9FC" x="1" y="1" width="6" height="6" rx="1"/><rect id="Rectangle-path" fill="#CAD9FC" x="27" y="1" width="6" height="6" rx="1"/><rect id="Rectangle-path" fill="#CAD9FC" x="53" y="1" width="6" height="6" rx="1"/><rect id="Rectangle-path" fill="#CAD9FC" x="1" y="27" width="6" height="6" rx="1"/><rect id="Rectangle-path" fill="#CAD9FC" x="53" y="27" width="6" height="6" rx="1"/><rect id="Rectangle-path" fill="#CAD9FC" x="1" y="53" width="6" height="6" rx="1"/><rect id="Rectangle-path" fill="#E8EDFC" x="1" y="1" width="4" height="6" rx="1"/><rect id="Rectangle-path" fill="#E8EDFC" x="1" y="27" width="4" height="6" rx="1"/><rect id="Rectangle-path" fill="#E8EDFC" x="1" y="53" width="4" height="6" rx="1"/><rect id="Rectangle-path" fill="#CAD9FC" x="27" y="53" width="6" height="6" rx="1"/><rect id="Rectangle-path" fill="#E8EDFC" x="27" y="1" width="4" height="6" rx="1"/><rect id="Rectangle-path" fill="#E8EDFC" x="27" y="53" width="4" height="6" rx="1"/><rect id="Rectangle-path" fill="#CAD9FC" x="53" y="53" width="6" height="6" rx="1"/><rect id="Rectangle-path" fill="#E8EDFC" x="53" y="1" width="4" height="6" rx="1"/><rect id="Rectangle-path" fill="#E8EDFC" x="53" y="27" width="4" height="6" rx="1"/><rect id="Rectangle-path" fill="#E8EDFC" x="53" y="53" width="4" height="6" rx="1"/><path d="M48.65,17 L42.4,23.26 L40.44,21.22 L36.86,17.5 L43,11.35 C44.0558227,10.2935477 45.7293034,10.1782825 46.92,11.08 C47.0358461,11.158521 47.1431039,11.2490197 47.24,11.35 L48.65,12.76 C49.8198135,13.9312702 49.8198135,15.8287298 48.65,17 Z" id="Shape" fill="#7FACFA"/><path d="M46.65,15 L40.44,21.22 L36.86,17.5 L43,11.35 C44.0558227,10.2935477 45.7293034,10.1782825 46.92,11.08 C47.8217175,12.2706966 47.7064523,13.9441773 46.65,15 Z" id="Shape" fill="#A4C2F7"/><path d="M21.78,43.87 L16.49,46.52 C16.1505901,45.0204306 14.9795694,43.8494099 13.48,43.51 L14.09,42.3 L16.13,38.22 C16.74,38.42 19.88,38.61 20.81,38.92 C20.8761885,38.9393011 20.93994,38.9661438 21,39 C22.76,40.09 21.11,41.86 21.78,43.87 Z" id="Shape" fill="#CAD9FC"/><path d="M20.78,41.87 L15.49,44.52 C15.2938237,43.6404814 14.7991281,42.8560355 14.09,42.3 L16.13,38.22 C16.74,38.42 19.88,38.61 20.81,38.92 C20.5786076,39.888605 20.5683539,40.8968896 20.78,41.87 Z" id="Shape" fill="#E8EDFC"/><path d="M36.75,17.61 C36.7052805,17.6372235 36.6648414,17.6709227 36.63,17.71" id="Shape" fill="#D75E72"/><path d="M42.4,23.26 L42.29,23.37 L21.78,43.87 C20.8877167,41.2043453 18.7956547,39.1122833 16.13,38.22 L36.75,17.61 C36.7814957,17.5685034 36.8185034,17.5314957 36.86,17.5 C38.0524461,16.5304119 39.7853518,16.6211625 40.87,17.71 L41.58,18.42 L42.29,19.13 C43.4197843,20.2580786 43.4681337,22.0733812 42.4,23.26 Z" id="Shape" fill="#E8EDFC"/><path d="M42.4,23.26 L42.29,23.37 L21.78,43.87 C21.3444256,42.5530132 20.604395,41.3573156 19.62,40.38 L41.58,18.42 L42.29,19.13 C43.4197843,20.2580786 43.4681337,22.0733812 42.4,23.26 Z" id="Shape" fill="#CAD9FC"/><path d="M1.625,59.042 L4.625,59.042 C4.07271525,59.042 3.625,58.5942847 3.625,58.042 L3.625,54.042 C3.625,53.4897153 4.07271525,53.042 4.625,53.042 L1.625,53.042 C1.07271525,53.042 0.625,53.4897153 0.625,54.042 L0.625,58.042 C0.625,58.5942847 1.07271525,59.042 1.625,59.042 Z" id="Shape" fill="#FFFFFF"/><path d="M1.625,33.042 L4.625,33.042 C4.07271525,33.042 3.625,32.5942847 3.625,32.042 L3.625,28.042 C3.625,27.4897153 4.07271525,27.042 4.625,27.042 L1.625,27.042 C1.07271525,27.042 0.625,27.4897153 0.625,28.042 L0.625,32.042 C0.625,32.5942847 1.07271525,33.042 1.625,33.042 Z" id="Shape" fill="#FFFFFF"/><path d="M1.625,7.042 L4.625,7.042 C4.07271525,7.042 3.625,6.59428475 3.625,6.042 L3.625,2.042 C3.625,1.48971525 4.07271525,1.042 4.625,1.042 L1.625,1.042 C1.07271525,1.042 0.625,1.48971525 0.625,2.042 L0.625,6.042 C0.625,6.59428475 1.07271525,7.042 1.625,7.042 Z" id="Shape" fill="#FFFFFF"/><path d="M36.63,37.63 C36.3648052,37.6299434 36.1104927,37.5245494 35.923,37.337 L33.293,34.707 C32.9140278,34.3146211 32.9194476,33.6909152 33.3051814,33.3051814 C33.6909152,32.9194476 34.3146211,32.9140278 34.707,33.293 L37.337,35.923 C37.6229079,36.2089943 37.7084219,36.6390366 37.553678,37.0126546 C37.3989341,37.3862725 37.0343959,37.6299137 36.63,37.63 Z" id="Shape" fill="#428DFF"/><path d="M6,8 L2,8 C0.8954305,8 1.3527075e-16,7.1045695 0,6 L0,2 C-1.3527075e-16,0.8954305 0.8954305,2.02906125e-16 2,0 L6,0 C7.1045695,6.76353751e-17 8,0.8954305 8,2 L8,6 C8,7.1045695 7.1045695,8 6,8 Z M2,2 L2,6 L6,6 L6,2 L2,2 Z" id="Shape" fill="#428DFF"/><path d="M32,8 L28,8 C26.8954305,8 26,7.1045695 26,6 L26,2 C26,0.8954305 26.8954305,2.02906125e-16 28,0 L32,0 C33.1045695,6.76353751e-17 34,0.8954305 34,2 L34,6 C34,7.1045695 33.1045695,8 32,8 Z M28,2 L28,6 L32,6 L32,2 L28,2 Z" id="Shape" fill="#428DFF"/><path d="M58,8 L54,8 C52.8954305,8 52,7.1045695 52,6 L52,2 C52,0.8954305 52.8954305,2.02906125e-16 54,0 L58,0 C59.1045695,6.76353751e-17 60,0.8954305 60,2 L60,6 C60,7.1045695 59.1045695,8 58,8 Z M54,2 L54,6 L58,6 L58,2 L54,2 Z" id="Shape" fill="#428DFF"/><path d="M6,34 L2,34 C0.8954305,34 1.3527075e-16,33.1045695 0,32 L0,28 C-1.3527075e-16,26.8954305 0.8954305,26 2,26 L6,26 C7.1045695,26 8,26.8954305 8,28 L8,32 C8,33.1045695 7.1045695,34 6,34 Z M2,28 L2,32 L6,32 L6,28 L2,28 Z" id="Shape" fill="#428DFF"/><path d="M58,34 L54,34 C52.8954305,34 52,33.1045695 52,32 L52,28 C52,26.8954305 52.8954305,26 54,26 L58,26 C59.1045695,26 60,26.8954305 60,28 L60,32 C60,33.1045695 59.1045695,34 58,34 Z M54,28 L54,32 L58,32 L58,28 L54,28 Z" id="Shape" fill="#428DFF"/><path d="M6,60 L2,60 C0.8954305,60 1.3527075e-16,59.1045695 0,58 L0,54 C-1.3527075e-16,52.8954305 0.8954305,52 2,52 L6,52 C7.1045695,52 8,52.8954305 8,54 L8,58 C8,59.1045695 7.1045695,60 6,60 Z M2,54 L2,58 L6,58 L6,54 L2,54 Z" id="Shape" fill="#428DFF"/><path d="M32,60 L28,60 C26.8954305,60 26,59.1045695 26,58 L26,54 C26,52.8954305 26.8954305,52 28,52 L32,52 C33.1045695,52 34,52.8954305 34,54 L34,58 C34,59.1045695 33.1045695,60 32,60 Z M28,54 L28,58 L32,58 L32,54 L28,54 Z" id="Shape" fill="#428DFF"/><path d="M58,60 L54,60 C52.8954305,60 52,59.1045695 52,58 L52,54 C52,52.8954305 52.8954305,52 54,52 L58,52 C59.1045695,52 60,52.8954305 60,54 L60,58 C60,59.1045695 59.1045695,60 58,60 Z M54,54 L54,58 L58,58 L58,54 L54,54 Z" id="Shape" fill="#428DFF"/><path d="M4,28 C3.44771525,28 3,27.5522847 3,27 L3,7 C3,6.44771525 3.44771525,6 4,6 C4.55228475,6 5,6.44771525 5,7 L5,27 C5,27.5522847 4.55228475,28 4,28 Z" id="Shape" fill="#428DFF"/><path d="M4,54 C3.44771525,54 3,53.5522847 3,53 L3,33 C3,32.4477153 3.44771525,32 4,32 C4.55228475,32 5,32.4477153 5,33 L5,53 C5,53.5522847 4.55228475,54 4,54 Z" id="Shape" fill="#428DFF"/><path d="M56,28 C55.4477153,28 55,27.5522847 55,27 L55,7 C55,6.44771525 55.4477153,6 56,6 C56.5522847,6 57,6.44771525 57,7 L57,27 C57,27.5522847 56.5522847,28 56,28 Z" id="Shape" fill="#428DFF"/><path d="M56,54 C55.4477153,54 55,53.5522847 55,53 L55,33 C55,32.4477153 55.4477153,32 56,32 C56.5522847,32 57,32.4477153 57,33 L57,53 C57,53.5522847 56.5522847,54 56,54 Z" id="Shape" fill="#428DFF"/><path d="M53,5 L33,5 C32.4477153,5 32,4.55228475 32,4 C32,3.44771525 32.4477153,3 33,3 L53,3 C53.5522847,3 54,3.44771525 54,4 C54,4.55228475 53.5522847,5 53,5 Z" id="Shape" fill="#428DFF"/><path d="M27,5 L7,5 C6.44771525,5 6,4.55228475 6,4 C6,3.44771525 6.44771525,3 7,3 L27,3 C27.5522847,3 28,3.44771525 28,4 C28,4.55228475 27.5522847,5 27,5 Z" id="Shape" fill="#428DFF"/><path d="M53,57 L33,57 C32.4477153,57 32,56.5522847 32,56 C32,55.4477153 32.4477153,55 33,55 L53,55 C53.5522847,55 54,55.4477153 54,56 C54,56.5522847 53.5522847,57 53,57 Z" id="Shape" fill="#428DFF"/><path d="M27,57 L7,57 C6.44771525,57 6,56.5522847 6,56 C6,55.4477153 6.44771525,55 7,55 L27,55 C27.5522847,55 28,55.4477153 28,56 C28,56.5522847 27.5522847,57 27,57 Z" id="Shape" fill="#428DFF"/><path d="M10.469,50.531 C10.122382,50.5311616 9.8004002,50.3518177 9.61806841,50.0570309 C9.43573661,49.7622442 9.41906168,49.3940616 9.574,49.084 L15.231,37.77 C15.2789603,37.6738498 15.3421032,37.5860575 15.418,37.51 L42.289,10.641 C43.8711292,9.12886121 46.3628708,9.12886121 47.945,10.641 L49.359,12.055 C50.9205278,13.6169994 50.9205278,16.1490006 49.359,17.711 L22.49,44.582 C22.4139425,44.6578968 22.3261502,44.7210397 22.23,44.769 L10.916,50.426 C10.7771611,50.4951972 10.6241273,50.5311447 10.469,50.531 Z M16.947,38.81 L12.705,47.3 L21.19,43.058 L47.945,16.3 C48.7257639,15.5190003 48.7257639,14.2529997 47.945,13.472 L46.531,12.058 C45.739833,11.302186 44.494167,11.302186 43.703,12.058 L16.947,38.81 Z" id="Shape" fill="#428DFF"/><path d="M42.289,24.368 C41.8846041,24.3679137 41.5200659,24.1242725 41.365322,23.7506546 C41.2105781,23.3770366 41.2960921,22.9469943 41.582,22.661 C42.3627639,21.8800003 42.3627639,20.6139997 41.582,19.833 L40.167,18.418 C39.3860003,17.6372361 38.1199997,17.6372361 37.339,18.418 C36.9474301,18.8084653 36.3134653,18.8075699 35.923,18.416 C35.5325347,18.0244301 35.5334301,17.3904653 35.925,17 C37.4884816,15.4411112 40.0185184,15.4411112 41.582,17 L43,18.418 C44.5588888,19.9814816 44.5588888,22.5115184 43,24.075 C42.8115283,24.2635324 42.5555803,24.3690075 42.289,24.368 Z" id="Shape" fill="#428DFF"/><polygon id="Shape" fill="#FFFFFF" points="11.927 16.163 21.12 25.355 25.057 29.293 23.643 30.707 19.705 26.77 10.513 17.577"/><path d="M14.756,20.406 C15.1437625,20.0140293 15.1437625,19.3829707 14.756,18.991 L11.927,16.163 L10.513,17.577 L13.341,20.406 C13.7329707,20.7937625 14.3640293,20.7937625 14.756,20.406 Z" id="Shape" fill="#428DFF"/><path d="M23.643,30.707 L25.057,29.293 L20.412,24.648 C20.1631684,24.3780329 19.7864075,24.2661326 19.430553,24.3565041 C19.0746986,24.4468757 18.7969831,24.7249846 18.7071153,25.0809666 C18.6172475,25.4369486 18.729681,25.8135507 19,26.062 L23.643,30.707 Z" id="Shape" fill="#428DFF"/><path d="M17.584,21.82 C17.3945618,21.6344748 17.1420523,21.5273279 16.877,21.52 L16.686,21.541 C16.6197996,21.5533531 16.5555586,21.5745425 16.495,21.604 C16.4343944,21.6241073 16.3771049,21.653089 16.325,21.69 C16.2701428,21.7282823 16.2183222,21.7707418 16.17,21.817 C15.9843071,22.0063263 15.8771309,22.2589048 15.87,22.524 C15.8635179,22.8607591 16.02956,23.1774823 16.310217,23.3637089 C16.590874,23.5499355 16.9472293,23.5798427 17.255,23.443 C17.3767121,23.3947709 17.4875516,23.3226912 17.581,23.231 C17.7709589,23.0448023 17.8779986,22.7899961 17.8779986,22.524 C17.8779986,22.2580039 17.7709589,22.0031977 17.581,21.817 L17.584,21.82 Z" id="Shape" fill="#428DFF"/><path d="M30,25.35 C29.7348052,25.3499434 29.4804927,25.2445494 29.293,25.057 L16.163,11.927 C15.3718929,11.172968 14.1281071,11.172968 13.337,11.927 L11.927,13.337 C11.1475681,14.1177702 11.1475681,15.3822298 11.927,16.163 C12.3059722,16.5553789 12.3005524,17.1790848 11.9148186,17.5648186 C11.5290848,17.9505524 10.9053789,17.9559722 10.513,17.577 C8.95280471,16.0152299 8.95280471,13.4847701 10.513,11.923 L11.923,10.513 C13.4847701,8.95280471 16.0152299,8.95280471 17.577,10.513 L30.707,23.643 C30.9929079,23.9289943 31.0784219,24.3590366 30.923678,24.7326546 C30.7689341,25.1062725 30.4043959,25.3499137 30,25.35 Z" id="Shape" fill="#428DFF"/><path d="M37.65,32.99 C37.3880856,32.9896949 37.1367449,32.8866453 36.95,32.703 L34.945,30.703 C34.5660278,30.3106211 34.5714476,29.6869152 34.9571814,29.3011814 C35.3429152,28.9154476 35.9666211,28.9100278 36.359,29.289 L38.354,31.274 C38.6425964,31.5586139 38.730842,31.9892863 38.5774388,32.3644668 C38.4240355,32.7396473 38.0593297,32.9851176 37.654,32.986 L37.65,32.99 Z" id="Shape" fill="#428DFF"/><path d="M31.99,38.65 C31.7220598,38.6494252 31.4655579,38.5413486 31.278,38.35 L29.293,36.355 C28.9140278,35.9626211 28.9194476,35.3389152 29.3051814,34.9531814 C29.6909152,34.5674476 30.3146211,34.5620278 30.707,34.941 L32.707,36.946 C32.9887049,37.233396 33.0706839,37.661656 32.9150335,38.032772 C32.7593831,38.4038879 32.396435,38.6455403 31.994,38.646 L31.99,38.65 Z" id="Shape" fill="#428DFF"/><path d="M21.783,44.875 C21.3523926,44.8751037 20.9700719,44.5995428 20.834,44.191 C20.0378717,41.8217972 18.1782028,39.9621283 15.809,39.166 C15.4695977,39.0529254 15.2163016,38.7673713 15.1445259,38.416903 C15.0727502,38.0664347 15.1933993,37.7042967 15.4610259,37.466903 C15.7286525,37.2295092 16.1025977,37.1529254 16.442,37.266 C19.407605,38.261666 21.735334,40.589395 22.731,43.555 C22.8329193,43.8599302 22.7820086,44.1952668 22.594179,44.4562074 C22.4063493,44.717148 22.104512,44.8718632 21.783,44.872 L21.783,44.875 Z" id="Shape" fill="#428DFF"/><path d="M16.492,47.519 C16.0253396,47.5184055 15.6211316,47.1951221 15.518,46.74 C15.2599567,45.6169688 14.3830312,44.7400433 13.26,44.482 C12.7330763,44.3496911 12.4081791,43.8208897 12.5282763,43.2910493 C12.6483735,42.7612089 13.1695258,42.4241787 13.702,42.532 C15.5756965,42.9625038 17.038491,44.4260752 17.468,46.3 C17.5352235,46.5966573 17.4637685,46.9077838 17.2738447,47.1453832 C17.0839208,47.3829826 16.7961784,47.5212209 16.492,47.521 L16.492,47.519 Z" id="Shape" fill="#428DFF"/><path d="M19.661,41.339 C19.2566041,41.3389137 18.8920659,41.0952725 18.737322,40.7216546 C18.5825781,40.3480366 18.6680921,39.9179943 18.954,39.632 L29.561,29.025 C29.9533789,28.6460278 30.5770848,28.6514476 30.9628186,29.0371814 C31.3485524,29.4229152 31.3539722,30.0466211 30.975,30.439 L20.368,41.046 C20.1805073,41.2335494 19.9261948,41.3389434 19.661,41.339 Z" id="Shape" fill="#428DFF"/><path d="M33.1,27.9 C32.6956041,27.8999137 32.3310659,27.6562725 32.176322,27.2826546 C32.0215781,26.9090366 32.1070921,26.4789943 32.393,26.193 L40.879,17.707 C41.2713789,17.3280278 41.8950848,17.3334476 42.2808186,17.7191814 C42.6665524,18.1049152 42.6719722,18.7286211 42.293,19.121 L33.8,27.611 C33.6135777,27.7953778 33.3621979,27.8991617 33.1,27.9 Z" id="Shape" fill="#428DFF"/><path d="M47.545,48.545 L47.468,48.545 L38.276,47.838 C37.9256389,47.8111189 37.6150962,47.6023188 37.458,47.288 C35.8050742,44.0496413 33.7281423,41.045892 31.282,38.356 C31.0286987,38.1026987 30.9297732,37.733504 31.022488,37.387488 C31.1152027,37.0414719 31.3854719,36.7712027 31.731488,36.678488 C32.077504,36.5857732 32.4466987,36.6846987 32.7,36.938 C35.185625,39.6258295 37.3003925,42.634194 38.988,45.883 L46.462,46.458 L45.887,38.984 C42.6370223,37.2979359 39.6273078,35.1845102 36.938,32.7 C36.5475347,32.3092585 36.5477585,31.6759653 36.9385,31.2855 C37.3292415,30.8950347 37.9625347,30.8952585 38.353,31.286 C41.042892,33.7321423 44.0466413,35.8090742 47.285,37.462 C47.5993188,37.6190962 47.8081189,37.9296389 47.835,38.28 L48.542,47.472 C48.563493,47.7502854 48.4677032,48.0248896 48.277787,48.2294294 C48.0878707,48.4339692 47.8211129,48.5498288 47.542,48.549 L47.545,48.545 Z" id="Shape" fill="#428DFF"/><path d="M48.075,49.075 C47.8096514,49.0757185 47.5550531,48.9702061 47.368,48.782 L43.126,44.54 C42.7470278,44.1476211 42.7524476,43.5239152 43.1381814,43.1381814 C43.5239152,42.7524476 44.1476211,42.7470278 44.54,43.126 L48.782,47.368 C49.0679079,47.6539943 49.1534219,48.0840366 48.998678,48.4576546 C48.8439341,48.8312725 48.4793959,49.0749137 48.075,49.075 Z" id="Shape" fill="#428DFF"/><circle id="Oval" fill="#428DFF" cx="40.474" cy="40.474" r="1"/></g></g></svg>
