<?xml version="1.0" encoding="UTF-8"?>
<svg xmlns="http://www.w3.org/2000/svg" xmlns:xlink="http://www.w3.org/1999/xlink" width="512" height="512" viewBox="0 0 60 60" version="1.1"><!-- Generator: Sketch 51.3 (57544) - http://www.bohemiancoding.com/sketch --><title>014 - On Screen keyboard</title><desc>Created with Sketch.</desc><defs/><g id="Page-1" stroke="none" stroke-width="1" fill="none" fill-rule="evenodd"><g id="014---On-Screen-keyboard" fill-rule="nonzero"><path d="M55,38 L55,45 C54.9905034,46.0718272 54.5550394,47.0958545 53.7896466,47.8462396 C53.0242539,48.5966246 51.9918051,49.0117275 50.92,49 L5.08,49 C4.00819487,49.0117275 2.97574612,48.5966246 2.21035337,47.8462396 C1.44496063,47.0958545 1.00949662,46.0718272 1,45 L1,5 C1.00949662,3.92817278 1.44496063,2.90414549 2.21035337,2.15376044 C2.97574612,1.4033754 4.00819487,0.988272536 5.08,1 L50.92,1 C51.9918051,0.988272536 53.0242539,1.4033754 53.7896466,2.15376044 C54.5550394,2.90414549 54.9905034,3.92817278 55,5 L55,22" id="Shape" fill="#CAD9FC"/><path d="M55,5 L55,9.18 C14.39,16.41 8.07,37.21 7.15,42 L1,42 L1,5 C1.00949662,3.92817278 1.44496063,2.90414549 2.21035337,2.15376044 C2.97574612,1.4033754 4.00819487,0.988272536 5.08,1 L50.92,1 C51.9918051,0.988272536 53.0242539,1.4033754 53.7896466,2.15376044 C54.5550394,2.90414549 54.9905034,3.92817278 55,5 Z" id="Shape" fill="#E8EDFC"/><path d="M50.92,50 L5.08,50 C2.29779368,50.018862 0.025299605,47.7821552 0,45 L0,5 C0.025299605,2.21784477 2.29779368,-0.0188619946 5.08,8.88191972e-16 L50.92,8.88191972e-16 C53.7022063,-0.0188619946 55.9747004,2.21784477 56,5 L56,45 C55.9747004,47.7821552 53.7022063,50.018862 50.92,50 Z M5.08,2 C3.40210154,1.98053093 2.02468525,3.32217017 2,5 L2,45 C2.02468525,46.6778298 3.40210154,48.0194691 5.08,48 L50.92,48 C52.5978985,48.0194691 53.9753148,46.6778298 54,45 L54,5 C53.9753148,3.32217017 52.5978985,1.98053093 50.92,2 L5.08,2 Z" id="Shape" fill="#41767F"/><rect id="Rectangle-path" fill="#7FACFA" x="21" y="48" width="14" height="8"/><rect id="Rectangle-path" fill="#A4C2F7" x="19" y="22" width="40" height="16" rx="2"/><rect id="Rectangle-path" fill="#CAD9FC" x="19" y="22" width="37" height="16" rx="2"/><rect id="Rectangle-path" fill="#E8EDFC" x="7" y="6" width="42" height="12" rx="2"/><path d="M45,58 L45,59 L11,59 L11,58 C11,56.3431458 12.3431458,55 14,55 L42,55 C43.6568542,55 45,56.3431458 45,58 Z" id="Shape" fill="#7FACFA"/><path d="M55,42 L55,45 C54.9905034,46.0718272 54.5550394,47.0958545 53.7896466,47.8462396 C53.0242539,48.5966246 51.9918051,49.0117275 50.92,49 L5.08,49 C4.00819487,49.0117275 2.97574612,48.5966246 2.21035337,47.8462396 C1.44496063,47.0958545 1.00949662,46.0718272 1,45 L1,42 L55,42 Z" id="Shape" fill="#7FACFA"/><rect id="Rectangle-path" fill="#A4C2F7" x="21" y="48" width="11" height="8"/><path d="M42,58 L42,59 L11,59 L11,58 C11,56.3431458 12.3431458,55 14,55 L39,55 C40.6568542,55 42,56.3431458 42,58 Z" id="Shape" fill="#CAD9FC"/><path d="M52,42 L52,45 C51.9905034,46.0718272 51.5550394,47.0958545 50.7896466,47.8462396 C50.0242539,48.5966246 48.9918051,49.0117275 47.92,49 L5.08,49 C4.00819487,49.0117275 2.97574612,48.5966246 2.21035337,47.8462396 C1.44496063,47.0958545 1.00949662,46.0718272 1,45 L1,42 L52,42 Z" id="Shape" fill="#CAD9FC"/><path d="M14,58 C14,56.3431458 15.3431458,55 17,55 L14,55 C12.3431458,55 11,56.3431458 11,58 L11,59 L14,59 L14,58 Z" id="Shape" fill="#FFFFFF"/><path d="M5.08,50 L8.08,50.0001184 C5.29779368,50.018862 3.0252996,47.7821552 3,45 L3,5 C3.0252996,2.21784477 5.29779368,-0.0188619946 8.08,-0.000118424128 L5.08,8.8817842e-16 C2.29779368,-0.0188619946 0.025299605,2.21784477 0,5 L0,45 C0.025299605,47.7821552 2.29779368,50.018862 5.08,50 Z" id="Shape" fill="#FFFFFF"/><polygon id="Shape" fill="#FFFFFF" points="2 5 2 18 2 45 0 45 0 18 0 5"/><path d="M1,10 C1.55228475,10 2,9.55228475 2,9 L2,5 L0,5 L0,9 C6.76353751e-17,9.55228475 0.44771525,10 1,10 Z" id="Shape" fill="#428DFF"/><path d="M0,45 L2,45 L2,17 C2,16.4477153 1.55228475,16 1,16 C0.44771525,16 6.76353751e-17,16.4477153 0,17 L0,45 Z" id="Shape" fill="#428DFF"/><path d="M2,13 C1.99611961,12.7352731 1.89256504,12.481743 1.71,12.29 L1.56,12.17 C1.50427287,12.1321227 1.44373808,12.1018554 1.38,12.08 C1.32333758,12.0511123 1.26266255,12.0308873 1.2,12.02 C1.13385548,12.0088692 1.06703885,12.0021875 1,12 C0.735273141,12.0038804 0.481742984,12.107435 0.29,12.29 C0.199603156,12.3856071 0.12832305,12.4976187 0.08,12.62 C-0.0708765757,12.9929737 0.0113519394,13.4197788 0.29,13.71 C0.385607086,13.8003968 0.497618681,13.871677 0.62,13.92 C0.740222313,13.971241 0.869322743,13.99842 1,14 C1.26472686,13.9961196 1.51825702,13.892565 1.71,13.71 C1.89256504,13.518257 1.99611961,13.2647269 2,13 Z" id="Shape" fill="#428DFF"/><path d="M55,23 C54.4477153,23 54,22.5522847 54,22 L54,5 C53.9753148,3.32217017 52.5978985,1.98053093 50.92,2 L5.08,2 C3.40210154,1.98053093 2.02468525,3.32217017 2,5 C1.99999999,5.55228474 1.55228474,5.99999998 1,5.99999998 C0.447715258,5.99999998 1.16385305e-08,5.55228474 0,5 C0.025299605,2.21784477 2.29779368,-0.0188619946 5.08,-8.8817842e-16 L50.92,-8.8817842e-16 C53.7022063,-0.0188619946 55.9747004,2.21784477 56,5 L56,22 C56,22.5522847 55.5522847,23 55,23 Z" id="Shape" fill="#428DFF"/><path d="M50.92,50 L5.08,50 C2.29779368,50.018862 0.025299605,47.7821552 0,45 C-6.76353751e-17,44.4477153 0.44771525,44 1,44 C1.55228475,44 2,44.4477153 2,45 C2.02468525,46.6778298 3.40210154,48.0194691 5.08,48 L50.92,48 C52.5978985,48.0194691 53.9753148,46.6778298 54,45 L54,38 C54,37.4477153 54.4477153,37 55,37 C55.5522847,37 56,37.4477153 56,38 L56,45 C55.9747004,47.7821552 53.7022063,50.018862 50.92,50 Z" id="Shape" fill="#428DFF"/><path d="M45,60 L11,60 C10.4477153,60 10,59.5522847 10,59 L10,58 C10,55.790861 11.790861,54 14,54 L42,54 C44.209139,54 46,55.790861 46,58 L46,59 C46,59.5522847 45.5522847,60 45,60 Z M12,58 L44,58 C44,56.8954305 43.1045695,56 42,56 L14,56 C12.8954305,56 12,56.8954305 12,58 Z" id="Shape" fill="#428DFF"/><path d="M35,56 L21,56 C20.4477153,56 20,55.5522847 20,55 L20,49 C20,48.4477153 20.4477153,48 21,48 L35,48 C35.5522847,48 36,48.4477153 36,49 L36,55 C36,55.5522847 35.5522847,56 35,56 Z M22,54 L34,54 L34,50 L22,50 L22,54 Z" id="Shape" fill="#428DFF"/><path d="M55,43 L1,43 C0.44771525,43 6.76353751e-17,42.5522847 0,42 C-6.76353751e-17,41.4477153 0.44771525,41 1,41 L55,41 C55.5522847,41 56,41.4477153 56,42 C56,42.5522847 55.5522847,43 55,43 Z" id="Shape" fill="#428DFF"/><path d="M57,39 L21,39 C19.3431458,39 18,37.6568542 18,36 L18,24 C18,22.3431458 19.3431458,21 21,21 L57,21 C58.6568542,21 60,22.3431458 60,24 L60,36 C60,37.6568542 58.6568542,39 57,39 Z M21,23 C20.4477153,23 20,23.4477153 20,24 L20,36 C20,36.5522847 20.4477153,37 21,37 L57,37 C57.5522847,37 58,36.5522847 58,36 L58,24 C58,23.4477153 57.5522847,23 57,23 L21,23 Z" id="Shape" fill="#428DFF"/><path d="M25,27 L24,27 C23.4477153,27 23,26.5522847 23,26 C23,25.4477153 23.4477153,25 24,25 L25,25 C25.5522847,25 26,25.4477153 26,26 C26,26.5522847 25.5522847,27 25,27 Z" id="Shape" fill="#428DFF"/><path d="M30,27 L29,27 C28.4477153,27 28,26.5522847 28,26 C28,25.4477153 28.4477153,25 29,25 L30,25 C30.5522847,25 31,25.4477153 31,26 C31,26.5522847 30.5522847,27 30,27 Z" id="Shape" fill="#428DFF"/><path d="M35,27 L34,27 C33.4477153,27 33,26.5522847 33,26 C33,25.4477153 33.4477153,25 34,25 L35,25 C35.5522847,25 36,25.4477153 36,26 C36,26.5522847 35.5522847,27 35,27 Z" id="Shape" fill="#428DFF"/><path d="M40,27 L39,27 C38.4477153,27 38,26.5522847 38,26 C38,25.4477153 38.4477153,25 39,25 L40,25 C40.5522847,25 41,25.4477153 41,26 C41,26.5522847 40.5522847,27 40,27 Z" id="Shape" fill="#428DFF"/><path d="M45,27 L44,27 C43.4477153,27 43,26.5522847 43,26 C43,25.4477153 43.4477153,25 44,25 L45,25 C45.5522847,25 46,25.4477153 46,26 C46,26.5522847 45.5522847,27 45,27 Z" id="Shape" fill="#428DFF"/><path d="M50,27 L49,27 C48.4477153,27 48,26.5522847 48,26 C48,25.4477153 48.4477153,25 49,25 L50,25 C50.5522847,25 51,25.4477153 51,26 C51,26.5522847 50.5522847,27 50,27 Z" id="Shape" fill="#428DFF"/><path d="M55,27 L54,27 C53.4477153,27 53,26.5522847 53,26 C53,25.4477153 53.4477153,25 54,25 L55,25 C55.5522847,25 56,25.4477153 56,26 C56,26.5522847 55.5522847,27 55,27 Z" id="Shape" fill="#428DFF"/><path d="M25,31 L24,31 C23.4477153,31 23,30.5522847 23,30 C23,29.4477153 23.4477153,29 24,29 L25,29 C25.5522847,29 26,29.4477153 26,30 C26,30.5522847 25.5522847,31 25,31 Z" id="Shape" fill="#428DFF"/><path d="M30,31 L29,31 C28.4477153,31 28,30.5522847 28,30 C28,29.4477153 28.4477153,29 29,29 L30,29 C30.5522847,29 31,29.4477153 31,30 C31,30.5522847 30.5522847,31 30,31 Z" id="Shape" fill="#428DFF"/><path d="M35,31 L34,31 C33.4477153,31 33,30.5522847 33,30 C33,29.4477153 33.4477153,29 34,29 L35,29 C35.5522847,29 36,29.4477153 36,30 C36,30.5522847 35.5522847,31 35,31 Z" id="Shape" fill="#428DFF"/><path d="M40,31 L39,31 C38.4477153,31 38,30.5522847 38,30 C38,29.4477153 38.4477153,29 39,29 L40,29 C40.5522847,29 41,29.4477153 41,30 C41,30.5522847 40.5522847,31 40,31 Z" id="Shape" fill="#428DFF"/><path d="M45,31 L44,31 C43.4477153,31 43,30.5522847 43,30 C43,29.4477153 43.4477153,29 44,29 L45,29 C45.5522847,29 46,29.4477153 46,30 C46,30.5522847 45.5522847,31 45,31 Z" id="Shape" fill="#428DFF"/><path d="M50,31 L49,31 C48.4477153,31 48,30.5522847 48,30 C48,29.4477153 48.4477153,29 49,29 L50,29 C50.5522847,29 51,29.4477153 51,30 C51,30.5522847 50.5522847,31 50,31 Z" id="Shape" fill="#428DFF"/><path d="M55,31 L54,31 C53.4477153,31 53,30.5522847 53,30 C53,29.4477153 53.4477153,29 54,29 L55,29 C55.5522847,29 56,29.4477153 56,30 C56,30.5522847 55.5522847,31 55,31 Z" id="Shape" fill="#428DFF"/><path d="M25,35 L24,35 C23.4477153,35 23,34.5522847 23,34 C23,33.4477153 23.4477153,33 24,33 L25,33 C25.5522847,33 26,33.4477153 26,34 C26,34.5522847 25.5522847,35 25,35 Z" id="Shape" fill="#428DFF"/><path d="M30,35 L29,35 C28.4477153,35 28,34.5522847 28,34 C28,33.4477153 28.4477153,33 29,33 L30,33 C30.5522847,33 31,33.4477153 31,34 C31,34.5522847 30.5522847,35 30,35 Z" id="Shape" fill="#428DFF"/><path d="M45,35 L34,35 C33.4477153,35 33,34.5522847 33,34 C33,33.4477153 33.4477153,33 34,33 L45,33 C45.5522847,33 46,33.4477153 46,34 C46,34.5522847 45.5522847,35 45,35 Z" id="Shape" fill="#428DFF"/><path d="M50,35 L49,35 C48.4477153,35 48,34.5522847 48,34 C48,33.4477153 48.4477153,33 49,33 L50,33 C50.5522847,33 51,33.4477153 51,34 C51,34.5522847 50.5522847,35 50,35 Z" id="Shape" fill="#428DFF"/><path d="M55,35 L54,35 C53.4477153,35 53,34.5522847 53,34 C53,33.4477153 53.4477153,33 54,33 L55,33 C55.5522847,33 56,33.4477153 56,34 C56,34.5522847 55.5522847,35 55,35 Z" id="Shape" fill="#428DFF"/><path d="M47,19 L9,19 C7.34314575,19 6,17.6568542 6,16 L6,8 C6,6.34314575 7.34314575,5 9,5 L47,5 C48.6568542,5 50,6.34314575 50,8 L50,16 C50,17.6568542 48.6568542,19 47,19 Z M9,7 C8.44771525,7 8,7.44771525 8,8 L8,16 C8,16.5522847 8.44771525,17 9,17 L47,17 C47.5522847,17 48,16.5522847 48,16 L48,8 C48,7.44771525 47.5522847,7 47,7 L9,7 Z" id="Shape" fill="#428DFF"/><path d="M14,10 L12,10 C11.4477153,10 11,9.55228475 11,9 C11,8.44771525 11.4477153,8 12,8 L14,8 C14.5522847,8 15,8.44771525 15,9 C15,9.55228475 14.5522847,10 14,10 Z" id="Shape" fill="#428DFF"/><path d="M14,16 L12,16 C11.4477153,16 11,15.5522847 11,15 C11,14.4477153 11.4477153,14 12,14 L14,14 C14.5522847,14 15,14.4477153 15,15 C15,15.5522847 14.5522847,16 14,16 Z" id="Shape" fill="#428DFF"/><path d="M13,16 C12.4477153,16 12,15.5522847 12,15 L12,9 C12,8.44771525 12.4477153,8 13,8 C13.5522847,8 14,8.44771525 14,9 L14,15 C14,15.5522847 13.5522847,16 13,16 Z" id="Shape" fill="#428DFF"/><path d="M19,16 L18,16 C17.4477153,16 17,15.5522847 17,15 C17,14.4477153 17.4477153,14 18,14 L19,14 C19.5522847,14 20,14.4477153 20,15 C20,15.5522847 19.5522847,16 19,16 Z" id="Shape" fill="#428DFF"/><path d="M24,16 L23,16 C22.4477153,16 22,15.5522847 22,15 C22,14.4477153 22.4477153,14 23,14 L24,14 C24.5522847,14 25,14.4477153 25,15 C25,15.5522847 24.5522847,16 24,16 Z" id="Shape" fill="#428DFF"/><path d="M29,16 L28,16 C27.4477153,16 27,15.5522847 27,15 C27,14.4477153 27.4477153,14 28,14 L29,14 C29.5522847,14 30,14.4477153 30,15 C30,15.5522847 29.5522847,16 29,16 Z" id="Shape" fill="#428DFF"/><path d="M34,16 L33,16 C32.4477153,16 32,15.5522847 32,15 C32,14.4477153 32.4477153,14 33,14 L34,14 C34.5522847,14 35,14.4477153 35,15 C35,15.5522847 34.5522847,16 34,16 Z" id="Shape" fill="#428DFF"/><path d="M39,16 L38,16 C37.4477153,16 37,15.5522847 37,15 C37,14.4477153 37.4477153,14 38,14 L39,14 C39.5522847,14 40,14.4477153 40,15 C40,15.5522847 39.5522847,16 39,16 Z" id="Shape" fill="#428DFF"/><path d="M44,16 L43,16 C42.4477153,16 42,15.5522847 42,15 C42,14.4477153 42.4477153,14 43,14 L44,14 C44.5522847,14 45,14.4477153 45,15 C45,15.5522847 44.5522847,16 44,16 Z" id="Shape" fill="#428DFF"/></g></g></svg>
