<svg viewBox="0 0 246 296.83" xmlns="http://www.w3.org/2000/svg" fill="#fff"><path d="m0 116.3v64.7c0 7.84 6.31 15.45 14.09 16.36a16 16 0 0 0 17.91-15.91v-65.62a16 16 0 0 0 -17.91-15.89c-7.78.91-14.09 8.52-14.09 16.36z"/><path d="m214 116.3v64.7c0 7.84 6.31 15.45 14.1 16.36a16 16 0 0 0 17.9-15.91v-65.62a16 16 0 0 0 -17.9-15.89c-7.79.91-14.1 8.52-14.1 16.36z"/><rect height="194.88" rx="16.5" width="33" x="53" y="51.05"/><path d="m176.5 51.05a16.55 16.55 0 0 0 -16.5 16.5v161.88a16.55 16.55 0 0 0 16.5 16.5 16.55 16.55 0 0 0 16.5-16.5v-161.88a16.55 16.55 0 0 0 -16.5-16.5z"/><path d="m123 0a17 17 0 0 0 -17 17v262.83a17 17 0 0 0 17 17 17 17 0 0 0 17-17v-262.83a17 17 0 0 0 -17-17z"/></svg>
