<svg width="374px" height="242px" viewBox="0 0 374 242" version="1.1" xmlns="http://www.w3.org/2000/svg" xmlns:xlink="http://www.w3.org/1999/xlink">
    <g id="Artboard-2" stroke="none" stroke-width="1" fill="none" fill-rule="evenodd" transform="translate(-929.000000, -55.000000)">
        <g id="icon-inksoft-plus" transform="translate(930.000000, 55.000000)">
            <path d="M306.4,240.9 C331.6,215.4 347.2,180.4 347.2,141.7 C347.2,63.8 284,0.6 206.1,0.6 C128.2,0.6 65,63.8 65,141.7 C65,180.4 80.6,215.4 105.8,240.9 L306.4,240.9 Z" id="Shape" fill="#FFE7C0" fill-rule="nonzero"></path>
            <path d="M59.4,240.7 C59.4,234.2 64.7,228.9 71.2,228.9 C77.7,228.9 83,234.2 83,240.7" id="Shape" fill="#B2FF59" fill-rule="nonzero"></path>
            <path d="M59.4,240.7 C59.4,234.2 64.7,228.9 71.2,228.9 C77.7,228.9 83,234.2 83,240.7" id="Shape" fill="#BBDEFB" fill-rule="nonzero"></path>
            <path d="M59.4,240.7 C59.4,234.2 64.7,228.9 71.2,228.9 C77.7,228.9 83,234.2 83,240.7" id="Shape" stroke="#37474F" stroke-width="2"></path>
            <path d="M347.4,240.6 L254.7,240.6 C250.8,240.6 247.6,237.4 247.6,233.5 L247.6,114.5 C247.6,110.6 250.8,107.4 254.7,107.4 L347.4,107.4 C351.3,107.4 354.5,110.6 354.5,114.5 L354.5,233.5 C354.4,237.4 351.3,240.6 347.4,240.6 Z" id="Shape" fill="#FFFFFF" fill-rule="nonzero"></path>
            <path d="M354.8,101.8 C354.5,101.7 354.2,101.7 353.9,101.7 L248.1,101.7 C245.6,101.7 243.6,103.7 243.6,106.2 C243.6,108.7 245.6,110.7 248.1,110.7 L353.9,110.7 C354.2,110.7 354.5,110.7 354.8,110.6 L354.8,101.8 Z" id="Shape" fill="#BBDEFB" fill-rule="nonzero"></path>
            <path d="M354.4,236.8 L354.4,103.3 C354.4,101.2 351.7,99.5 348.3,99.5 L253.6,99.5 C250.2,99.5 247.5,101.2 247.5,103.3 L247.5,236.7 C247.5,238.8 250.2,240.5 253.6,240.5 L348.3,240.5 C351.7,240.6 354.4,238.9 354.4,236.8 Z" id="Shape" stroke="#37474F" stroke-width="2"></path>
            <path d="M353.9,106.1 L248.1,106.1 C245.6,106.1 243.6,104.1 243.6,101.6 C243.6,99.1 245.6,97.1 248.1,97.1 L353.9,97.1 C356.4,97.1 358.4,99.1 358.4,101.6 C358.4,104.1 356.4,106.1 353.9,106.1 Z" id="Shape" fill="#FFFFFF" fill-rule="nonzero"></path>
            <path d="M353.9,106.1 L248.1,106.1 C245.6,106.1 243.6,104.1 243.6,101.6 C243.6,99.1 245.6,97.1 248.1,97.1 L353.9,97.1 C356.4,97.1 358.4,99.1 358.4,101.6 C358.4,104.1 356.4,106.1 353.9,106.1 Z" id="Shape" stroke="#37474F" stroke-width="2"></path>
            <path d="M84.7,235.3 L84.7,56.7 C84.7,53.3 87.4,50.6 90.8,50.6 L241.5,50.6 C244.9,50.6 247.6,53.3 247.6,56.7 L247.6,235.2" id="Shape" fill="#FFFFFF" fill-rule="nonzero"></path>
            <path d="M244.1,45.6 C243.8,45.5 243.4,45.5 243,45.5 L89.3,45.5 C88.8,45.5 88.4,45.6 87.9,45.7 C88.7,48.1 87.8,51 85.3,52.1 C86.1,53.6 87.6,54.6 89.3,54.6 L243.1,54.6 C244.8,54.6 246.3,53.6 247.1,52.2 C244.2,51.3 243.3,48.1 244.1,45.6 Z" id="Shape" fill="#BBDEFB" fill-rule="nonzero"></path>
            <path d="M247.6,234.5 L247.6,55.7 C247.6,52.4 244.9,49.6 241.5,49.6 L90.8,49.6 C87.4,49.6 84.7,52.3 84.7,55.7 L84.7,234.8" id="Shape" stroke="#37474F" stroke-width="2"></path>
            <path d="M243,49.5 L89.2,49.5 C86.7,49.5 84.7,47.5 84.7,45 C84.7,42.5 86.7,40.5 89.2,40.5 L243,40.5 C245.5,40.5 247.5,42.5 247.5,45 C247.6,47.5 245.5,49.5 243,49.5 Z" id="Shape" fill="#FFFFFF" fill-rule="nonzero"></path>
            <path d="M243,49.5 L89.2,49.5 C86.7,49.5 84.7,47.5 84.7,45 C84.7,42.5 86.7,40.5 89.2,40.5 L243,40.5 C245.5,40.5 247.5,42.5 247.5,45 C247.6,47.5 245.5,49.5 243,49.5 Z" id="Shape" stroke="#37474F" stroke-width="2"></path>
            <circle id="Oval" fill="#FFFFFF" fill-rule="nonzero" cx="22.3" cy="198" r="21.8"></circle>
            <circle id="Oval" fill="#BBDEFB" fill-rule="nonzero" cx="22.3" cy="201.5" r="18.3"></circle>
            <circle id="Oval" stroke="#37474F" stroke-width="2" cx="22.3" cy="198" r="21.8"></circle>
            <path d="M22.1,197.8 C21.5,197.8 20.9,198.3 20.9,199 L20.9,240.1 L23.3,240.1 L23.3,199 C23.3,198.3 22.8,197.8 22.1,197.8 Z" id="Shape" fill="#37474F" fill-rule="nonzero"></path>
            <path d="M105.3,240.7 C105.3,234.2 110.6,228.9 117.1,228.9 C123.6,228.9 128.9,234.2 128.9,240.7" id="Shape" fill="#B2FF59" fill-rule="nonzero"></path>
            <path d="M105.3,240.7 C105.3,234.2 110.6,228.9 117.1,228.9 C123.6,228.9 128.9,234.2 128.9,240.7" id="Shape" fill="#BBDEFB" fill-rule="nonzero"></path>
            <path d="M105.3,240.7 C105.3,234.2 110.6,228.9 117.1,228.9 C123.6,228.9 128.9,234.2 128.9,240.7" id="Shape" stroke="#37474F" stroke-width="2"></path>
            <path d="M342.6,240.7 C342.6,234.2 347.9,228.9 354.4,228.9 C360.9,228.9 366.2,234.2 366.2,240.7" id="Shape" fill="#B2FF59" fill-rule="nonzero"></path>
            <path d="M342.6,240.7 C342.6,234.2 347.9,228.9 354.4,228.9 C360.9,228.9 366.2,234.2 366.2,240.7" id="Shape" fill="#BBDEFB" fill-rule="nonzero"></path>
            <path d="M342.6,240.7 C342.6,234.2 347.9,228.9 354.4,228.9 C360.9,228.9 366.2,234.2 366.2,240.7" id="Shape" stroke="#37474F" stroke-width="2"></path>
            <path d="M129.1,175.8 L100,175.8 C98.3,175.8 96.9,177.2 96.9,178.9 L96.9,233.7 C96.9,235.4 98.3,236.8 100,236.8 L129.1,236.8 C130.8,236.8 132.2,235.4 132.2,233.7 L132.2,178.9 C132.2,177.2 130.8,175.8 129.1,175.8 Z" id="Shape" fill="#BBDEFB" fill-rule="nonzero"></path>
            <path d="M132.2,184.5 L132.2,178.9 C132.2,177.2 130.8,175.8 129.1,175.8 L125.4,175.8 L96.9,204.3 L96.9,219.8 L132.2,184.5 Z" id="Shape" fill="#FFFFFF" fill-rule="nonzero"></path>
            <path d="M128.9,175.8 L100.2,175.8 C98.4,175.8 96.9,177.3 96.9,179.1 L96.9,233.6 C96.9,235.4 98.4,236.9 100.2,236.9 L128.9,236.9 C130.7,236.9 132.2,235.4 132.2,233.6 L132.2,179.1 C132.2,177.3 130.7,175.8 128.9,175.8 Z" id="Shape" stroke="#37474F" stroke-width="2"></path>
            <path d="M95.9,228.6 L133.1,228.6 C134.4,228.6 135.4,229.7 135.4,230.9 L135.4,232 C135.4,233.3 134.3,234.3 133.1,234.3 L95.9,234.3 C94.6,234.3 93.6,233.2 93.6,232 L93.6,231 C93.5,229.7 94.6,228.6 95.9,228.6 Z" id="Shape" stroke="#37474F" stroke-width="2" fill="#FFFFFF" fill-rule="nonzero"></path>
            <path d="M114.6,175.8 L114.6,228.6" id="Shape" stroke="#37474F"></path>
            <path d="M111.4,200.3 L111.4,208.9" id="Shape" stroke="#37474F" stroke-width="2" stroke-linecap="round"></path>
            <path d="M117.5,200.3 L117.5,208.9" id="Shape" stroke="#37474F" stroke-width="2" stroke-linecap="round"></path>
            <rect id="Rectangle-path" fill="#BBDEFB" fill-rule="nonzero" x="148.2" y="177.5" width="87.3" height="51.2"></rect>
            <polygon id="Shape" fill="#FFFFFF" fill-rule="nonzero" points="210.8 177.5 196.7 177.5 148.2 226 148.2 228.6 159.6 228.6"></polygon>
            <path d="M235.5,205.5 L235.5,191.9 L198.8,228.6 L212.3,228.6 C220.1,220.9 227.8,213.2 235.5,205.5 Z" id="Shape" fill="#FFFFFF" fill-rule="nonzero"></path>
            <path d="M233.5,177.4 L150.2,177.4 C149.1,177.4 148.2,178.3 148.2,179.4 L148.2,230.7 C148.2,231.8 149.1,232.7 150.2,232.7 L233.5,232.7 C234.6,232.7 235.5,231.8 235.5,230.7 L235.5,179.4 C235.5,178.3 234.6,177.4 233.5,177.4 Z" id="Shape" stroke="#37474F" stroke-width="2"></path>
            <path d="M147.2,228.6 L236.4,228.6 C237.7,228.6 238.7,229.7 238.7,230.9 L238.7,232 C238.7,233.3 237.6,234.3 236.4,234.3 L147.2,234.3 C145.9,234.3 144.9,233.2 144.9,232 L144.9,231 C144.8,229.7 145.9,228.6 147.2,228.6 Z" id="Shape" stroke="#37474F" stroke-width="2" fill="#FFFFFF" fill-rule="nonzero"></path>
            <path d="M147.2,175.8 L236.4,175.8 C237.7,175.8 238.7,176.9 238.7,178.1 L238.7,179.2 C238.7,180.5 237.6,181.5 236.4,181.5 L147.2,181.5 C145.9,181.5 144.9,180.4 144.9,179.2 L144.9,178.1 C144.8,176.9 145.9,175.8 147.2,175.8 Z" id="Shape" stroke="#37474F" stroke-width="2" fill="#FFFFFF" fill-rule="nonzero"></path>
            <path d="M205.5,182 L205.5,228.6" id="Shape" stroke="#37474F"></path>
            <path d="M178.2,181.7 L178.2,228.4" id="Shape" stroke="#37474F"></path>
            <path d="M249,234.8 C251.6,234.8 253.7,236.9 253.7,239.5 L253.7,240.6" id="Shape" fill="#FFFFFF" fill-rule="nonzero"></path>
            <path d="M371.5,240.6 L15.5,240.6" id="Shape" stroke="#37474F" stroke-width="2" stroke-linecap="round"></path>
            <rect id="Rectangle-path" fill="#37474F" fill-rule="nonzero" transform="translate(263.998000, 93.284100) rotate(-180.000000) translate(-263.998000, -93.284100) " x="261.598" y="89.6341" width="4.8" height="7.3"></rect>
            <rect id="Rectangle-path" fill="#37474F" fill-rule="nonzero" transform="translate(337.918900, 93.284100) rotate(-180.000000) translate(-337.918900, -93.284100) " x="335.5189" y="89.6341" width="4.8" height="7.3"></rect>
            <path d="M342.5,89.6 L259.5,89.6 C257,89.6 255,87.6 255,85.1 L255,59 C255,56.5 257,54.5 259.5,54.5 L342.5,54.5 C345,54.5 347,56.5 347,59 L347,85.1 C347,87.6 345,89.6 342.5,89.6 Z" id="Shape" fill="#FFFFFF" fill-rule="nonzero"></path>
            <path d="M342.5,89.6 L259.5,89.6 C257,89.6 255,87.6 255,85.1 L255,59 C255,56.5 257,54.5 259.5,54.5 L342.5,54.5 C345,54.5 347,56.5 347,59 L347,85.1 C347,87.6 345,89.6 342.5,89.6 Z" id="Shape" stroke="#37474F" stroke-width="2"></path>
            <circle id="Oval" fill="#FFFFFF" fill-rule="nonzero" cx="52.9" cy="197.6" r="21.8"></circle>
            <circle id="Oval" fill="#BBDEFB" fill-rule="nonzero" cx="52.9" cy="201.1" r="18.3"></circle>
            <circle id="Oval" stroke="#37474F" stroke-width="2" cx="52.9" cy="197.6" r="21.8"></circle>
            <path d="M52.7,197.4 C52.1,197.4 51.5,197.9 51.5,198.6 L51.5,239.7 L53.9,239.7 L53.9,198.6 C53.9,197.9 53.4,197.4 52.7,197.4 Z" id="Shape" fill="#37474F" fill-rule="nonzero"></path>
            <rect id="Rectangle-path" fill="#37474F" fill-rule="nonzero" x="267" y="179" width="68" height="61.6"></rect>
            <rect id="Rectangle-path" stroke="#37474F" stroke-width="2" x="263.4" y="179" width="75.3" height="61.6"></rect>
            <path d="M262.4,176 L339.6,176 C340.9,176 341.9,177.1 341.9,178.3 L341.9,179.4 C341.9,180.7 340.8,181.7 339.6,181.7 L262.4,181.7 C261.1,181.7 260.1,180.6 260.1,179.4 L260.1,178.3 C260,177.1 261.1,176 262.4,176 Z" id="Shape" stroke="#37474F" stroke-width="2" fill="#FFFFFF" fill-rule="nonzero"></path>
            <path d="M262.4,196.7 L339.6,196.7 C340.9,196.7 341.9,195.6 341.9,194.4 L341.9,184.2 C341.9,182.9 340.8,181.9 339.6,181.9 L262.4,181.9 C261.1,181.9 260.1,183 260.1,184.2 L260.1,194.4 C260,195.6 261.1,196.7 262.4,196.7 Z" id="Shape" fill="#BBDEFB" fill-rule="nonzero"></path>
            <path d="M262.4,196.7 L339.6,196.7 C340.9,196.7 341.9,195.6 341.9,194.4 L341.9,184.2 C341.9,182.9 340.8,181.9 339.6,181.9 L262.4,181.9 C261.1,181.9 260.1,183 260.1,184.2 L260.1,194.4 C260,195.6 261.1,196.7 262.4,196.7 Z" id="Shape" stroke="#37474F" stroke-width="2"></path>
            <path d="M342,186.8 L260,186.8" id="Shape" stroke="#37474F" fill="#FFFFFF" fill-rule="nonzero"></path>
            <path d="M342,191.8 L260,191.8" id="Shape" stroke="#37474F" fill="#FFFFFF" fill-rule="nonzero"></path>
            <path d="M339.1,68.8 L263,68.8 C262,68.8 261.1,68 261.1,66.9 C261.1,65.9 261.9,65 263,65 L339.1,65 C340.1,65 341,65.8 341,66.9 C340.9,68 340.1,68.8 339.1,68.8 Z" id="Shape" fill="#BBDEFB" fill-rule="nonzero"></path>
            <path d="M339.1,68.8 L263,68.8 C262,68.8 261.1,68 261.1,66.9 C261.1,65.9 261.9,65 263,65 L339.1,65 C340.1,65 341,65.8 341,66.9 C340.9,68 340.1,68.8 339.1,68.8 Z" id="Shape" stroke="#37474F"></path>
            <path d="M339.1,79 L263,79 C262,79 261.1,78.2 261.1,77.1 C261.1,76.1 261.9,75.2 263,75.2 L339.1,75.2 C340.1,75.2 341,76 341,77.1 C340.9,78.1 340.1,79 339.1,79 Z" id="Shape" fill="#BBDEFB" fill-rule="nonzero"></path>
            <path d="M339.1,79 L263,79 C262,79 261.1,78.2 261.1,77.1 C261.1,76.1 261.9,75.2 263,75.2 L339.1,75.2 C340.1,75.2 341,76 341,77.1 C340.9,78.1 340.1,79 339.1,79 Z" id="Shape" stroke="#37474F"></path>
            <rect id="Rectangle-path" fill="#BBDEFB" fill-rule="nonzero" x="95.8" y="122.2" width="140.6" height="35.4"></rect>
            <path d="M167.5,122.2 L148.9,122.2 C137.1,134 125.3,145.8 113.5,157.6 L132.2,157.6 C143.9,145.8 155.7,134 167.5,122.2 Z" id="Shape" fill="#FFFFFF" fill-rule="nonzero"></path>
            <path d="M216,122.2 L199,122.2 C187.2,134 177.5,145.8 165.7,157.6 L180.7,157.6 L216,122.2 Z" id="Shape" fill="#FFFFFF" fill-rule="nonzero"></path>
            <path d="M234.5,122.2 L97.8,122.2 C96.7,122.2 95.8,123.1 95.8,124.2 L95.8,155.6 C95.8,156.7 96.7,157.6 97.8,157.6 L234.5,157.6 C235.6,157.6 236.5,156.7 236.5,155.6 L236.5,124.2 C236.4,123.1 235.6,122.2 234.5,122.2 Z" id="Shape" stroke="#37474F" stroke-width="2"></path>
            <path d="M94.6,119.2 L237.7,119.2 C239,119.2 240,120.3 240,121.5 L240,122.6 C240,123.9 238.9,124.9 237.7,124.9 L94.6,124.9 C93.3,124.9 92.3,123.8 92.3,122.6 L92.3,121.5 C92.3,120.3 93.3,119.2 94.6,119.2 Z" id="Shape" stroke="#37474F" stroke-width="2" fill="#FFFFFF" fill-rule="nonzero"></path>
            <path d="M127.4,125.2 L127.4,157.8" id="Shape" stroke="#37474F"></path>
            <path d="M205.5,125.2 L205.5,157.8" id="Shape" stroke="#37474F"></path>
            <path d="M94.6,153.3 L237.7,153.3 C239,153.3 240,154.4 240,155.6 L240,156.7 C240,158 238.9,159 237.7,159 L94.6,159 C93.3,159 92.3,157.9 92.3,156.7 L92.3,155.6 C92.3,154.4 93.3,153.3 94.6,153.3 Z" id="Shape" stroke="#37474F" stroke-width="2" fill="#FFFFFF" fill-rule="nonzero"></path>
            <rect id="Rectangle-path" fill="#BBDEFB" fill-rule="nonzero" x="263.8" y="122.2" width="74.6" height="35.4"></rect>
            <path d="M318,122.2 L301,122.2 C289.2,134 277.5,145.8 265.7,157.6 L282.7,157.6 L318,122.2 Z" id="Shape" fill="#FFFFFF" fill-rule="nonzero"></path>
            <polygon id="Shape" fill="#FFFFFF" fill-rule="nonzero" points="338.4 141.8 338.4 132.5 313.2 157.6 322.6 157.6"></polygon>
            <path d="M336.4,122.2 L265.7,122.2 C264.6,122.2 263.7,123.1 263.7,124.2 L263.7,155.6 C263.7,156.7 264.6,157.6 265.7,157.6 L336.4,157.6 C337.5,157.6 338.4,156.7 338.4,155.6 L338.4,124.2 C338.4,123.1 337.5,122.2 336.4,122.2 Z" id="Shape" stroke="#37474F" stroke-width="2"></path>
            <path d="M262.5,119.2 L339.6,119.2 C340.9,119.2 341.9,120.3 341.9,121.5 L341.9,122.6 C341.9,123.9 340.8,124.9 339.6,124.9 L262.5,124.9 C261.2,124.9 260.2,123.8 260.2,122.6 L260.2,121.5 C260.2,120.3 261.3,119.2 262.5,119.2 Z" id="Shape" stroke="#37474F" stroke-width="2" fill="#FFFFFF" fill-rule="nonzero"></path>
            <path d="M282.3,125.2 L282.3,157.8" id="Shape" stroke="#37474F"></path>
            <path d="M319.8,125.2 L319.8,157.8" id="Shape" stroke="#37474F"></path>
            <path d="M262.5,153.3 L339.6,153.3 C340.9,153.3 341.9,154.4 341.9,155.6 L341.9,156.7 C341.9,158 340.8,159 339.6,159 L262.5,159 C261.2,159 260.2,157.9 260.2,156.7 L260.2,155.6 C260.2,154.4 261.3,153.3 262.5,153.3 Z" id="Shape" stroke="#37474F" stroke-width="2" fill="#FFFFFF" fill-rule="nonzero"></path>
            <path d="M253.7,240.6 L78.5,240.6 L78.5,239.5 C78.5,236.9 80.6,234.8 83.2,234.8 L249,234.8" id="Shape" fill="#FFFFFF" fill-rule="nonzero"></path>
            <path d="M253.7,240.6 L78.5,240.6 L78.5,239.5 C78.5,236.9 80.6,234.8 83.2,234.8 L249,234.8 C251.6,234.8 253.7,236.9 253.7,239.5 L253.7,240.6 Z" id="Shape" stroke="#37474F" stroke-width="2"></path>
            <rect id="Rectangle-path" fill="#BBDEFB" fill-rule="nonzero" x="95.8" y="65.5" width="140.6" height="35.4"></rect>
            <path d="M167.5,65.5 L148.9,65.5 C137.1,77.3 125.3,89.1 113.5,100.9 L132.2,100.9 C143.9,89.1 155.7,77.3 167.5,65.5 Z" id="Shape" fill="#FFFFFF" fill-rule="nonzero"></path>
            <path d="M216,65.5 L199,65.5 C187.2,77.3 175.5,89.1 163.7,100.9 L180.7,100.9 L216,65.5 Z" id="Shape" fill="#FFFFFF" fill-rule="nonzero"></path>
            <path d="M234.5,65.5 L97.8,65.5 C96.7,65.5 95.8,66.4 95.8,67.5 L95.8,98.9 C95.8,100 96.7,100.9 97.8,100.9 L234.5,100.9 C235.6,100.9 236.5,100 236.5,98.9 L236.5,67.5 C236.4,66.4 235.6,65.5 234.5,65.5 Z" id="Shape" stroke="#37474F" stroke-width="2"></path>
            <path d="M94.6,62.5 L237.7,62.5 C239,62.5 240,63.6 240,64.8 L240,65.9 C240,67.2 238.9,68.2 237.7,68.2 L94.6,68.2 C93.3,68.2 92.3,67.1 92.3,65.9 L92.3,64.8 C92.3,63.6 93.3,62.5 94.6,62.5 Z" id="Shape" stroke="#37474F" stroke-width="2" fill="#FFFFFF" fill-rule="nonzero"></path>
            <path d="M127.4,68.4 L127.4,101" id="Shape" stroke="#37474F"></path>
            <path d="M205.5,68.4 L205.5,101" id="Shape" stroke="#37474F"></path>
            <path d="M94.6,96.6 L237.7,96.6 C239,96.6 240,97.7 240,98.9 L240,100 C240,101.3 238.9,102.3 237.7,102.3 L94.6,102.3 C93.3,102.3 92.3,101.2 92.3,100 L92.3,98.9 C92.3,97.6 93.3,96.6 94.6,96.6 Z" id="Shape" stroke="#37474F" stroke-width="2" fill="#FFFFFF" fill-rule="nonzero"></path>
        </g>
    </g>
</svg>