<svg width="274px" height="173px" viewBox="0 0 274 173" version="1.1" xmlns="http://www.w3.org/2000/svg" xmlns:xlink="http://www.w3.org/1999/xlink">
    <g id="Artboard-2" stroke="none" stroke-width="1" fill="none" fill-rule="evenodd" transform="translate(-473.000000, -124.000000)">
        <g id="icon-inksoft-premium" transform="translate(474.000000, 124.000000)">
            <path d="M207.692715,171.576159 C225.70596,153.382781 236.784106,128.344371 236.784106,100.784106 C236.784106,45.1231788 191.660927,0 136,0 C80.3390728,0 35.215894,45.1231788 35.215894,100.784106 C35.215894,128.434437 46.2940397,153.382781 64.3072848,171.576159 L207.692715,171.576159 Z" id="Shape" fill="#FFE7C0" fill-rule="nonzero"></path>
            <path d="M31.5231788,171.576159 C31.5231788,165.721854 36.2966887,160.948344 42.1509934,160.948344 C48.005298,160.948344 52.7788079,165.721854 52.7788079,171.576159" id="Shape" fill="#B2FF59" fill-rule="nonzero"></path>
            <path d="M31.5231788,171.576159 C31.5231788,165.721854 36.2966887,160.948344 42.1509934,160.948344 C48.005298,160.948344 52.7788079,165.721854 52.7788079,171.576159" id="Shape" fill="#BBDEFB" fill-rule="nonzero"></path>
            <path d="M31.5231788,171.576159 C31.5231788,165.721854 36.2966887,160.948344 42.1509934,160.948344 C48.005298,160.948344 52.7788079,165.721854 52.7788079,171.576159" id="Shape" stroke="#37474F" stroke-width="2"></path>
            <path d="M249.57351,171.486093 L166.082119,171.486093 C162.569536,171.486093 159.687417,168.603974 159.687417,165.091391 L159.687417,102.945695 C159.687417,99.4331126 162.569536,96.5509934 166.082119,96.5509934 L249.57351,96.5509934 C253.086093,96.5509934 255.968212,99.4331126 255.968212,102.945695 L255.968212,165.091391 C255.878146,168.603974 253.086093,171.486093 249.57351,171.486093 Z" id="Shape" fill="#FFFFFF" fill-rule="nonzero"></path>
            <path d="M256.238411,91.4172185 C255.968212,91.3271523 255.698013,91.3271523 255.427815,91.3271523 L160.137748,91.3271523 C157.886093,91.3271523 156.084768,93.1284768 156.084768,95.3801325 C156.084768,97.6317881 157.886093,99.4331126 160.137748,99.4331126 L255.427815,99.4331126 C255.698013,99.4331126 255.968212,99.4331126 256.238411,99.3430464 L256.238411,91.4172185 Z" id="Shape" fill="#BBDEFB" fill-rule="nonzero"></path>
            <path d="M255.878146,167.97351 L255.878146,92.8582781 C255.878146,90.9668874 253.446358,89.4357616 250.384106,89.4357616 L165.091391,89.4357616 C162.029139,89.4357616 159.597351,90.9668874 159.597351,92.8582781 L159.597351,167.97351 C159.597351,169.864901 162.029139,171.396026 165.091391,171.396026 L250.384106,171.396026 C253.446358,171.486093 255.878146,169.954967 255.878146,167.97351 Z" id="Shape" stroke="#37474F" stroke-width="2"></path>
            <path d="M255.427815,95.3801325 L160.137748,95.3801325 C157.886093,95.3801325 156.084768,93.5788079 156.084768,91.3271523 C156.084768,89.0754967 157.886093,87.2741722 160.137748,87.2741722 L255.427815,87.2741722 C257.67947,87.2741722 259.480795,89.0754967 259.480795,91.3271523 C259.480795,93.5788079 257.67947,95.3801325 255.427815,95.3801325 Z" id="Shape" fill="#FFFFFF" fill-rule="nonzero"></path>
            <path d="M255.427815,95.3801325 L160.137748,95.3801325 C157.886093,95.3801325 156.084768,93.5788079 156.084768,91.3271523 C156.084768,89.0754967 157.886093,87.2741722 160.137748,87.2741722 L255.427815,87.2741722 C257.67947,87.2741722 259.480795,89.0754967 259.480795,91.3271523 C259.480795,93.5788079 257.67947,95.3801325 255.427815,95.3801325 Z" id="Shape" stroke="#37474F" stroke-width="2"></path>
            <path d="M245.250331,171.576159 C245.250331,165.721854 250.023841,160.948344 255.878146,160.948344 C261.73245,160.948344 266.50596,165.721854 266.50596,171.576159" id="Shape" fill="#B2FF59" fill-rule="nonzero"></path>
            <path d="M245.250331,171.576159 C245.250331,165.721854 250.023841,160.948344 255.878146,160.948344 C261.73245,160.948344 266.50596,165.721854 266.50596,171.576159" id="Shape" fill="#BBDEFB" fill-rule="nonzero"></path>
            <path d="M245.250331,171.576159 C245.250331,165.721854 250.023841,160.948344 255.878146,160.948344 C261.73245,160.948344 266.50596,165.721854 266.50596,171.576159" id="Shape" stroke="#37474F" stroke-width="2"></path>
            <path d="M48.9960265,166.622517 L48.9960265,55.3907285 C48.9960265,52.3284768 51.4278146,49.8966887 54.4900662,49.8966887 L154.193377,49.8966887 C157.255629,49.8966887 159.687417,52.3284768 159.687417,55.3907285 L159.687417,166.622517" id="Shape" fill="#FFFFFF" fill-rule="nonzero"></path>
            <path d="M87.184106,113.123179 L60.9748344,113.123179 C59.4437086,113.123179 58.1827815,114.384106 58.1827815,115.915232 L58.1827815,165.271523 C58.1827815,166.802649 59.4437086,168.063576 60.9748344,168.063576 L87.184106,168.063576 C88.7152318,168.063576 89.9761589,166.802649 89.9761589,165.271523 L89.9761589,115.915232 C89.9761589,114.384106 88.7152318,113.123179 87.184106,113.123179 Z" id="Shape" fill="#BBDEFB" fill-rule="nonzero"></path>
            <path d="M89.9761589,120.95894 L89.9761589,115.915232 C89.9761589,114.384106 88.7152318,113.123179 87.184106,113.123179 L83.8516556,113.123179 L58.1827815,138.701987 L58.1827815,152.662252 L89.9761589,120.95894 Z" id="Shape" fill="#FFFFFF" fill-rule="nonzero"></path>
            <path d="M87.0039735,113.123179 L61.1549669,113.123179 C59.5337748,113.123179 58.1827815,114.474172 58.1827815,116.095364 L58.1827815,165.181457 C58.1827815,166.802649 59.5337748,168.153642 61.1549669,168.153642 L87.0039735,168.153642 C88.6251656,168.153642 89.9761589,166.802649 89.9761589,165.181457 L89.9761589,116.095364 C89.9761589,114.474172 88.6251656,113.123179 87.0039735,113.123179 Z" id="Shape" stroke="#37474F" stroke-width="2"></path>
            <path d="M57.2821192,160.678146 L90.786755,160.678146 C91.9576159,160.678146 92.8582781,161.668874 92.8582781,162.749669 L92.8582781,163.740397 C92.8582781,164.911258 91.8675497,165.811921 90.786755,165.811921 L57.2821192,165.811921 C56.1112583,165.811921 55.210596,164.821192 55.210596,163.740397 L55.210596,162.749669 C55.1205298,161.668874 56.1112583,160.678146 57.2821192,160.678146 Z" id="Shape" stroke="#37474F" stroke-width="2" fill="#FFFFFF" fill-rule="nonzero"></path>
            <path d="M74.1245033,113.123179 L74.1245033,160.678146" id="Shape" stroke="#37474F"></path>
            <path d="M71.2423841,135.189404 L71.2423841,142.935099" id="Shape" stroke="#37474F" stroke-width="2" stroke-linecap="round"></path>
            <path d="M76.7364238,135.189404 L76.7364238,142.935099" id="Shape" stroke="#37474F" stroke-width="2" stroke-linecap="round"></path>
            <rect id="Rectangle-path" fill="#BBDEFB" fill-rule="nonzero" x="100.784106" y="114.654305" width="49.8066225" height="46.1139073"></rect>
            <path d="M150.590728,139.872848 L150.590728,127.623841 L117.536424,160.678146 L129.695364,160.678146 C136.72053,153.743046 143.655629,146.807947 150.590728,139.872848 Z" id="Shape" fill="#FFFFFF" fill-rule="nonzero"></path>
            <path d="M150.590728,120.058278 L150.590728,113.123179 L141.584106,113.123179 C127.984106,126.723179 114.384106,140.323179 100.784106,153.923179 L100.784106,160.678146 L109.970861,160.678146 C123.480795,147.168212 137.080795,133.568212 150.590728,120.058278 Z" id="Shape" fill="#FFFFFF" fill-rule="nonzero"></path>
            <path d="M125.73245,118.34702 L125.73245,160.678146" id="Shape" stroke="#37474F"></path>
            <path d="M148.789404,114.474172 L102.58543,114.474172 C101.594702,114.474172 100.784106,115.284768 100.784106,116.275497 L100.784106,162.47947 C100.784106,163.470199 101.594702,164.280795 102.58543,164.280795 L148.789404,164.280795 C149.780132,164.280795 150.590728,163.470199 150.590728,162.47947 L150.590728,116.275497 C150.590728,115.284768 149.780132,114.474172 148.789404,114.474172 Z" id="Shape" stroke="#37474F" stroke-width="2"></path>
            <path d="M99.8834437,160.678146 L151.401325,160.678146 C152.572185,160.678146 153.472848,161.668874 153.472848,162.749669 L153.472848,163.740397 C153.472848,164.911258 152.482119,165.811921 151.401325,165.811921 L99.8834437,165.811921 C98.7125828,165.811921 97.8119205,164.821192 97.8119205,163.740397 L97.8119205,162.749669 C97.7218543,161.668874 98.7125828,160.678146 99.8834437,160.678146 Z" id="Shape" stroke="#37474F" stroke-width="2" fill="#FFFFFF" fill-rule="nonzero"></path>
            <path d="M99.8834437,113.123179 L151.401325,113.123179 C152.572185,113.123179 153.472848,114.113907 153.472848,115.194702 L153.472848,116.18543 C153.472848,117.356291 152.482119,118.256954 151.401325,118.256954 L99.8834437,118.256954 C98.7125828,118.256954 97.8119205,117.266225 97.8119205,116.18543 L97.8119205,115.194702 C97.7218543,114.023841 98.7125828,113.123179 99.8834437,113.123179 Z" id="Shape" stroke="#37474F" stroke-width="2" fill="#FFFFFF" fill-rule="nonzero"></path>
            <path d="M156.535099,45.3033113 C156.264901,45.213245 155.904636,45.213245 155.544371,45.213245 L53.1390728,45.213245 C52.6887417,45.213245 52.3284768,45.3033113 51.8781457,45.3933775 C52.5986755,47.5549669 51.7880795,50.1668874 49.5364238,51.1576159 C50.2569536,52.5086093 51.607947,53.4092715 53.1390728,53.4092715 L155.634437,53.4092715 C157.165563,53.4092715 158.516556,52.5086093 159.237086,51.2476821 C156.625166,50.4370861 155.81457,47.5549669 156.535099,45.3033113 Z" id="Shape" fill="#BBDEFB" fill-rule="nonzero"></path>
            <path d="M159.687417,165.992053 L159.687417,54.4 C159.687417,51.4278146 157.255629,48.9059603 154.193377,48.9059603 L54.4900662,48.9059603 C51.4278146,48.9059603 48.9960265,51.3377483 48.9960265,54.4 L48.9960265,166.172185" id="Shape" stroke="#37474F" stroke-width="2"></path>
            <path d="M165.181457,171.486093 L43.4119205,171.486093 L43.4119205,170.495364 C43.4119205,168.153642 45.3033113,166.262252 47.6450331,166.262252 L160.948344,166.262252 C163.290066,166.262252 165.181457,168.153642 165.181457,170.495364 L165.181457,171.486093 Z" id="Shape" fill="#FFFFFF" fill-rule="nonzero"></path>
            <path d="M165.181457,171.486093 L43.4119205,171.486093 L43.4119205,170.495364 C43.4119205,168.153642 45.3033113,166.262252 47.6450331,166.262252 L160.948344,166.262252 C163.290066,166.262252 165.181457,168.153642 165.181457,170.495364 L165.181457,171.486093 Z" id="Shape" stroke="#37474F" stroke-width="2"></path>
            <path d="M271.27947,171.486093 L13.0596026,171.486093" id="Shape" stroke="#37474F" stroke-width="2" stroke-linecap="round"></path>
            <rect id="Rectangle-path" fill="#37474F" fill-rule="nonzero" transform="translate(174.466654, 83.965679) rotate(-180.000000) translate(-174.466654, -83.965679) " x="172.305065" y="80.6782623" width="4.32317881" height="6.57483444"></rect>
            <rect id="Rectangle-path" fill="#37474F" fill-rule="nonzero" transform="translate(241.044328, 83.965679) rotate(-180.000000) translate(-241.044328, -83.965679) " x="238.882739" y="80.6782623" width="4.32317881" height="6.57483444"></rect>
            <path d="M245.160265,80.6092715 L170.405298,80.6092715 C168.153642,80.6092715 166.352318,78.807947 166.352318,76.5562914 L166.352318,53.0490066 C166.352318,50.797351 168.153642,48.9960265 170.405298,48.9960265 L245.160265,48.9960265 C247.411921,48.9960265 249.213245,50.797351 249.213245,53.0490066 L249.213245,76.5562914 C249.213245,78.807947 247.411921,80.6092715 245.160265,80.6092715 Z" id="Shape" fill="#FFFFFF" fill-rule="nonzero"></path>
            <path d="M245.160265,80.6092715 L170.405298,80.6092715 C168.153642,80.6092715 166.352318,78.807947 166.352318,76.5562914 L166.352318,53.0490066 C166.352318,50.797351 168.153642,48.9960265 170.405298,48.9960265 L245.160265,48.9960265 C247.411921,48.9960265 249.213245,50.797351 249.213245,53.0490066 L249.213245,76.5562914 C249.213245,78.807947 247.411921,80.6092715 245.160265,80.6092715 Z" id="Shape" stroke="#37474F" stroke-width="2"></path>
            <circle id="Oval" fill="#FFFFFF" fill-rule="nonzero" cx="20.3549669" cy="132.757616" r="19.6344371"></circle>
            <circle id="Oval" fill="#BBDEFB" fill-rule="nonzero" cx="20.3549669" cy="135.819868" r="16.4821192"></circle>
            <circle id="Oval" stroke="#37474F" stroke-width="2" cx="20.3549669" cy="132.757616" r="19.6344371"></circle>
            <path d="M20.1748344,132.487417 C19.6344371,132.487417 19.0940397,132.937748 19.0940397,133.568212 L19.0940397,170.58543 L21.2556291,170.58543 L21.2556291,133.568212 C21.2556291,133.027815 20.805298,132.487417 20.1748344,132.487417 Z" id="Shape" fill="#37474F" fill-rule="nonzero"></path>
            <rect id="Rectangle-path" fill="#37474F" fill-rule="nonzero" x="177.160265" y="116.005298" width="61.2450331" height="55.4807947"></rect>
            <rect id="Rectangle-path" stroke="#37474F" stroke-width="2" x="173.917881" y="116.005298" width="67.8198675" height="55.4807947"></rect>
            <path d="M173.017219,113.303311 L242.548344,113.303311 C243.719205,113.303311 244.619868,114.29404 244.619868,115.374834 L244.619868,116.365563 C244.619868,117.536424 243.629139,118.437086 242.548344,118.437086 L173.017219,118.437086 C171.846358,118.437086 170.945695,117.446358 170.945695,116.365563 L170.945695,115.374834 C170.945695,114.203974 171.846358,113.303311 173.017219,113.303311 Z" id="Shape" stroke="#37474F" stroke-width="2" fill="#FFFFFF" fill-rule="nonzero"></path>
            <path d="M173.017219,131.94702 L242.548344,131.94702 C243.719205,131.94702 244.619868,130.956291 244.619868,129.875497 L244.619868,120.688742 C244.619868,119.517881 243.629139,118.617219 242.548344,118.617219 L173.017219,118.617219 C171.846358,118.617219 170.945695,119.607947 170.945695,120.688742 L170.945695,129.875497 C170.945695,130.956291 171.846358,131.94702 173.017219,131.94702 Z" id="Shape" fill="#BBDEFB" fill-rule="nonzero"></path>
            <path d="M173.017219,131.94702 L242.548344,131.94702 C243.719205,131.94702 244.619868,130.956291 244.619868,129.875497 L244.619868,120.688742 C244.619868,119.517881 243.629139,118.617219 242.548344,118.617219 L173.017219,118.617219 C171.846358,118.617219 170.945695,119.607947 170.945695,120.688742 L170.945695,129.875497 C170.945695,130.956291 171.846358,131.94702 173.017219,131.94702 Z" id="Shape" stroke="#37474F" stroke-width="2"></path>
            <path d="M244.709934,123.030464 L170.945695,123.030464" id="Shape" stroke="#37474F" fill="#FFFFFF" fill-rule="nonzero"></path>
            <path d="M244.709934,127.533775 L170.945695,127.533775" id="Shape" stroke="#37474F" fill="#FFFFFF" fill-rule="nonzero"></path>
            <path d="M155.544371,48.9059603 L53.0490066,48.9059603 C50.797351,48.9059603 48.9960265,47.1046358 48.9960265,44.8529801 C48.9960265,42.6013245 50.797351,40.8 53.0490066,40.8 L155.544371,40.8 C157.796026,40.8 159.597351,42.6013245 159.597351,44.8529801 C159.687417,47.0145695 157.796026,48.9059603 155.544371,48.9059603 Z" id="Shape" fill="#FFFFFF" fill-rule="nonzero"></path>
            <path d="M155.544371,48.9059603 L53.0490066,48.9059603 C50.797351,48.9059603 48.9960265,47.1046358 48.9960265,44.8529801 C48.9960265,42.6013245 50.797351,40.8 53.0490066,40.8 L155.544371,40.8 C157.796026,40.8 159.597351,42.6013245 159.597351,44.8529801 C159.687417,47.0145695 157.796026,48.9059603 155.544371,48.9059603 Z" id="Shape" stroke="#37474F" stroke-width="2"></path>
            <path d="M242.098013,61.9655629 L173.557616,61.9655629 C172.656954,61.9655629 171.846358,61.2450331 171.846358,60.2543046 C171.846358,59.3536424 172.566887,58.5430464 173.557616,58.5430464 L242.098013,58.5430464 C242.998675,58.5430464 243.809272,59.2635762 243.809272,60.2543046 C243.809272,61.1549669 242.998675,61.9655629 242.098013,61.9655629 Z" id="Shape" fill="#BBDEFB" fill-rule="nonzero"></path>
            <path d="M242.098013,61.9655629 L173.557616,61.9655629 C172.656954,61.9655629 171.846358,61.2450331 171.846358,60.2543046 C171.846358,59.3536424 172.566887,58.5430464 173.557616,58.5430464 L242.098013,58.5430464 C242.998675,58.5430464 243.809272,59.2635762 243.809272,60.2543046 C243.809272,61.1549669 242.998675,61.9655629 242.098013,61.9655629 Z" id="Shape" stroke="#37474F"></path>
            <path d="M242.098013,71.0622517 L173.557616,71.0622517 C172.656954,71.0622517 171.846358,70.3417219 171.846358,69.3509934 C171.846358,68.4503311 172.566887,67.6397351 173.557616,67.6397351 L242.098013,67.6397351 C242.998675,67.6397351 243.809272,68.3602649 243.809272,69.3509934 C243.809272,70.3417219 242.998675,71.0622517 242.098013,71.0622517 Z" id="Shape" fill="#BBDEFB" fill-rule="nonzero"></path>
            <path d="M242.098013,71.0622517 L173.557616,71.0622517 C172.656954,71.0622517 171.846358,70.3417219 171.846358,69.3509934 C171.846358,68.4503311 172.566887,67.6397351 173.557616,67.6397351 L242.098013,67.6397351 C242.998675,67.6397351 243.809272,68.3602649 243.809272,69.3509934 C243.809272,70.3417219 242.998675,71.0622517 242.098013,71.0622517 Z" id="Shape" stroke="#37474F"></path>
            <rect id="Rectangle-path" fill="#BBDEFB" fill-rule="nonzero" x="57.192053" y="64.8476821" width="94.2092715" height="31.8834437"></rect>
            <path d="M133.027815,64.8476821 L117.716556,64.8476821 C107.088742,75.4754967 96.5509934,86.1033113 85.9231788,96.7311258 L101.234437,96.7311258 L133.027815,64.8476821 Z" id="Shape" fill="#FFFFFF" fill-rule="nonzero"></path>
            <polygon id="Shape" fill="#FFFFFF" fill-rule="nonzero" points="151.401325 82.5006623 151.401325 74.0344371 128.794702 96.7311258 137.170861 96.7311258"></polygon>
            <polygon id="Shape" fill="#FFFFFF" fill-rule="nonzero" points="73.1337748 64.8476821 57.192053 80.789404 57.192053 88.4450331 80.8794702 64.8476821"></polygon>
            <path d="M149.690066,64.8476821 L58.9933775,64.8476821 C58.002649,64.8476821 57.192053,65.6582781 57.192053,66.6490066 L57.192053,94.9298013 C57.192053,95.9205298 58.002649,96.7311258 58.9933775,96.7311258 L149.690066,96.7311258 C150.680795,96.7311258 151.491391,95.9205298 151.491391,94.9298013 L151.491391,66.6490066 C151.401325,65.6582781 150.680795,64.8476821 149.690066,64.8476821 Z" id="Shape" stroke="#37474F" stroke-width="2"></path>
            <path d="M56.1112583,62.1456954 L152.572185,62.1456954 C153.743046,62.1456954 154.643709,63.1364238 154.643709,64.2172185 L154.643709,65.207947 C154.643709,66.3788079 153.65298,67.2794702 152.572185,67.2794702 L56.1112583,67.2794702 C54.9403974,67.2794702 54.0397351,66.2887417 54.0397351,65.207947 L54.0397351,64.2172185 C54.0397351,63.1364238 54.9403974,62.1456954 56.1112583,62.1456954 Z" id="Shape" stroke="#37474F" stroke-width="2" fill="#FFFFFF" fill-rule="nonzero"></path>
            <path d="M125.73245,67.4596026 L125.73245,92.8582781" id="Shape" stroke="#37474F"></path>
            <path d="M56.1112583,92.8582781 L152.572185,92.8582781 C153.743046,92.8582781 154.643709,93.8490066 154.643709,94.9298013 L154.643709,95.9205298 C154.643709,97.0913907 153.65298,97.992053 152.572185,97.992053 L56.1112583,97.992053 C54.9403974,97.992053 54.0397351,97.0013245 54.0397351,95.9205298 L54.0397351,94.9298013 C54.0397351,93.7589404 54.9403974,92.8582781 56.1112583,92.8582781 Z" id="Shape" stroke="#37474F" stroke-width="2" fill="#FFFFFF" fill-rule="nonzero"></path>
            <path d="M82.9509934,92.8582781 L82.9509934,66.6490066" id="Shape" stroke="#37474F"></path>
        </g>
    </g>
</svg>