<svg width="177px" height="152px" viewBox="0 0 177 152" version="1.1" xmlns="http://www.w3.org/2000/svg" xmlns:xlink="http://www.w3.org/1999/xlink">
    <g id="Artboard-2" stroke="none" stroke-width="1" fill="none" fill-rule="evenodd" transform="translate(-112.000000, -145.000000)">
        <g id="icon-inksoft-pro" transform="translate(112.000000, 145.000000)">
            <path d="M151.347826,150.92029 C167.081159,134.930435 176.828986,113.04058 176.828986,88.842029 C176.828986,40.1028986 137.324638,0.513043478 88.5,0.513043478 C39.6753623,0.513043478 0.171014493,40.0173913 0.171014493,88.842029 C0.171014493,113.04058 9.91884058,134.930435 25.6521739,150.92029 L151.347826,150.92029 Z" id="Shape" fill="#FFE7C0" fill-rule="nonzero"></path>
            <path d="M19.6666667,150.92029 C19.6666667,145.362319 24.1985507,140.830435 29.7565217,140.830435 C35.3144928,140.830435 39.8463768,145.362319 39.8463768,150.92029" id="Shape" fill="#B2FF59" fill-rule="nonzero"></path>
            <path d="M19.6666667,150.92029 C19.6666667,145.362319 24.1985507,140.830435 29.7565217,140.830435 C35.3144928,140.830435 39.8463768,145.362319 39.8463768,150.92029" id="Shape" fill="#BBDEFB" fill-rule="nonzero"></path>
            <path d="M19.6666667,150.92029 C19.6666667,145.362319 24.1985507,140.830435 29.7565217,140.830435 C35.3144928,140.830435 39.8463768,145.362319 39.8463768,150.92029" id="Shape" stroke="#37474F" stroke-width="2"></path>
            <rect id="Rectangle-path" fill="#FFFFFF" fill-rule="nonzero" x="36.2550725" y="80.2057971" width="105.088406" height="65.6695652"></rect>
            <rect id="Rectangle-path" fill="#BBDEFB" fill-rule="nonzero" x="36.2550725" y="80.2057971" width="105.088406" height="8.55072464"></rect>
            <rect id="Rectangle-path" fill="#BBDEFB" fill-rule="nonzero" x="47.1144928" y="98.1623188" width="30.184058" height="49.6797101"></rect>
            <polygon id="Shape" fill="#FFFFFF" fill-rule="nonzero" points="77.2985507 103.036232 77.2985507 98.1623188 71.6550725 98.1623188 47.1144928 122.617391 47.1144928 133.22029"></polygon>
            <path d="M77.2985507,128.688406 L77.2985507,115.092754 C67.2086957,125.182609 57.2043478,135.186957 47.1144928,145.276812 L47.1144928,147.756522 L58.1449275,147.756522 L77.2985507,128.688406 Z" id="Shape" fill="#FFFFFF" fill-rule="nonzero"></path>
            <rect id="Rectangle-path" stroke="#37474F" stroke-width="2" x="47.1144928" y="98.1623188" width="30.184058" height="49.6797101"></rect>
            <path d="M46.2594203,95.5971014 L78.0681159,95.5971014 C79.1797101,95.5971014 80.0347826,96.5376812 80.0347826,97.5637681 L80.0347826,98.5043478 C80.0347826,99.615942 79.0942029,100.471014 78.0681159,100.471014 L46.2594203,100.471014 C45.1478261,100.471014 44.2927536,99.5304348 44.2927536,98.5043478 L44.2927536,97.5637681 C44.2072464,96.4521739 45.1478261,95.5971014 46.2594203,95.5971014 Z" id="Shape" stroke="#37474F" stroke-width="2" fill="#FFFFFF" fill-rule="nonzero"></path>
            <path d="M62.2492754,100.642029 L62.2492754,147.842029" id="Shape" stroke="#37474F"></path>
            <path d="M59.5985507,120.565217 L59.5985507,127.918841" id="Shape" stroke="#37474F" stroke-width="2" stroke-linecap="round"></path>
            <path d="M64.7289855,120.565217 L64.7289855,127.918841" id="Shape" stroke="#37474F" stroke-width="2" stroke-linecap="round"></path>
            <rect id="Rectangle-path" stroke="#37474F" stroke-width="2" x="36.2550725" y="79.6072464" width="105.088406" height="66.6956522"></rect>
            <path d="M146.644928,150.834783 L31.0391304,150.834783 L31.0391304,149.894203 C31.0391304,147.671014 32.8347826,145.875362 35.057971,145.875362 L142.626087,145.875362 C144.849275,145.875362 146.644928,147.671014 146.644928,149.894203 L146.644928,150.834783 Z" id="Shape" fill="#FFFFFF" fill-rule="nonzero"></path>
            <path d="M146.644928,150.834783 L31.0391304,150.834783 L31.0391304,149.894203 C31.0391304,147.671014 32.8347826,145.875362 35.057971,145.875362 L142.626087,145.875362 C144.849275,145.875362 146.644928,147.671014 146.644928,149.894203 L146.644928,150.834783 Z" id="Shape" stroke="#37474F" stroke-width="2"></path>
            <path d="M171.356522,150.834783 L6.32753623,150.834783" id="Shape" stroke="#37474F" stroke-width="2" stroke-linecap="round"></path>
            <rect id="Rectangle-path" fill="#BBDEFB" fill-rule="nonzero" x="99.5304348" y="98.1623188" width="30.184058" height="30.2695652"></rect>
            <path d="M126.123188,102.865217 L103.121739,102.865217 C101.155072,102.865217 99.5304348,104.489855 99.5304348,106.456522 L99.5304348,129.543478 C99.5304348,131.510145 101.155072,133.134783 103.121739,133.134783 L126.123188,133.134783 C128.089855,133.134783 129.714493,131.510145 129.714493,129.543478 L129.714493,106.456522 C129.714493,104.489855 128.175362,102.865217 126.123188,102.865217 Z" id="Shape" fill="#BBDEFB" fill-rule="nonzero"></path>
            <polygon id="Shape" fill="#FFFFFF" fill-rule="nonzero" points="114.665217 98.1623188 99.5304348 113.297101 99.5304348 120.565217 122.018841 98.1623188"></polygon>
            <path d="M103.976812,128.26087 L110.817391,128.26087 L129.714493,109.363768 L129.714493,102.523188 C121.163768,111.073913 112.527536,119.624638 103.976812,128.26087 Z" id="Shape" fill="#FFFFFF" fill-rule="nonzero"></path>
            <path d="M128.089855,98.1623188 L101.326087,98.1623188 C100.385507,98.1623188 99.615942,98.9318841 99.615942,99.8724638 L99.615942,126.721739 C99.615942,127.662319 100.385507,128.431884 101.326087,128.431884 L128.089855,128.431884 C129.030435,128.431884 129.8,127.662319 129.8,126.721739 L129.8,99.8724638 C129.714493,98.8463768 128.944928,98.1623188 128.089855,98.1623188 Z" id="Shape" stroke="#37474F" stroke-width="2"></path>
            <path d="M98.6753623,95.5971014 L130.484058,95.5971014 C131.595652,95.5971014 132.450725,96.5376812 132.450725,97.5637681 L132.450725,98.5043478 C132.450725,99.615942 131.510145,100.471014 130.484058,100.471014 L98.6753623,100.471014 C97.5637681,100.471014 96.7086957,99.5304348 96.7086957,98.5043478 L96.7086957,97.5637681 C96.7086957,96.4521739 97.5637681,95.5971014 98.6753623,95.5971014 Z" id="Shape" stroke="#37474F" stroke-width="2" fill="#FFFFFF" fill-rule="nonzero"></path>
            <path d="M114.665217,100.642029 L114.665217,128.517391" id="Shape" stroke="#37474F"></path>
            <path d="M72.4246377,85.8492754 C67.8927536,85.8492754 64.215942,82.6 64.215942,78.4956522 L64.215942,71.9115942 L80.6333333,71.9115942 L80.6333333,78.4956522 C80.6333333,82.5144928 76.9565217,85.8492754 72.4246377,85.8492754 Z" id="Shape" fill="#FFFFFF" fill-rule="nonzero"></path>
            <path d="M105.173913,85.8492754 C100.642029,85.8492754 96.9652174,82.6 96.9652174,78.4956522 L96.9652174,71.9115942 L113.382609,71.9115942 L113.382609,78.4956522 C113.382609,82.5144928 109.705797,85.8492754 105.173913,85.8492754 Z" id="Shape" fill="#FFFFFF" fill-rule="nonzero"></path>
            <path d="M39.6753623,85.8492754 C35.1434783,85.8492754 31.4666667,82.6 31.4666667,78.4956522 L31.4666667,71.9115942 L47.884058,71.9115942 L47.884058,78.4956522 C47.884058,82.5144928 44.2072464,85.8492754 39.6753623,85.8492754 Z" id="Shape" fill="#FFFFFF" fill-rule="nonzero"></path>
            <path d="M138.008696,85.8492754 C133.476812,85.8492754 129.8,82.6 129.8,78.4956522 L129.8,71.9115942 L146.217391,71.9115942 L146.217391,78.4956522 C146.131884,82.5144928 142.455072,85.8492754 138.008696,85.8492754 Z" id="Shape" fill="#FFFFFF" fill-rule="nonzero"></path>
            <path d="M56.0072464,85.8492754 C51.4753623,85.8492754 47.7985507,82.6 47.7985507,78.4956522 L47.7985507,71.9115942 L64.215942,71.9115942 L64.215942,78.4956522 C64.215942,82.5144928 60.5391304,85.8492754 56.0072464,85.8492754 Z" id="Shape" fill="#BBDEFB" fill-rule="nonzero"></path>
            <path d="M121.591304,85.8492754 C117.05942,85.8492754 113.382609,82.6 113.382609,78.4956522 L113.382609,71.9115942 L129.8,71.9115942 L129.8,78.4956522 C129.8,82.5144928 126.123188,85.8492754 121.591304,85.8492754 Z" id="Shape" fill="#BBDEFB" fill-rule="nonzero"></path>
            <path d="M88.842029,85.8492754 C84.3101449,85.8492754 80.6333333,82.6 80.6333333,78.4956522 L80.6333333,71.9115942 L97.0507246,71.9115942 L97.0507246,78.4956522 C96.9652174,82.5144928 93.373913,85.8492754 88.842029,85.8492754 Z" id="Shape" fill="#BBDEFB" fill-rule="nonzero"></path>
            <polygon id="Shape" fill="#BBDEFB" fill-rule="nonzero" points="80.6333333 71.9115942 64.215942 71.9115942 65.926087 47.0289855 81.1463768 47.0289855"></polygon>
            <polygon id="Shape" fill="#BBDEFB" fill-rule="nonzero" points="113.382609 71.9115942 96.9652174 71.9115942 96.4521739 47.0289855 111.672464 47.0289855"></polygon>
            <path d="M47.884058,71.9115942 L31.4666667,71.9115942 L34.715942,51.3898551 C35.1434783,48.9101449 37.2811594,47.0289855 39.7608696,47.0289855 L50.6202899,47.0289855 L47.884058,71.9115942 Z" id="Shape" fill="#BBDEFB" fill-rule="nonzero"></path>
            <path d="M146.131884,71.9115942 L129.714493,71.9115942 L126.892754,47.0289855 L137.752174,47.0289855 C140.231884,47.0289855 142.455072,48.8246377 142.797101,51.3898551 L146.131884,71.9115942 Z" id="Shape" fill="#BBDEFB" fill-rule="nonzero"></path>
            <polygon id="Shape" fill="#FFFFFF" fill-rule="nonzero" points="64.215942 71.9115942 47.884058 71.9115942 50.7057971 47.0289855 65.926087 47.0289855"></polygon>
            <polygon id="Shape" fill="#FFFFFF" fill-rule="nonzero" points="129.8 71.9115942 113.382609 71.9115942 111.672464 47.0289855 126.978261 47.0289855"></polygon>
            <polygon id="Shape" fill="#FFFFFF" fill-rule="nonzero" points="96.9652174 71.9115942 80.6333333 71.9115942 81.1463768 47.0289855 96.4521739 47.0289855"></polygon>
            <path d="M72.5101449,85.7637681 C67.9782609,85.7637681 64.3014493,82.5144928 64.3014493,78.4101449 L64.3014493,71.826087 L80.6333333,71.826087 L80.6333333,78.4101449 C80.6333333,82.5144928 76.9565217,85.7637681 72.5101449,85.7637681 Z" id="Shape" stroke="#37474F" stroke-width="2"></path>
            <path d="M105.173913,85.7637681 C100.642029,85.7637681 96.9652174,82.5144928 96.9652174,78.4101449 L96.9652174,71.826087 L113.297101,71.826087 L113.297101,78.4101449 C113.297101,82.5144928 109.705797,85.7637681 105.173913,85.7637681 Z" id="Shape" stroke="#37474F" stroke-width="2"></path>
            <path d="M39.7608696,85.7637681 C35.2289855,85.7637681 31.5521739,82.5144928 31.5521739,78.4101449 L31.5521739,71.826087 L47.884058,71.826087 L47.884058,78.4101449 C47.9695652,82.5144928 44.2927536,85.7637681 39.7608696,85.7637681 Z" id="Shape" stroke="#37474F" stroke-width="2"></path>
            <path d="M137.837681,85.7637681 C133.305797,85.7637681 129.628986,82.5144928 129.628986,78.4101449 L129.628986,71.826087 L145.96087,71.826087 L145.96087,78.4101449 C145.96087,82.5144928 142.369565,85.7637681 137.837681,85.7637681 Z" id="Shape" stroke="#37474F" stroke-width="2"></path>
            <path d="M56.1782609,85.7637681 C51.6463768,85.7637681 47.9695652,82.5144928 47.9695652,78.4101449 L47.9695652,71.826087 L64.3014493,71.826087 L64.3014493,78.4101449 C64.3014493,82.5144928 60.6246377,85.7637681 56.1782609,85.7637681 Z" id="Shape" stroke="#37474F" stroke-width="2"></path>
            <path d="M121.505797,85.7637681 C116.973913,85.7637681 113.297101,82.5144928 113.297101,78.4101449 L113.297101,71.826087 L129.628986,71.826087 L129.628986,78.4101449 C129.628986,82.5144928 126.037681,85.7637681 121.505797,85.7637681 Z" id="Shape" stroke="#37474F" stroke-width="2"></path>
            <path d="M88.842029,85.7637681 C84.3101449,85.7637681 80.6333333,82.5144928 80.6333333,78.4101449 L80.6333333,71.826087 L96.9652174,71.826087 L96.9652174,78.4101449 C96.9652174,82.5144928 93.2884058,85.7637681 88.842029,85.7637681 Z" id="Shape" stroke="#37474F" stroke-width="2"></path>
            <path d="M47.884058,71.9115942 L32.4927536,71.9115942 C31.9797101,71.9115942 31.5521739,71.3985507 31.6376812,70.8855072 L34.6304348,51.3043478 C35.057971,48.8246377 37.1956522,47.0289855 39.6753623,47.0289855 L50.6202899,47.0289855 L47.884058,71.9115942 Z" id="Shape" stroke="#37474F" stroke-width="2"></path>
            <path d="M145.105797,71.9115942 L129.714493,71.9115942 L126.892754,47.0289855 L137.837681,47.0289855 C140.317391,47.0289855 142.455072,48.8246377 142.882609,51.3043478 L145.875362,70.8855072 C146.046377,71.3985507 145.704348,71.9115942 145.105797,71.9115942 Z" id="Shape" stroke="#37474F" stroke-width="2"></path>
            <path d="M113.382609,71.9115942 L111.672464,47.0289855" id="Shape" stroke="#37474F" stroke-width="2"></path>
            <path d="M65.926087,47.0289855 L64.215942,71.9115942" id="Shape" stroke="#37474F" stroke-width="2"></path>
            <path d="M96.4521739,47.0289855 L96.9652174,71.9115942" id="Shape" stroke="#37474F" stroke-width="2"></path>
            <path d="M80.6333333,71.9115942 L81.1463768,47.0289855" id="Shape" stroke="#37474F" stroke-width="2"></path>
            <path d="M50.7057971,47.0289855 L126.978261,47.0289855" id="Shape" stroke="#37474F" stroke-width="2"></path>
            <path d="M171.698551,150.92029 L158.701449,150.92029 C157.76087,150.92029 156.991304,150.236232 156.82029,149.295652 L153.827536,130.655072 C153.656522,129.543478 154.511594,128.517391 155.708696,128.517391 L168.705797,128.517391 C169.646377,128.517391 170.415942,129.201449 170.586957,130.142029 L173.57971,148.782609 C173.750725,149.894203 172.895652,150.92029 171.698551,150.92029 Z" id="Shape" fill="#BBDEFB" fill-rule="nonzero"></path>
            <path d="M171.698551,150.92029 L158.701449,150.92029 C157.76087,150.92029 156.991304,150.236232 156.82029,149.295652 L153.827536,130.655072 C153.656522,129.543478 154.511594,128.517391 155.708696,128.517391 L168.705797,128.517391 C169.646377,128.517391 170.415942,129.201449 170.586957,130.142029 L173.57971,148.782609 C173.750725,149.894203 172.895652,150.92029 171.698551,150.92029 Z" id="Shape" stroke="#37474F" stroke-width="2" stroke-linecap="round"></path>
            <path d="M152.373913,150.92029 L164.515942,150.92029 C165.627536,150.92029 166.653623,150.065217 166.824638,148.953623 L169.646377,131.168116 C169.902899,129.8 168.791304,128.517391 167.337681,128.517391 L155.195652,128.517391 C154.084058,128.517391 153.057971,129.372464 152.886957,130.484058 L150.065217,148.269565 C149.808696,149.637681 150.92029,150.92029 152.373913,150.92029 Z" id="Shape" fill="#FFFFFF" fill-rule="nonzero"></path>
            <path d="M152.373913,150.92029 L164.430435,150.92029 C165.627536,150.92029 166.568116,150.065217 166.73913,148.953623 L169.56087,131.253623 C169.817391,129.8 168.705797,128.517391 167.252174,128.517391 L155.195652,128.517391 C153.998551,128.517391 153.057971,129.372464 152.886957,130.484058 L150.065217,148.184058 C149.808696,149.637681 150.92029,150.92029 152.373913,150.92029 Z" id="Shape" stroke="#37474F" stroke-width="2" stroke-linecap="round"></path>
            <path d="M165.114493,134.588406 L155.281159,134.588406" id="Shape" stroke="#37474F" stroke-width="2" stroke-linecap="round"></path>
            <path d="M164.430435,138.778261 L154.597101,138.778261" id="Shape" stroke="#37474F" stroke-linecap="round"></path>
            <path d="M163.746377,142.968116 L153.913043,142.968116" id="Shape" stroke="#37474F" stroke-linecap="round"></path>
        </g>
    </g>
</svg>