<?xml version="1.0" standalone="no"?>
<!DOCTYPE svg PUBLIC "-//W3C//DTD SVG 20010904//EN"
 "http://www.w3.org/TR/2001/REC-SVG-20010904/DTD/svg10.dtd">
<svg version="1.0" xmlns="http://www.w3.org/2000/svg" width="2000.000000pt" height="2000.000000pt" viewBox="0 0 2000.000000 2000.000000" preserveAspectRatio="xMidYMid meet">
    <metadata>
        Created by potrace 1.15, written by Peter Selinger 2001-2017
    </metadata>
    <g transform="translate(0.000000,2000.000000) scale(0.100000,-0.100000)" fill="#fff" stroke="none">
        <path d="M977 19984 c-484 -87 -878 -486 -962 -970 -14 -80 -15 -1037 -13
-9054 l3 -8965 23 -83 c120 -445 449 -772 889 -885 l88 -22 8995 0 8995 0 88
22 c442 113 777 448 890 890 l22 88 0 8995 0 8995 -22 88 c-113 440 -440 769
-885 889 l-83 23 -8975 2 c-7713 1 -8986 -1 -9053 -13z m17996 -511 c254 -73
445 -269 504 -520 17 -75 18 -394 18 -8953 0 -8559 -1 -8878 -18 -8953 -61
-258 -266 -463 -524 -524 -75 -17 -394 -18 -8953 -18 -8559 0 -8878 1 -8953
18 -258 61 -463 266 -524 524 -17 75 -18 394 -18 8953 0 8559 1 8878 18 8953
69 291 312 505 611 537 39 4 4051 7 8916 6 l8845 -1 78 -22z" />
        <path d="M7367 13853 c-4 -3 -7 -16 -7 -28 0 -21 6 -23 78 -30 324 -28 460
-163 525 -519 l22 -121 0 -2790 c0 -2952 1 -2858 -45 -3042 -65 -256 -216
-382 -479 -401 -95 -7 -96 -7 -99 -34 l-3 -28 2480 0 c2353 0 2480 1 2485 18
3 9 93 400 201 867 108 468 198 858 201 868 4 13 -1 17 -25 17 -29 0 -33 -6
-110 -162 -272 -557 -610 -991 -973 -1251 -261 -186 -508 -277 -818 -298 -213
-15 -721 -6 -815 15 -104 23 -185 67 -245 133 -59 65 -81 103 -115 207 -66
205 -75 410 -75 1859 l0 1187 128 0 c556 -1 1048 -295 1287 -770 69 -137 125
-351 125 -477 0 -41 1 -43 30 -43 l30 0 0 1315 0 1315 -30 0 c-29 0 -30 -2
-30 -42 0 -62 -24 -202 -50 -288 -94 -317 -344 -613 -660 -783 -219 -118 -466
-177 -741 -177 l-89 0 0 1198 c0 1200 6 1493 35 1687 46 308 163 464 391 522
58 15 115 18 344 18 291 0 369 -7 542 -51 566 -142 1032 -561 1359 -1221 58
-117 63 -123 91 -123 28 0 30 2 23 28 -4 15 -78 331 -165 702 -87 371 -161
687 -165 703 l-7 27 -2312 0 c-1272 0 -2316 -3 -2319 -7z" />
    </g>
</svg>
