<svg id="svg" version="1.1" width="400" height="137" xmlns="http://www.w3.org/2000/svg" xmlns:xlink="http://www.w3.org/1999/xlink" style="display: block;"><g id="svgg"><path id="path0" d="M384.250 15.732 L 380.000 16.115 380.000 28.961 L 380.000 41.808 374.750 39.810 C 353.610 31.768,334.182 55.424,342.520 79.056 C 347.831 94.111,366.839 101.027,379.426 92.485 L 383.054 90.024 384.210 92.561 C 385.181 94.692,385.939 95.051,388.933 94.799 L 392.500 94.500 392.761 54.750 L 393.023 15.000 390.761 15.175 C 389.518 15.271,386.587 15.522,384.250 15.732 M16.726 39.882 C 7.820 42.204,7.501 42.600,9.531 48.804 C 11.132 53.699,11.284 53.842,13.845 52.867 C 26.383 48.093,34.509 49.980,36.511 58.131 L 37.157 60.761 27.328 61.161 C 10.979 61.826,4.520 67.197,5.224 79.543 C 6.030 93.677,22.373 100.975,34.802 92.750 C 39.843 89.414,39.638 89.423,40.411 92.500 C 40.963 94.701,41.573 95.000,45.519 95.000 L 50.000 95.000 49.978 74.750 C 49.953 51.817,49.181 48.528,42.654 43.550 C 35.468 38.069,27.825 36.987,16.726 39.882 M80.994 38.879 C 79.615 39.329,77.073 40.428,75.344 41.322 C 72.584 42.750,72.052 42.768,70.978 41.474 C 70.305 40.663,68.235 40.000,66.378 40.000 L 63.000 40.000 63.000 79.500 L 63.000 119.000 65.875 119.000 C 67.456 119.000,70.156 118.719,71.875 118.375 L 75.000 117.750 75.000 105.426 L 75.000 93.102 78.748 94.668 C 87.624 98.376,102.345 93.772,107.939 85.538 C 122.709 63.799,103.987 31.380,80.994 38.879 M140.218 39.471 C 137.863 40.206,135.232 41.392,134.372 42.107 C 133.066 43.190,132.648 43.123,131.854 41.703 C 131.207 40.547,129.631 40.000,126.950 40.000 L 123.000 40.000 123.000 79.500 L 123.000 119.000 126.375 119.000 C 128.231 119.000,131.156 118.719,132.875 118.375 L 136.000 117.750 136.000 105.856 L 136.000 93.962 138.750 94.731 C 154.342 99.091,169.091 90.903,172.836 75.807 C 178.574 52.676,160.919 33.007,140.218 39.471 M192.479 39.394 C 173.474 45.349,175.766 63.400,196.500 71.065 C 207.600 75.168,211.040 79.758,205.777 83.443 C 202.968 85.411,193.925 85.426,188.500 83.471 C 183.155 81.546,183.445 81.432,181.533 86.208 C 179.502 91.286,180.250 92.143,188.921 94.665 C 211.958 101.365,231.169 82.567,215.845 68.320 C 213.449 66.092,201.399 60.002,199.385 60.001 C 197.361 59.999,193.000 55.890,193.000 53.984 C 193.000 49.122,201.359 47.625,210.055 50.929 L 215.132 52.858 217.091 48.287 C 218.169 45.774,218.926 43.613,218.775 43.486 C 213.656 39.182,199.957 37.051,192.479 39.394 M244.248 39.880 C 232.156 44.057,227.563 51.506,227.525 67.000 C 227.477 86.935,236.455 95.592,257.000 95.421 C 272.491 95.292,278.347 91.815,275.524 84.423 C 273.556 79.270,274.023 79.437,268.892 82.055 C 257.359 87.939,244.550 84.330,241.188 74.250 L 240.104 71.000 259.186 71.000 L 278.269 71.000 277.778 64.250 C 276.327 44.266,261.900 33.781,244.248 39.880 M302.500 39.332 C 278.450 47.260,276.694 84.767,299.953 93.745 C 309.490 97.426,334.000 94.373,334.000 89.503 C 334.000 89.000,330.826 80.702,330.434 80.180 C 330.302 80.004,328.238 80.891,325.847 82.151 C 314.530 88.113,300.538 83.717,297.515 73.250 L 296.865 71.000 316.077 71.000 L 335.289 71.000 334.670 64.750 C 332.677 44.617,319.074 33.869,302.500 39.332 M95.090 53.974 C 108.215 67.771,95.240 90.225,78.250 83.117 L 75.000 81.757 75.000 67.504 L 75.000 53.250 78.250 51.648 C 84.499 48.567,90.771 49.434,95.090 53.974 M155.101 52.561 C 160.484 57.359,161.967 71.760,157.730 78.102 C 153.437 84.529,146.180 86.317,138.533 82.833 L 136.000 81.679 136.000 67.371 L 136.000 53.064 138.750 51.515 C 142.589 49.353,152.190 49.967,155.101 52.561 M259.883 51.631 C 262.033 53.137,265.000 58.550,265.000 60.968 C 265.000 61.620,260.582 62.000,253.000 62.000 C 239.811 62.000,239.491 61.818,242.494 56.011 C 245.528 50.144,254.525 47.878,259.883 51.631 M316.647 51.465 C 318.696 52.900,322.000 58.725,322.000 60.901 C 322.000 61.641,317.942 62.000,309.594 62.000 L 297.187 62.000 298.283 58.430 C 300.532 51.101,310.649 47.264,316.647 51.465 M376.750 51.989 L 380.000 53.971 380.000 66.917 L 380.000 79.864 377.085 81.939 C 366.509 89.470,354.000 81.514,354.000 67.256 C 354.000 53.248,365.813 45.321,376.750 51.989 M37.000 75.015 C 37.000 84.629,20.936 89.740,17.110 81.343 C 13.985 74.484,18.853 70.000,29.423 70.000 L 37.000 70.000 37.000 75.015 " stroke="none" fill="#4182d7" fill-rule="evenodd"></path></g></svg>