<?xml version="1.0" encoding="UTF-8"?>
<!DOCTYPE svg  PUBLIC '-//W3C//DTD SVG 20010904//EN'  'http://www.w3.org/TR/2001/REC-SVG-20010904/DTD/svg10.dtd'>
<svg width="2e3pt" height="2e3pt" version="1.0" viewBox="0 0 2000.000000 2000.000000" xmlns="http://www.w3.org/2000/svg">
<metadata>Enact white logo, Copyright (c) 2018 Enact. All Rights Reserved.</metadata>
<g transform="translate(0 2e3) scale(.1 -.1)" fill="#fff">
<path d="m977 19984c-484-87-878-486-962-970-14-80-15-1037-13-9054l3-8965 23-83c120-445 449-772 889-885l88-22h8995 8995l88 22c442 113 777 448 890 890l22 88v8995 8995l-22 88c-113 440-440 769-885 889l-83 23-8975 2c-7713 1-8986-1-9053-13zm17908-1010c46-25 65-45 91-94 19-34 19-258 19-8880s0-8846-19-8880c-26-49-45-69-91-94l-40-21h-8845c-8622 0-8846 0-8880 19-49 26-69 45-94 91l-21 40v8845c0 8622 0 8846 19 8880 35 66 75 96 146 111 19 4 4004 6 8855 5l8820-1 40-21z"/>
<path d="m7367 13853c-4-3-7-16-7-28 0-21 6-23 78-30 324-28 460-163 525-519l22-121v-2790c0-2952 1-2858-45-3042-65-256-216-382-479-401-95-7-96-7-99-34l-3-28h2480c2353 0 2480 1 2485 18 3 9 93 400 201 867 108 468 198 858 201 868 4 13-1 17-25 17-29 0-33-6-110-162-272-557-610-991-973-1251-261-186-508-277-818-298-213-15-721-6-815 15-104 23-185 67-245 133-59 65-81 103-115 207-66 205-75 410-75 1859v1187h128c556-1 1048-295 1287-770 69-137 125-351 125-477 0-41 1-43 30-43h30v1315 1315h-30c-29 0-30-2-30-42 0-62-24-202-50-288-94-317-344-613-660-783-219-118-466-177-741-177h-89v1198c0 1200 6 1493 35 1687 46 308 163 464 391 522 58 15 115 18 344 18 291 0 369-7 542-51 566-142 1032-561 1359-1221 58-117 63-123 91-123s30 2 23 28c-4 15-78 331-165 702s-161 687-165 703l-7 27h-2312c-1272 0-2316-3-2319-7z"/>
</g>
</svg>