<svg id="Layer_1" data-name="Layer 1" xmlns="http://www.w3.org/2000/svg" xmlns:xlink="http://www.w3.org/1999/xlink" viewBox="0 0 113.81 100"><defs><style>.cls-1,.cls-2,.cls-3{fill:none;}.cls-2{clip-path:url(#clip-path);}.cls-3{clip-path:url(#clip-path-2);}.cls-4{clip-path:url(#clip-path-3);}.cls-5{fill:#fa6236;}</style><clipPath id="clip-path"><rect class="cls-1" x="259" y="357" width="94" height="80"/></clipPath><clipPath id="clip-path-2"><path class="cls-2" d="M277.19,357.56,259.25,382.4a1.43,1.43,0,0,0,.09,1.73l45.53,52.43a1.43,1.43,0,0,0,2.07,0l45.54-52.43a1.43,1.43,0,0,0,.08-1.73l-17.93-24.84a1.42,1.42,0,0,0-1.13-.56H278.31a1.28,1.28,0,0,0-1.12.56Zm3.1,2.2h22.86l-15.31,20.79-7.55-20.79Zm28.38,0h22.85L324,380.55l-15.31-20.79Zm-2.76.95,15.56,21.13H290.34l15.57-21.13Zm-28,.56,7.5,20.57H263.05l14.83-20.57Zm56.06,0,14.83,20.57H326.48l7.46-20.57ZM263.39,384.6h23l16.56,45.49L263.39,384.6Zm25.92,0h33.2l-16.6,45.62-16.6-45.62Zm36.13,0h23l-39.55,45.49,16.56-45.49Z"/></clipPath><clipPath id="clip-path-3" transform="translate(-249 -347)"><rect class="cls-3" x="259" y="-355" width="612" height="792"/></clipPath></defs><title>diamond</title><g class="cls-4"><rect class="cls-5" width="113.81" height="100"/></g></svg>