<svg id="Layer_1" data-name="Layer 1" xmlns="http://www.w3.org/2000/svg" xmlns:xlink="http://www.w3.org/1999/xlink" viewBox="0 0 136 120"><defs><style>.cls-1,.cls-2{fill:none;}.cls-2{clip-path:url(#clip-path);clip-rule:evenodd;}.cls-3{clip-path:url(#clip-path-2);}.cls-4{fill:#fa6236;}</style><clipPath id="clip-path"><rect class="cls-1" x="248" y="346" width="116" height="100"/></clipPath><clipPath id="clip-path-2" transform="translate(-238 -336)"><path class="cls-2" d="M312.49,408.12a1.36,1.36,0,0,0-1.12,1.55,1.34,1.34,0,0,0,.4.77l5.82,5.83H291a1.36,1.36,0,0,0,.12,2.71h26.43l-5.82,5.82a1.36,1.36,0,0,0,0,1.92,1.34,1.34,0,0,0,1.91,0l8.1-8.11a1.35,1.35,0,0,0,0-1.9l-8.1-8.15-.12-.08a1.35,1.35,0,0,0-1.1-.34ZM306,392a25.68,25.68,0,1,1-25.63,25.67A25.63,25.63,0,0,1,306,392Zm-33.73-10.81a21.55,21.55,0,0,1,19.48,12A28.26,28.26,0,0,0,278,421.68H250.7V402.29a21.28,21.28,0,0,1,21.57-21.15Zm0-2.71A24,24,0,0,0,248,402.29V423a1.34,1.34,0,0,0,1.35,1.35h29.12a28.34,28.34,0,1,0,41.78-31.25,21.55,21.55,0,0,1,19.47-12,21.29,21.29,0,0,1,21.58,21.15v19.39H341.07a1.35,1.35,0,1,0,0,2.7h21.62A1.34,1.34,0,0,0,364,423V402.29a24.37,24.37,0,0,0-46.16-10.38,27.61,27.61,0,0,0-23.69,0,24.25,24.25,0,0,0-21.88-13.48Zm67.45-29.73a9.47,9.47,0,1,1-9.44,9.46,9.43,9.43,0,0,1,9.44-9.46Zm-67.45,0a9.47,9.47,0,1,1-9.44,9.46,9.43,9.43,0,0,1,9.44-9.46Zm67.45-2.7a12.17,12.17,0,1,0,12.14,12.16A12.17,12.17,0,0,0,339.72,346Zm-67.45,0a12.17,12.17,0,1,0,12.15,12.16A12.17,12.17,0,0,0,272.27,346Z"/></clipPath></defs><title>facetoface</title><g class="cls-3"><rect class="cls-4" width="136" height="120"/></g></svg>