<svg width="760px" height="98px" viewBox="0 0 760 98" version="1.1" xmlns="http://www.w3.org/2000/svg" xmlns:xlink="http://www.w3.org/1999/xlink">
    <g id="Page-1" stroke="none" stroke-width="1" fill="none" fill-rule="evenodd">
        <g id="01_LandingPage_dsk" transform="translate(-639.000000, -618.000000)">
            <rect fill="#FFFFFF" x="0" y="0" width="1440" height="4974"></rect>
            <g id="01" transform="translate(640.000000, 619.000000)" stroke="#A4A4A4">
                <g id="outline/two122019">
                    <g>
                        <path d="M51.5734052,78.2966849 C49.4425534,79.0173044 46.8851067,79.3055522 44.4698584,79.3055522 C39.7815599,79.3055522 38.2195012,76.9995698 38.2195012,72.536031 L38.2195012,38.8390019 L52,38.8390019 L52,26.4551017 L38.2195012,26.4551017 L38.2195012,5 L8.9521244,7.30383135 L8.9521244,26.4551017 L0,26.4551017 L0,38.8390019 L8.9521244,38.8390019 L8.9521244,70.9528191 C8.9521244,86.2170463 15.626954,95 33.104608,95 C40.4925513,95 46.6007102,93.705036 52,90.824709 L51.5734052,78.2966849 Z" id="Stroke-7" stroke-width="0.5"></path>
                        <polygon id="Stroke-9" stroke-width="0.5" points="156.684775 94 179 26 150.310542 26 141.616045 68.4632153 129.880531 26 106.119469 26 94.3817904 68.4632153 85.6872938 26 57 26 79.3130611 94 107.13242 94 118 54.1634877 128.865415 94"></polygon>
                        <path d="M258,61 C258,39.6841458 241.711163,26 218.498923,26 C195.435273,26 179,39.6841458 179,61 C179,82.3158542 195.435273,96 218.498923,96 C241.711163,96 258,82.3158542 258,61 Z M228.303666,61 C228.303666,73.8192045 224.265912,78.4279216 218.498923,78.4279216 C212.734088,78.4279216 208.696334,73.8192045 208.696334,61 C208.696334,48.1807955 212.734088,43.5720784 218.498923,43.5720784 C224.265912,43.5720784 228.303666,48.1807955 228.303666,61 Z" id="Stroke-11" stroke-width="0.5"></path>
                        <path d="M310,94 L310,1 L288.314151,1 C283.832711,7.19139785 278.193656,11.0774194 267.349651,11.0774194 L262,11.0774194 L262,23.6021505 L280.217323,23.6021505 L280.217323,94 L310,94 Z" id="Stroke-13" stroke-width="0.5"></path>
                        <path d="M400,94 L400,75.0865536 L355.897913,75.0865536 C359.777849,72.7940795 363.79942,70.0692246 369.977704,66.2013435 C390.519049,53.1614255 399.570803,42.9876352 399.570803,27.7986565 C399.570803,10.8908573 384.630473,0 361.213511,0 C336.79223,0 323,10.8908573 323,28.3723101 C323,32.3857452 323.718904,36.5404531 325.154566,41.1254013 L354.460104,45.1388364 C352.163903,40.9819879 350.726095,35.96894 350.726095,31.5252647 C350.726095,24.2176022 353.743346,19.0590003 360.494607,19.0590003 C367.391795,19.0590003 369.977704,23.7873619 369.977704,30.0932711 C369.977704,39.1197541 366.816672,46.2840032 356.473036,55.1670728 C344.260249,65.6276899 338.227892,70.2147785 327.021571,78.9544347 C326.017251,79.6715018 325.012932,80.5298417 323.862685,81.3903222 L323.862685,94 L400,94 Z" id="Stroke-15" stroke-width="0.5"></path>
                        <path d="M517,94 L517,75.0865536 L472.897913,75.0865536 C476.777849,72.7940795 480.79942,70.0692246 486.977704,66.2013435 C507.519049,53.1614255 516.570803,42.9876352 516.570803,27.7986565 C516.570803,10.8908573 501.630473,0 478.213511,0 C453.79223,0 440,10.8908573 440,28.3723101 C440,32.3857452 440.718904,36.5404531 442.154566,41.1254013 L471.460104,45.1388364 C469.163903,40.9819879 467.726095,35.96894 467.726095,31.5252647 C467.726095,24.2176022 470.743346,19.0590003 477.494607,19.0590003 C484.391795,19.0590003 486.977704,23.7873619 486.977704,30.0932711 C486.977704,39.1197541 483.816672,46.2840032 473.473036,55.1670728 C461.260249,65.6276899 455.227892,70.2147785 444.021571,78.9544347 C443.017251,79.6715018 442.012932,80.5298417 440.862685,81.3903222 L440.862685,94 L517,94 Z" id="Stroke-17" stroke-width="0.5"></path>
                        <path d="M610,48.0010766 C610,22.4846242 598.07973,0 568.498927,0 C538.918125,0 527,22.4846242 527,48.0010766 C527,73.5153758 538.918125,96 568.498927,96 C598.07973,96 610,73.5153758 610,48.0010766 Z M580.419197,48.0010766 C580.419197,67.3160622 577.4032,76.9735549 568.498927,76.9735549 C559.5968,76.9735549 556.582948,67.3160622 556.582948,48.0010766 C556.582948,28.6839378 559.5968,19.0264451 568.498927,19.0264451 C577.4032,19.0264451 580.419197,28.6839378 580.419197,48.0010766 Z" id="Stroke-19" stroke-width="0.5"></path>
                        <path d="M663,94 L663,1 L641.314151,1 C636.832711,7.19139785 631.193656,11.0774194 620.349651,11.0774194 L615,11.0774194 L615,23.6021505 L633.217323,23.6021505 L633.217323,94 L663,94 Z" id="Stroke-21" stroke-width="0.5"></path>
                        <path d="M676,31.2801005 C676,48.144267 685.75802,59.2420599 703.237602,59.2420599 C715.180026,59.2420599 723.480326,52.6122376 727.413993,43.9648304 C726.978853,64.5777858 726.39359,77.6953167 716.052482,77.6953167 C710.373902,77.6953167 708.333095,74.3793289 708.333095,69.7670913 C708.333095,68.0358873 708.624638,66.1625695 709.209902,64.7198995 L680.223036,69.0457563 C679.933668,70.6305401 679.642124,72.3595909 679.642124,73.8022609 C679.642124,88.0717746 694.935127,96 716.489798,96 C748.97084,96 758,72.3595909 758,44.2512112 C758,17.5876548 745.182945,0 716.346202,0 C692.604951,0 676,11.3884802 676,31.2801005 Z M705.859322,31.2801005 C705.859322,24.3617441 709.061954,18.5953705 716.20043,18.5953705 C722.462098,18.5953705 725.958449,23.6404091 725.958449,30.7030325 C725.958449,37.7678091 722.316326,43.3877624 715.760938,43.3877624 C708.918358,43.3877624 705.859322,37.7678091 705.859322,31.2801005 Z" id="Stroke-23" stroke-width="0.5"></path>
                    </g>
                </g>
            </g>
        </g>
    </g>
</svg>
