
<svg width="577px" height="79px" viewBox="0 0 577 79" version="1.1" xmlns="http://www.w3.org/2000/svg" xmlns:xlink="http://www.w3.org/1999/xlink">
    <g id="Page-1" stroke="none" stroke-width="1" fill="none" fill-rule="evenodd">
        <g id="01_LandingPage_dsk" transform="translate(-159.000000, -3534.000000)">
            <rect fill="none" x="0" y="0" width="1440" height="4974"></rect>
            <g id="06" transform="translate(0.000000, 2612.000000)" opacity="0.424908854" stroke="#FFFFFF">
                <g id="outline/startnowNEW" transform="translate(160.000000, 923.000000)">
                    <path d="M56.42,58.404 C56.42,69.316 47.12,77.5 29.76,77.5 C18.228,77.5 6.696,73.532 -2.27373675e-13,68.2 L6.696,56.42 C12.276,60.512 19.096,63.612 25.916,63.612 C29.884,63.612 31.62,62.496 31.62,60.512 C31.62,58.776 30.38,57.288 24.8,55.676 C6.076,50.22 2.728,44.268 2.728,35.092 C2.728,24.304 12.276,17.236 29.512,17.236 C38.688,17.236 48.112,19.22 56.544,25.296 L50.22,37.076 C44.516,33.604 38.192,31.124 32.488,31.124 C29.264,31.124 27.528,32.116 27.528,33.852 C27.528,36.208 28.768,36.952 37.696,39.432 C50.468,42.904 56.42,48.236 56.42,58.404 Z M105.524,63.116 L105.896,73.904 C101.184,76.384 95.852,77.5 89.404,77.5 C74.152,77.5 68.324,69.936 68.324,56.792 L68.324,29.14 L60.512,29.14 L60.512,18.476 L68.324,18.476 L68.324,1.984 L93.868,0 L93.868,18.476 L105.896,18.476 L105.896,29.14 L93.868,29.14 L93.868,58.156 C93.868,62 95.232,63.984 99.324,63.984 C101.432,63.984 103.664,63.736 105.524,63.116 Z M181.288,64.48 L181.288,73.16 C177.94,75.888 173.228,77.5 166.656,77.5 C155,77.5 151.032,72.168 149.792,66.836 C146.568,74.152 139.624,77.5 130.2,77.5 C119.536,77.5 112.716,71.548 112.716,61.876 C112.716,51.584 121.52,47.492 135.284,47.492 C139.376,47.492 143.964,47.864 148.8,48.484 L148.8,38.192 C148.8,33.728 146.94,31.248 143.344,31.248 C139.624,31.248 138.136,33.356 138.136,36.208 C138.136,37.324 138.384,38.564 138.88,39.928 L116.064,45.26 C114.328,41.788 113.46,38.44 113.46,35.464 C113.46,24.552 124.496,17.236 144.584,17.236 C164.548,17.236 174.344,25.172 174.344,41.044 L174.344,60.512 C174.344,63.364 175.088,64.976 178.188,64.976 C179.428,64.976 180.42,64.852 181.288,64.48 Z M148.924,56.42 L148.924,55.304 C141.856,56.296 137.764,57.412 137.764,61.752 C137.764,64.108 139.376,65.72 142.104,65.72 C147.56,65.72 148.924,60.884 148.924,56.42 Z M236.468,50.468 L224.936,49.6 C225.432,47.864 225.804,45.632 225.804,43.648 C225.804,40.548 224.936,37.944 221.96,37.944 C216.256,37.944 214.892,47.368 214.892,61.752 L214.892,76.26 L189.348,76.26 L189.348,18.476 L207.824,18.476 L212.412,42.78 C212.536,27.032 219.852,17.236 229.276,17.236 C238.328,17.236 242.668,23.188 242.668,31.372 C242.668,37.076 240.56,43.896 236.468,50.468 Z M291.276,63.116 L291.648,73.904 C286.936,76.384 281.604,77.5 275.156,77.5 C259.904,77.5 254.076,69.936 254.076,56.792 L254.076,29.14 L246.264,29.14 L246.264,18.476 L254.076,18.476 L254.076,1.984 L279.62,0 L279.62,18.476 L291.648,18.476 L291.648,29.14 L279.62,29.14 L279.62,58.156 C279.62,62 280.984,63.984 285.076,63.984 C287.184,63.984 289.416,63.736 291.276,63.116 Z M392.336,76.26 L366.792,76.26 L366.792,42.78 C366.792,38.936 365.18,36.58 361.46,36.58 C354.888,36.58 352.532,45.384 352.532,58.9 L352.532,76.26 L326.988,76.26 L326.988,18.476 L345.092,18.476 L350.052,38.564 C353.152,24.552 359.848,17.236 371.504,17.236 C385.64,17.236 392.336,27.156 392.336,44.392 L392.336,76.26 Z M468.968,47.368 C468.968,65.72 454.956,77.5 434.992,77.5 C415.152,77.5 401.016,65.72 401.016,47.368 C401.016,29.016 415.152,17.236 434.992,17.236 C454.956,17.236 468.968,29.016 468.968,47.368 Z M443.424,47.368 C443.424,36.332 439.952,32.364 434.992,32.364 C430.032,32.364 426.56,36.332 426.56,47.368 C426.56,58.404 430.032,62.372 434.992,62.372 C439.952,62.372 443.424,58.404 443.424,47.368 Z M555.768,76.26 L531.96,76.26 L522.66,42.408 L513.36,76.26 L489.552,76.26 L470.456,18.476 L495.008,18.476 L502.448,54.56 L512.492,18.476 L532.828,18.476 L542.872,54.56 L550.312,18.476 L574.864,18.476 L555.768,76.26 Z"></path>
                </g>
            </g>
        </g>
    </g>
</svg>