<svg id="Layer_1" data-name="Layer 1" xmlns="http://www.w3.org/2000/svg" xmlns:xlink="http://www.w3.org/1999/xlink" viewBox="0 0 135.5 135.52"><defs><style>.cls-1,.cls-2{fill:none;}.cls-2{clip-path:url(#clip-path);clip-rule:evenodd;}.cls-3{clip-path:url(#clip-path-2);}.cls-4{fill:#fa6236;}</style><clipPath id="clip-path"><rect class="cls-1" x="248" y="338" width="116" height="116"/></clipPath><clipPath id="clip-path-2" transform="translate(-238 -328)"><path class="cls-2" d="M353.35,359a21.12,21.12,0,0,1-10.85-10.85A21.1,21.1,0,0,1,331.66,359a21.1,21.1,0,0,1,10.84,10.85A21.12,21.12,0,0,1,353.35,359m-12.6,19.25a17.49,17.49,0,0,0-17.5-17.49,1.76,1.76,0,0,1,0-3.51,17.49,17.49,0,0,0,17.5-17.5,1.75,1.75,0,0,1,3.5,0,17.5,17.5,0,0,0,17.49,17.5,1.75,1.75,0,0,1,0,3.51,17.5,17.5,0,0,0-17.49,17.49,1.75,1.75,0,1,1-3.5,0m-21,35.7A26.33,26.33,0,0,1,304.69,429a26.32,26.32,0,0,1,15.06,15.05A26.35,26.35,0,0,1,334.81,429,26.36,26.36,0,0,1,319.75,414m22.88,16.87a22.76,22.76,0,0,0-21.07,21.08,1.76,1.76,0,0,1-1.75,1.62,1.79,1.79,0,0,1-1.87-1.62,22.76,22.76,0,0,0-21.07-21.08,1.74,1.74,0,0,1-1.62-1.74,1.78,1.78,0,0,1,1.62-1.87,22.76,22.76,0,0,0,21.07-21.07,1.76,1.76,0,0,1,1.75-1.63,1.79,1.79,0,0,1,1.87,1.63,22.76,22.76,0,0,0,21.07,21.07,1.75,1.75,0,0,1,1.62,1.74,1.78,1.78,0,0,1-1.62,1.87M279.5,359.17A33.33,33.33,0,0,1,258.68,380a33.34,33.34,0,0,1,20.82,20.83A33.33,33.33,0,0,1,300.33,380a33.32,33.32,0,0,1-20.83-20.84m29.85,22.63a29.77,29.77,0,0,0-28.06,28.06,1.75,1.75,0,0,1-1.75,1.66,1.77,1.77,0,0,1-1.83-1.66,29.77,29.77,0,0,0-28-28.06,1.74,1.74,0,0,1-1.66-1.74,1.78,1.78,0,0,1,1.66-1.85,29.74,29.74,0,0,0,28-28,1.75,1.75,0,0,1,1.74-1.66,1.77,1.77,0,0,1,1.84,1.66,29.75,29.75,0,0,0,28.06,28,1.8,1.8,0,0,1,0,3.59"/></clipPath></defs><title>star</title><g class="cls-3"><rect class="cls-4" width="135.5" height="135.52"/></g></svg>