<svg id="Layer_1" data-name="Layer 1" xmlns="http://www.w3.org/2000/svg" xmlns:xlink="http://www.w3.org/1999/xlink" viewBox="0 0 116 116"><defs><style>.cls-1,.cls-2,.cls-3{fill:none;}.cls-2{clip-path:url(#clip-path);clip-rule:evenodd;}.cls-3{clip-path:url(#clip-path-2);}.cls-4{clip-path:url(#clip-path-3);}.cls-5{fill:#fa6236;}</style><clipPath id="clip-path"><rect class="cls-1" x="258" y="348" width="96" height="96"/></clipPath><clipPath id="clip-path-2"><path class="cls-2" d="M343.89,361h-1.73l4-4,1.65.07L343.89,361Zm-2.9-2.89,3.95-3.95.07,1.65-4,4v-1.73Zm-26.07,26.55a18.62,18.62,0,1,0,2.42,2.42l7.34-7.34a29.06,29.06,0,1,1-2.43-2.42l-7.33,7.34Zm-13.08,15.5a1.7,1.7,0,0,0,2.4,0l10.5-10.5a15,15,0,1,1-2.4-2.4l-10.5,10.5a1.7,1.7,0,0,0,0,2.4ZM344,398.94a41,41,0,1,1-13.23-30.1l-6.44,6.46a31.89,31.89,0,1,0,2.37,2.37l6.44-6.44A40.78,40.78,0,0,1,344,398.94Zm8.37-44.45-4.65-.19-.2-4.66a1.72,1.72,0,0,0-1.78-1.64,1.77,1.77,0,0,0-1.14.5l-7,7a1.68,1.68,0,0,0-.46,1.21v5.77l-3.68,3.68a44.88,44.88,0,1,0,2.41,2.41l3.65-3.7h5.77a1.73,1.73,0,0,0,1.21-.51l7-7a1.71,1.71,0,0,0,0-2.42,1.73,1.73,0,0,0-1.14-.5v0Z"/></clipPath><clipPath id="clip-path-3" transform="translate(-248 -338)"><rect class="cls-3" x="258" y="-348" width="612" height="792"/></clipPath></defs><title>target</title><g class="cls-4"><rect class="cls-5" width="116" height="116"/></g></svg>