<svg id="svg" version="1.1" width="515" height="57" xmlns="http://www.w3.org/2000/svg" xmlns:xlink="http://www.w3.org/1999/xlink" style="display: block;"><g id="svgg"><path id="path0" d="M10.907 2.325 C -2.996 9.660,-1.031 23.200,15.139 31.471 C 26.347 37.204,29.000 39.428,29.000 43.093 C 29.000 54.867,10.828 55.610,4.363 44.099 C 0.809 37.772,-0.027 37.703,0.100 43.750 C 0.272 51.971,1.027 53.316,6.532 55.206 C 24.130 61.250,40.852 51.305,37.020 37.073 C 35.728 32.276,32.367 29.333,22.059 23.970 C 12.794 19.150,10.667 17.069,10.667 12.829 C 10.667 2.475,26.762 2.494,31.433 12.852 C 34.227 19.046,35.712 18.216,35.195 10.750 C 34.676 3.237,34.192 2.538,28.527 1.111 C 21.542 -0.648,15.791 -0.251,10.907 2.325 M49.000 1.974 C 49.000 2.510,50.350 3.647,52.000 4.500 L 55.000 6.051 55.000 28.500 L 55.000 50.949 52.000 52.500 C 46.696 55.243,48.536 56.000,60.500 56.000 C 72.577 56.000,74.621 55.122,68.500 52.564 L 65.000 51.102 65.000 28.564 L 65.000 6.027 68.500 4.564 C 74.782 1.939,72.674 1.000,60.500 1.000 C 53.702 1.000,49.000 1.398,49.000 1.974 M84.000 2.016 C 84.000 2.575,85.575 3.783,87.500 4.701 L 91.000 6.370 91.000 28.672 L 91.000 50.973 87.500 52.436 C 80.334 55.430,83.375 56.000,106.500 56.000 L 129.000 56.000 129.000 45.917 C 129.000 33.791,127.935 33.377,123.603 43.820 L 120.625 51.000 110.812 51.000 L 101.000 51.000 101.000 28.492 L 101.000 5.984 105.000 4.383 C 111.568 1.755,109.670 1.000,96.500 1.000 C 88.701 1.000,84.000 1.382,84.000 2.016 M132.000 2.087 C 132.000 2.685,133.254 3.647,134.787 4.226 C 137.264 5.161,138.753 8.117,148.218 30.889 C 162.297 64.766,160.256 64.750,174.418 31.105 C 182.982 10.760,185.839 4.939,187.668 4.105 C 192.264 2.011,190.092 1.000,181.000 1.000 C 171.657 1.000,169.385 2.193,175.000 4.150 C 176.650 4.725,178.000 5.662,178.000 6.233 C 178.000 7.450,164.997 40.169,164.102 41.204 C 163.576 41.811,148.958 7.614,148.989 5.848 C 148.995 5.489,150.350 4.725,152.000 4.150 C 158.039 2.045,155.221 1.000,143.500 1.000 C 135.887 1.000,132.000 1.367,132.000 2.087 M199.000 2.016 C 199.000 2.575,200.575 3.783,202.500 4.701 L 206.000 6.370 206.000 28.672 L 206.000 50.973 202.500 52.436 C 195.334 55.430,198.375 56.000,221.500 56.000 L 244.000 56.000 244.000 48.000 C 244.000 38.453,242.876 37.846,239.371 45.500 L 236.853 51.000 226.427 51.000 L 216.000 51.000 216.000 40.500 L 216.000 30.000 222.935 30.000 L 229.871 30.000 231.136 33.500 C 233.531 40.124,235.000 37.843,235.000 27.500 C 235.000 17.157,233.531 14.876,231.136 21.500 L 229.871 25.000 222.935 25.000 L 216.000 25.000 216.000 15.500 L 216.000 6.000 225.361 6.000 L 234.722 6.000 237.109 10.500 C 240.610 17.099,242.000 16.389,242.000 8.000 L 242.000 1.000 220.500 1.000 C 206.605 1.000,199.000 1.359,199.000 2.016 M256.000 2.051 C 256.000 2.629,257.575 3.760,259.500 4.564 L 263.000 6.027 263.000 28.564 L 263.000 51.102 259.500 52.564 C 253.321 55.146,255.434 56.000,268.000 56.000 C 280.669 56.000,282.184 55.412,276.500 52.701 L 273.000 51.032 273.000 41.016 L 273.000 31.000 275.763 31.000 C 278.218 31.000,279.367 32.363,286.085 43.250 L 293.644 55.500 301.822 55.790 C 310.878 56.112,311.763 55.468,306.340 52.500 C 302.188 50.228,286.900 28.000,289.489 28.000 C 290.274 28.000,292.735 26.270,294.958 24.155 C 302.777 16.716,299.361 5.137,288.453 2.109 C 283.270 0.670,256.000 0.621,256.000 2.051 M312.000 9.583 C 312.000 19.579,313.061 20.139,316.511 11.966 L 318.818 6.500 325.928 6.206 L 333.038 5.912 332.769 28.623 L 332.500 51.335 328.250 52.751 C 320.970 55.176,323.442 56.000,338.000 56.000 C 352.558 56.000,355.030 55.176,347.750 52.751 L 343.500 51.335 343.231 28.667 L 342.962 6.000 349.818 6.000 L 356.673 6.000 359.261 12.000 C 362.855 20.328,364.000 19.724,364.000 9.500 L 364.000 1.000 338.000 1.000 L 312.000 1.000 312.000 9.583 M391.672 6.250 C 390.406 9.138,385.574 20.591,380.935 31.702 C 374.566 46.957,371.949 52.155,370.250 52.931 C 365.737 54.990,367.959 56.000,377.000 56.000 C 386.462 56.000,388.156 55.101,382.750 52.949 C 380.962 52.237,379.395 51.590,379.266 51.510 C 379.138 51.431,380.348 48.246,381.955 44.433 L 384.878 37.500 394.768 37.217 L 404.658 36.934 407.329 43.742 C 410.607 52.098,410.626 51.586,407.000 52.850 C 400.961 54.955,403.779 56.000,415.500 56.000 C 427.145 56.000,429.378 55.228,424.081 53.034 C 421.746 52.066,420.473 50.192,417.720 43.662 C 415.827 39.173,411.009 27.738,407.013 18.250 C 398.374 -2.262,396.164 -3.991,391.672 6.250 M435.000 1.987 C 435.000 2.529,436.575 3.631,438.500 4.436 L 442.000 5.898 442.000 28.465 L 442.000 51.032 438.500 52.701 C 432.816 55.412,434.331 56.000,447.000 56.000 C 459.669 56.000,461.184 55.412,455.500 52.701 L 452.000 51.032 452.000 28.500 L 452.000 5.968 455.500 4.299 C 461.184 1.588,459.669 1.000,447.000 1.000 C 439.775 1.000,435.000 1.393,435.000 1.987 M470.000 1.987 C 470.000 2.529,471.575 3.631,473.500 4.436 L 477.000 5.898 477.000 28.465 L 477.000 51.032 473.500 52.701 C 467.367 55.626,469.521 56.000,492.500 56.000 L 515.000 56.000 515.000 46.000 C 515.000 34.082,514.334 33.687,510.370 43.250 L 507.365 50.500 497.182 50.785 L 487.000 51.070 487.000 28.644 L 487.000 6.217 491.000 4.617 C 497.867 1.869,495.824 1.000,482.500 1.000 C 474.947 1.000,470.000 1.390,470.000 1.987 M282.881 7.108 C 293.893 10.947,289.247 26.000,277.050 26.000 L 273.000 26.000 273.000 16.000 L 273.000 6.000 276.351 6.000 C 278.194 6.000,281.132 6.499,282.881 7.108 M398.463 22.500 C 399.981 26.350,401.446 30.063,401.719 30.750 C 402.088 31.683,400.309 32.000,394.700 32.000 L 387.185 32.000 390.776 22.983 C 394.802 12.871,394.668 12.879,398.463 22.500 " stroke="none" fill="#fff" fill-rule="evenodd"></path></g></svg>