<svg class="illustrations__InlineSvg-s1slu2ru-9 iTZlcz" fill-rule="evenodd" clip-rule="evenodd" stroke-linejoin="round" stroke-miterlimit="1.414" xmlns="http://www.w3.org/2000/svg" aria-labelledby="title" viewBox="0 0 554 461" preserveAspectRatio="xMidYMid meet" id="happy"><title id="title">happy</title><g id="Canvas" fill="none"><g id="happy"><mask id="mask1" mask-type="alpha" maskUnits="userSpaceOnUse" x="0" y="0" width="568" height="461"><path id="Union" d="M 568 0L 0 0L 0 220.276L 118.531 236.575C 2.85754 265.57 -60.9319 314.699 83.1118 356.271C 194.018 388.279 203.253 418.234 209.298 437.839C 213.724 452.194 216.439 461 256.102 461C 349.935 461 510.473 382.725 510.473 299.014C 510.473 296.07 510.365 293.208 510.148 290.428L 543.392 295L 568 0Z" fill="#C4C4C4"></path></mask><g mask="url(#mask1)"><path id="Ellipse 2.2" d="M 510.473 89.5016C 510.473 173.212 349.934 251.487 256.102 251.487C 162.269 251.487 275.224 202.203 83.1118 146.758C -109 91.3135 68.5761 22.4266 245.874 5.79096C 423.171 -10.8447 510.473 5.79096 510.473 89.5016Z" transform="translate(3.43323e-05 209.513)" fill="white"></path><g id="girl"><g id="ice cream"><path id="Vector" d="M 0 26.9149L 41.9705 229.528C 42.3459 231.258 44.7485 231.258 45.199 229.604L 95.7288 13.3071L 34.3122 3.67096e-05L 6.60716 18.3442L 0 26.9149Z" transform="translate(397.236 144.235)" fill="#EAA736"></path><path id="Union_2" fill-rule="evenodd" clip-rule="evenodd" d="M 25.6326 0.810165C 25.5277 0.267928 25.0031 -0.0865638 24.4609 0.0184166C 23.9186 0.123153 23.5641 0.647811 23.669 1.19005L 26.3259 14.9274L 0.453517 31.8143C -0.00894612 32.1161 -0.139165 32.7357 0.162715 33.1981C 0.464565 33.6608 1.08419 33.7909 1.54669 33.4891L 26.736 17.048L 29.9866 33.8546L 22.604 38.6546C 22.141 38.9557 22.0097 39.5751 22.3108 40.0379C 22.6118 40.5011 23.2312 40.6324 23.6942 40.3314L 30.3964 35.9737L 33.5783 52.4252L 15.9214 63.9159C 15.4585 64.2169 15.3274 64.8365 15.6287 65.2994C 15.9299 65.7623 16.5493 65.8934 17.0123 65.5921L 33.9882 54.5448L 35.6069 62.9139C 35.7118 63.4562 36.2364 63.8107 36.7786 63.7057C 37.3209 63.6009 37.6754 63.0763 37.5706 62.534L 35.7976 53.3673L 55.8293 40.3312C 56.2922 40.0299 56.4233 39.4105 56.122 38.9476C 55.8208 38.4847 55.2013 38.3536 54.7384 38.6549L 35.3877 51.2477L 32.206 34.7972L 66.9412 12.2135C 67.4042 11.9125 67.5355 11.2931 67.2344 10.8299C 66.9334 10.367 66.314 10.2357 65.851 10.5367L 31.7961 32.6781L 28.5448 15.8673L 40.3638 8.15294C 40.8263 7.85094 40.9565 7.23131 40.6546 6.7689C 40.3527 6.3065 39.7331 6.17613 39.2707 6.47813L 28.1346 13.7467L 25.6326 0.810165Z" transform="translate(394.96 190.223)" fill="#F6F7F8"></path><g id="Group"><path id="Vector_2" d="M 125.766 89.9764C 124.865 88.3976 123.664 87.1946 122.312 86.2925C 122.162 86.1421 122.012 85.9918 121.711 85.8414C 121.711 85.8414 121.636 85.8414 121.636 85.7662C 121.186 85.4655 120.735 85.24 120.21 85.0144C 117.131 83.1349 118.708 81.9319 120.21 76.8948C 120.81 75.0153 121.336 73.0605 121.786 71.0306C 128.619 39.3793 108.572 8.17911 76.9628 1.33761C 45.3535 -5.50388 14.1947 14.5695 7.36232 46.2208C 4.95971 57.4228 5.93579 68.5496 9.5397 78.5488C 9.84003 79.6765 10.2905 80.5787 10.6659 81.4057L 10.6659 81.4808C 11.7171 83.7363 12.0925 84.864 7.51249 87.7961C 3.60826 89.9763 -0.145813 93.3595 0.00434953 98.0207C 0.154512 103.734 6.08595 106.516 11.0413 105.539C 12.7682 105.238 14.1947 104.562 15.7715 103.81C 15.8465 103.735 15.9216 103.734 16.0718 103.659C 15.0207 104.186 16.1469 108.696 16.4472 109.599C 18.2492 115.087 24.6311 115.989 28.9107 112.756C 32.6648 109.899 33.2654 105.238 36.1936 101.855C 37.9205 99.825 39.5723 99.7499 40.1729 102.532C 41.2991 107.569 43.4014 112.08 47.5309 115.237C 56.6157 122.154 68.5537 118.169 72.0825 107.494C 72.3078 107.193 72.533 106.892 72.7583 106.441C 72.3829 107.343 73.5091 108.772 73.8094 109.599C 74.41 111.177 75.0858 112.681 75.9868 114.11C 79.4405 119.222 86.1978 119.673 90.2522 114.937C 91.6788 113.283 92.5047 111.253 93.0303 109.148C 93.4808 107.343 93.5558 105.238 94.8322 103.81C 97.0096 101.254 100.914 105.614 102.866 106.667C 110.749 110.877 122.988 111.403 126.442 101.329C 126.592 100.953 126.667 100.577 126.817 100.201C 127.643 96.893 127.568 92.9084 125.766 89.9764Z" transform="translate(378.311 63.7314)" fill="#FFF5E5"></path></g><path id="Union_3" fill-rule="evenodd" clip-rule="evenodd" d="M 194.741 11.0016C 205.076 7.8519 213.504 5.68173 219.461 4.66C 222.456 4.14609 224.718 3.94247 226.247 4.01352C 226.659 4.03256 226.982 4.0704 227.23 4.11532C 227.084 4.31943 226.881 4.56967 226.605 4.86728C 225.564 5.9874 223.813 7.42953 221.331 9.16586C 216.392 12.6195 208.907 16.9979 199.392 22.0074C 180.384 32.0157 153.491 44.4317 123.198 56.8578L 123.195 56.8592C 96.4293 67.8949 71.5534 77.0472 51.9432 83.3429C 50.8915 83.6805 50.3126 84.8067 50.6502 85.8585C 50.9879 86.9102 52.1142 87.4891 53.1659 87.1515C 72.898 80.8167 97.8757 71.6251 124.718 60.5577C 155.09 48.099 182.105 35.6305 201.256 25.5467C 210.822 20.5101 218.48 16.0406 223.623 12.4437C 226.181 10.6549 228.206 9.02109 229.536 7.58945C 230.196 6.87875 230.769 6.12875 231.127 5.35531C 231.482 4.58725 231.735 3.54086 231.299 2.46982L 231.297 2.46615C 230.86 1.39975 229.958 0.818694 229.153 0.508879C 228.349 0.199553 227.407 0.0630787 226.433 0.0179126C 224.47 -0.073396 221.871 0.188079 218.785 0.71762C 212.579 1.78207 203.962 4.00986 193.575 7.17538C 192.518 7.4974 191.923 8.61484 192.245 9.67148C 192.567 10.7281 193.685 11.3236 194.741 11.0016ZM 54.112 67.42C 55.1034 66.9332 55.5124 65.7347 55.0255 64.7433C 54.5386 63.7518 53.3401 63.3429 52.3487 63.8297C 38.5462 70.6082 27.2841 76.6976 19.6294 81.557C 15.8153 83.9784 12.8169 86.1441 10.8402 87.9784C 9.86077 88.8873 9.03796 89.8001 8.50765 90.6988C 8.00659 91.5477 7.52566 92.8072 8.0538 94.1153L 8.06017 94.1312L 8.06683 94.1468C 8.4511 95.054 9.17947 95.6046 9.8742 95.9268C 10.556 96.243 11.336 96.4046 12.1181 96.4859C 13.6862 96.6493 15.7149 96.5309 18.0769 96.2135C 22.8331 95.5746 29.4145 94.0601 37.3995 91.8351C 38.4635 91.5384 39.0857 90.4356 38.7892 89.3714C 38.4927 88.3075 37.3897 87.6854 36.3257 87.9818C 28.3935 90.1922 22.0233 91.6476 17.5444 92.2491C 15.289 92.5521 13.6292 92.6217 12.5319 92.5074C 12.3813 92.4918 12.2497 92.4735 12.1353 92.4539C 12.4169 92.0616 12.8748 91.5472 13.5611 90.9105C 15.2682 89.3263 18.0228 87.3148 21.7732 84.9339C 29.2474 80.1891 40.3596 74.1742 54.112 67.42ZM 202.997 54.3187C 203.345 53.2706 204.477 52.703 205.525 53.0509C 212.807 55.4688 218.621 57.7852 222.582 59.9051C 224.549 60.9581 226.17 62.0204 227.291 63.0951C 228.328 64.0907 229.404 65.555 229.088 67.327C 228.787 69.0338 227.361 70.016 226.118 70.5831C 224.786 71.1915 223.025 71.6226 220.979 71.9344C 216.86 72.5619 211.074 72.775 203.989 72.6239C 189.787 72.3209 170.015 70.544 147.115 67.4564C 146.021 67.3089 145.253 66.3018 145.4 65.2071C 145.548 64.1126 146.555 63.3448 147.65 63.4923C 170.475 66.5697 190.083 68.3263 204.074 68.6248C 211.085 68.7743 216.599 68.5553 220.377 67.9798C 222.28 67.69 223.618 67.3272 224.457 66.9442C 224.766 66.8033 224.952 66.6866 225.061 66.6051C 224.98 66.4767 224.823 66.2708 224.521 65.9813C 223.788 65.2777 222.537 64.4181 220.694 63.4317C 217.034 61.4727 211.474 59.2408 204.265 56.8473C 203.216 56.4991 202.649 55.367 202.997 54.3187ZM 4.81512 28.5059C 4.39309 28.1339 4.18868 27.8766 4.09054 27.7249C 4.15197 27.6798 4.23611 27.6244 4.34988 27.5599C 4.87933 27.2601 5.76653 26.9388 7.09725 26.6515C 9.73858 26.0811 13.6427 25.743 18.7054 25.6637C 28.7982 25.5059 43.1028 26.38 60.2246 28.2181C 61.3229 28.336 62.3088 27.5414 62.4267 26.443C 62.5446 25.3448 61.7499 24.359 60.6516 24.2411C 43.4612 22.3954 28.9722 21.5025 18.6428 21.6642C 13.4944 21.7447 9.28033 22.088 6.25298 22.7415C 4.74941 23.0663 3.41467 23.4928 2.37914 24.0789C 1.37142 24.6495 0.31048 25.5714 0.0554445 27.0084C 0.0555665 27.0077 0.0557191 27.0069 0.0558412 27.0062L 2.02468 27.3573L 0.0554445 27.0084C -0.284369 28.9242 1.00173 30.4764 2.16964 31.5062C 3.46234 32.6461 5.33746 33.7916 7.6322 34.9422C 12.2496 37.2577 19.0118 39.8114 27.4352 42.4859C 44.3092 47.8441 68.1486 53.7811 95.5558 59.315C 96.6386 59.5338 97.6935 58.8331 97.9121 57.7506C 98.1307 56.6678 97.4302 55.6129 96.3475 55.3941C 69.0204 49.8766 45.3332 43.9725 28.6458 38.6737C 20.2885 36.0199 13.7613 33.5411 9.42523 31.3665C 7.24322 30.2726 5.72558 29.3087 4.81512 28.5059ZM 11.8169 93.0155C 11.8164 93.0157 11.8176 93.0094 11.8218 92.9962C 11.8196 93.0086 11.8174 93.0152 11.8169 93.0155Z" transform="translate(321.482 57.1838)" fill="#1CD2F2"></path><g id="scoop"><path id="Vector_3" d="M 68.7746 38.7184C 64.9455 43.9059 62.0923 50.0707 57.2121 54.356C 51.2806 59.5436 41.7453 61.4231 35.2883 55.9348C 28.0804 49.77 30.1828 40.3724 35.7388 33.8316C 39.2676 29.6966 43.7725 26.4638 47.5265 22.5544C 48.4275 21.6522 49.3285 20.3742 48.878 19.1713C 48.2774 17.5925 46.0249 17.5924 44.3731 18.1939C 40.544 19.6975 37.6158 22.8551 34.162 25.1858C 30.7834 27.5164 26.1283 29.0952 22.5244 27.0653C 19.371 25.2609 18.0195 21.1259 18.6202 17.5172C 19.5962 11.6531 24.2513 8.1948 27.1795 3.38319C 27.7801 2.33066 28.2306 1.20294 28.5309 3.67096e-05C 13.5897 5.03718 2.62784 18.0435 -9.16521e-06 33.4557C 3.00325 33.5309 6.08158 34.3579 8.85959 35.7863C 14.5658 38.7936 20.3471 43.9811 22.074 50.4467C 23.951 57.7392 21.0979 65.3325 23.2002 72.7003C 23.5005 73.828 24.026 74.9558 24.6267 76.0083C 31.1588 76.7601 38.5919 76.0834 46.4754 75.1061C 69.9759 72.2492 88.7462 67.9639 84.842 35.4856C 84.6168 33.5309 84.2414 31.5762 83.7158 29.6966C 77.7844 29.4711 72.3785 33.8316 68.7746 38.7184Z" transform="translate(392.206 2.14282)" fill="#0059C2"></path><path id="Vector_4" d="M 62.5365 24.5364C 54.8782 8.29721 37.3843 -2.00258 18.6139 0.328035C 18.3136 0.403217 17.9382 0.40318 17.6378 0.478361C 15.01 0.854268 12.5323 1.45574 10.0546 2.28273C 9.82935 3.48563 9.37887 4.61335 8.70313 5.66589C 5.77496 10.4775 1.11989 13.9358 0.143832 19.7999C -0.45682 23.4086 0.819574 27.5436 4.04808 29.348C 7.65198 31.3779 12.232 29.7991 15.6857 27.4685C 19.0644 25.1378 22.0676 21.9802 25.8968 20.4766C 27.4735 19.8751 29.801 19.8 30.4017 21.454C 30.8522 22.6569 29.9512 23.9349 29.0502 24.8371C 25.2961 28.7465 20.7913 31.9793 17.2624 36.1143C 11.7815 42.5799 9.6041 52.0528 16.8119 58.2176C 23.1938 63.7059 32.8043 61.8262 38.7357 56.6387C 43.616 52.3534 46.394 46.2638 50.2983 41.0011C 53.9022 36.1143 59.3831 31.7538 65.3146 31.9793C 64.5637 29.348 63.6628 26.867 62.5365 24.5364Z" transform="translate(410.682 -0.0651855)" fill="#00D5BD"></path><path id="Vector_5" d="M 23.8008 39.2446C 21.6985 31.8769 24.5516 24.2836 22.6746 16.991C 21.0228 10.5254 15.2415 5.33789 9.46027 2.33064C 6.60718 0.827012 3.60393 0.075218 0.60067 3.67096e-05C 0.150181 2.48102 -1.83304e-05 5.03716 -1.83304e-05 7.59333C -1.83304e-05 9.17213 0.150163 10.8261 0.300326 12.4049C 2.25244 28.6441 8.10879 36.6133 16.2927 40.222C 18.9956 41.4249 21.9988 42.1016 25.1523 42.4775C 24.6267 41.4249 24.1011 40.3723 23.8008 39.2446Z" transform="translate(391.68 35.5981)" fill="#00D5BD"></path></g><path id="Vector_6" d="M 15.2282 7.48011L 13.2761 7.1042C 12.0748 6.87866 11.324 5.7509 11.4741 4.62318L 11.7745 2.66849C 11.9997 1.46559 11.1738 0.262689 9.97252 0.0371449C 8.77122 -0.188399 7.56992 0.638614 7.34467 1.84151L 7.04433 3.79621C 6.81908 4.99911 5.69287 5.75094 4.56665 5.60058L 2.76472 5.29983C 1.56342 5.07429 0.362088 5.82607 0.0617623 6.95379C -0.238563 8.23187 0.587351 9.43475 1.86374 9.66029L 3.81583 9.96104C 5.01714 10.1866 5.76797 11.3143 5.61781 12.4421L 4.56665 18.5317C 4.3414 19.7346 5.16732 20.9375 6.36862 21.1631C 7.56992 21.3886 8.77123 20.5616 8.99647 19.3587L 10.0476 13.269C 10.2728 12.0661 11.3991 11.3143 12.5253 11.4647L 14.4774 11.7654C 15.979 11.991 17.3305 10.7881 17.1053 9.13406C 16.88 8.38225 16.1292 7.70565 15.2282 7.48011Z" transform="translate(496.883 28.4937)" fill="#171A21"></path><path id="Vector_7" d="M 3.68381 7.35812C 5.71832 7.35812 7.36764 5.71093 7.36764 3.67904C 7.36764 1.64715 5.71832 -3.66616e-05 3.68381 -3.66616e-05C 1.6493 -3.66616e-05 -1.83545e-05 1.64715 -1.83545e-05 3.67904C -1.83545e-05 5.71093 1.6493 7.35812 3.68381 7.35812Z" transform="matrix(0.120442 -0.992719 0.992681 0.120758 533.127 17.1709)" fill="#171A21"></path><path id="Vector_8" d="M 15.2282 7.48007L 13.2761 7.10417C 12.0748 6.87862 11.324 5.75087 11.4741 4.62315L 11.7745 2.66845C 11.9997 1.46555 11.1738 0.262652 9.9725 0.0371082C 8.7712 -0.188436 7.5699 0.638577 7.34465 1.84148L 7.04435 3.79617C 6.81911 4.99907 5.6929 5.7509 4.56668 5.60054L 2.7647 5.2998C 1.5634 5.07425 0.362116 5.82612 0.0617898 6.95384C -0.238536 8.23192 0.587332 9.4348 1.86372 9.66035L 3.81586 9.96109C 5.01716 10.1866 5.76795 11.3143 5.61779 12.442L 5.31749 14.3967C 5.09225 15.5996 5.91811 16.8025 7.11942 17.0281C 8.32072 17.2536 9.52202 16.4267 9.74727 15.2238L 10.0476 13.269C 10.2729 12.0661 11.3991 11.3144 12.5253 11.4647L 14.4774 11.7654C 15.979 11.9909 17.3305 10.788 17.1052 9.13402C 16.88 8.38221 16.1292 7.63044 15.2282 7.48007Z" transform="translate(523.612 175.624)" fill="#171A21"></path></g><g id="body"><path id="Vector_9" d="M 255.066 0.216118C 248.909 -2.1145 245.381 14.5757 215.648 42.0169C 196.728 59.459 169.398 70.2099 164.293 72.1646C 154.757 75.8485 143.045 74.9463 152.505 57.8801C 163.166 38.8593 161.815 22.8457 133.96 54.2715C 106.105 85.6973 102.801 127.047 108.132 156.593C 113.838 187.718 132.984 214.708 131.332 222.828C 129.155 233.428 112.411 229.068 93.1155 205.16C 76.8979 185.012 68.714 158.849 31.5486 142.835C 19.3855 148.398 2.64231 160.352 0.2397 183.809C -2.38815 209.596 17.2081 223.129 28.8457 228.842C 48.517 204.333 60.1547 229.669 75.3211 245.533C 105.954 277.56 147.474 305.302 170.825 294.25C 193.349 283.574 192.824 257.562 176.906 206.438C 165.644 170.351 169.774 155.691 183.138 143.361C 196.878 130.656 234.118 122.461 238.773 113.89C 243.428 105.32 233.368 100.734 233.368 98.5533C 233.368 96.2978 241.852 91.1103 242.227 87.1257C 242.603 83.1411 236.446 81.036 236.446 78.2543C 236.446 75.4726 246.882 69.834 244.93 63.9699C 242.978 58.1809 236.821 60.8875 234.118 58.7072C 231.415 56.5269 238.173 52.1664 246.807 37.9571C 258.445 19.2369 261.298 2.54674 255.066 0.216118Z" transform="translate(247.735 196.044)" fill="#1CD2F2"></path><path id="Vector_10" d="M 194.159 54.2716C 196.562 30.8902 213.305 18.8612 225.468 13.2978C 220.437 11.1175 214.957 9.1628 208.8 7.28327C 192.732 2.47167 132.217 -12.339 81.687 22.3195C 31.1571 56.9781 -3.60556 121.935 0.298673 130.731C 4.20291 139.527 198.589 167.269 209.1 136.821C 209.1 136.821 212.554 117.8 222.765 99.3052C 211.127 93.5914 191.531 80.0588 194.159 54.2716Z" transform="translate(53.9656 325.581)" fill="#171A21"></path><path id="Vector_11" d="M 38.2915 -1.83548e-05C 34.6125 4.05977 11.3373 24.2084 -1.83304e-05 28.7193" transform="translate(450.244 245.955)" stroke="#F6F7F8" stroke-width="2" stroke-miterlimit="10" stroke-linecap="round"></path></g><g id="head"><path id="Vector_12" d="M -4.58261e-06 15.3862C 6.60716 11.7023 12.1632 6.4396 16.2176 0.124372C 13.2143 -0.477078 4.35472 0.575496 -4.58261e-06 15.3862Z" transform="translate(289.795 294.624)" fill="#171A21"></path><path id="Vector_13" d="M 77.2777 -1.83548e-05C 66.3158 22.4792 40.8632 22.6296 25.922 20.5245L 25.922 20.2238L 19.1646 19.2464C 16.3115 18.6449 14.5847 18.1187 14.5847 18.0435C 14.5847 18.1939 14.5096 18.4195 14.5096 18.5698L 11.5063 18.1187C 5.9503 17.3668 0.844753 21.2011 0.0939387 26.7645C -0.656876 32.3279 3.17228 37.4403 8.7283 38.1921L 15.861 39.1694C 15.9361 39.4701 16.0112 39.7709 16.0863 40.0716C 17.3627 39.9213 18.7892 39.8461 20.3659 39.8461L 23.219 40.222L 23.2941 39.8461C 30.2767 40.222 38.3855 42.4022 42.7402 49.9204C 46.7946 56.7619 46.269 64.6559 45.1428 69.9186C 52.0503 72.3244 59.5584 73.1514 67.2918 72.0237C 73.0731 71.1967 78.4039 69.3171 83.2091 66.6106C 87.6389 51.7999 96.4234 50.7474 99.4267 51.3488C 103.781 44.6577 106.484 36.7637 106.935 28.4937C 89.2907 23.1558 80.9567 9.32246 77.2777 -1.83548e-05Z" transform="translate(206.661 243.324)" fill="#1CD2F2"></path><path id="Vector_14" d="M -6.10352e-06 5.11236C -6.10352e-06 2.63138 -6.10352e-06 1.2029 -6.10352e-06 0" transform="translate(284.914 255.654)" stroke="white" stroke-width="2" stroke-miterlimit="10" stroke-linecap="round"></path><path id="Vector_15" d="M -1.2207e-05 1.57883C -1.2207e-05 1.05256 -1.2207e-05 0.526306 -1.2207e-05 3.67096e-05" transform="translate(284.839 279.185)" stroke="white" stroke-width="2" stroke-miterlimit="10" stroke-linecap="round"></path><path id="Vector_16" d="M -4.58261e-06 10.5254C 5.2557 11.3524 11.5625 11.202 12.3133 10.8261C 12.4635 10.7509 12.5386 6.91666 12.6137 -1.83548e-05" transform="translate(272.15 285.426)" stroke="white" stroke-width="2" stroke-miterlimit="10" stroke-linecap="round"></path><path id="Vector_17" d="M 26.5788 10.1021C 20.4972 -0.197719 7.43307 -0.498426 4.58261e-06 0.253387C 4.50489 14.4626 15.4668 25.364 28.9814 30.1004C 30.1077 24.7625 30.6332 16.9436 26.5788 10.1021Z" transform="translate(222.747 283.292)" fill="#171A21"></path><g id="hair"><path id="Vector_18" d="M 5.83982 25.9691C -0.166694 23.9392 -3.54536 13.1883 5.83982 4.76799C 13.348 -1.92315 27.0128 -1.24652 32.5688 4.76799C 37.1488 9.72995 36.3229 16.797 32.5688 20.932C 28.8147 25.0669 5.83982 25.9691 5.83982 25.9691Z" transform="translate(237.404 205.401)" fill="#171A21"></path><path id="Vector_19" d="M 91.7495 39.7255C 89.4971 24.3134 79.8867 11.8334 67.1228 5.2174C 58.7137 0.856885 48.9531 -0.947503 38.9673 0.480942C 18.6202 3.48819 3.30359 19.3514 9.16522e-06 38.5978C 0.375416 38.673 46.7757 53.1078 62.693 20.4791C 66.372 29.8016 74.706 43.7101 92.2751 49.1232C 92.3502 46.0408 92.2 42.8831 91.7495 39.7255Z" transform="translate(221.32 222.845)" fill="#828C99"></path><g id="Group 2"><path id="Union_4" fill-rule="evenodd" clip-rule="evenodd" d="M 112.11 127.533C 110.201 125.786 107.759 124.054 105.453 122.419C 102.498 120.324 99.7668 118.387 98.6702 116.782C 96.8232 114.074 98.0479 111.191 99.2381 108.39C 99.4026 108.003 99.5664 107.617 99.7214 107.234C 101.598 102.648 102.124 97.4603 99.7965 92.9495C 96.9434 87.4612 90.7116 85.5816 84.9303 86.8597C 82.7967 87.3306 80.9243 88.4991 79.0783 89.6509C 77.0917 90.8907 75.1356 92.1114 72.9173 92.4231C 64.9587 93.4756 60.9794 83.4014 61.0545 77.1614C 61.1111 68.7708 64.7539 60.9791 68.3129 53.3665L 68.3148 53.3624C 69.4749 50.8809 70.6259 48.4185 71.6409 45.961C 75.8455 35.8868 78.3983 24.1585 74.494 13.5579C 72.3167 7.6187 67.6616 1.90483 61.2046 0.40117C 53.6964 -1.32783 47.0142 2.65679 44.6867 9.94927C 42.534 16.6404 42.7655 23.5728 42.9969 30.5064C 43.153 35.1807 43.309 39.8558 42.7346 44.4576C 42.5093 46.1866 42.1339 48.0662 40.8575 49.4195C 40.0316 50.2466 38.8303 50.5472 38.3798 49.1939C 38.2904 48.9251 38.2023 48.6575 38.1146 48.3912L 38.1086 48.3726C 36.5795 43.7247 35.1816 39.4751 29.295 37.8416C 22.2373 35.8868 15.4049 39.7962 11.6508 45.5853C 8.12202 50.9231 6.24499 57.99 5.49418 64.2303C 4.66828 70.9964 5.94465 77.4622 8.64759 83.7022C 14.2787 96.4078 25.9163 104.753 38.0044 110.767C 40.6323 112.045 46.2634 115.278 43.4103 123.398C 43.1851 124.075 42.9598 124.751 42.7346 125.353C 38.4549 136.48 35.9772 148.96 40.4071 160.462C 45.2873 173.318 56.3243 184.069 69.4636 188.204C 92.889 195.421 121.72 177.077 121.72 151.892C 121.645 142.268 118.492 133.322 112.11 127.533ZM 24.9562 28.7811C 31.2467 26.0867 34.1647 18.7962 31.4738 12.4971C 28.7828 6.19829 21.5019 3.27641 15.2115 5.97099C 8.92098 8.66557 6.00297 15.9561 8.6939 22.2549C 11.3848 28.5538 18.6657 31.4756 24.9562 28.7811ZM 2.71626 109.489C 10.5247 102.122 24.8653 109.715 29.0698 119.564C 29.8207 121.293 30.2711 123.022 30.4964 124.676C 31.3223 131.517 28.6193 139.787 22.9132 143.998C 19.6847 146.328 15.1047 146.479 11.8762 143.922C 9.32343 141.968 8.04705 139.111 7.37131 136.028C 7.32214 135.802 7.2781 135.544 7.22808 135.252C 6.89632 133.311 6.30111 129.83 2.19068 123.623C -0.28701 119.864 -1.33814 113.324 2.71626 109.489Z" transform="translate(150.881 10.6125)" fill="#FFCCE5"></path><path id="Union_5" fill-rule="evenodd" clip-rule="evenodd" d="M 15.4733 20.2219L 15.8853 17.3347C 16.2607 14.7785 15.8853 12.1472 14.759 9.89182L 11.8309 3.57663C 10.4043 0.49411 6.72532 -0.858917 3.57191 0.569305C 0.493555 1.99777 -0.8579 5.68185 0.568644 8.83932L 3.49681 15.1545C 4.62303 17.4851 6.34992 19.4399 8.52729 20.7932L 10.9123 22.2715L 13.4791 27.7927L 8.3693 30.1821C 7.11857 30.7668 6.57881 32.2549 7.16368 33.5056C 7.74851 34.7563 9.23655 35.2961 10.4873 34.7112L 15.587 32.3264L 23.1193 48.5278L 10.5492 54.3894C 9.29786 54.9729 8.75645 56.4602 9.33998 57.7116C 9.92347 58.9629 11.4109 59.5044 12.6623 58.9209L 25.2273 53.0617L 33.3648 70.5649C 33.9469 71.8171 35.4338 72.3601 36.6858 71.778C 37.9378 71.196 38.4809 69.7092 37.8988 68.457L 29.7588 50.9487L 43.2955 44.6364C 44.5469 44.0529 45.0883 42.5654 44.5048 41.3139C 43.9212 40.0627 42.4338 39.5212 41.1824 40.1047L 27.6509 46.4148L 20.1163 30.2085L 25.2783 27.7946C 26.5291 27.2097 27.0688 25.7216 26.484 24.4709C 25.8991 23.2202 24.4111 22.6804 23.1603 23.2654L 18.0084 25.6745L 15.4733 20.2219Z" transform="translate(207.537 118.104)" fill="#E2197A"></path><path id="Vector_20" d="M 113.455 0.0657907C 119.912 14.0495 98.8895 46.8285 70.8841 59.9101C 41.5273 73.5931 6.23901 67.0523 0.00725469 52.9183C -1.04389 50.5876 112.479 -2.11447 113.455 0.0657907Z" transform="translate(182.496 152.665)" fill="#828C99"></path><path id="Vector_21" d="M 3.679 7.36778C 5.71085 7.36778 7.35798 5.71843 7.35798 3.68388C 7.35798 1.64933 5.71085 -1.83548e-05 3.679 -1.83548e-05C 1.64714 -1.83548e-05 9.16521e-06 1.64933 9.16521e-06 3.68388C 9.16521e-06 5.71843 1.64714 7.36778 3.679 7.36778Z" transform="translate(285.14 131.68)" fill="#171A21"></path></g></g><g id="glasses"><path id="Vector_22" d="M 17.1936 34.433C 26.6894 34.433 34.3873 26.725 34.3873 17.2166C 34.3873 7.70813 26.6894 1.83548e-05 17.1936 1.83548e-05C 7.69785 1.83548e-05 0 7.70813 0 17.2166C 0 26.725 7.69785 34.433 17.1936 34.433Z" transform="translate(248.2 251.068)" fill="white"></path><path id="Vector_23" d="M 4.58261e-06 0.534926C 0.450493 0.459745 10.5865 -2.09642 16.4428 4.6699" transform="translate(277.932 269.779)" stroke="white" stroke-width="7" stroke-miterlimit="10"></path><g id="Group_2"><path id="Vector_24" d="M 2.32752 3.67096e-05C 3.00325 2.18029 3.52882 4.43573 3.82914 6.76635C 4.27963 9.92397 4.4298 13.0816 4.27964 16.164C 3.97931 22.1785 2.4777 27.8923 9.16521e-06 33.2301C 7.95864 31.7265 13.9651 24.7346 13.9651 16.3143C 14.0402 8.72103 9.15993 2.25548 2.32752 3.67096e-05Z" transform="translate(309.166 255.88)" fill="#E5F0FF"></path><path id="Vector_25" d="M 17.1936 9.17208C 12.3884 6.61592 8.40913 3.45834 5.25571 0C 2.0272 3.15761 4.58261e-06 7.51813 4.58261e-06 12.4049C 4.58261e-06 20.5997 5.70618 27.366 13.2894 29.1704C 17.7943 22.0282 18.2448 15.0362 17.1936 9.17208Z" transform="translate(288.819 259.788)" fill="white"></path><path id="Vector_26" d="M 3.90423 -3.67096e-05C 4.95538 5.8641 4.50488 12.856 -9.16522e-06 19.923C 1.27638 20.2237 2.55277 20.3742 3.90423 20.3742C 5.03046 20.3742 6.08159 20.299 7.13273 20.0734C 9.61042 14.8107 11.037 9.02172 11.4124 3.00721C 8.70945 2.2554 6.23176 1.20286 3.90423 -3.67096e-05Z" transform="translate(302.108 268.961)" fill="#E5F0FF"></path><path id="Vector_27" d="M 12.8727 17.0662C 13.0229 13.9838 12.8727 10.8262 12.4222 7.66855C 12.0468 5.33793 11.5963 3.08249 10.9206 0.90223C 9.1937 0.30078 7.31667 0 5.43963 0C 3.5626 0 1.72687 0.286968 0 0.813237C 1.65179 3.3694 4.27682 8.06341 5.32796 13.9276C 7.5804 15.1305 10.1698 16.2392 12.8727 17.0662Z" transform="translate(300.648 254.977)" fill="#E5F0FF"></path><path id="Vector_28" d="M 11.9379 13.1567C 10.8868 7.29255 8.25895 2.55613 6.60716 -3.67096e-05C 4.12947 0.826957 1.80196 2.18026 4.58261e-06 3.98461C 3.22851 7.44295 7.13274 10.6757 11.9379 13.1567Z" transform="translate(294.074 255.804)" fill="white"></path></g></g></g><g id="jetpack"><g id="Group 2_2"><path id="Vector_29" d="M 44.9424 7.6365C 42.1644 11.0197 39.3113 14.478 36.6083 18.0116C 28.3494 14.7036 19.6399 13.5007 10.6301 14.6284L 1.16987 36.1302C 4.02297 35.5288 11.9065 34.6267 21.2166 39.2879C 8.30262 58.2336 -0.707164 74.3224 0.0436507 75.0742C 17.2373 94.7717 50.6486 87.7798 52.0751 85.6747C 53.5017 83.5696 85.0359 33.3485 86.0119 19.6655C 87.5135 -2.13707 55.7541 -5.29468 44.9424 7.6365Z" transform="translate(146.721 309.064)" fill="#A3AFBF"></path><path id="Vector_30" d="M 0.0275748 61.0241C -0.873403 59.8964 20.4497 28.6962 42.6738 5.54033C 52.8098 -4.98505 79.9142 -0.398993 77.2864 18.3211C 75.7097 30.0494 45.602 71.324 44.2505 73.1283C 42.8991 74.9327 13.6924 78.9925 0.0275748 61.0241Z" transform="translate(85.9962 302.364)" fill="#A3AFBF"></path></g></g><g id="Group 2_3"><path id="Vector_31" d="M 9.16521e-06 6.71184C 0.300335 2.72724 3.82916 -0.280034 7.80847 0.0206916C 11.7878 0.321417 14.791 3.85496 14.4907 7.83956" transform="translate(258.11 261.046)" stroke="#2B01B3" stroke-width="3" stroke-miterlimit="10" stroke-linecap="round"></path><path id="Vector_32" d="M 0 6.71186C 0.300326 2.72725 3.82915 -0.280015 7.80847 0.0207099C 11.7878 0.321435 14.791 3.85497 14.4907 7.83958" transform="translate(299.255 264.354)" stroke="#2B01B3" stroke-width="3" stroke-miterlimit="10" stroke-linecap="round"></path></g></g></g></g></g></svg>
