<svg id="Capa_1" data-name="Capa 1" xmlns="http://www.w3.org/2000/svg" viewBox="0 0 731.17 535.52"><defs><style>.cls-1{fill:#7fe3e4;}.cls-2{fill:#770aa0;}.cls-3{fill:#fa5886;}.cls-4{fill:#f4d9ee;}.cls-5{fill:#df5baf;}.cls-6{fill:#4d85fe;}.cls-7{fill:#b799f0;}.cls-8{fill:#300b6b;}.cls-9{fill:#1e004b;}.cls-10{fill:#6ae1dd;}.cls-11{fill:#f4d899;}.cls-12{fill:#e3e3e3;}.cls-13{fill:#633a25;}.cls-14{fill:#fed383;}.cls-15{fill:#e4c5d5;}.cls-16{fill:#f5911d;}.cls-17{fill:#fec9a3;}.cls-18{fill:#2b0072;}.cls-19{fill:#fa5887;}.cls-20{fill:#7acecc;}.cls-21{fill:#896139;}.cls-22{fill:#f7346c;}.cls-23{fill:#4d86fc;}.cls-24{fill:#fdc9a4;}.cls-25{fill:#fdd384;}.cls-26{fill:#89603a;}.cls-27{fill:#2c0273;}.cls-28{fill:#e2e2e5;}.cls-29{fill:#24084a;}.cls-30{fill:#370c75;}.cls-31{fill:#27086c;}.cls-32{fill:#3a1074;}.cls-33{fill:#d8e7f0;}.cls-34{fill:#4aacb6;}.cls-35{fill:#d6e8f0;}.cls-36{fill:#dae6ee;}.cls-37{fill:#d9e7ef;}.cls-38{fill:#673e28;}.cls-39{fill:#eddba6;}.cls-40{fill:#d7e7ed;}.cls-41{fill:#d8e7ef;}.cls-42{fill:#dde4f3;}.cls-43{fill:#dee4f3;}.cls-44{fill:#6b2385;}.cls-45{fill:#e4e0f4;}.cls-46{fill:#d9e7ed;}.cls-47{fill:#e3dff9;}.cls-48{fill:#f0dbaa;}.cls-49{fill:#e3e1f2;}.cls-50{fill:#dfe3f5;}.cls-51{fill:#5dbac6;}.cls-52{fill:#60bbca;}.cls-53{fill:#6298d6;}.cls-54{fill:#9e37aa;}.cls-55{fill:#362476;}.cls-56{fill:#3d3472;}.cls-57{fill:#2f1b66;}.cls-58{fill:#530684;}.cls-59{fill:#8d63eb;}.cls-60{fill:#78119a;}.cls-61{fill:#6d0f99;}.cls-62{fill:#790c95;}.cls-63{fill:#954dd9;}.cls-64{fill:#822ebd;}.cls-65{fill:#fec9a4;}.cls-66{fill:#a422a6;}.cls-67{fill:#a523a4;}.cls-68{fill:#f4d7ed;}.cls-69{fill:#cde9f4;}.cls-70{fill:#c2349a;}.cls-71{fill:#bb2896;}.cls-72{fill:#ecb5dd;}.cls-73{fill:#4b246c;}.cls-74{fill:#e7b3dd;}.cls-75{fill:#472071;}.cls-76{fill:#fdd0cc;}.cls-77{fill:#530683;}.cls-78{fill:#530783;}.cls-79{fill:#fdfdfd;}.cls-80{fill:#f05b8e;}.cls-81{fill:#f8f4f9;}.cls-82{fill:#d25fa7;}.cls-83{fill:#623a25;}.cls-84{fill:#245cc5;}.cls-85{fill:#3566ca;}.cls-86{fill:#f9d696;}.cls-87{fill:#8d64ec;}.cls-88{fill:#f65687;}.cls-89{fill:#8e65ea;}.cls-90{fill:#e2dbe6;}.cls-91{fill:#c988d6;}.cls-92{fill:#8a6ede;}.cls-93{fill:#8d6bdd;}.cls-94{fill:#c8c8f4;}.cls-95{fill:#48b0ae;}.cls-96{fill:#240567;}.cls-97{fill:#2f007e;}.cls-98{fill:#56abb6;}.cls-99{fill:#1f0566;}.cls-100{fill:#593231;}.cls-101{fill:#fbc9a4;}.cls-102{fill:#e2e3e3;}.cls-103{fill:#c7eaf8;}.cls-104{fill:#62e3e2;}.cls-105{fill:#85e3e3;}.cls-106{fill:#ccebf8;}.cls-107{fill:#ace4f0;}.cls-108{fill:#f55887;}.cls-109{fill:#f2faf9;}.cls-110{fill:#689ad9;}.cls-111{fill:#a639ab;}.cls-112{fill:#a042b3;}.cls-113{fill:#dae3d3;}.cls-114{fill:#f1f8f6;}.cls-115{fill:#8a6139;}.cls-116{fill:#360b71;}.cls-117{fill:#fa819e;}.cls-118{fill:#2c1f13;}.cls-119{fill:#d6e1f3;}.cls-120{fill:#9f72e7;}.cls-121{fill:#ef9c35;}.cls-122{fill:#e1c58f;}.cls-123{fill:#dfc38f;}.cls-124{fill:#491d53;}.cls-125{fill:#ed9330;}.cls-126{fill:#f4d799;}.cls-127{fill:#982fa1;}.cls-128{fill:#210a68;}.cls-129{fill:#3b1061;}.cls-130{fill:#4d2642;}.cls-131{fill:#cde6e8;}.cls-132{fill:#7c1f5b;}.cls-133{fill:#89295a;}.cls-134{fill:#f1c0b2;}.cls-135{fill:#f97da7;}.cls-136{fill:#301246;}.cls-137{fill:#460e77;}.cls-138{fill:#fcd69d;}.cls-139{fill:#f4d789;}.cls-140{fill:#f9d5a5;}.cls-141{fill:#f5d586;}.cls-142{fill:#a3e0e9;}.cls-143{fill:#f3ddbb;}.cls-144{fill:#f9b581;}.cls-145{fill:#34114a;}.cls-146{fill:#fcb472;}.cls-147{fill:#3a0f66;}.cls-148{fill:#592f4e;}</style></defs><title>kids</title><path class="cls-1" d="M576.72,461.35c15,1.71,29.29,5.68,41.73,14.7,6.85,5,7.65,12.54,2.07,18.95-5,5.73-11.37,9.72-17.95,13.28-13.94,7.54-28.77,13-43.85,17.73a393.91,393.91,0,0,1-46.89,11.62c-23.58,4.25-47.3,7.23-71.23,2.76s-38.48-22.77-41.78-44.94S401,452.3,409,431.81c3.74-9.57,9.08-17.7,18.58-22.5,16-8.1,36-.17,42.25,16.82,1,3.07-1.2,5-2.63,7.1-7.5,11.14-15.24,22.1-22.3,33.53-4.95,8-9.09,16.16-8.23,26a3.65,3.65,0,0,1-3,2.35c-2.8-.11-3.32-2.28-4-4.37A59.43,59.43,0,0,1,427,467.16c.92-10.06,2.14-20.13,5.47-28.29-4.93,15.11-6.43,28.44-4.66,43.48a35.94,35.94,0,0,0,4.72,14.49,24,24,0,0,0,8.61,9.41c-2.73-2.42-7-4.17-7.06-9.34a2.57,2.57,0,0,1,2.78-2c9,8.87,20.81,7.05,28.43-4.4,1.09-1.64,1.72-3.65,3.68-4.59,15.6-7.35,31.82-12.71,48.93-15A46.61,46.61,0,0,1,538.09,473,170.07,170.07,0,0,1,560,481.35c2.27.66,4.46-1,6.74-.29,3,.79,5.21,2.91,7.85,4.31,7,3.75,11.58,1.56,12.84-6.2a7.5,7.5,0,0,1,.83-2.85c1.67-2.7,5.92-1,7.23-4.3,0-1.42-1.27-1.59-2.1-2.19-3.52-2.23-6.26,1.1-9.43,1.34-3.58.31-5.67-1.22-5.46-4.94C578.57,464.25,576.61,463.21,576.72,461.35Z" transform="translate(-30.41 -38.24)"/><path class="cls-2" d="M583.28,129.4c-1.5-7-4.93-13.06-8.92-18.83-10.37-15-23.11-27.84-36.1-40.49a6.14,6.14,0,0,0-5.36-2,2,2,0,0,0-.19,2c.93,2.91,1.53,5.76-1.58,7.86a8.19,8.19,0,0,0-2,2c0,2.51-.33,3-3.32,4.55A2.91,2.91,0,0,0,524,87.51c.69,2.76,2.91,4.39,4.78,6.22a238.39,238.39,0,0,1,21.66,24,153.33,153.33,0,0,1-14.36-9.36c-5.24-3.78-10.3-7.88-16.39-10.28-2.44-1-5-2.18-7.29.34-.46,2.46,1.57,3.06,3.07,3.93,3.77,2.17,5,5.49,4.77,9.64-.53,8.47-12.43,18.38-20.8,17.29a8.27,8.27,0,0,1-3.7-1.37c-9.38-6.46-11-18.37-4.61-25,.95-1,2.89-2.08.91-3.9-10.85,3.83-18.67,11.31-24,21.17-19.24,35.44-28.24,73.31-26,113.68.28,5.14.54,10.39,4.76,14.25,4.68,5.29,10.71,4.76,17.05-1.5,2.2-3.3,3.07-6.78,1.77-10.7-.06-.19-.12-.39-.16-.58-1.11-1.12-.12-3.12-1.4-4-1.42-26.73,3.07-52.48,12.76-77.71,2.11,4,2.76,6.76,3.07,12.31,1.08,19.27-2,38-7,56.54-.43,1.58-.69,3.21-1,4.81l-.63,1c1.23,2.9,3.8,4.58,6.49,6.16,4.36,2.07,8.36,4.8,12.76,6.83,10.94,5,22.16,9.23,34.08,11.24,6.89,1.17,8.86-.25,10.94-6.9.86-2.76,1.58-5.55,2.51-8.3-1,3.45-2.07,6.88-3,10.37-1.54,6-.53,7.16,5.57,6.18,1.36-.39,2.64.82,4,.17-.3-2.65,1.8-2.91,3.5-3.24,3.8-.73,5-2.88,4.94-6.68-.09-6,.55-12,.66-18,.51-27.14-.1-54.23-4.59-81.34,4.4,1.73,8.43,3.65,12.65,4.93C575.61,153.88,586.35,143.7,583.28,129.4ZM538.12,236.63c.16-.47.34-.94.52-1.41A4.9,4.9,0,0,1,538.12,236.63Zm1.43-5.69a6.8,6.8,0,0,0-.26.91,11,11,0,0,0-.49,2.36,13.35,13.35,0,0,1,.74-3.33,8.37,8.37,0,0,1,.33-.85C539.77,230.34,539.66,230.64,539.55,230.94Z" transform="translate(-30.41 -38.24)"/><path class="cls-3" d="M73.79,409.22c-3.73-7.39-1.9-14.12,2.37-20.63a163.78,163.78,0,0,1,19.56-23.92c15.3-15.82,31.66-30.41,49.92-42.78,2,2,1.6,4.61,1.59,7a41.05,41.05,0,0,0,1.7,12.29c2.62,8.6,7.79,11,16,7.43,10.24-4.37,20.07-9.59,30.14-14.33a86,86,0,0,1,16.81-6.11c2.06-.48,4.2-1.08,6.28.06,1.45,1.93,1,4.09.74,6.23a99.65,99.65,0,0,0-1.37,9.87c-.11,2.85-.26,5.85,3.09,7.17a13.55,13.55,0,0,0,10.67.17c2.07-.91,1.38-3.08,1-4.9-.47-2.33-2.33-4.59-.44-7.08,6.91-1.4,13.91-3.89,20.24,1.68.46,2.3-1.19,2.76-2.83,3.17-1.28.32-2.62.26-3.91.51-3,.58-5.3,2.13-5.51,5.4s1.73,5.43,4.83,6.62c2.17.84,5.14-.06,6.4,2.84-2.29,4.19-6.61,3.28-10.14,3.66-9.79,1.08-10,1.21-4.44,9.9a42.19,42.19,0,0,0,6.5,8.14c11.47,10.92,25.63,14.93,40.93,15.89,4.15.26,8.32,0,12.47.09,3.76.09,7.25,1,10.11,3.6,5.61,6.59,5.83,10.81.95,18a10.46,10.46,0,0,1-7,3.49c-22.43,1.37-44.13-.74-63.57-13.51a56,56,0,0,1-8.33-6.27c-5.55-5.59-10.91-11.33-14.78-18.29-1.63-3.44-3.43-6.8-5-10.25a87.54,87.54,0,0,1-4.31-14.23c-6.9,16-14.19,31-24.24,44.45-.87,1.61-2.34,2.75-3.31,4.28a10.21,10.21,0,0,1-2.63,3.07c-7,4.46-12.35,10.86-18.63,16.17-4.2,3.56-8.46,6.78-13.55,8.89-19.26,3.05-37.26.17-53.41-11.4-1.78-2-4.11-3.35-6.34-4.81C79.22,417.18,74.72,414.53,73.79,409.22Z" transform="translate(-30.41 -38.24)"/><path class="cls-4" d="M306,402.26c-3.24-2.37-6.88-3-10.84-2.87-12.92.47-25.61-.69-37.58-6.07-5.95-2.68-11.52-5.95-15.76-11.07,1.37-1.45,3.24-1.71,5-1.84,10.28-.79,20.53-1.85,30.86-2.17,19.62-.6,39.19-2.49,58.86-1.91,3.41.11,6.64.35,9.23,2.87,6,1.81,11.58,4.17,16.61,8.36,5.66,4.72,8.38,10.86,9.95,17.37,2.43,10.07,2,20.15-4.34,29.1-2.79,3.94-6.09,7.59-10.21,9.94-8.07,4.59-16.78,7.7-25.73,10.32-14.91,4.39-29.88,8.56-44.68,13.36A255,255,0,0,0,227.7,496.4c-5.53,3.57-10.58,7.89-15.86,11.86a21.9,21.9,0,0,1-4,4c-1.81,1.16-2.73,3.41-5,4a9.91,9.91,0,0,1-3,3c-.63,2.25-2.88,3.17-4,5a20.48,20.48,0,0,1-4,4h0a12.43,12.43,0,0,0-4,4c-16.94,15.89-38.29,21.11-60.23,25-9.58,1.71-19.18.56-28.77,1-.86-1-2.5.1-3.25-1.21.09-1.75,1.39-2.61,2.64-3.4,6.88-4.4,13.78-9.09,21.65-11.2,17.47-4.68,32.8-13.7,48.16-22.66a436.3,436.3,0,0,0,41-27.49A173,173,0,0,0,229.41,474c1.05-1.08,2.3-2.1,2.82-3.47,4.22-11.1,14.28-15.39,23.77-20,19.3-9.45,39.7-16.26,59.74-23.93,6.83-2.61,13.67-5.22,20.29-8.36,6.4-.81,12.25-3.66,18.5-5a6.34,6.34,0,0,1,4,2.1c.8.79.92,1.94,1.59,3.07-.58-1.22-.7-2.4-1.53-3.24a5.53,5.53,0,0,1-1.88-3.07,8.81,8.81,0,0,1,0-2.46c.9-8.92.08-10.11-8.58-12.48-8.29-7.36-18.66-8-28.93-8.77a271.08,271.08,0,0,0-37.16,0c14.27-.79,28.54-1.07,42.79.44,5.63.59,11.2,1.44,16.41,3.8,1.6.73,3.62,1.1,3.85,3.42a3.22,3.22,0,0,1-2.63,1.65c-2,.54-4-.14-6,.46-.65.1-1.43.28-1.93-.07-3.07-2.14-2.15.86-2.66,2-.43.74-1,1.58-1.73,1.72C322.13,403.32,314.12,405.91,306,402.26Z" transform="translate(-30.41 -38.24)"/><path class="cls-5" d="M73.79,409.22l9,10.84a53.64,53.64,0,0,1,6.12,5.25c9.71,7.13,20,12.9,32.22,14.6a97.39,97.39,0,0,0,27.7-.48c7.34,1.57,13.3,6.28,20.28,9.22.42-9.14,1.44-18,2.12-26.83.14-1.79,0-3.72,1.95-4.79a1.27,1.27,0,0,1,1.23.66c2.41,4.9,2.4,4.89,7.45,2.38a50,50,0,0,0,21-20.05c1-1.62,1.23-4.95,4.7-3.21a6.89,6.89,0,0,1,.65,4c-.56,13.27-2.38,26.45-2.59,39.73-1.42,6.33-1.79,13.06-6.64,18.14a20.51,20.51,0,0,1-11.34,5.15c.13,1.93,1.71,2.62,2.36,3.89.92,2.58,2.13,5,3.06,7.61.19,1.22.66,2.36,1,3.56,1.62,11.74-3,20.71-12.4,27.44-8.35,5.94-17.82,9.63-27.3,13.18q-21.91,8.22-44.3,15.14c-3.77,1.16-8,3-11.47-1,1.19-3.1,4.34-3.31,6.78-4.52,3.26-1.6,6.07-3.49,6.69-7.42,1.15-7.27-4.53-12.09-12.31-10.48-3.72.77-7,3.26-10.95,3.11a2.47,2.47,0,0,1-2.25-1.79c3.3-7.33,9.75-10.44,16.91-12.62,15.3-5.16,30.75-9.88,45.68-16.1,1.46-.61,3.79-.77,3.81-2.69s-2.26-2.18-3.66-3c-16-9-33.19-15.51-48.7-25.37-8.5-5.4-16.49-11.29-22.4-19.6-1.36-1.91-2.69-3.83-3-6.22-.3-1.74.94-3.94-1.55-5-.76-2.56.32-5.27-.63-7.82C73.06,412.49,72.9,410.77,73.79,409.22Z" transform="translate(-30.41 -38.24)"/><path class="cls-6" d="M487.54,398.2c-4.71-8.1-1.93-17.08-3-25.6a1.6,1.6,0,0,1,1.07-1,108.06,108.06,0,0,0,18.77,1c2.63-.12,4.63,1.57,6.59,3.13,6.64,5.27,9.82,5.26,16.71,0,2.43-.88,4.56.4,6.77,1a22.81,22.81,0,0,0,17.39-2c8.57-4.7,13.69-4.13,21.44,2.16,5.94,4.82,11.79,4.49,16.67-1,3.17-3.57,4.07-7.52,1.9-12-1.25-2.55-2.83-4.9-4.15-7.41-.82-1.57-2.12-3.1-1.07-5.08,7.62-8.37,16.92-12,28.23-10.1,17.71-.15,32,16.55,29.08,34-.27,1.64-.58,3.28-1,4.9a4.78,4.78,0,0,0,2.12,5.6c2.35,1.63,4.52,3.47,4.83,6.63,0,3.4-2.17,5.39-4.71,7.12a36.81,36.81,0,0,1-9.95,4.48c-13.92,4.33-27.86,8.58-42.23,11.22a27.49,27.49,0,0,0-7-.56c-10.25.65-19.89-2.51-29.63-4.93-7-1.74-7-1.81-10.08,4.59a24.82,24.82,0,0,1-9.43,5q-10.11-.06-13.64-9.51a7.1,7.1,0,0,0-3.92-5.43,46.87,46.87,0,0,1-8.91-6.39c-2.37-2.17-4.26-2.23-6.18.36-5,4.29-10.27,4.38-15.77,1A3.09,3.09,0,0,1,487.54,398.2Z" transform="translate(-30.41 -38.24)"/><path class="cls-7" d="M536.9,257.85c-4.34-2.37-9.16-.79-13.72-1.64-17.39-3.26-31.86-12.14-45.35-23l-6.07-5.94c-2.42-.27-3.06,1.82-3.77,3.28-1.14,2.34-2.6.9-4,.78-.6,4.94,2.28,10.25-1.53,14.87.35,2.45,2.14,3.13,4.23,3.51,1.1.2,3,.32,2.71,1.58-1.11,4.22,2.15,6.78,3.24,10.14,1,3.15,1.09,6.63-2.23,8.42s-6.47.66-8.82-2.35c-1.54-2-2.59-4.3-4.23-6.17-2.46-2.8-4.81-6.05-9.35-5.25a32,32,0,0,1-5.79,7.17c-1.94-.08-2.92,1.34-4,2.61-8.63,10.47-17,21.11-23.92,32.83-3,7.54-3.53,14.9,1.71,21.8,4.87,6.42,11.69,7.75,19.19,7.29A64.9,64.9,0,0,0,449,323.33c12.28-5.05,23.83-11.57,35.91-18.13-.65,3.41-1.73,6.18-2.47,9-.47,1.84-1.48,3.89.81,5.36a5.06,5.06,0,0,0,2.87-.51c8.69-4.27,17.48-3.83,26.36-.65a5.52,5.52,0,0,0,4.31.25c3.71-5,3.7-11.56,6.7-16.89.16-4.43,2.19-8.34,3.38-12.49a13.83,13.83,0,0,0,.43-2.85,6.71,6.71,0,0,1,1.71-5.22c3.17-6.18,4.67-13.05,8-19.18A3.64,3.64,0,0,0,536.9,257.85ZM483,267.39c-1,.24-1.37-.15-1.17-1.14,3.15-3.57,6.25-7.17,9.44-10.69,3.37-3.72,7-3.07,9.53,1.64Z" transform="translate(-30.41 -38.24)"/><path class="cls-8" d="M229.87,189.24c4.92-15.89,16.36-25.13,31.19-31.26,19.81-8.19,40.56-9.69,61.61-9.6,2.33,0,4.66.05,7,.07,2.66.55,3.22,3.24,4.89,4.81a11.79,11.79,0,0,1,1,4.33,11.34,11.34,0,0,1-1.52,4.67c-3.36,6.48-3.65,12.92.17,19.33,4.41,11.2,13.74,17.34,25.72,17.09,2.58-.05,5.21-1.22,7.78.12,1.63,3.33-1.38,4.12-3.15,5.37-1.15.81-2.78.77-4.16,1.22-.49.17-1,.32-1.46.47a10.88,10.88,0,0,1-2.29.79c-9.93,1.69-20,2-30,3a6.69,6.69,0,0,1-3.39-.51,3.73,3.73,0,0,1-1.28-1c-2.69-5.39-1.88-11.41-2.94-17.1-.72-3.89-1.65-7.39-5.73-9.29-7.3-3.39-13.19.29-12.94,8.38.15,4.66,1,9.26,1.58,13.89a73.16,73.16,0,0,1,.76,10.45c-.72,2.82-3.09,4.4-4.88,6.41-2.54,2-4.16,4.85-6.29,7.23-3,2.91-4.93,6.79-8.58,9.08a5.33,5.33,0,0,1-4.22.72c-3.68-2-4.71-5.92-6.35-9.29-7.35-15.16-19.25-25.61-33.89-33.29C235.71,193.15,231.57,192.94,229.87,189.24Z" transform="translate(-30.41 -38.24)"/><path class="cls-4" d="M103.84,501.23c-7,1.7-12.23,6.06-16.89,11.27-4.11,2.62-9.15,1-13.4,3-7,1.34-10.89,5.5-12.06,12.55a101.55,101.55,0,0,1-2.63,11.55c-.54,1.86-.78,4-3.08,4.7-11-4.92-16.47-14.67-20.6-25a70.12,70.12,0,0,1-3-41.1c2.38-11,6-22,13.67-31,.82-.9,1-2.22,2-3,5.75-7.73,12.35-14.52,21-19,.08.15.25.33.22.44-2.51,8.78,2.67,14.78,7.44,21,6.91,9,15.84,15.62,25.44,21.41A79.75,79.75,0,0,1,112.33,475c4.06,3.4,4.72,6.78,2.39,11.53C112,492.08,109,497.43,103.84,501.23Z" transform="translate(-30.41 -38.24)"/><path class="cls-9" d="M482.8,318.91c11.24-6.51,22.6-5.61,34-.56a3.77,3.77,0,0,1,2.15.21c7.57,3.94,11.08,11,14.07,18.43,1.93,4.57,1.93,4.57,5.72,1.85,5.86-4.2,9.66-3.55,13.13,2.26,3.1,3.24,7.14,5.18,11.25,3.61,9.75-3.74,17.11-.64,23.48,6.69,2.28,4,4.7,8,6.83,12.08,2.9,5.59,1.37,10.92-4.13,15.3s-10.81,4.62-15.77.51c-9.8-8.14-11-8.27-22-2.53-7.91,4.15-15.73,2.7-23.51-.44a3.51,3.51,0,0,1-2-.63,34.26,34.26,0,0,1-3.65-3.58A24,24,0,0,1,518.23,361c-.87-6.72-3.2-8-9.41-4.94-5.11,2.5-10.22,4.61-16.06,4.81a39.5,39.5,0,0,1-22.33-5.75c-6.3-5.7-7.94-11.6-4.9-19.19a35.56,35.56,0,0,1,13.52-16.21A4.25,4.25,0,0,1,482.8,318.91Z" transform="translate(-30.41 -38.24)"/><path class="cls-10" d="M217.08,223.29c2.8,1.48,5.89.63,8.83,1.08,2.78.43,1.75-1.61,1.51-2.92-1.4-7.55-2.31-15.09-.58-22.71.51-2.24.55-4.62,2.07-6.54,3.74-2.15,6,1.63,9,2.29A52.32,52.32,0,0,1,258,212.41a26,26,0,0,1,4.25,10.46,9.8,9.8,0,0,0,.83,3.53c2.69,7.73,5.61,15.37,9.06,22.8,2.06,6.87,5.13,13.35,7.52,20.09,2.51,7.07,4.75,14.2,5.14,21.77,0,6.91-1.26,13.41-5.89,18.91a23.29,23.29,0,0,1-10.76,7.55c-2.35.24-4.59,1.46-7,.88a14.1,14.1,0,0,0-5.32-.71c-8.25-1.12-15.05-5.57-22-9.66a3.05,3.05,0,0,1-1.44-3.44c5-3.31,9.69-7,15.13-9.58,2.89,2.38,3.41-1,5.11-2.22-1.73,1.14-2.22,4.57-5.09,2.17-.91-3.14,1.7-5.15,2.5-7.74a46.94,46.94,0,0,0,1.7-6.17c4.89-11.18-3.48-26.08-16.2-29a34.42,34.42,0,0,0-16.75.69,18.83,18.83,0,0,1-5.34,1.16c-2.71-.22-4.18-2.34-6-3.91a14.89,14.89,0,0,1-2.5-3.55,13.92,13.92,0,0,1-1.28-3.47,13.16,13.16,0,0,1-.23-3.07C203.45,230.4,208.45,224.34,217.08,223.29Z" transform="translate(-30.41 -38.24)"/><path class="cls-9" d="M648.94,392.12c-.78-1.07-1.32-2.66-2.37-3.13-6.39-2.87-5.87-7.35-4.49-13.23,3.09-13.11-3.27-24.42-16.14-30.22-3.6-1.63-7.4-2.84-11.1-4.24,10.6-4.3,20.2-10.54,30.44-15.56,2.37-1.16,4.86-2.1,7.22-3.28,7-3.51,13.12-.9,19.17,2.53a5.18,5.18,0,0,1,4.62,1.18c4.77,3.66,10.44,6.32,13.53,11.91,6,5.95,8.8,12.9,6.6,21.38a21.7,21.7,0,0,1-9.54,12.9,341.73,341.73,0,0,1-32.34,18.69C652.82,391.91,651.08,393.22,648.94,392.12Z" transform="translate(-30.41 -38.24)"/><path class="cls-11" d="M442.24,263.23c-9.29,11.35-18.42,22.82-26.31,35.22-9.05-1.68-18.08-3.39-26.65-7-2-.84-4.42-2-6.16.78a1.74,1.74,0,0,1-1.44.31,19.36,19.36,0,0,1-6.14-7.38,94,94,0,0,1-.1-21.07c1.59-4,2.75-8.26,5.69-11.62,12.1-1.94,24-5.3,36.48-4.24C428.3,249.18,437.14,253.13,442.24,263.23Z" transform="translate(-30.41 -38.24)"/><path class="cls-3" d="M146.61,321.07c1.12-7.15,2.71-14.16,6.42-20.5,1.82-6.69,7.06-10.28,12.69-13.05,6.56-3.23,13.26-6.77,21.09-4.71a2.14,2.14,0,0,1,.47,2.11c-1.9,2.19-4.95,1.56-7.2,2.95s-5,2.37-5.19,5.48,2.31,4.61,4.61,5.94c6.09,3.52,12.88,5.18,19.57,7.07a49.35,49.35,0,0,0,8.72,1.94c6.52,2.75,9.46,8.26,11.16,14.66a4.17,4.17,0,0,1-1.13,4.52c-7.84.57-15.35,2.66-22.78,5q-11.41,3.61-22.72,7.55a35.45,35.45,0,0,1-12.75,1.89c-7.34-.23-12.14-4.59-12.65-11.94A73.66,73.66,0,0,1,146.61,321.07Z" transform="translate(-30.41 -38.24)"/><path class="cls-12" d="M648.94,392.12a368,368,0,0,0,35.55-20c5-3.13,8.84-6.89,10.61-12.57,2.93-3.18,5.73-6.57,10.66-6.43,5.91,7.28,5.58,10.11-2,16.53-1,.85-2,1.73-3,2.59a16.86,16.86,0,0,1-5,3c-2.09,2.58-5,3.82-8,5-2.6,1.79-5.46,3.15-8,5-11,5.67-21.62,12.07-33,17-4.29,4-9.67,5.93-15,8C619.27,417.91,605,419.4,591,420c-10.47.43-20.81,1.76-31.23,2.43-7.16.47-10.42,8.22-6.47,14.18,4.22,6.39,8,13.08,13.91,18.24,1.16,1,2.58,2.62,2.53,4.65-3.57,2.33-6.82.48-9.71-1.21-8.27-4.83-16.82-9.2-24.76-14.59-3.69-2.37-8.07-3.7-10.92-7.32a3.17,3.17,0,0,1,.1-2.9c3.61-5.53,6.66-11.53,12.49-15.24,3.24-.82,5.45-3.73,8.8-4.33,1.92-1.54,4.09-1,6.21-.66,11,1.55,22.12,1.47,33.21,1,2.59.25,5.13-1,7.73-.28,15.18-4,30.6-7.09,45.26-12.81C642.6,399.41,647.8,398.07,648.94,392.12Z" transform="translate(-30.41 -38.24)"/><path class="cls-13" d="M705.76,353.12l-10.66,6.43c2-8.28-1.29-15-6.22-21.26l.22-.37.43.07c14.72-9.27,24.52-21.54,24.52-39.9a81.08,81.08,0,0,1,1-8.88c.16-3,1.23-5.91.81-9l.18-5c1.24-3.06.34-6.28.73-9.4l0-2.95c1.27-.75,2.54-.33,3.81,0a20.61,20.61,0,0,0,12.09-.52c1.66-.55,3.37-1.48,5.15-.25q-.57,23.17-3.24,46.21C732.57,325,723.82,338.06,711,348.62,709.25,350.09,707.52,351.62,705.76,353.12Z" transform="translate(-30.41 -38.24)"/><path class="cls-7" d="M531.87,337.3c-2.86-7.46-7.18-13.78-14-18.15-.35-2.18.9-3.83,1.94-5.47q8.57-13.67,17.85-26.86a19.58,19.58,0,0,0,3.19-5.27,19.28,19.28,0,0,1,2.45-3.61c1.45-1.72,1-3.79,1.12-5.76.13-1.77-.32-3.75,1.65-4.91,1.15,1.43.61,3.15.86,4.73s-1,3.7,1,4.33c1.76.57,3.24-1,4.64-2.23,3-2.67,5-6.52,9.19-7.87,6.16-2.35,12.88,1.37,14.68,8.14a14.17,14.17,0,0,1,.44,4.4,6.44,6.44,0,0,1-.2,1.5,22.68,22.68,0,0,1-2.15,4.67,11.51,11.51,0,0,0-2.2,6c-.46,5.7-3.15,10.25-6.92,14.53-8.8,10-18.37,19.19-27.76,28.58C536,335.6,534.72,337.88,531.87,337.3Z" transform="translate(-30.41 -38.24)"/><path class="cls-14" d="M333,182c-5-6.26-3.7-12.86-1-19.48.75-1.81,1.77-3.5,2.66-5.24-.26-3.41,1.75-5.63,4.23-7.36a42.17,42.17,0,0,1,18.9-6.87,4.72,4.72,0,0,1,4.11,1.26c3.63,1.37,7.82,1.21,10.95,4,.92.8,2.2,1,3.06,1.92h0a35.41,35.41,0,0,1,6,6v0c.87.88,1.08,2.19,1.95,3.07,3.79,5.7,4.24,12.09,3.85,18.65-.16,2.69-2.67,3.64-4,5.45a10.46,10.46,0,0,1-6.54,4.24A43,43,0,0,1,354,187.2a10.42,10.42,0,0,1-5.56-4c-2-2.62-4.09-2.91-6.69-.49C337.73,186.46,337.14,186.31,333,182Z" transform="translate(-30.41 -38.24)"/><path class="cls-15" d="M103.84,501.23c2.55-5.16,6.69-9.29,9.18-14.56,2.59-5.46,2.47-7.82-2.61-11.31C104.69,471.43,98.85,467.67,93,464c-10.65-6.65-18.2-16.22-24.88-26.53-2.58-4-1.52-8.28.76-12.25,4.28-2.6,4.25-6.81,4.12-11.05,1.63,2.48,0,5.7,1.85,8.12A5.65,5.65,0,0,1,76,426.16c5.18,11.92,15.23,18.95,25.69,25.56,15.21,9.61,32,16.09,47.73,24.78,2.43,1.34,6.62,2.23,6.57,4.62-.06,3.11-4.42,3.34-7.05,4.4C134.19,491.51,119.07,496.54,103.84,501.23Z" transform="translate(-30.41 -38.24)"/><path class="cls-12" d="M531.87,337.3a463.51,463.51,0,0,0,35.28-36.2A15,15,0,0,0,570.74,290a5.71,5.71,0,0,1,2.94-5.81c1.53-1.23,3.24-.1,4.86-.38,2.29.51,3.48,2.36,4.83,4a32.66,32.66,0,0,0,7.07,6.87c4.89,3.2,8.57,2.54,12.35-2.13,1.5-1.5,1.22-4.08,3.19-5.29a28,28,0,0,1,6.41,2.55c4.88,2.4,5.4,5.27,1.42,9.09-9.47,9.07-20.17,16.46-31.31,23.28-5.3,3.23-10.45,6.71-15.66,10.07-2.22,1.54-4.71,2.6-7,4l-7.94,4.86c-7-5.28-7.33-5.27-13.91.76-1,.91-2,2.09-3.37,1.35C532.36,342,532.05,339.62,531.87,337.3Z" transform="translate(-30.41 -38.24)"/><path class="cls-16" d="M476.74,46.2c2.19-2.87,4.92-4.75,8.67-4.88,5-.17,9.33-3.39,14.54-3.06a30.13,30.13,0,0,1,11.56,3.63,46.25,46.25,0,0,0,6.29,2.46,2.75,2.75,0,0,1-1.17,3.06c-4,3.42-3.43,7.48-2.1,11.89,1.51,5.06,4.73,9.62,4.48,15.2a2.91,2.91,0,0,1-2,2.31c-3.89-.7-7.31-.45-8.86,4.06a2.84,2.84,0,0,1-2.11,2c-7.14.92-14.22,4.13-21.51,1.17-4.2-1.71-9.56-.42-12.67-4.91-.72-.69-1.39-1.44-2.17-2.05-6.29-4.92-6.55-11-2.31-17.89,1.81-2.93,2.72-6.74,4.54-9.94A22.12,22.12,0,0,1,476.74,46.2Z" transform="translate(-30.41 -38.24)"/><path class="cls-13" d="M689.53,338a2,2,0,0,1-.65.3c-4.89-5.53-11.07-9.39-17.21-13.3,2.7-4.13.39-7.72-1.49-11.13-9.56-17.28-19.27-34.48-28.91-51.72a4.49,4.49,0,0,1-.28-.9,3.34,3.34,0,0,1,2.54-1.35c5.28-.45,9.86-2.28,13.48-6.3a3.34,3.34,0,0,1,3.53-1.25c8.13,14.69,15.94,29.58,24.48,44C692.92,309.74,698.21,323,689.53,338Z" transform="translate(-30.41 -38.24)"/><path class="cls-11" d="M348.83,374.39c-8.88-4.89-17.54-10.08-24.07-18.09-2.13-1.22-3.14-3.52-4.86-5.13h0a1.73,1.73,0,0,1-.48-2c1.34-1.55,2.59-1.84,4.66-.76,8.15,4.25,16,9.38,25.41,10.52a3.48,3.48,0,0,1,2.84,1.73c.3.59.32,1.36.82,1.78,4.8,4,17.16,4.52,22.32.87,1.74-1.9,2.49-4.41,4-6.44a5.11,5.11,0,0,1,3.37-1.24,2.28,2.28,0,0,1,1.27.62,5.57,5.57,0,0,1,.29,2.74c9.61-8.38,21.18-13.78,31.32-21.33a4,4,0,0,1,2.09-.16c1.5.58,2.49-.16,3.41-1.26.53-.62,1.63-1.53,2.05-1,2.67,3.35,6,0,8.79,1a1.37,1.37,0,0,1-.39,1.88c-6.79,10.82-13.6,21.64-23.29,30.23-8,7.09-16.45,12.34-28,12.09A90.93,90.93,0,0,1,348.83,374.39Z" transform="translate(-30.41 -38.24)"/><path class="cls-12" d="M431.69,338.15l.16-1.9c-.34-2.16,1-3.79,1.74-5.6a12.12,12.12,0,0,1,.59-1.13c.77-1,.85-2.34,1.79-3.23C454.12,321,470.26,311.4,487.53,302c-1.74,6.24-3.24,11.6-4.73,17-4.79,3.29-9.26,6.89-12.63,11.73-6.42,9.18-6.27,15,.74,23.48,3.81,6.28,7.72,12.47,13.88,16.82.38.26.31.88.11,1.36l-.38.3c-1.67,7-5.93,9.95-12.29,7.34-4-1.64-6.48-5.68-8.41-9.69a41,41,0,0,1-4-6h0a37,37,0,0,0-4-6C450.32,348.5,443,340.93,431.69,338.15Z" transform="translate(-30.41 -38.24)"/><path class="cls-17" d="M471.9,79.12A165.84,165.84,0,0,0,493.35,84c1.52.24,2.53-.41,3.71-1,2-.91,3.95-2.13,6.16-1.33,2.67,1,3.42-.32,4.2-2.56,1.81-5.23,4.43-5.94,9.43-2.88a3.58,3.58,0,0,1,2.25,3.58c-1.82,4.35.32,6.16,4.35,6.75a1.72,1.72,0,0,1,.67,1.16c-.43,1.3-1.58,1.6-2.7,1.89a11.15,11.15,0,0,0-8.57,8.64c-.4,2.43,1.85,1.91,3,2.51,5.72,3.1,8.22,9.55,5.43,15.29a26.26,26.26,0,0,1-18.32,14.73,10,10,0,0,1-10-2.87c-7.15-7.35-9.6-15.33-5.06-23.78C489,102,492.64,102.29,492,99c-.52-1.86-2.28-1.57-3.58-2.13C480.35,93.4,473.35,88.84,471.9,79.12Z" transform="translate(-30.41 -38.24)"/><path class="cls-18" d="M381.13,252.5a15,15,0,0,1-4.53,10.66c-3.68,5.1-9.21,5.6-16.23,1.46a12.52,12.52,0,0,1-3.79-4.11,14.27,14.27,0,0,1-2.2-7.08c0-5.5,0-11,0-16.5a10.51,10.51,0,0,1,2.24-6.43c.33-.46.7-.9,1.06-1.34,1.46-6.06.34-12.21.67-18.31.12-2.3-.26-4.69,1.48-6.62,2.75-1.54,6.86-.92,8-5,2.13-4.58,6.65-5.77,10.76-7.46,1-.4,1.79.52,2.14,1.56a186.44,186.44,0,0,1-.11,35.12c-.29,2.74,1.5,5.13.46,7.76Z" transform="translate(-30.41 -38.24)"/><path class="cls-19" d="M55.78,544.3c1.64-6.38,3.47-12.72,4.87-19.15,1.48-6.78,5.73-10,12.33-10.83,7.55.08,13.25,5.67,11.9,13-2.51,13.66-5.24,27.32-9.78,40.52-.87,1.85-2.58,2.6-4.35,3.27-4.5,3.41-9.28,3.43-13.7.28s-5.51-7.82-4.26-13.2C53.88,553.62,55.55,549.11,55.78,544.3Z" transform="translate(-30.41 -38.24)"/><path class="cls-13" d="M535.74,442.49q12.06,7,24.11,14c3.06,1.78,6.21,3.14,9.84,3a20.7,20.7,0,0,0,7,1.86c2.38,1.16,4.77,1.83,2.88,5.69-1,2,1.71,3.07,3.84,3.2a4.6,4.6,0,0,1,2.83,1.26,10.54,10.54,0,0,1,2.16,2.36,3.79,3.79,0,0,1,.49,2.49c-.23,2.45.52,5-.5,7.35-1.93,4.48-7.95,6.57-12.66,4.14-3.22-1.67-6.17-3.83-9.24-5.76-1.57-.79-3.37-.79-5-1.47-1.25-.93-2.49-1.86-3.79-2.72-8.75-8.08-19.11-13.68-29.42-19.37-1.88-1-3.78-2.15-4.49-4.44C524.37,446.64,529,442.12,535.74,442.49Z" transform="translate(-30.41 -38.24)"/><path class="cls-20" d="M435.89,492.39c-2.11-8,.93-14.81,4.8-21.46,8-13.71,17.1-26.67,26.12-39.7,1.13-1.62,2-3.39,3.05-5.1l1.85,1.21c5.44,3.72,9.41,9.25,15.4,12.34,2.45,1.27,5.28,2.09,7,4.52.24,2.76-1.72,4.32-3.53,5.66-10.16,7.52-20.36,15-32.31,19.6-5.46,2.11-9.32,6.37-12.4,11.22a103.82,103.82,0,0,1-8.59,11.63A1.59,1.59,0,0,1,435.89,492.39Z" transform="translate(-30.41 -38.24)"/><path class="cls-18" d="M142.9,266.31c2-7.86,3.92-15.71,5.9-23.56.2-.8.53-1.57.8-2.35,5.73-16,7.75-18.43,24.64-6.9.69,2.19-.68,3.8-1.59,5.51a109.1,109.1,0,0,0-7.29,16.74c-1.23,3.74-2.33,7.16,1.47,10.05-.75,7.75-4.31,14.31-9.3,20-3,3.37-7.25,4.84-11.81,2.92s-5.65-5.69-5.57-10.21a39.81,39.81,0,0,1,1.24-8.35C141.72,268.78,141.81,267.35,142.9,266.31Z" transform="translate(-30.41 -38.24)"/><path class="cls-19" d="M603.9,293.48c-3.3,5.46-9,6.34-14.69,2.23-4.47-3.24-7.43-7.92-11.19-11.84-1.74-.44-2.34-1.67-2.32-3.34,0-.33,0-.66.07-1a22.18,22.18,0,0,1,4.1-7.2c2.94-3.5,3-7.25.71-10.4s-6.47-4.05-10.7-2.3c-1.63.68-2.92,2.25-4.94,1.9-.39-7.5,5.52-10.51,10.25-14.35a10.3,10.3,0,0,1,1.71-.91c7.88-3.24,12.21,1.11,16.74,8.86,3.5,6,5.74,12.6,8,19.18.75,3.37,2,6.59,2.9,9.93C605.33,287.36,604.77,290.44,603.9,293.48Z" transform="translate(-30.41 -38.24)"/><path class="cls-12" d="M142.6,270.21c-.27,2.45-.65,4.91-.79,7.37-.23,4.07-.27,8.15,4.43,10,3.52,1.41,8.85-.58,11.69-4.57,3.87-5.44,6.29-11.6,8.2-18-.57-3.31-.15-6.86,2.6-8.58,3.05-1.9,5.37,1.3,7.72,3,2.61,5.75,5.46,11.28,11.31,14.55a4.16,4.16,0,0,1,1.9,3.35c-.22,2.4-.5,4.76-3.15,5.84-13.68.91-25.1,6.2-33.48,17.33-2.21-4.82-7.41-5.63-11.2-8.33-2.85-2.48-6.53-4.13-8-8h0c-.8-3.94-1.37-7.83,2-11h0c1.21-2.12,3.29-3.37,5-5h0C142.79,267.67,142,269.54,142.6,270.21Z" transform="translate(-30.41 -38.24)"/><path class="cls-8" d="M633.8,247.28c-2.28-3.64-1.44-7,1.05-10.11,7.76-9.55,17.72-16.5,28.14-22.69,5.18-3.08,9.36-.44,10.87,5.76.46,2.57-.94,4.39-2.44,6.21a221.23,221.23,0,0,1-20,20.73C646,252.33,638.1,252.19,633.8,247.28Z" transform="translate(-30.41 -38.24)"/><path class="cls-8" d="M714.46,244.55c.7-3.48,3.39-5.27,6.14-6.78,10-5.49,20.84-8.53,31.84-10.92,6.33-1.37,9.7,2.46,9,9.33-.5,2.58-2.51,3.77-4.55,4.92a272.59,272.59,0,0,1-25.39,12.48,15.88,15.88,0,0,1-8.28,1.1C716.85,253.94,714.44,251.15,714.46,244.55Z" transform="translate(-30.41 -38.24)"/><path class="cls-18" d="M176.77,235.07c0-7.45-.29-14.93.23-22.36.74-10.74,3.46-12.33,13.67-8.81,2.41.83,5.23,1.19,6.38,4.08,1.42,5.19-.87,10.12-1.13,15.2-.16,3.13-.43,6.26-.42,9.41s1.33,5.29,4.72,5.69a4.86,4.86,0,0,1,.93,3.93,4,4,0,0,1-1,2.33c-2.1,1.53-4.27,1-6.46.24-2.1-1.18-4.47-1.06-6.77-1.28C182.85,241.5,178.24,240.18,176.77,235.07Z" transform="translate(-30.41 -38.24)"/><path class="cls-21" d="M379.54,191.92l-11.72,7.29c-11.22,2.54-21.4,1.2-29.55-7.88A20.87,20.87,0,0,1,333,182c2.9,1.23,5.6,4.53,8.1-1.19,1.55-3.55,7.37-2.66,8.67,1.24.93,2.83,2.64,3.26,4.94,3.85,10,2.58,19.71,2.16,29.07-2.52-.33,2.29-2,3.93-3,5.89C380.76,190.31,381,191.52,379.54,191.92Z" transform="translate(-30.41 -38.24)"/><path class="cls-22" d="M146.61,321.07c1.68,1.21.89,3.12,1,4.61,1.46,15.95,8.5,16.52,21,13.58s24.32-8.71,37-11.33c3.9-.81,7.91-2.88,12-.71a.62.62,0,0,1,.26.68c-.07.23-.15.35-.24.35-16.27,3.36-30.38,11.88-45.15,18.84-2.52,1.19-5,2.44-7.59,3.53-9.11,3.85-15.95-.22-18.13-10.46-1.3-6.07-.88-12.18-1.18-18.27Z" transform="translate(-30.41 -38.24)"/><path class="cls-17" d="M518,74c-1.35-3.91-2.4-8-4.12-11.71-3.27-7.13-3.44-13.32,4-18,4.47,1.52,8.63,3.44,9.83,8.61.36,1.53,1.36,1.42,2.48,1.73a3.25,3.25,0,0,1,2.47,4.21c-1,3.2-.23,6.17.32,9.22.21.4.42.8.62,1.2,1.55,3.78,1.5,7.2-2.19,9.81l-1.5,1.13c-5.08,2.34-7.32,1.87-11.08-2.32C517.85,76.77,518.69,75.25,518,74Z" transform="translate(-30.41 -38.24)"/><path class="cls-12" d="M493.91,444.48c-8.9-3.77-17.06-8.5-22.2-17.14-.72-4.25,1.84-7.41,4.1-10.31,4.58-5.89,6.65-13.29,11.73-18.83l.31,0c2.14,2.37,1.81,5.31,1.62,8.07-.74,10.69,1.64,20.31,8.27,29C501.21,439.74,499.63,442.89,493.91,444.48Z" transform="translate(-30.41 -38.24)"/><path class="cls-23" d="M714.46,244.55c1.43,6.94,7.79,11.09,14.47,8.33,11.28-4.65,22.45-9.7,32.56-16.7.66,5.6-2.24,9.4-6.26,12.78-5.59,4.71-12.28,7.94-17.48,13.14a77.19,77.19,0,0,1-8.3,3,15.37,15.37,0,0,1-12.75-2.27A33.86,33.86,0,0,1,714.46,244.55Z" transform="translate(-30.41 -38.24)"/><path class="cls-23" d="M633.8,247.28c7.57,3.8,12.28,3.24,18.22-2.86,7.58-7.78,16.08-14.75,21.84-24.18,2,4.18,1.39,8.2-.47,12.28-3.31,7.25-9.38,12.69-12.85,19.82-5.22,5.82-11.14,10.08-19.55,8.9C637.68,257.06,634.58,252.77,633.8,247.28Z" transform="translate(-30.41 -38.24)"/><path class="cls-24" d="M462.49,246.18c1.77,1.78,4,2.12,6.37,2,2.81-.14,4,1.9,2.7,3.72-1.88,2.55-.25,4,.75,5.59.84,1.4,2.21,2.51,2.45,4.23.58,4,.38,7.84-3.53,10.06-3.55,2-8.53.28-11.13-3.76-3.15-4.9-6.31-9.72-12.07-12q-.63-4-1.28-7.92C452.48,251.35,457.73,250.75,462.49,246.18Z" transform="translate(-30.41 -38.24)"/><path class="cls-25" d="M333.82,153.22c-3.42.18-2.67-3.27-4.16-4.77-.71-8.27,1.35-15.08,9.83-18.44a15.14,15.14,0,0,1,20.24,10.82c-.26,1.28-1.38,1.32-2.32,1.44a37.65,37.65,0,0,0-21.31,10.07A3.29,3.29,0,0,1,333.82,153.22Z" transform="translate(-30.41 -38.24)"/><path class="cls-21" d="M199.59,238.16c-3.93,3.37-4.46,3.32-5.16-1.75-1.33-9.64,0-19.11,2.62-28.43l20,15.31c-7.19,3.39-12.67,8.05-12.57,16.87C202.2,241.16,201.17,239,199.59,238.16Z" transform="translate(-30.41 -38.24)"/><path class="cls-26" d="M176.77,235.07a53.94,53.94,0,0,0,10.29,7.12c.7,1.14,2.48-.09,3,1.39-.24,1.35-1.36,1.78-2.4,2.27-4.93,2.29-8.38,5.76-9.34,11.36-.24,1.4-.42,3.06-2.39,3.31-7-4.09-7-4.09-9.26,3.82-.08.28-.37.5-.57.74-4.54.55-4.67-1.77-3.68-5.27a105.09,105.09,0,0,1,11.79-26.31Z" transform="translate(-30.41 -38.24)"/><path class="cls-27" d="M564.94,261.54a44.2,44.2,0,0,1,3.38-2.9,10.23,10.23,0,0,1,12.81,1.08,9.68,9.68,0,0,1,.87,12.71c-1.9,2.51-4.14,4.75-6.23,7.11-1.36-10.15-4.32-13-14.07-13.31Z" transform="translate(-30.41 -38.24)"/><path class="cls-28" d="M95.86,557.25c1.09,0,2.22-.07,3,1a11.72,11.72,0,0,0-8.39,3.08c-4.88,4-10.55,7.05-15.9,10.47a2.17,2.17,0,0,1-2.73-.28c.61-1.33,2-2,2.8-3.11,2-2.65,3.26-5.75,4.85-8.65,1-1.88,2-3.85,4.27-4.62C87.93,554.9,92.15,554.65,95.86,557.25Z" transform="translate(-30.41 -38.24)"/><path class="cls-29" d="M333.82,153.22c6.81-7.95,15.33-12.35,25.92-12.39a3.33,3.33,0,0,1,2.15,3.43c-7.63,0-14.5,2.66-21.14,6.11-2.91,1.51-4.28,4.38-6.1,6.86C333.46,156.08,334,154.58,333.82,153.22Z" transform="translate(-30.41 -38.24)"/><path class="cls-30" d="M600.55,274.39c-2.81-6.5-5-13.25-8.54-19.46-3.35-5.93-7.83-9.68-15.11-8.65,5.17-3.85,9.67-3.14,13.88,2.37,5.51,7.22,8.85,15.48,11.24,24.16C602.53,274.26,601.77,274.53,600.55,274.39Z" transform="translate(-30.41 -38.24)"/><path class="cls-31" d="M546,267.27c0,2.6,0,5.2,0,7.8,0,1.7,0,3.31-2.08,3.9a3.75,3.75,0,0,1-1.69-3.39c.19-7.25-1.53-14.36-1.5-21.6a3.76,3.76,0,0,1,.93-1.51c1.49-.51,2,.86,2.82,1.52Q545.29,260.62,546,267.27Z" transform="translate(-30.41 -38.24)"/><path class="cls-32" d="M600.55,274.39l1.47-1.58c2.37,4.53,3.07,9.51,4,14.45-.53,2.13.14,4.65-2.08,6.22C604.27,286.85,602.06,280.68,600.55,274.39Z" transform="translate(-30.41 -38.24)"/><path class="cls-33" d="M631.85,410.26c4.62-3.38,9.95-5.41,15-8,1.18,2.74-1.68,2.38-2.66,3C640.42,407.71,636.76,410.61,631.85,410.26Z" transform="translate(-30.41 -38.24)"/><path class="cls-34" d="M237.78,195.28c-3.16-.44-5.5-3.25-8.87-3.08a4.09,4.09,0,0,1,1-3l9,4.84C239.17,195.08,238.89,195.57,237.78,195.28Z" transform="translate(-30.41 -38.24)"/><path class="cls-35" d="M133.83,284.25a44.49,44.49,0,0,1,8,8C138.4,290.34,133.7,289.71,133.83,284.25Z" transform="translate(-30.41 -38.24)"/><path class="cls-36" d="M679.83,385.24a9.88,9.88,0,0,1,8-5A10,10,0,0,1,679.83,385.24Z" transform="translate(-30.41 -38.24)"/><path class="cls-35" d="M135.84,273.25c-1.22,3.56-2.73,7.08-2,11C132.94,280.3,130.47,276.06,135.84,273.25Z" transform="translate(-30.41 -38.24)"/><path class="cls-37" d="M559.83,336.24a8.24,8.24,0,0,1,7-4A7.66,7.66,0,0,1,559.83,336.24Z" transform="translate(-30.41 -38.24)"/><path class="cls-38" d="M716.72,265.81c1.14,3.24,1.53,6.42-.73,9.4A27.56,27.56,0,0,1,716.72,265.81Z" transform="translate(-30.41 -38.24)"/><path class="cls-35" d="M140.83,268.24c-.28,3.06-3.25,3.42-5,5C136.64,270.72,137.45,268.2,140.83,268.24Z" transform="translate(-30.41 -38.24)"/><path class="cls-39" d="M381.92,156.18a18.17,18.17,0,0,1-6-6A9.47,9.47,0,0,1,381.92,156.18Z" transform="translate(-30.41 -38.24)"/><path class="cls-38" d="M715.81,280.24c1.68,3.17.15,6-.81,9A26.86,26.86,0,0,1,715.81,280.24Z" transform="translate(-30.41 -38.24)"/><path class="cls-40" d="M455.85,358.24c2.17,1.44,4.21,3,4,6C457.11,363.16,456.75,360.52,455.85,358.24Z" transform="translate(-30.41 -38.24)"/><path class="cls-41" d="M459.83,364.24c2.72,1.08,3.09,3.73,4,6C461.65,368.81,459.61,367.28,459.83,364.24Z" transform="translate(-30.41 -38.24)"/><path class="cls-42" d="M207.83,512.24a5.37,5.37,0,0,1,4-4A4.26,4.26,0,0,1,207.83,512.24Z" transform="translate(-30.41 -38.24)"/><path class="cls-43" d="M191.83,528.24a5.44,5.44,0,0,1,4-4A4.24,4.24,0,0,1,191.83,528.24Z" transform="translate(-30.41 -38.24)"/><path class="cls-44" d="M75,569.35a4.67,4.67,0,0,1-3.18,2.15l-1-.34,2.91-3.1A1.49,1.49,0,0,1,75,569.35Z" transform="translate(-30.41 -38.24)"/><path class="cls-45" d="M187.82,532.24a4.27,4.27,0,0,1,4-4A10.06,10.06,0,0,1,187.82,532.24Z" transform="translate(-30.41 -38.24)"/><path class="cls-46" d="M695.83,375.24c1.48-1.31,2.89-2.74,5-3A4.82,4.82,0,0,1,695.83,375.24Z" transform="translate(-30.41 -38.24)"/><path class="cls-47" d="M142.6,270.21l-1.76-2a1.85,1.85,0,0,1,2.06-1.93Z" transform="translate(-30.41 -38.24)"/><path class="cls-48" d="M383.88,159.23a2.86,2.86,0,0,1-1.95-3.07C383.71,156.46,383.85,157.81,383.88,159.23Z" transform="translate(-30.41 -38.24)"/><path class="cls-49" d="M47.82,444.24a3.11,3.11,0,0,1-2,3C45.81,445.79,45.93,444.42,47.82,444.24Z" transform="translate(-30.41 -38.24)"/><path class="cls-39" d="M375.9,150.17a2.9,2.9,0,0,1-3.06-1.92C374.27,148.23,375.59,148.4,375.9,150.17Z" transform="translate(-30.41 -38.24)"/><path class="cls-50" d="M199.86,519.26a5.85,5.85,0,0,1,3-3A2.94,2.94,0,0,1,199.86,519.26Z" transform="translate(-30.41 -38.24)"/><path class="cls-13" d="M493.91,444.48c1.35-1.2,2.71-2.39,4-3.6,1-.87,1.43-1.78.28-2.91-10.66-10.43-11.09-23.73-10.49-37.33,0-.83.06-1.65.1-2.48,5.34,2.5,10.63,3.48,15.76-.51,2.66,2.15,1.61,5.18,1.74,7.87.23,5-.47,10,1.82,14.68,2.07,4.26,3.08,4.4,6,.59,2.25-2.88,4.34-5.87,6.61-8.74,1.12-1.41,2.16-3,4.23-3.18,2.23,5.93,6.49,9.08,12.84,9.36-3.37,4.61-6.78,9.2-10.11,13.84-.91,1.26-2.51,2.25-2,4.2-2.62,5-7.41,8.36-10.3,13.18-.6.74-1.37,1.29-2,2a129.36,129.36,0,0,1-33.5,25.35c-4.57,2.44-7.4,6.4-10.31,10.38-3.61,8.81-9.93,14.06-19.53,15.3-6.67.86-9.47-.58-12.36-6.93-.92-1.07-.58-2.15,0-3.23,7-9.84,11.65-20.72,24.93-25.88A83.86,83.86,0,0,0,493.91,444.48Z" transform="translate(-30.41 -38.24)"/><path class="cls-20" d="M468.62,487.14c.23-5.05,3.35-8.05,7.45-10.26a150.67,150.67,0,0,0,35.56-26.66c1.8-.21,3.61-.32,5.4-.7a12,12,0,0,1,7.74,4.79c3.94,3.34,8.66,5.41,13.12,7.85a98.5,98.5,0,0,1,21.21,15.1c0,1.3.83,2.22,1.41,3.26a2.5,2.5,0,0,1-.34,2.51c-7.72-2.91-15.34-6.16-23.21-8.6a44.34,44.34,0,0,0-20.08-1.73,171.72,171.72,0,0,0-44.42,13.46A22.05,22.05,0,0,1,468.62,487.14Z" transform="translate(-30.41 -38.24)"/><path class="cls-51" d="M431.64,498.51c-8.54-19.87-6.69-54.4,3.92-66.81.25,4-1.92,6.84-2.8,10-4.2,15.22-6.54,30.52-2.72,46.15.57,2.37.41,5.57,3.82,6.41.74,1.53-.43,2.49-1.06,3.61A3.2,3.2,0,0,1,431.64,498.51Z" transform="translate(-30.41 -38.24)"/><path class="cls-52" d="M434.76,497.17c1.27,4.08,4.64,6.22,7.87,8.5,1.08.75,3.57,1,2.39,2.89-1,1.53-2.68-.14-3.91-.79-4.07-2.13-6.81-5.66-9.47-9.26l.22-.3C432.69,497.47,433.44,496.53,434.76,497.17Z" transform="translate(-30.41 -38.24)"/><path class="cls-53" d="M587.76,474.36l-2.41-2.12c1.82-3.42,4.82-3.63,8.13-3,1.52.5,5-1.36,3.4,2.89C594.19,474.29,591.31,475.72,587.76,474.36Z" transform="translate(-30.41 -38.24)"/><path class="cls-54" d="M593.48,469.25c-2.59,1.34-5.75,1.09-8.13,3-1.13-.2-1.56-1.07-1.91-2,2.39-.92,4.75-1.91,7.19-2.71C592.06,467.06,593.68,466.77,593.48,469.25Z" transform="translate(-30.41 -38.24)"/><path class="cls-55" d="M587.76,474.36l9.12-2.22c2,2.1-.17,2.46-1.33,2.8-2.16.65-4.42,1-6.64,1.41C588.53,475.69,588.15,475,587.76,474.36Z" transform="translate(-30.41 -38.24)"/><path class="cls-56" d="M560.17,483l-.38-2.56a1.32,1.32,0,0,1,1.9-.45c2.2-.7,3.5.7,4.82,2.06Z" transform="translate(-30.41 -38.24)"/><path class="cls-57" d="M434.76,497.17c-.95.39-1.69,1.37-2.9,1-.77-2,1.45-2.57,2-3.94l2-1.88c.28,0,.55-.06.82-.11,0,1.08,0,2.15,0,3.23Z" transform="translate(-30.41 -38.24)"/><path class="cls-58" d="M526.57,240.22c-6.32.33-11.36-3-16.8-4.84-2-.68-1.89-2.67-1.29-4.71q2.89-9.78,5.35-19.69c.75-3,2.25-4.16,5.35-3.5,5,1.05,10.05,1.84,15.05,2.87,3.07.64,5.21,1.77,3.89,5.8-2.15,6.55-3.94,13.22-5.67,19.9C531.58,239.42,529.74,240.84,526.57,240.22Z" transform="translate(-30.41 -38.24)"/><path class="cls-59" d="M541.7,252.47a2.48,2.48,0,0,1-.06.54c-1.15,2.12-1,5.41-4.73,5.23-22.55,1.46-40.67-8.65-57.52-22.06a3.55,3.55,0,0,1-1.55-3c8.6,3.82,16.7,8.72,25.64,11.81a141,141,0,0,0,21.5,6.05c4.36.77,7.68.26,8.85-5.05.89-4,2.69-7.83,4.09-11.73,1.85-.06,1.46,1,1,2-.22,4.31-1.61,8.37-2.73,12.46-1,3.48-1,5.69,3.6,3.82A6.26,6.26,0,0,1,541.7,252.47Z" transform="translate(-30.41 -38.24)"/><path class="cls-60" d="M524.75,87.44l-.39,0-.39,0a.77.77,0,0,0-.47-.48c-3.6-1.16-4.89-3.92-5.14-7.4.09-.94-.38-2,.64-2.72,2.85,3.55,6.69,4,10.83,3.42-1.32,3.34,3.27,1.39,3,4C530.24,84.94,526.61,84.15,524.75,87.44Z" transform="translate(-30.41 -38.24)"/><path class="cls-61" d="M482.57,169l-1,9.81C481.07,175.55,480.25,172.21,482.57,169Z" transform="translate(-30.41 -38.24)"/><ellipse class="cls-62" cx="415.92" cy="182.01" rx="0.31" ry="9.48"/><path class="cls-60" d="M531.33,79.13c2.44-2.89,3.4-6.11,2.19-9.81C536,74,535.41,76.65,531.33,79.13Z" transform="translate(-30.41 -38.24)"/><path class="cls-63" d="M538.88,236.3l-1-2c.33-1.3.66-2.61,1-3.91.92-.35,1.3-.08,1.05.92C539.73,233,540.21,234.84,538.88,236.3Z" transform="translate(-30.41 -38.24)"/><path class="cls-64" d="M540,231.29l-1.05-.92,1.3-3.52C541.2,228.73,541,230.05,540,231.29Z" transform="translate(-30.41 -38.24)"/><path class="cls-15" d="M95.86,557.25c-4.37.61-8.56-1-12.88-1-.31-.38-.69-.86-.55-1.31,2.23-7.29,4.19-14.7,8.68-21.07,2.59,0,5-2.36,7.74-.6,3.12,1.91,6.4,1.29,9.52.26,19.51-6.51,39.17-12.59,58.1-20.73a86.63,86.63,0,0,0,13.59-7.28c9.84-6.54,13.89-15.67,12.67-27.29-.18-2.45,1.91-2.84,3.41-3.7,8.92-5.1,17.84-10.21,26.68-15.46,5.16-3.06,6.4-6.68,4.67-12.65-3.22-5.69-6.65-7.17-13.19-6.15-3.19.5-6.16,2.73-9.61,1.35-1.34-1.38-1-3.12-.87-4.73,1-12.21,2-24.41,3-36.62,6.83-3.51,13.49-.95,20.16.59.61.14,1.14.63,1.84.49,20.53,17,44.63,21.33,70.37,20.06,3.06-.15,5.33-1.59,7.64-3.21a40.56,40.56,0,0,1,29.09,1.13c-10.53,6.19-22.25,9.53-33.54,13.86-17.51,6.74-35.26,12.91-51.85,21.82-5.09,2.73-11.38,5-13.72,10.35-3.09,7.09-8.41,11.88-13.57,17-9.85,9.71-21.4,17.28-32.75,25.05a485.7,485.7,0,0,1-42.17,25.28c-9.85,5.35-20.49,8.49-30.88,12.39A81.11,81.11,0,0,0,95.86,557.25Z" transform="translate(-30.41 -38.24)"/><path class="cls-9" d="M217.69,328.25l0-1c.32-8.37-4.14-13.91-10.75-18.18a11.6,11.6,0,0,1-5.29-3.42c-2.8-2.81-5.72-5.52-6.34-9.76-.34-2.3-2.28-3-4.1-3.88-2.24-1-4.59-2-5.32-4.77a2.78,2.78,0,0,1,.53-2.16c0-.6.07-1.21.11-1.81.84-2.14,1.68-4.29,2.53-6.43,2-8.47,8.18-13.85,14.33-19.16,2.35-2,4.88-4.06,8.13-4.68a1.44,1.44,0,0,1,1.33.17c6.57-2.31,13.14-4.25,20.31-3.11,11.3,1.79,21.3,12,22.61,23.35.35,3.1-1,5.42-2.93,7.58-3.82,5.29-9.76,6.2-15.51,7.33-2.4.47-3.75-1.63-5.16-3.22-1.11-1.32-2.4-1.76-4-.77a9.45,9.45,0,0,0-1.57,1.89c-2,2.22-.26,4.42,0,6.62-.67,4.48-4.23,8-4.32,12.67a19.67,19.67,0,0,1,0,3.68c0,.75,0,1.49,0,2.24.43,6.34,4,11.93,4.41,18.27a47.63,47.63,0,0,0,5.2,10.54,82.14,82.14,0,0,1,2.73,8c.84,3.52-.59,5.83-4.41,6.2a30.92,30.92,0,0,1-4,.11c-9.25-.31-11.76-3.31-10.4-12.51C216.57,337.41,218.14,333,217.69,328.25Z" transform="translate(-30.41 -38.24)"/><path class="cls-65" d="M335.88,419.32c-9.66-1.21-19.38-1.15-29.09-1.13,3.56-5.5,3.66-10.83-.79-15.93,7,.52,13.92-.85,20.89-.95,2.29,0,3.69-1.23,5-2.82,1-1.63,3.16,1.62,3.94-.94,1.62-2.22,3.95-1.13,6-1.3,1.67,1.6,3.05.87,4.34-.55a4.57,4.57,0,0,1,2.62.43c7.91-1,11.56,5.86,9.62,12.79-.32,1.12-.63,2.24-.94,3.36-.52,1.21-1.83,1.25-2.75,1.86C348.64,416.61,342.63,419.29,335.88,419.32Z" transform="translate(-30.41 -38.24)"/><path class="cls-65" d="M280.88,348a10.83,10.83,0,0,1,3.89,12c-1.81,5.29-5.93,6.52-10.92,6.24-1,0-2,.76-3.06.29a5.31,5.31,0,0,1-2.71-2.45c-3-4.7-9.53-6.25-17.16-4.06-1.52-1.46-3.46-.72-5.21-1-4.78-.68-8.08-4.36-7.81-8.72s3.48-7,8.53-7.22c1.95-.1,4,.47,5.75-.93,4.47,1.46,9,1.25,13.53.48a18.54,18.54,0,0,1,8.22.18c1,.54,1.27,1.59,1.87,2.41a4,4,0,0,0,2.36,1.6A14.25,14.25,0,0,1,280.88,348Z" transform="translate(-30.41 -38.24)"/><path class="cls-66" d="M206.58,396.19c-5.82,12.28-14.76,21.35-27.26,26.91-5.54,2.46-5.45,2.64-5.42-3.47,0-.82-.09-1.65-.14-2.47-1.8-2.12-1.71-4.11.37-6l1.68-2.94a11.83,11.83,0,0,0,4.54-4.84c7.31-8.55,16.11-15.64,23.52-24.09,1.08-1.22,2.46-2.36,4.32-1.11,1.29,2.22.64,4.56.5,6.88C208,388.79,209.94,393,206.58,396.19Z" transform="translate(-30.41 -38.24)"/><path class="cls-15" d="M174.13,411.18q-.18,3-.37,6c-1.9,3.73-1,7.87-1.36,11.76-.57,7.39-2.56,14.77-.92,22.78l-22.75-11.35c-2.94-.23-5.4-1.15-6.27-4.36,11.08-6.35,19.37-16.09,29.13-24C172.36,411.32,173,410.47,174.13,411.18Z" transform="translate(-30.41 -38.24)"/><path class="cls-22" d="M207.32,378.26,180.81,404.2a1.27,1.27,0,0,1-1.93.09c10.61-14.73,18.57-30.89,25.87-48.94l5.08,18.84C210.15,376.26,209.63,377.82,207.32,378.26Z" transform="translate(-30.41 -38.24)"/><path class="cls-67" d="M142.46,436l6.27,4.36c-20.32,4.75-39.16,1.78-56.1-10.85-1.72-1.28-3.24-2.82-4.85-4.23-.21-.95.12-1.34,1.1-1.08,13.9,9.21,29,13.67,45.81,12.19C137.24,436.16,139.81,434.48,142.46,436Z" transform="translate(-30.41 -38.24)"/><path class="cls-68" d="M206.58,396.19q.53-6,1.06-12.08c2.47-.55,5-1.14,7.41.06a137.58,137.58,0,0,0,13.73,17.17c-5.29,1.39-10.28-1.53-15.52-1.12-2.15.17-4.32,0-6.47,0Z" transform="translate(-30.41 -38.24)"/><path class="cls-69" d="M215.05,384.17c-2.48,1.05-5,2-7.41-.06-1.77-1.86.39-3.93-.32-5.85.83-1.36,1.67-2.71,2.51-4.07C212.18,377.2,213.44,380.78,215.05,384.17Z" transform="translate(-30.41 -38.24)"/><path class="cls-70" d="M88.88,424.19l-1.1,1.08a14.12,14.12,0,0,1-5-5.21A9.41,9.41,0,0,1,88.88,424.19Z" transform="translate(-30.41 -38.24)"/><path class="cls-71" d="M178.88,404.29l1.93-.09c-1.18,1.95-2.46,3.77-5,4Z" transform="translate(-30.41 -38.24)"/><path class="cls-72" d="M348.79,396.13l-2.9.2a.7.7,0,0,1-1.06-.08c-5.46-4.77-12.42-4.85-19-6-10.56-1.85-21.23-.81-31.86-1-6.44-.12-12.89,0-19.89,0,.68-1.07.89-1.75,1.16-1.77,19.55-1.41,39.1-2.27,58.54,1.29A31.25,31.25,0,0,1,348.79,396.13Z" transform="translate(-30.41 -38.24)"/><path class="cls-73" d="M335.82,397.55c.49,1.19,2.33,1.18,2.49,3-2.78,1.24-4.32-1.43-6.43-2.05-1-1.77-5.12-2.57-3.73-4.31,1.75-2.21,3.46,1.68,5.5,2.24A11,11,0,0,1,335.82,397.55Z" transform="translate(-30.41 -38.24)"/><path class="cls-74" d="M359.87,414.24c1.27,2.67,2.56,5.34,1.24,8.8-2.23-2.08-2-4.79-3.28-6.77A6.19,6.19,0,0,1,359.87,414.24Z" transform="translate(-30.41 -38.24)"/><path class="cls-75" d="M359.87,414.24c.3,1.66-.43,2.29-2,2l-3.11-2.13c.13-1.79,1.34-2,2.75-1.86Z" transform="translate(-30.41 -38.24)"/><path class="cls-76" d="M344.83,396.25l1.06.08c-.24,1.15-.48,2.48-2,2.41s-1.49-1.57-2.1-2.49Z" transform="translate(-30.41 -38.24)"/><path class="cls-77" d="M204.69,441.61c3.47-1,6.89-2.35,10.43-3.05,6.82-1.36,11.42,1.39,14,7.92,1.11,6.28-1.68,10.46-7,13.42-7.4,4.11-14.74,8.34-22.06,12.61-2.43,1.41-4.8,3.81-8.18,2.67-.85-2.17-2.94-4-2.09-6.67,2.84-3.22,6-6.2,7.95-10.1,3.07-4,5.32-8.32,5.18-13.53C202.82,443.35,203.69,442.48,204.69,441.61Z" transform="translate(-30.41 -38.24)"/><path class="cls-78" d="M91.75,534.16,83,556.24c-2.69,4.36-4,9.58-8,13.11l-1.32-1.29c3.22-13.25,6.59-26.47,9.61-39.77,1.48-6.5-1.81-10.61-10.29-14,4.5-1.82,9.07-3.06,14-1.82l1.89.77C96.05,517.36,97.55,528.13,91.75,534.16Z" transform="translate(-30.41 -38.24)"/><path class="cls-79" d="M91.75,534.16c2.48-7.44,3.25-14.65-2.91-20.89,3.43-1.19,6.82-2.52,10.3-3.56,6.39-1.91,12.14.78,14.24,6.5s-.42,11.41-6.66,14.11c-2.56,1.11-5.24,2-7.87,2.94C96.4,532.87,94.49,536.73,91.75,534.16Z" transform="translate(-30.41 -38.24)"/><path class="cls-80" d="M191.83,475.18c10.48-5.76,21-11.42,31.4-17.35,4.22-2.41,6.06-6.46,5.86-11.35,1.66,6.45-.14,10.81-5.85,14.12q-15.24,8.82-30.51,17.62C191.74,477.41,191.86,476.28,191.83,475.18Z" transform="translate(-30.41 -38.24)"/><path class="cls-81" d="M197.69,458.41c-.28,5.23-2.95,8.58-7.95,10.09-3-.77-3.19-3.91-6.53-6.24C189.59,462.66,193.73,460.81,197.69,458.41Z" transform="translate(-30.41 -38.24)"/><path class="cls-82" d="M76,426.16a5.87,5.87,0,0,1-1.22-3.87C77,423,77.18,424.38,76,426.16Z" transform="translate(-30.41 -38.24)"/><path class="cls-83" d="M484.9,372.3c-6.65-4.53-12.62-9.58-14-18.18,9.16,4.44,18.6,6.79,28.8,4.16,3.75-1,7-3,10.41-4.64,5.3-2.48,9.35-.36,9.6,5.5.2,4.84,1.95,9,4.11,13.12a4.11,4.11,0,0,0,3,3l1.19,1.1c-4.23,6.18-11.21,7.29-16.4,2.18-3.38-3.33-6.52-5.45-11.68-4.16S489.81,373.83,484.9,372.3Z" transform="translate(-30.41 -38.24)"/><path class="cls-12" d="M524.05,408.87c-3.87,5.19-7.89,10.28-11.56,15.61-2.09,3-3.32,2.13-4.94-.26a20,20,0,0,1-3.77-11.13q-.09-7.72-.17-15.44c1.56-3.79,3.21-5.06,6.85-1.49,3.26,3.18,7.38,5.51,11.23,8C523.47,405.38,525.06,406.4,524.05,408.87Z" transform="translate(-30.41 -38.24)"/><path class="cls-84" d="M585.82,415.1a106.67,106.67,0,0,1-40.13-1.2c.48-6.9,2.3-8.19,8.42-6.49,10.38,2.88,20.74,6,31.69,5.94A1.07,1.07,0,0,1,585.82,415.1Z" transform="translate(-30.41 -38.24)"/><path class="cls-85" d="M585.82,415.1c0-.58,0-1.17,0-1.75,2.36.07,4.79-.72,7,.62Z" transform="translate(-30.41 -38.24)"/><path class="cls-86" d="M434.82,330.24a11.2,11.2,0,0,1-3,6,4.68,4.68,0,0,0-3.4,4c-2,1.28-.93-7.51-4.16-.88-.89-1,.07-2.49-1.14-3.26-1.83.57-.78,2.86-2.09,3.62-1.63.95-2.83.48-3.24-1.48a5.46,5.46,0,0,1-1.28-2.1c-2-7.41-8.05-12.41-14.82-12.36-7.23.05-13.29,5-15.41,12.46-1.27,4.46-1,9.21-2.65,13.6-.67,1.82-.78,4.1-3.56,4.05-3.55-1.22-5.39-4.22-7.23-7.15-2.65-4.21-5.21-8.47-9.37-11.43a6.55,6.55,0,0,1-2.25-2.62c-4.69-10.74-10.28-21.1-13.77-32.35-.55-2.67,1.5-5.34,0-8-.91-2.74-2.13-5.4-2.11-8.37a12.3,12.3,0,0,0-.05-1.49c-.24-2.06-1.56-4.36.4-6.06,2.11-1.83,4,.23,5.88,1a27.6,27.6,0,0,0,4.27,1.19c5.55,1.13,6.24,2.73,3.41,7.72a4.55,4.55,0,0,1-1.9,1.31c-2.46.49-3.66-1.7-5.46-2.58-.34-.22-.6-.78-1.12-.5-.14.08.12.51.47.69a3.73,3.73,0,0,1,.61,1,18.16,18.16,0,0,1,.25,6.32c0,.09.17.28.27.29s.24-.14.38-.26a2.39,2.39,0,0,1,1.59-.72,2.71,2.71,0,0,1,2.23,3c.07.8-.84,1.24-.75,2.05a2.23,2.23,0,0,1,1.43-.38,7.14,7.14,0,0,1,4.62,3.19c2.76,4.47,4.87,9.35,8,13.23.9,0,1.21-.21,1.17-.6-.61-6.36,0-6.78,6.19-4.38,4.95,1.92,9.34,5.18,14.61,6.29,6.38,1.34,10.59-2.95,9.15-9.14a6.71,6.71,0,0,0-4-4.76c-3.47-1.6-6.86-3.36-10.3-5-1.58-.76-3.6-1.12-3.86-3.41.15-1.5-2.77-4.86,2.45-3,7.63,2.76,15.65,4.45,23.38,7,2.42.78,6-1.55,7.26,2.5-1.7,5.7-3.63,11.4-.9,17.32,4.17,9.07,11.88,11.15,20.94,10.52.73,1.64.91,3.12-1.15,3.95-2.74-1.22-5.7.05-7.38-.41C429.14,330.06,432.06,329.21,434.82,330.24Z" transform="translate(-30.41 -38.24)"/><path class="cls-87" d="M477.81,271.21l2-1c1.53-.32,1.51-1.84,2.18-2.83a6.7,6.7,0,0,1,.91-1c4.29-3.41,9.25-5.77,13.8-8.76,1.22-.8,2.6-1.61,4.1-.43-1.2,9.37-4.95,18-7.52,27-.49,1.71-1.92,2.2-3.57,1.92a79.88,79.88,0,0,0-25.68,0c-.4.07-.86-.22-1.74-.47,3.65-4.69,8.48-7.64,12.47-11.47A6,6,0,0,0,477.81,271.21Z" transform="translate(-30.41 -38.24)"/><path class="cls-88" d="M536.91,258.24q2.37-2.61,4.73-5.23c1.94,8.55,2.31,17.24,2.32,26l-2.14,3.19c-1,1.75-2.53,3.09-3.69,4.73-2.77,2.32-4.08,6.46-8.43,6.85a4.69,4.69,0,0,1-3.77-4.81l0-2.53c.66-1.7.72-3.61,1.82-5.16C530.28,273.36,533.66,265.82,536.91,258.24Z" transform="translate(-30.41 -38.24)"/><path class="cls-89" d="M530.14,293.36l7.66-7.14c.94-.27,1.36,0,1,1l-21,31.92-1-.8c1.3-5.89,1.7-12.1,6.11-16.87C523.94,297.54,526.81,295.24,530.14,293.36Z" transform="translate(-30.41 -38.24)"/><path class="cls-90" d="M530.14,293.36c-1.74,3.3-4.76,5.46-7.21,8.12-1.79-4.85,1.47-8.49,3-12.55Q528,291.14,530.14,293.36Z" transform="translate(-30.41 -38.24)"/><path class="cls-91" d="M527.78,281.24A7.13,7.13,0,0,1,526,286.4C525.77,284.4,525.55,282.39,527.78,281.24Z" transform="translate(-30.41 -38.24)"/><path class="cls-92" d="M482.83,268.2c-.32,1.7-.56,3.51-3,2,0-.29,0-.57,0-.86C480.55,268.23,481.28,267.16,482.83,268.2Z" transform="translate(-30.41 -38.24)"/><path class="cls-93" d="M477.81,271.21c.21,2.23-.82,3.22-3,3A7.1,7.1,0,0,1,477.81,271.21Z" transform="translate(-30.41 -38.24)"/><path class="cls-94" d="M482.83,268.2l-3,1.17a3.12,3.12,0,0,1,2-3.12L483,267.4C483,267.67,482.89,267.94,482.83,268.2Z" transform="translate(-30.41 -38.24)"/><path class="cls-18" d="M348.17,297.42c-1.6,6.56-5.78,9.26-14.13,9.13-5.73-1.13-9.22-4.85-11.54-9.95-1.79-3.93-2.82-8.15-4.68-12-.32-.73-.46-1.51-.79-2.23-2.49-16-8.91-31-12.35-46.71a28.41,28.41,0,0,0-.63-3.31c.8.07,1.25-.18.9-1.19l-3.21-15.69c-1.16-9.17-2.59-18.32-3.4-27.53-.54-6.14,7.66-10.79,13.45-8.85,7.13,2.38,8.83,7.36,9.13,14,.22,4.76,1.23,9.49,1.89,14.23-1.61,2.23,1.07,2.73,1.66,4.08,1.26,2,1.54,4.36,2.08,6.62,4.06,17,8.18,33.89,14.5,50.19,3.51,4.91,3.87,10.9,5.67,16.4l2.12,7.7C350,294.14,348.3,295.68,348.17,297.42Z" transform="translate(-30.41 -38.24)"/><path class="cls-95" d="M237.78,195.28l1.13-1.2c15.35,7.55,27.43,18.45,35,34,1.51,3.12,2.6,6.49,5.06,9.09,2.05,1.92,2.8,0,3.78-1.28l8-8.76c1.89,2.26,1,4.84.54,7.17-1.57,8.4.27,16.17,3.8,23.72,2.9,6.19,5.72,12.48,6.18,19.38.45,6.68-.52,13-7.28,16.7-3.81.38-7.47.24-10.12-3.13-2.28-14.53-8.94-27.69-13.06-41.65,1-.92,2-.36,3-.09.24,0,.82.4.45-.44a166.92,166.92,0,0,1-11.85-22.08,23.58,23.58,0,0,0-1.53-3.8c-2.8-11-10.29-18.4-19.13-24.74C240.4,197.24,239.09,196.25,237.78,195.28Z" transform="translate(-30.41 -38.24)"/><path class="cls-10" d="M293.84,293c7.18-5.18,7.07-15.4,4-23.76-2.14-5.76-4.85-11.3-6.95-17.06-3-8.28-1.84-16.68-.11-25l5.9-7c4.19,2.72,5.76,7.21,7.73,11.44.86,1.08.55,2.68,1.62,3.67,3.86,15.71,10.4,30.71,12.46,46.9C316.49,291.72,301.85,298.19,293.84,293Z" transform="translate(-30.41 -38.24)"/><path class="cls-96" d="M357.61,231.16q.08-12.87.14-25.75l1.08-1.16a150.19,150.19,0,0,1,0,27Z" transform="translate(-30.41 -38.24)"/><path class="cls-97" d="M358.83,231.24v-27l1,0c0,7.28,0,14.56,0,21.84C359.8,227.82,360.35,229.75,358.83,231.24Z" transform="translate(-30.41 -38.24)"/><path class="cls-98" d="M282.73,235.92c0,1.62-.44,3-2.25,3.13-1.09.09-2.44-.08-1.53-1.85Z" transform="translate(-30.41 -38.24)"/><path class="cls-99" d="M322.89,208.37l.18,2.79c-2.62-1.13-3.89-2.36-.26-3.9C322.84,207.63,322.87,208,322.89,208.37Z" transform="translate(-30.41 -38.24)"/><path class="cls-100" d="M526.84,375.23c-2.26.28-4.67.72-3-3A6.51,6.51,0,0,1,526.84,375.23Z" transform="translate(-30.41 -38.24)"/><path class="cls-12" d="M293.84,293c10.33,1.2,19-1.44,24.62-10.87.21.69.43,1.37.65,2.06.86,3.8-2,5.63-4.12,7.87a7.24,7.24,0,0,0-2.51,3.36c-7.76,13.83-8.7,27.53,0,41.44,1.7,2.7,4.87,5.3,3.38,9.33-14.23-7.12-27.78-15.51-42.29-22.14-4.81-2.2-9.28-4.92-14.78-4.83-.1-1.88,1.21-1.59,2.35-1.5a10.29,10.29,0,0,0,6.63-1.46c9.64-4.41,15.09-11.62,15.17-22.5a10.35,10.35,0,0,1,.88-2.77C287.22,291.52,290.35,293.14,293.84,293Z" transform="translate(-30.41 -38.24)"/><path class="cls-101" d="M232.72,283.46c2.06,4,4.91,4.19,8.81,2.43,3.73-1.68,7.69-2.88,11.29-4.93.41,5.48-2.91,9.67-5,14.28h0c-4.51,3.85-8.68,8.27-15,9.23-1.33,2.15-3.78,2.29-5.78,3.24a3.77,3.77,0,0,1-1.38.07c-1.76-.53-3.53-1.06-4.72-2.63-.73-5.15,3.91-8.3,4.83-12.84a.93.93,0,0,1-.3-.85c.06-.3.12-.45.2-.45a2.24,2.24,0,0,1,2.07-.22c1,.3,1.87,3.17,3.15.24.55-1.36,1.14-2.71-.12-4-1.39-.72-2.82.28-4.21-.1a2.13,2.13,0,0,1-1.05-.74,2,2,0,0,1,.16-1.29l1.16-1.57A5.92,5.92,0,0,1,232.72,283.46Z" transform="translate(-30.41 -38.24)"/><path class="cls-102" d="M226.74,307.16c1.06-3.13,4.26-1.38,6.11-2.68.15,1.77,1.48,2.42,2.84,3.1,6.58,3.27,12.67,7.68,20.2,8.78,1.56.94,3.45-.17,5,.8l6.93-.89c-2,3.86-6.48.46-9,3-9.86-2.79-20.21-2.62-30.14-5C225,312.72,226.46,309.78,226.74,307.16Z" transform="translate(-30.41 -38.24)"/><path class="cls-103" d="M273.66,250.37l-2.85-1c-4.17-7.25-6.71-15.14-9-23.11a.58.58,0,0,1,1,0l13.16,22.93C276,251.13,274.81,250.76,273.66,250.37Z" transform="translate(-30.41 -38.24)"/><path class="cls-104" d="M247.83,295.24c3.26-.07,3.19-3.92,5.72-5.06.26,2.28-1,4-2.19,5.38-.93,1.07-2.65,2.84-3.53-.31Z" transform="translate(-30.41 -38.24)"/><path class="cls-105" d="M212.83,253.14a.5.5,0,0,1-.62.28c-2.82.62-5.32.44-6.64-2.68.27-1.34,1.33-1.46,2.41-1.55C210.14,249.84,210.92,252.18,212.83,253.14Z" transform="translate(-30.41 -38.24)"/><path class="cls-106" d="M260.89,317.16c-1.7,0-3.52.6-5-.8C257.6,316.38,259.38,315.94,260.89,317.16Z" transform="translate(-30.41 -38.24)"/><path class="cls-107" d="M262.72,226.27l-1,0c-1.12-.87-1-2.1-.91-3.3A3.51,3.51,0,0,1,262.72,226.27Z" transform="translate(-30.41 -38.24)"/><path class="cls-86" d="M315.91,346.2c-2.53-4.63-5.26-9.17-7.54-13.91-6.42-13.33-4.47-26,3.44-38.06,1-.74,1.2-2.08,2.07-2.93,1.93-2.23,4.34-4.1,5.23-7.1a97.28,97.28,0,0,1,3.66,9.11c1.7,5.79,5.05,9.91,10.75,12a7.22,7.22,0,0,1,3.05,3.81c3.68,8,8.32,15.82,10.29,24.26,2.24,9.62,3.54,19.34,9.22,27.75a2.77,2.77,0,0,1-2.9,1,2.66,2.66,0,0,1-1.35-.9c-6-.61-11.34-3.56-17.11-5-2.12-.52-3.2-2.29-5-3.09-1.42-.62-2.26-3.65-4.54-.65-.89,1.16-2.31-.55-2.15-1.62.63-4.18-2.08-1.31-3.24-1.66a2.88,2.88,0,0,1-2-.91Z" transform="translate(-30.41 -38.24)"/><path class="cls-108" d="M226.74,307.16c.65,2.36,1.31,4.73,2,7.1a1,1,0,0,0,0,.8c-1,2,.29,4.24-.87,6.18-.48,2.8.35,5.76-1.11,8.43-3.1-5.76-5.49-11.75-5.8-18.4.84-1.33,2.74-1.37,3.44-2.86a3.39,3.39,0,0,1,1.44-1.29Z" transform="translate(-30.41 -38.24)"/><path class="cls-109" d="M280.88,348c-1.05,1.3-2.07-.07-3.11,0,.09-6,1.63-11.43,6.11-15.73,3.23,1.06,2,3.31,1.25,5.24C283.81,341,282.31,344.51,280.88,348Z" transform="translate(-30.41 -38.24)"/><path class="cls-110" d="M283.88,332.26q-3.06,7.86-6.11,15.73a3.25,3.25,0,0,1-2.89-1.36A48.58,48.58,0,0,1,279,334.26C281.15,334.93,280.67,329.09,283.88,332.26Z" transform="translate(-30.41 -38.24)"/><path class="cls-111" d="M279,334.26c-.38,4.45-1,8.82-4.1,12.37-1.62-.91-.6-2.49-.94-3.73,1.66-2.28,1.93-5.08,2.88-7.62C277.17,334.3,277.4,332.77,279,334.26Z" transform="translate(-30.41 -38.24)"/><path class="cls-112" d="M268.08,364.14c1.43-.13,2.58.21,3,1.78a.77.77,0,0,1-.29,1.1c-1.16,1-1.39,3.17-3.66,2.84C266.51,367.81,268.11,366.1,268.08,364.14Z" transform="translate(-30.41 -38.24)"/><path class="cls-113" d="M319.9,351.17c2.43.94,3.47,3.2,4.86,5.13C321.83,355.83,320.89,353.48,319.9,351.17Z" transform="translate(-30.41 -38.24)"/><path class="cls-114" d="M270.78,367c.09-.36.19-.73.29-1.09,1-.23,2-1,2.78.37-.56.87-.73,2.2-1.93,2.37S271,367.7,270.78,367Z" transform="translate(-30.41 -38.24)"/><path class="cls-113" d="M317.78,348.34a2,2,0,0,1,2,.91l.12,1.93A3,3,0,0,1,317.78,348.34Z" transform="translate(-30.41 -38.24)"/><path class="cls-115" d="M382.84,292c4.79,2.25,9.61,4.48,14.39,6.77,5.28,2.53,7.31,7.27,5.31,12.25-1.89,4.73-7.05,6.69-12.56,4.4-6.11-2.54-12.08-5.4-18.3-8.21-.76,1.88.61,2.93,1.17,4.12.85,1.78.82,3.25-1,4.25s-2.89-.19-3.64-1.54c-2.56-4.63-5-9.32-7.49-14a2.86,2.86,0,0,1,2.72-.8c7.78,1.75,14.23.14,18.52-7.13A4.14,4.14,0,0,0,382.84,292Z" transform="translate(-30.41 -38.24)"/><path class="cls-115" d="M360.7,263.46q8,4.89,15.9-.3l.18,23c.23,1.36,1.3,2.31,1.78,3.54,1.45,3.7.14,7.06-3.5,8.65a14.78,14.78,0,0,1-7.8,1.2c-8.23-1-10.09-4.42-7.78-14.32,1.24-2,.62-4,.25-6.11C358.8,273.9,357.75,268.52,360.7,263.46Z" transform="translate(-30.41 -38.24)"/><path class="cls-116" d="M359.8,286c.92.94.84,1.9.52,3.17-1.42,5.7-.46,7,5.31,8.61,3.27.93,6.34.25,9.27-.83,2.67-1,3.65-3.25,2.63-6.11-.53-1.48-2-2.82-.75-4.6,2.7,1.11,3.94,3.51,5.2,5.89-.3,7.31-7.53,10.27-16.92,9a36.86,36.86,0,0,1-4.32-1.08l-3.8-2.83c-.81-.38-1.62-.77-1.26-1.92-.13-1.32-.33-2.6-1.73-3.25a1.24,1.24,0,0,1-.25-1.25c.75-1.4,1.35-2.94,3-3.54l1.1-1.05A1.71,1.71,0,0,1,359.8,286Z" transform="translate(-30.41 -38.24)"/><path class="cls-117" d="M186.4,285.05l.33,2.14c-.81,1.57-2.35,2.27-3.74,3.19-3.43,2.28-3.39,4.09.28,6.17,3.49,2,7.38,3.06,11.14,4.42a32.23,32.23,0,0,1,8.43,4.24l4.08,3.83c-11.11-1.05-21.65-4.12-30.93-10.33-4.84-3.24-4.29-7.49.69-10.71C179.6,286.11,182.7,284.51,186.4,285.05Z" transform="translate(-30.41 -38.24)"/><path class="cls-118" d="M524.77,454.31c-3.06-.37-5-2.92-7.85-3.83-1.49.44-2.63.2-3-1.53,2.11-5.52,6.35-9.21,10.86-12.68l11,6.22C529.74,444.25,525.69,447.83,524.77,454.31Z" transform="translate(-30.41 -38.24)"/><path class="cls-119" d="M575.7,280.53c.77,1.12,1.55,2.23,2.32,3.34-1.18,3.75-2.95-.61-4.34.31C574,282.78,574.39,281.4,575.7,280.53Z" transform="translate(-30.41 -38.24)"/><path class="cls-120" d="M538.84,287.23l-1-1a9.17,9.17,0,0,1,4-4.06C541.63,284.32,540.2,285.75,538.84,287.23Z" transform="translate(-30.41 -38.24)"/><path class="cls-121" d="M519,76.84c0,1.12,0,2.24,0,3.36a.64.64,0,0,1-1,.06c-.37-1.34-.73-2.69-1.1-4L518,74C518.31,75,518.65,75.91,519,76.84Z" transform="translate(-30.41 -38.24)"/><path class="cls-21" d="M356,361.18c-6.66-6.11-10-13.56-9.08-22.67.19-2-.76-3.55-1.46-5.21-4-9.33-8-18.64-12-27.95,6.13-.09,11.38-1.74,14.12-7.9,1.3.6.23,2.15,1.15,2.9,4.39,10.21,8.68,20.47,13.21,30.61,1.73,3.88,6.19,5.45,8.42,9,2.88,4.63,5.7,9.31,9.61,13.19a5.41,5.41,0,0,1,.73,1.36,3,3,0,0,1-1,2.81c.46,2.9-1.52,4.7-3,6.7-7.07,4.6-13.64,2.6-20.06-1.5A3.13,3.13,0,0,1,356,361.18Z" transform="translate(-30.41 -38.24)"/><path class="cls-86" d="M415.84,338.23c-2.21,5.44-7.9,7.3-12.17,9.3-5.88,2.75-9.86,7.5-15.14,10.7a22.8,22.8,0,0,1-7.47,3.3c-.13-2.64,3.16-3,2.75-5.32-.57-.34-1.4-.8-1.22-1.41,2.32-7.88,1.61-16.47,5.91-23.9,3.14-5.44,8.1-7.34,13.77-7a15.68,15.68,0,0,1,13.55,8.73C416.72,334.36,417.38,336.36,415.84,338.23Z" transform="translate(-30.41 -38.24)"/><path class="cls-122" d="M415.84,338.23c-.31-8.35-7.13-12.06-12.8-12.85s-11.29.85-14.83,8.82c-2.22,5-2,10.31-3.16,15.42-.48,2.15-2.49,4.11-1.24,6.59l-1,0c-2,.6-2.22-1.16-2.91-2.27a7.22,7.22,0,0,0,.13-.79c3.36-3.24,3.27-7.65,3.75-11.76.94-8,5.32-17.05,14.39-18.61,10.16-1.75,19.64,5.16,19.65,15.4Z" transform="translate(-30.41 -38.24)"/><path class="cls-123" d="M356.75,361.46c6.38,3.13,12.79,6,20,2.6-2.55,3.47-6.4,3.7-10.07,3.53a42.52,42.52,0,0,1-13.37-3c-1.62-.64-3.46-1.07-1.5-3.29l.95,0A3.9,3.9,0,0,0,356.75,361.46Z" transform="translate(-30.41 -38.24)"/><path class="cls-124" d="M379.9,354l2.91,2.27c-.53,1.64-1.84,1.19-3,1.11C379.83,356.23,379.86,355.11,379.9,354Z" transform="translate(-30.41 -38.24)"/><path class="cls-125" d="M518,80.26l1-.06c1,2.6,2.87,4.61,4.55,6.76-2.31.78-4.64.83-6.43-1C514.94,83.87,517.78,82.21,518,80.26Z" transform="translate(-30.41 -38.24)"/><path class="cls-126" d="M359.8,286l-2,.22c3.11-5,2.87-5.65-2.88-5.88-3.3-.14-5.46-2.7-8.54-3.44-1.29,2.69,1.16,5.14.3,7.69q-3.29-7.64-6.59-15.27l17.65-8.9,2.92,3.08C360,270.94,361.68,278.52,359.8,286Z" transform="translate(-30.41 -38.24)"/><path class="cls-18" d="M355.73,254.22a37.7,37.7,0,0,1,0-17.95Z" transform="translate(-30.41 -38.24)"/><path class="cls-127" d="M561.69,480l-1.9.45c-.92-.38-2.44.43-2.75-1s1.49-1.33,2.06-2.19C560.31,477.85,561.64,478.34,561.69,480Z" transform="translate(-30.41 -38.24)"/><path class="cls-10" d="M204.69,248.39l1.22,1.74c1.64,2,4,2.67,6.3,3.29C202,258.75,194.8,267.08,189,276.81c-2.5-1.85-5.11-3.57-7.48-5.57-3.3-2.78-4.52-6.74-5.6-10.72.86-8.57,4.7-14.74,13.54-16.91,1.32-1.49,2.81-.94,4.31-.37a12.27,12.27,0,0,0,5.81,1.2C200.69,246.54,202.64,247.54,204.69,248.39Z" transform="translate(-30.41 -38.24)"/><path class="cls-128" d="M193.8,243.24l-4.31.37c-.89-.33-2-.36-2.43-1.41C189.29,242.62,191.78,241.41,193.8,243.24Z" transform="translate(-30.41 -38.24)"/><path class="cls-129" d="M450.76,480.21c2.36-3.46,6.35-5.15,9-8.29.6-.7,1.46-1.8,2.41-1,1.2,1,.28,2.26-.62,2.89-3.36,2.35-5.86,5.79-9.69,7.5C450.91,481.54,450.54,481.17,450.76,480.21Z" transform="translate(-30.41 -38.24)"/><path class="cls-130" d="M450.76,480.21l1.11,1.12c-.81,1.26-1.78,2.25-3.53,2.11C448.2,481.59,449.67,481,450.76,480.21Z" transform="translate(-30.41 -38.24)"/><path class="cls-131" d="M513.9,449l3,1.53c-1.84,1.51-3.56.38-5.29-.26C511.86,448.85,513.11,449.31,513.9,449Z" transform="translate(-30.41 -38.24)"/><path class="cls-132" d="M202.84,305.21c-6.13-2.09-12.32-4-18.35-6.34-2.69-1-6.24-2.14-6.18-5.71.06-3.35,3.59-3.94,6.06-5.17a17.24,17.24,0,0,1,2.36-.8c5.77,3.21,10.92,6.88,12.65,13.91C199.76,302.66,201.65,303.85,202.84,305.21Z" transform="translate(-30.41 -38.24)"/><path class="cls-133" d="M225.82,307.12l0,1.86c-1.56,1.54-3.2,1.48-4.91.28l.09-4.1C222.81,305.26,224.7,305.25,225.82,307.12Z" transform="translate(-30.41 -38.24)"/><path class="cls-134" d="M225.7,284.91c.08.48.15,1,.23,1.45,1.86,1.64,1.72,3.25-.06,4.85,0,.37-.05.74-.07,1.11C223.29,289.88,223.49,287.41,225.7,284.91Z" transform="translate(-30.41 -38.24)"/><path class="cls-135" d="M220.88,309.26l4.92-.27c-.78,2.54-2.91,2.21-4.86,2.28Z" transform="translate(-30.41 -38.24)"/><path class="cls-136" d="M232.72,283.46a11.87,11.87,0,0,0-5.86-.12C228.85,281.72,230.8,281.48,232.72,283.46Z" transform="translate(-30.41 -38.24)"/><path class="cls-137" d="M225.39,448.27a2.8,2.8,0,0,1,0,3.06C224.75,450.17,224.54,449.25,225.39,448.27Z" transform="translate(-30.41 -38.24)"/><path class="cls-138" d="M352.83,293.25a2.33,2.33,0,0,1-.73,3.33c-2.26-3.65-.85-7.63-1.27-11.33,3.39-.11,4.22,1.73,3.57,4.69C353.7,291,352.66,291.81,352.83,293.25Z" transform="translate(-30.41 -38.24)"/><path class="cls-126" d="M353.83,290.26c.11-2.34-1.13-3.86-3-5h0c-.26-.92,0-1.3,1-1,2.59-.57,3.19,2.13,4.91,3-.62,1.63-.64,3.64-2.78,4.28A.72.72,0,0,1,353.83,290.26Z" transform="translate(-30.41 -38.24)"/><path class="cls-139" d="M434.82,330.24h-9.73c3.28-.82,6.57-1.9,9.73,0Z" transform="translate(-30.41 -38.24)"/><path class="cls-126" d="M348.79,300.35c-1-.72-.84-1.91-1.15-2.9l1.2-5.21C351.22,295,348,297.65,348.79,300.35Z" transform="translate(-30.41 -38.24)"/><path class="cls-140" d="M409.33,315.66a14.82,14.82,0,0,1,0-7.82A14.62,14.62,0,0,1,409.33,315.66Z" transform="translate(-30.41 -38.24)"/><path class="cls-138" d="M355.68,295.27l1.26,1.92-3.12,2.57C353.14,297.51,354.85,296.56,355.68,295.27Z" transform="translate(-30.41 -38.24)"/><path class="cls-138" d="M351.83,284.24l-1,1c-.5.36-1.35,1.1-1.45,1-.95-.87-.2-1.67.37-2.32C350.5,283.08,351.46,282,351.83,284.24Z" transform="translate(-30.41 -38.24)"/><path class="cls-141" d="M353.83,290.26c0,.41.08.83.13,1.25a.54.54,0,0,1,0,.51l-1.12,1.23C351.19,291.59,352.71,291,353.83,290.26Z" transform="translate(-30.41 -38.24)"/><path class="cls-142" d="M273.66,250.37a2.73,2.73,0,0,0,2.22-1.17c.66.8,2.21,1.73,1,2.62C275.89,252.56,274.6,251.24,273.66,250.37Z" transform="translate(-30.41 -38.24)"/><path class="cls-143" d="M313.88,291.3c0,1.44-.14,2.82-2.07,2.93A3,3,0,0,1,313.88,291.3Z" transform="translate(-30.41 -38.24)"/><path class="cls-144" d="M225.87,291.21l.06-4.86c.33,0,.66,0,1,0,1.71,0,3.46.24,4.89-1.06,1.19,2.11,3.36,4.28-.37,6.09a2.19,2.19,0,0,1-3.27,0Z" transform="translate(-30.41 -38.24)"/><path class="cls-145" d="M228.18,291.38h3.27c.52,1.71.78,3.65-1.62,3.66S227.66,293.1,228.18,291.38Z" transform="translate(-30.41 -38.24)"/><path class="cls-146" d="M231.82,285.28c-1.07,3-2.92,2.28-4.89,1.06A6.81,6.81,0,0,1,231.82,285.28Z" transform="translate(-30.41 -38.24)"/><path class="cls-11" d="M356.75,361.46c-1.44,2.34-2.7,1-4-.18l3.23-.1A1,1,0,0,1,356.75,361.46Z" transform="translate(-30.41 -38.24)"/><path class="cls-147" d="M364.85,344.26l-9.27-7.49c-.76-.61-1.92-1.23-1.19-2.33s1.79-.36,2.48.35c2.87,3,6.71,4.9,9.13,8.37C366.15,344.09,365.87,344.57,364.85,344.26Z" transform="translate(-30.41 -38.24)"/><path class="cls-148" d="M364.85,344.26l1.15-1.1c.74.55,2,1.43,1.4,2.07C366.42,346.31,365.58,345,364.85,344.26Z" transform="translate(-30.41 -38.24)"/></svg>
