<?xml version="1.0" encoding="UTF-8"?>
<svg xmlns="http://www.w3.org/2000/svg" xmlns:xlink="http://www.w3.org/1999/xlink" width="512" height="512" viewBox="0 0 60 60" version="1.1"><!-- Generator: Sketch 51.3 (57544) - http://www.bohemiancoding.com/sketch --><title>038 - Office growth</title><desc>Created with Sketch.</desc><defs/><g id="Page-1" stroke="none" stroke-width="1" fill="none" fill-rule="evenodd"><g id="038---Office-growth" transform="translate(0.000000, -1.000000)" fill-rule="nonzero"><polygon id="Shape" fill="#E8EDFC" points="13.772 39.818 1.772 39.818 1.772 55.818 11.772 55.818 21.772 55.818"/><path d="M13.77,36.82 L13.77,40.82 L1.77,40.82 C1.21771525,40.82 0.77,40.3722847 0.77,39.82 L0.77,37.82 C0.77,37.2677153 1.21771525,36.82 1.77,36.82 L13.77,36.82 Z" id="Shape" fill="#CAD9FC"/><path d="M9,36.82 L9,40.82 L1.77,40.82 C1.21771525,40.82 0.77,40.3722847 0.77,39.82 L0.77,37.82 C0.77,37.2677153 1.21771525,36.82 1.77,36.82 L9,36.82 Z" id="Shape" fill="#E8EDFC"/><path d="M6.772,44.818 L13.772,44.818 L13.772,48.818 L6.772,48.818 C6.21971525,48.818 5.772,48.3702847 5.772,47.818 L5.772,45.818 C5.772,45.2657153 6.21971525,44.818 6.772,44.818 Z" id="Shape" fill="#E8EDFC"/><rect id="Rectangle-path" fill="#CAD9FC" x="11.77" y="13.82" width="20" height="43"/><rect id="Rectangle-path" fill="#E8EDFC" x="11.77" y="13.82" width="17" height="43"/><rect id="Rectangle-path" fill="#CAD9FC" x="18.772" y="47.818" width="6" height="7"/><rect id="Rectangle-path" fill="#E8EDFC" x="22" y="47.818" width="3" height="7"/><path d="M34.5,14.82 L9.05,14.82 C8.84274647,14.8215386 8.65602942,14.695053 8.58058795,14.5020116 C8.50514649,14.3089702 8.55662245,14.0893977 8.71,13.95 L19.5,3.92 L21.43,2.13 C21.624778,1.95996363 21.915222,1.95996363 22.11,2.13 L34.84,13.95 C34.9933775,14.0893977 35.0448535,14.3089702 34.969412,14.5020116 C34.8939706,14.695053 34.7072535,14.8215386 34.5,14.82 Z" id="Shape" fill="#CAD9FC"/><path d="M29.95,14.82 L9.05,14.82 C8.84274647,14.8215386 8.65602942,14.695053 8.58058795,14.5020116 C8.50514649,14.3089702 8.55662245,14.0893977 8.71,13.95 L19.5,3.92 L30.29,13.95 C30.4433775,14.0893977 30.4948535,14.3089702 30.419412,14.5020116 C30.3439706,14.695053 30.1572535,14.8215386 29.95,14.82 Z" id="Shape" fill="#E8EDFC"/><path d="M19.77,21.32 L19.77,24.32 C19.7737067,24.4530111 19.7188747,24.5809524 19.62,24.67 C19.5788966,24.7174675 19.5276273,24.755065 19.47,24.78 C19.4072956,24.8085335 19.3388554,24.8222215 19.27,24.82 L16.27,24.82 C15.9956532,24.8157125 15.7742875,24.5943468 15.77,24.32 L15.77,21.32 C15.77,21.0438576 15.9938576,20.82 16.27,20.82 L19.27,20.82 C19.5461424,20.82 19.77,21.0438576 19.77,21.32 Z" id="Shape" fill="#CAD9FC"/><path d="M27.77,21.32 L27.77,24.32 C27.7737067,24.4530111 27.7188747,24.5809524 27.62,24.67 C27.5788966,24.7174675 27.5276273,24.755065 27.47,24.78 C27.4072956,24.8085335 27.3388554,24.8222215 27.27,24.82 L24.27,24.82 C23.9956532,24.8157125 23.7742875,24.5943468 23.77,24.32 L23.77,21.32 C23.77,21.0438576 23.9938576,20.82 24.27,20.82 L27.27,20.82 C27.5461424,20.82 27.77,21.0438576 27.77,21.32 Z" id="Shape" fill="#CAD9FC"/><path d="M19.77,30.32 L19.77,33.32 C19.7737067,33.4530111 19.7188747,33.5809524 19.62,33.67 C19.5788966,33.7174675 19.5276273,33.755065 19.47,33.78 C19.4072956,33.8085335 19.3388554,33.8222215 19.27,33.82 L16.27,33.82 C15.9956532,33.8157125 15.7742875,33.5943468 15.77,33.32 L15.77,30.32 C15.77,30.0438576 15.9938576,29.82 16.27,29.82 L19.27,29.82 C19.5461424,29.82 19.77,30.0438576 19.77,30.32 Z" id="Shape" fill="#CAD9FC"/><path d="M19.77,39.32 L19.77,42.32 C19.7737067,42.4530111 19.7188747,42.5809524 19.62,42.67 C19.5788966,42.7174675 19.5276273,42.755065 19.47,42.78 C19.4072956,42.8085335 19.3388554,42.8222215 19.27,42.82 L16.27,42.82 C15.9956532,42.8157125 15.7742875,42.5943468 15.77,42.32 L15.77,39.32 C15.77,39.0438576 15.9938576,38.82 16.27,38.82 L19.27,38.82 C19.5461424,38.82 19.77,39.0438576 19.77,39.32 Z" id="Shape" fill="#CAD9FC"/><path d="M27.77,30.32 L27.77,33.32 C27.7737067,33.4530111 27.7188747,33.5809524 27.62,33.67 C27.5788966,33.7174675 27.5276273,33.755065 27.47,33.78 C27.4072956,33.8085335 27.3388554,33.8222215 27.27,33.82 L24.27,33.82 C23.9956532,33.8157125 23.7742875,33.5943468 23.77,33.32 L23.77,30.32 C23.77,30.0438576 23.9938576,29.82 24.27,29.82 L27.27,29.82 C27.4026082,29.82 27.5297852,29.8726784 27.6235534,29.9664466 C27.7173216,30.0602148 27.77,30.1873918 27.77,30.32 Z" id="Shape" fill="#CAD9FC"/><path d="M27.77,39.32 L27.77,42.32 C27.7737067,42.4530111 27.7188747,42.5809524 27.62,42.67 C27.5788966,42.7174675 27.5276273,42.755065 27.47,42.78 C27.4072956,42.8085335 27.3388554,42.8222215 27.27,42.82 L24.27,42.82 C23.9956532,42.8157125 23.7742875,42.5943468 23.77,42.32 L23.77,39.32 C23.77,39.0438576 23.9938576,38.82 24.27,38.82 L27.27,38.82 C27.5461424,38.82 27.77,39.0438576 27.77,39.32 Z" id="Shape" fill="#CAD9FC"/><path d="M59,57 L59,59 C59,59.5522847 58.5522847,60 58,60 L2,60 C1.44771525,60 1,59.5522847 1,59 L1,57 C1.0032948,55.8967981 1.89679813,55.0032948 3,55 L57,55 C58.1032019,55.0032948 58.9967052,55.8967981 59,57 Z" id="Shape" fill="#7FACFA"/><path d="M56,57 L56,59 C56,59.5522847 55.5522847,60 55,60 L2,60 C1.44771525,60 1,59.5522847 1,59 L1,57 C1.0032948,55.8967981 1.89679813,55.0032948 3,55 L54,55 C55.1032019,55.0032948 55.9967052,55.8967981 56,57 Z" id="Shape" fill="#A4C2F7"/><path d="M34.912,20.09 L32.093,22.91 L30.593,21.41 C30.0742859,20.9095102 29.8660589,20.1680391 30.0483809,19.4706776 C30.2307029,18.7733161 30.7751877,18.2286381 31.4724845,18.0460688 C32.1697813,17.8634994 32.9113262,18.0714635 33.412,18.59 L34.912,20.09 Z" id="Shape" fill="#CAD9FC"/><path d="M59,22 L59,36 L54,36 L54,22 C54,20.34 54.58,19 52.81,19 L55.81,19 C56.6311713,18.9736085 57.4290824,19.2751227 58.0275884,19.837981 C58.6260944,20.4008393 58.9759781,21.178756 59,22 Z" id="Shape" fill="#CAD9FC"/><path d="M56,22 L56,36 L45,36 L45,23.99 L42,25.86 L39.06,27.7 C38.7405754,27.8946549 38.3740588,27.998386 38,28 C37.4695008,28.0023626 36.960725,27.7894707 36.59,27.41 L36.56,27.38 L32.09,22.91 L33.41,21.59 L34.91,20.09 L37.13,22.31 L38.29,23.46 L44.94,19.3 C45.2594246,19.1053451 45.6259412,19.001614 46,19 L52.81,19 C53.6311713,18.9736085 54.4290824,19.2751227 55.0275884,19.837981 C55.6260944,20.4008393 55.9759781,21.178756 56,22 Z" id="Shape" fill="#E8EDFC"/><path d="M55,36 L59,36 L59,38 C59,39.1045695 58.1045695,40 57,40 L55,40 L55,36 Z" id="Shape" fill="#CAD9FC"/><path d="M52,16.65 L52,19 C52,20.1045695 51.1045695,21 50,21 C48.8954305,21 48,20.1045695 48,19 L48,16.65" id="Shape" fill="#CAD9FC"/><path d="M56,10.5 C56.1347103,13.9505416 53.4502771,16.8586775 50,17 C49.4925526,17.0017617 48.987454,16.9310479 48.5,16.79 C45.7659983,15.9302805 43.9308514,13.3651529 44,10.5 C43.9308514,7.63484708 45.7659983,5.06971947 48.5,4.21 C48.987454,4.06895206 49.4925526,3.99823825 50,4 C53.4502771,4.14132247 56.1347103,7.04945843 56,10.5 Z" id="Shape" fill="#CAD9FC"/><ellipse id="Oval" fill="#E8EDFC" cx="48.5" cy="10.5" rx="4.5" ry="6.29"/><path d="M55,36 L55,53 C54.9967052,54.1032019 54.1032019,54.9967052 53,55 L47,55 C45.8967981,54.9967052 45.0032948,54.1032019 45,53 L45,36 L55,36 Z" id="Shape" fill="#CAD9FC"/><path d="M52,36 L52,53 C51.9967052,54.1032019 51.1032019,54.9967052 50,55 L47,55 C45.8967981,54.9967052 45.0032948,54.1032019 45,53 L45,36 L52,36 Z" id="Shape" fill="#E8EDFC"/><path d="M12,36.82 L14.77,36.82 L14.77,14.82 L12.05,14.82 C11.8427465,14.8215386 11.6560294,14.695053 11.580588,14.5020116 C11.5051465,14.3089702 11.5566225,14.0893977 11.71,13.95 L22.5,3.92 L23.269,3.206 L22.11,2.13 C21.915222,1.95996363 21.624778,1.95996363 21.43,2.13 L19.5,3.92 L8.71,13.95 C8.55662245,14.0893977 8.50514649,14.3089702 8.58058795,14.5020116 C8.65602942,14.695053 8.84274647,14.8215386 9.05,14.82 L11.77,14.82 L11.77,36.82 L12,36.82 Z" id="Shape" fill="#FFFFFF"/><path d="M1.77,40.82 L1.77,55.435 C1.28633513,55.8105075 1.00235741,56.387683 1,57 L1,59 C1,59.5522847 1.44771525,60 2,60 L5,60 C4.44771525,60 4,59.5522847 4,59 L4,57 C4.0028375,56.3873399 4.28758371,55.8101018 4.772,55.435 L4.772,40.82 C4.21971525,40.82 3.772,40.3722847 3.772,39.82 L3.772,37.82 C3.772,37.2677153 4.21971525,36.82 4.772,36.82 L1.772,36.82 C1.21971525,36.82 0.772,37.2677153 0.772,37.82 L0.772,39.82 C0.771998897,40.3715046 1.21849646,40.818897 1.77,40.82 Z" id="Shape" fill="#FFFFFF"/><path d="M59,61 L1,61 C0.44771525,61 6.76353751e-17,60.5522847 0,60 L0,56 C-1.3527075e-16,54.8954305 0.8954305,54 2,54 L58,54 C59.1045695,54 60,54.8954305 60,56 L60,60 C60,60.5522847 59.5522847,61 59,61 Z M2,59 L58,59 L58,56 L2,56 L2,59 Z" id="Shape" fill="#428DFF"/><polygon id="Shape" fill="#FFFFFF" points="13 15 13 28 13 55 11 55 11 28 11 15"/><path d="M12,20 C12.5522847,20 13,19.5522847 13,19 L13,15 L11,15 L11,19 C11,19.5522847 11.4477153,20 12,20 Z" id="Shape" fill="#428DFF"/><path d="M11,55 L13,55 L13,27 C13,26.4477153 12.5522847,26 12,26 C11.4477153,26 11,26.4477153 11,27 L11,55 Z" id="Shape" fill="#428DFF"/><path d="M13,23 C12.9961196,22.7352731 12.892565,22.481743 12.71,22.29 L12.56,22.17 C12.5042729,22.1321227 12.4437381,22.1018554 12.38,22.08 C12.3233376,22.0511123 12.2626625,22.0308873 12.2,22.02 C12.1338555,22.0088692 12.0670388,22.0021875 12,22 C11.7352731,22.0038804 11.481743,22.107435 11.29,22.29 C11.1996032,22.3856071 11.128323,22.4976187 11.08,22.62 C10.9291234,22.9929737 11.0113519,23.4197788 11.29,23.71 C11.3856071,23.8003968 11.4976187,23.871677 11.62,23.92 C11.7402223,23.971241 11.8693227,23.99842 12,24 C12.2660353,24.0027011 12.5219616,23.8982118 12.7100867,23.7100867 C12.8982118,23.5219616 13.0027011,23.2660353 13,23 Z" id="Shape" fill="#428DFF"/><path d="M32,56 L12,56 C11.4477153,56 11,55.5522847 11,55 C11,54.4477153 11.4477153,54 12,54 L31,54 L31,22.82 C31,22.2677153 31.4477153,21.82 32,21.82 C32.5522847,21.82 33,22.2677153 33,22.82 L33,55 C33,55.5522847 32.5522847,56 32,56 Z" id="Shape" fill="#428DFF"/><path d="M32,19 C31.4477153,19 31,18.5522847 31,18 L31,15 C31,14.4477153 31.4477153,14 32,14 C32.5522847,14 33,14.4477153 33,15 L33,18 C33,18.5522847 32.5522847,19 32,19 Z" id="Shape" fill="#428DFF"/><path d="M22,56 L2,56 C1.44771525,56 1,55.5522847 1,55 L1,41 C1,40.4477153 1.44771525,40 2,40 L12,40 C12.5522847,40 13,40.4477153 13,41 C13,41.5522847 12.5522847,42 12,42 L3,42 L3,54 L22,54 C22.5522847,54 23,54.4477153 23,55 C23,55.5522847 22.5522847,56 22,56 Z" id="Shape" fill="#428DFF"/><path d="M12,42 L2,42 C0.8954305,42 1.3527075e-16,41.1045695 0,40 L0,38 C-1.3527075e-16,36.8954305 0.8954305,36 2,36 L12,36 C12.5522847,36 13,36.4477153 13,37 L13,41 C13,41.5522847 12.5522847,42 12,42 Z M2,38 L2,40 L11,40 L11,38 L2,38 Z" id="Shape" fill="#428DFF"/><path d="M25,56 L19,56 C18.4477153,56 18,55.5522847 18,55 L18,48 C18,47.4477153 18.4477153,47 19,47 L25,47 C25.5522847,47 26,47.4477153 26,48 L26,55 C26,55.5522847 25.5522847,56 25,56 Z M20,54 L24,54 L24,49 L20,49 L20,54 Z" id="Shape" fill="#428DFF"/><path d="M26,49 L18,49 C17.4477153,49 17,48.5522847 17,48 C17,47.4477153 17.4477153,47 18,47 L26,47 C26.5522847,47 27,47.4477153 27,48 C27,48.5522847 26.5522847,49 26,49 Z" id="Shape" fill="#428DFF"/><path d="M20,44 L16,44 C15.4477153,44 15,43.5522847 15,43 L15,39 C15,38.4477153 15.4477153,38 16,38 L20,38 C20.5522847,38 21,38.4477153 21,39 L21,43 C21,43.5522847 20.5522847,44 20,44 Z M17,42 L19,42 L19,40 L17,40 L17,42 Z" id="Shape" fill="#428DFF"/><path d="M12,50 L6,50 C5.44771525,50 5,49.5522847 5,49 L5,45 C5,44.4477153 5.44771525,44 6,44 L12,44 C12.5522847,44 13,44.4477153 13,45 L13,49 C13,49.5522847 12.5522847,50 12,50 Z M7,48 L11,48 L11,46 L7,46 L7,48 Z" id="Shape" fill="#428DFF"/><path d="M28,44 L24,44 C23.4477153,44 23,43.5522847 23,43 L23,39 C23,38.4477153 23.4477153,38 24,38 L28,38 C28.5522847,38 29,38.4477153 29,39 L29,43 C29,43.5522847 28.5522847,44 28,44 Z M25,42 L27,42 L27,40 L25,40 L25,42 Z" id="Shape" fill="#428DFF"/><path d="M20,35 L16,35 C15.4477153,35 15,34.5522847 15,34 L15,30 C15,29.4477153 15.4477153,29 16,29 L20,29 C20.5522847,29 21,29.4477153 21,30 L21,34 C21,34.5522847 20.5522847,35 20,35 Z M17,33 L19,33 L19,31 L17,31 L17,33 Z" id="Shape" fill="#428DFF"/><path d="M28,35 L24,35 C23.4477153,35 23,34.5522847 23,34 L23,30 C23,29.4477153 23.4477153,29 24,29 L28,29 C28.5522847,29 29,29.4477153 29,30 L29,34 C29,34.5522847 28.5522847,35 28,35 Z M25,33 L27,33 L27,31 L25,31 L25,33 Z" id="Shape" fill="#428DFF"/><path d="M20,26 L16,26 C15.4477153,26 15,25.5522847 15,25 L15,21 C15,20.4477153 15.4477153,20 16,20 L20,20 C20.5522847,20 21,20.4477153 21,21 L21,25 C21,25.5522847 20.5522847,26 20,26 Z M17,24 L19,24 L19,22 L17,22 L17,24 Z" id="Shape" fill="#428DFF"/><path d="M16,16 L8,16 C7.58859424,16.0003175 7.21897518,15.748639 7.06850947,15.3657357 C6.91804375,14.9828325 7.01743937,14.5468499 7.319,14.267 L21.319,1.267 C21.7238247,0.890894095 22.3568941,0.914175293 22.733,1.31900001 C23.1091059,1.72382473 23.0858247,2.35689408 22.681,2.733 L10.547,14 L16,14 C16.5522847,14 17,14.4477153 17,15 C17,15.5522847 16.5522847,16 16,16 Z" id="Shape" fill="#428DFF"/><path d="M36,16 L20,16 C19.4477153,16 19,15.5522847 19,15 C19,14.4477153 19.4477153,14 20,14 L33.453,14 L21.319,2.733 C20.9141753,2.35689409 20.8908941,1.72382472 21.267,1.319 C21.6431059,0.914175278 22.2761753,0.890894085 22.681,1.267 L36.681,14.267 C36.9825606,14.5468499 37.0819562,14.9828325 36.9314905,15.3657357 C36.7810248,15.748639 36.4114058,16.0003175 36,16 Z" id="Shape" fill="#428DFF"/><path d="M50,18 C46.0000573,17.8528877 42.8712323,14.5005753 43,10.5 C42.8712323,6.49942473 46.0000573,3.14711226 50,3 C53.9999427,3.14711226 57.1287677,6.49942473 57,10.5 C57.1287677,14.5005753 53.9999427,17.8528877 50,18 Z M50,5 C47.1050839,5.1477686 44.8720174,7.60414169 45,10.5 C44.8720174,13.3958583 47.1050839,15.8522314 50,16 C52.8949161,15.8522314 55.1279826,13.3958583 55,10.5 C55.1279826,7.60414169 52.8949161,5.1477686 50,5 Z" id="Shape" fill="#428DFF"/><path d="M48,20 L46,20 C45.4477153,20 45,19.5522847 45,19 C45,18.4477153 45.4477153,18 46,18 L48,18 C48.5522847,18 49,18.4477153 49,19 C49,19.5522847 48.5522847,20 48,20 Z" id="Shape" fill="#428DFF"/><path d="M59,37 L45,37 C44.4477153,37 44,36.5522847 44,36 L44,23.99 C44,23.4377153 44.4477153,22.99 45,22.99 C45.5522847,22.99 46,23.4377153 46,23.99 L46,35 L58,35 L58,22 C57.9459956,20.8436841 56.966458,19.9491292 55.81,20 L52.62,20 C52.0677153,20 51.62,19.5522847 51.62,19 C51.62,18.4477153 52.0677153,18 52.62,18 L55.81,18 C58.0707654,17.949702 59.9454052,19.7393343 60,22 L60,36 C60,36.5522847 59.5522847,37 59,37 Z" id="Shape" fill="#428DFF"/><path d="M50,22 C48.3465566,21.9917942 47.0082058,20.6534434 47,19 L47,16.65 C47,16.0977153 47.4477153,15.65 48,15.65 C48.5522847,15.65 49,16.0977153 49,16.65 L49,19 C48.9980328,19.2605963 49.1015486,19.5109097 49.287,19.694 C49.4707932,19.8836954 49.7226485,19.9922613 49.9867562,19.9956401 C50.2508639,19.9990189 50.5054141,19.8969315 50.694,19.712 C50.889692,19.526929 51.0003954,19.2693445 51,19 L51,16.65 C51,16.0977153 51.4477153,15.65 52,15.65 C52.5522847,15.65 53,16.0977153 53,16.65 L53,19 C52.9907118,20.6529917 51.6529917,21.9907118 50,22 Z" id="Shape" fill="#428DFF"/><path d="M53,56 L47,56 C45.3431458,56 44,54.6568542 44,53 L44,36 C44,35.4477153 44.4477153,35 45,35 L55,35 C55.5522847,35 56,35.4477153 56,36 L56,53 C56,54.6568542 54.6568542,56 53,56 Z M46,37 L46,53 C46,53.5522847 46.4477153,54 47,54 L53,54 C53.5522847,54 54,53.5522847 54,53 L54,37 L46,37 Z" id="Shape" fill="#428DFF"/><path d="M50,56 C49.4477153,56 49,55.5522847 49,55 L49,41 C49,40.4477153 49.4477153,40 50,40 C50.5522847,40 51,40.4477153 51,41 L51,55 C51,55.5522847 50.5522847,56 50,56 Z" id="Shape" fill="#428DFF"/><path d="M38,29 C37.1995361,29.0040613 36.4319289,28.6819985 35.874,28.108 L29.883,22.117 C29.314812,21.5581105 28.9948138,20.7944913 28.9948138,19.9975 C28.9948138,19.2005087 29.314812,18.4368895 29.883,17.878 C31.0676401,16.7422671 32.9381978,16.7462423 34.118,17.887 L38.43,22.187 L44.406,18.449 C44.8859027,18.1555266 45.437476,18.0001587 46,18 C46.5522847,18 47,18.4477153 47,19 C47,19.5522847 46.5522847,20 46,20 C45.8089805,20.0018787 45.6220333,20.0554403 45.459,20.155 L38.82,24.308 C38.4255722,24.5544326 37.9133161,24.4964101 37.584,24.168 L32.7,19.3 C32.4142997,19.0198803 31.9891288,18.9370245 31.6191515,19.089368 C31.2491743,19.2417116 31.0056201,19.5999248 31,20 C31.0014251,20.2642598 31.1096223,20.5167198 31.3,20.7 L37.3,26.7 C37.6317719,27.0296537 38.1464721,27.0884057 38.544,26.842 L44.474,23.142 C44.7776758,22.9530065 45.1591106,22.9403784 45.4746216,23.1088725 C45.7901327,23.2773667 45.9917863,23.6013849 46.0036216,23.9588726 C46.0154569,24.3163602 45.8356758,24.6530065 45.532,24.842 L39.592,28.552 C39.1127,28.8450557 38.5617919,29.0000851 38,29 Z" id="Shape" fill="#428DFF"/><path d="M55,37 C54.4477153,37 54,36.5522847 54,36 L54,27 C54,26.4477153 54.4477153,26 55,26 C55.5522847,26 56,26.4477153 56,27 L56,36 C56,36.5522847 55.5522847,37 55,37 Z" id="Shape" fill="#428DFF"/><path d="M57,41 L55,41 C54.4477153,41 54,40.5522847 54,40 L54,36 C54,35.4477153 54.4477153,35 55,35 L59,35 C59.5522847,35 60,35.4477153 60,36 L60,38 C60,39.6568542 58.6568542,41 57,41 Z M56,39 L57,39 C57.5522847,39 58,38.5522847 58,38 L58,37 L56,37 L56,39 Z" id="Shape" fill="#428DFF"/><path d="M32.09,23.91 C31.6856041,23.9099137 31.3210659,23.6662725 31.166322,23.2926546 C31.0115781,22.9190366 31.0970921,22.4889943 31.383,22.203 L34.203,19.383 C34.4561227,19.1304132 34.8247711,19.0320528 35.170079,19.12497 C35.5153869,19.2178873 35.7848938,19.487966 35.877079,19.83347 C35.9692642,20.1789741 35.8701227,20.5474132 35.617,20.8 L32.797,23.62 C32.6090172,23.8064497 32.354765,23.9107399 32.09,23.91 Z" id="Shape" fill="#428DFF"/></g></g></svg>
