<svg id="svg" version="1.1" width="400" height="157.06541380556558" viewBox="0 0 400 157.06541380556558" xmlns="http://www.w3.org/2000/svg" xmlns:xlink="http://www.w3.org/1999/xlink" ><g id="svgg"><path id="path0" d="M71.083 0.181 C 68.804 0.414,64.187 1.165,61.833 1.685 C 60.596 1.959,59.396 2.218,59.167 2.261 C 57.816 2.517,51.117 4.685,50.132 5.186 C 49.792 5.359,49.426 5.500,49.319 5.500 C 49.019 5.500,45.666 6.992,43.417 8.127 C 40.421 9.638,38.339 10.848,35.030 13.000 C 33.197 14.192,30.273 16.305,29.376 17.086 C 29.215 17.226,28.239 18.056,27.207 18.930 C 24.065 21.590,20.291 25.482,17.129 29.320 C 16.007 30.681,12.792 35.186,12.083 36.388 C 11.085 38.081,10.750 38.638,10.409 39.167 C 9.264 40.945,5.500 48.701,5.500 49.284 C 5.500 49.386,5.275 49.970,5.000 50.583 C 4.725 51.196,4.500 51.790,4.500 51.903 C 4.500 52.017,4.315 52.565,4.089 53.122 C 3.862 53.678,3.536 54.648,3.363 55.275 C 3.189 55.903,2.855 57.092,2.619 57.917 C 1.715 61.078,0.626 66.993,0.165 71.250 C -0.330 75.825,0.020 85.870,0.835 90.451 C 1.017 91.477,1.168 92.527,1.169 92.784 C 1.170 93.040,1.395 94.145,1.669 95.240 C 1.943 96.334,2.167 97.347,2.166 97.490 C 2.166 97.819,3.207 101.300,3.864 103.167 C 4.138 103.946,4.421 104.808,4.493 105.083 C 4.564 105.358,4.820 106.024,5.061 106.562 C 5.303 107.101,5.500 107.628,5.500 107.734 C 5.500 107.840,5.762 108.474,6.083 109.143 C 6.404 109.813,6.667 110.425,6.667 110.503 C 6.667 111.084,11.462 119.968,11.868 120.139 C 11.941 120.169,12.000 120.270,12.000 120.363 C 12.000 120.505,12.963 122.003,14.124 123.667 C 16.547 127.140,19.936 131.149,23.035 134.208 C 25.526 136.667,28.881 139.667,29.139 139.667 C 29.237 139.667,29.377 139.764,29.450 139.883 C 29.726 140.332,36.432 145.167,36.778 145.167 C 36.826 145.167,37.064 145.308,37.308 145.480 C 38.525 146.344,43.439 148.984,45.765 150.024 C 49.044 151.490,49.227 151.561,53.167 152.913 C 57.207 154.300,62.474 155.654,65.167 155.999 C 65.854 156.087,67.429 156.322,68.667 156.520 C 73.301 157.265,84.666 157.156,89.642 156.318 C 90.682 156.143,91.722 156.000,91.952 156.000 C 92.459 156.000,97.094 154.972,98.833 154.474 C 99.521 154.277,100.571 153.985,101.167 153.825 C 102.349 153.508,104.437 152.804,105.750 152.279 C 106.208 152.096,107.033 151.779,107.583 151.575 C 110.097 150.640,116.541 147.560,117.780 146.701 C 118.039 146.522,118.587 146.178,119.000 145.935 C 124.260 142.845,129.202 138.972,134.010 134.172 C 136.568 131.618,137.721 130.384,138.869 128.973 C 139.118 128.667,139.572 128.117,139.877 127.750 C 141.238 126.118,144.029 122.220,145.083 120.480 C 145.175 120.329,145.467 119.840,145.732 119.394 C 145.998 118.948,146.383 118.321,146.588 118.000 C 146.902 117.509,148.056 115.366,149.056 113.417 C 149.834 111.902,151.356 108.388,152.053 106.500 C 152.374 105.629,152.838 104.372,153.084 103.706 C 153.330 103.041,153.629 102.103,153.748 101.623 C 153.868 101.143,154.151 100.112,154.378 99.333 C 155.272 96.262,156.283 90.988,156.854 86.417 C 157.102 84.436,157.102 72.564,156.854 70.583 C 156.282 66.004,155.269 60.723,154.377 57.667 C 154.149 56.887,153.885 55.950,153.790 55.583 C 153.129 53.041,150.570 46.556,149.055 43.583 C 148.153 41.815,146.905 39.496,146.588 39.000 C 146.383 38.679,145.998 38.052,145.732 37.606 C 145.058 36.471,143.436 33.962,143.132 33.583 C 143.059 33.492,142.425 32.629,141.723 31.667 C 141.022 30.704,140.216 29.649,139.932 29.323 C 139.649 28.996,139.192 28.446,138.917 28.101 C 136.463 25.020,129.378 18.177,126.730 16.330 C 126.536 16.194,125.749 15.619,124.980 15.051 C 124.212 14.483,123.358 13.863,123.083 13.673 C 122.808 13.483,122.208 13.066,121.750 12.747 C 121.292 12.428,120.743 12.091,120.530 12.000 C 120.318 11.908,119.905 11.654,119.614 11.435 C 119.322 11.217,118.783 10.875,118.417 10.675 C 118.050 10.476,117.225 10.019,116.583 9.661 C 114.621 8.564,111.335 6.976,108.917 5.956 C 106.973 5.135,101.999 3.333,101.679 3.333 C 101.558 3.333,100.624 3.077,99.604 2.764 C 96.441 1.793,91.388 0.830,86.418 0.252 C 84.042 -0.024,73.566 -0.073,71.083 0.181 " stroke="none" fill="#f4844c" fill-rule="evenodd"></path><path id="path1" d="M196.667 76.999 L 196.667 105.000 216.500 105.000 L 236.333 105.000 236.333 99.917 L 236.333 94.833 222.833 94.833 L 209.333 94.833 209.333 88.000 L 209.333 81.167 218.583 81.167 L 227.833 81.167 227.833 76.250 L 227.833 71.333 218.583 71.333 L 209.333 71.333 209.333 65.417 L 209.333 59.500 222.169 59.500 L 235.005 59.500 234.961 54.292 L 234.917 49.083 215.792 49.041 L 196.667 48.999 196.667 76.999 M377.500 57.830 L 377.500 64.660 374.125 64.705 L 370.750 64.750 370.706 69.208 L 370.661 73.667 374.073 73.667 L 377.485 73.667 377.538 85.542 L 377.590 97.417 378.020 98.945 C 379.056 102.638,381.452 104.493,386.083 105.191 C 388.071 105.490,394.799 105.489,397.375 105.188 L 399.333 104.960 399.333 100.502 L 399.333 96.045 398.292 96.288 C 396.678 96.664,392.975 96.517,392.061 96.039 C 389.850 94.885,389.833 94.786,389.833 82.886 L 389.833 73.667 394.917 73.667 L 400.000 73.667 400.000 69.167 L 400.000 64.667 394.917 64.667 L 389.833 64.667 389.833 57.833 L 389.833 51.000 383.667 51.000 L 377.500 51.000 377.500 57.830 M266.405 63.999 C 265.026 64.120,262.261 64.944,261.167 65.560 C 260.846 65.740,260.358 66.001,260.083 66.140 C 259.150 66.611,257.755 67.727,256.375 69.106 L 255.000 70.479 255.000 67.573 L 255.000 64.667 248.750 64.667 L 242.500 64.667 242.500 84.833 L 242.500 105.000 248.750 105.000 L 255.000 105.000 255.000 91.527 L 255.000 78.055 255.680 77.444 C 256.054 77.108,256.411 76.833,256.472 76.833 C 256.533 76.833,256.798 76.648,257.060 76.423 C 258.495 75.189,261.406 74.177,263.538 74.171 C 265.648 74.164,266.687 74.731,267.605 76.387 L 268.083 77.250 268.129 91.125 L 268.174 105.000 274.337 105.000 L 280.500 105.000 280.495 89.792 C 280.489 72.569,280.467 72.168,279.413 69.813 C 277.389 65.294,273.166 63.407,266.405 63.999 M304.333 64.009 C 299.163 64.384,294.226 66.294,289.787 69.637 C 287.840 71.102,287.843 70.939,289.734 73.365 C 290.262 74.042,290.722 74.666,291.000 75.082 C 292.743 77.693,293.453 78.294,294.094 77.701 C 295.933 75.996,300.364 74.006,303.469 73.491 C 308.953 72.581,311.826 74.020,311.832 77.681 L 311.833 78.779 310.042 78.973 C 309.056 79.080,307.963 79.167,307.612 79.167 C 306.737 79.167,301.899 80.110,300.167 80.619 C 299.387 80.848,298.300 81.165,297.750 81.324 C 296.114 81.797,293.289 83.136,291.929 84.083 C 284.322 89.384,284.605 100.886,292.429 104.441 C 296.627 106.348,303.249 105.809,307.208 103.239 C 307.552 103.016,308.146 102.627,308.529 102.375 C 308.912 102.123,309.801 101.375,310.505 100.714 L 311.785 99.511 311.891 100.889 C 311.949 101.647,312.166 102.864,312.373 103.592 L 312.750 104.917 318.875 104.960 C 322.244 104.984,324.999 104.947,324.998 104.877 C 324.997 104.807,324.883 104.337,324.745 103.833 C 324.015 101.173,323.963 100.227,323.833 87.417 C 323.764 80.633,323.653 74.896,323.586 74.667 C 322.909 72.360,322.396 70.953,321.988 70.289 C 321.720 69.852,321.500 69.429,321.500 69.348 C 321.500 69.267,320.956 68.637,320.292 67.947 C 316.983 64.511,312.535 63.413,304.333 64.009 M347.579 63.999 C 344.364 64.281,340.339 65.868,337.500 67.973 C 336.348 68.827,333.667 71.739,333.667 72.136 C 333.667 72.231,333.569 72.409,333.449 72.530 C 333.201 72.781,332.762 73.604,332.043 75.167 C 329.735 80.182,329.748 90.023,332.068 94.834 C 332.306 95.326,332.500 95.794,332.500 95.873 C 332.500 95.951,332.762 96.426,333.083 96.928 C 333.404 97.429,333.667 97.880,333.667 97.930 C 333.667 98.319,335.669 100.502,337.074 101.643 C 338.378 102.702,338.617 102.848,340.833 103.927 C 346.703 106.784,355.964 106.496,360.613 103.311 C 360.997 103.048,361.363 102.833,361.428 102.833 C 361.933 102.833,366.167 98.439,366.167 97.916 C 366.167 97.858,366.346 97.572,366.565 97.281 C 367.931 95.462,368.599 93.400,367.875 93.235 C 367.623 93.178,366.817 92.923,366.083 92.669 C 364.103 91.982,363.702 91.843,362.333 91.372 C 361.646 91.135,360.503 90.722,359.793 90.453 C 358.262 89.872,358.173 89.894,357.780 90.941 C 357.222 92.429,356.443 93.876,355.881 94.469 C 355.717 94.642,355.459 94.926,355.307 95.100 C 353.776 96.854,350.770 97.581,348.312 96.790 C 347.203 96.434,345.704 95.530,345.522 95.109 C 345.489 95.031,345.255 94.731,345.003 94.442 C 342.519 91.594,341.943 82.314,343.957 77.575 C 345.196 74.658,347.648 72.976,350.650 72.982 C 354.002 72.990,356.415 75.095,357.611 79.055 C 357.806 79.701,357.910 79.838,358.136 79.747 C 358.290 79.685,358.867 79.482,359.417 79.296 C 359.967 79.110,360.994 78.743,361.700 78.479 C 362.406 78.216,363.087 78.000,363.213 78.000 C 363.339 78.000,364.111 77.737,364.928 77.417 C 365.746 77.096,366.525 76.833,366.660 76.833 C 366.795 76.833,367.228 76.710,367.623 76.559 C 368.430 76.251,368.433 76.200,367.728 74.797 C 367.511 74.365,367.332 73.915,367.331 73.797 C 367.325 73.389,365.533 70.505,364.583 69.377 C 360.966 65.079,355.385 63.314,347.579 63.999 M311.830 89.292 L 311.827 92.917 310.980 93.625 C 310.514 94.015,310.068 94.333,309.990 94.333 C 309.912 94.333,309.587 94.511,309.268 94.727 C 308.163 95.477,304.820 96.333,303.000 96.333 C 298.062 96.333,296.816 91.274,301.072 88.510 C 302.948 87.291,308.237 85.832,311.292 85.692 L 311.833 85.667 311.830 89.292 " stroke="none" fill="#fff" fill-rule="evenodd"></path></g></svg>