<?xml version="1.0" encoding="UTF-8"?>
<svg xmlns="http://www.w3.org/2000/svg" xmlns:xlink="http://www.w3.org/1999/xlink" width="512" height="512" viewBox="0 0 60 55" version="1.1"><!-- Generator: Sketch 51.3 (57544) - http://www.bohemiancoding.com/sketch --><title>045 - Idea growth</title><desc>Created with Sketch.</desc><defs/><g id="Page-1" stroke="none" stroke-width="1" fill="none" fill-rule="evenodd"><g id="045---Idea-growth" fill-rule="nonzero"><path d="M59,1.5 L59,15.79 C59.0011857,15.9918544 58.8808796,16.1746226 58.6950053,16.2533459 C58.509131,16.3320691 58.2941519,16.291304 58.15,16.15 L56,14 L53.47,11.47 C53.2755782,11.2794286 52.9644218,11.2794286 52.77,11.47 L24.12,40.12 C23.5570029,40.6813821 22.7950535,40.9976629 22,41 L19,41 C18.6219748,41.0044859 18.2472209,40.9295352 17.9,40.78 L18.05,40 L19,35 L20.76,35 L48.53,7.23 C48.7205714,7.03557824 48.7205714,6.72442176 48.53,6.53 L43.85,1.85 C43.708696,1.70584807 43.6679309,1.49086897 43.7466541,1.30499469 C43.8253774,1.11912041 44.0081456,0.998814273 44.21,1 L58.5,1 C58.7761424,1 59,1.22385763 59,1.5 Z" id="Shape" fill="#7FACFA"/><path d="M56,0.999991314 L56,14 L53.47,11.47 C53.2755782,11.2794286 52.9644218,11.2794286 52.77,11.47 L52.12,12.12 L50.47,10.47 C50.2755782,10.2794286 49.9644218,10.2794286 49.77,10.47 L21.12,39.12 C20.5570029,39.6813821 19.7950535,39.9976629 19,40 L18.05,40 L19,35 L20.76,35 L48.53,7.23 C48.7205714,7.03557824 48.7205714,6.72442176 48.53,6.53 L43.85,1.85 C43.708696,1.70584807 43.6679309,1.49086897 43.7466541,1.30499469 C43.8253774,1.11912041 44.0081456,0.998814273 44.21,1 L56,0.999991314 Z" id="Shape" fill="#A4C2F7"/><path d="M24,22 C24.0003702,24.5370028 23.0350058,26.979017 21.3,28.83 C19.8573505,30.3052451 19.0343392,32.276894 19,34.34 L19,35 L9,35 L9,34.11 C8.9677957,32.1630229 8.17871622,30.3050994 6.8,28.93 C4.20636775,26.2417581 3.32956371,22.3309349 4.52722126,18.7926882 C5.7248788,15.2544416 8.79679972,12.6802183 12.49,12.12 C12.6115608,12.0902876 12.7352791,12.0702252 12.86,12.06 C15.6923179,11.7382104 18.5274869,12.6392162 20.6544211,14.5370372 C22.7813552,16.4348581 23.9982874,19.1494614 24,22 Z" id="Shape" fill="#CAD9FC"/><path d="M21,22 C21.0003702,24.5370028 20.0350058,26.979017 18.3,28.83 C16.8573505,30.3052451 16.0343392,32.276894 16,34.34 L16,35 L9,35 L9,34.11 C8.9677957,32.1630229 8.17871622,30.3050994 6.8,28.93 C4.20636775,26.2417581 3.32956371,22.3309349 4.52722126,18.7926882 C5.7248788,15.2544416 8.79679972,12.6802183 12.49,12.12 C17.3790697,12.8566932 20.9958604,17.0557404 21,22 Z" id="Shape" fill="#E8EDFC"/><path d="M19,35 L19,39 C18.9967052,40.1032019 18.1032019,40.9967052 17,41 L11,41 C9.89679813,40.9967052 9.0032948,40.1032019 9,39 L9,35 L19,35 Z" id="Shape" fill="#CAD9FC"/><path d="M16,35 L16,39 C15.9967052,40.1032019 15.1032019,40.9967052 14,41 L11,41 C9.89679813,40.9967052 9.0032948,40.1032019 9,39 L9,35 L16,35 Z" id="Shape" fill="#CAD9FC"/><path d="M20.9,40.774 C20.6223867,40.9202137 20.3137553,40.9977145 20,41 L22,41 C21.6219748,41.0044859 21.2472209,40.9295352 20.9,40.78 L20.9,40.774 Z" id="Shape" fill="#FFFFFF"/><path d="M12,39 L12,34.11 C11.9677957,32.1630229 11.1787162,30.3050994 9.8,28.93 C7.20790903,26.243044 6.33077296,22.3347659 7.52603035,18.7978142 C8.72128773,15.2608624 11.7893646,12.6858072 15.48,12.122 C14.6130056,11.9883111 13.7323477,11.9674712 12.86,12.06 C12.7352791,12.0702252 12.6115608,12.0902876 12.49,12.12 C8.79679972,12.6802183 5.7248788,15.2544416 4.52722126,18.7926882 C3.32956371,22.3309349 4.20636775,26.2417581 6.8,28.93 C8.17871622,30.3050994 8.9677957,32.1630229 9,34.11 L9,39 C9.0032948,40.1032019 9.89679813,40.9967052 11,41 L14,41 C12.8967981,40.9967052 12.0032948,40.1032019 12,39 Z" id="Shape" fill="#FFFFFF"/><path d="M16,35.5 C15.4477153,35.5 15,35.0522847 15,34.5 L15,32 C15,31.4477153 15.4477153,31 16,31 C16.5522847,31 17,31.4477153 17,32 L17,34.5 C17,35.0522847 16.5522847,35.5 16,35.5 Z" id="Shape" fill="#7FACFA"/><path d="M12,36 C11.4477153,36 11,35.5522847 11,35 L11,32 C11,31.4477153 11.4477153,31 12,31 C12.5522847,31 13,31.4477153 13,32 L13,35 C13,35.5522847 12.5522847,36 12,36 Z" id="Shape" fill="#7FACFA"/><path d="M14,29.988 C13.7353531,29.9837284 13.4819598,29.8802297 13.29,29.698 C13.1058042,29.5073164 13.0019743,29.2531121 13,28.988 C13.0014494,28.8569855 13.028631,28.7275327 13.08,28.607 C13.1307423,28.4861687 13.201765,28.3748998 13.29,28.278 C13.6906422,27.9070169 14.3093578,27.9070169 14.71,28.278 C14.798235,28.3748998 14.8692577,28.4861687 14.92,28.607 C14.971369,28.7275327 14.9985506,28.8569855 15,28.988 C14.9980257,29.2531121 14.8941958,29.5073164 14.71,29.698 C14.5180402,29.8802297 14.2646469,29.9837284 14,29.988 Z" id="Shape" fill="#7FACFA"/><polygon id="Shape" fill="#FFFFFF" points="2 5 2 18 2 49 0 49 0 18 0 5"/><path d="M1,10 C1.55228475,10 2,9.55228475 2,9 L2,5 L0,5 L0,9 C6.76353751e-17,9.55228475 0.44771525,10 1,10 Z" id="Shape" fill="#428DFF"/><path d="M0,49 L2,49 L2,17 C2,16.4477153 1.55228475,16 1,16 C0.44771525,16 6.76353751e-17,16.4477153 0,17 L0,49 Z" id="Shape" fill="#428DFF"/><path d="M2,13 C1.99611961,12.7352731 1.89256504,12.481743 1.71,12.29 L1.56,12.17 C1.50427287,12.1321227 1.44373808,12.1018554 1.38,12.08 C1.32333758,12.0511123 1.26266255,12.0308873 1.2,12.02 C1.13385548,12.0088692 1.06703885,12.0021875 1,12 C0.735273141,12.0038804 0.481742984,12.107435 0.29,12.29 C0.199603156,12.3856071 0.12832305,12.4976187 0.08,12.62 C-0.0708765757,12.9929737 0.0113519394,13.4197788 0.29,13.71 C0.385607086,13.8003968 0.497618681,13.871677 0.62,13.92 C0.740222313,13.971241 0.869322743,13.99842 1,14 C1.26472686,13.9961196 1.51825702,13.892565 1.71,13.71 C1.89256504,13.518257 1.99611961,13.2647269 2,13 Z" id="Shape" fill="#428DFF"/><path d="M17,42 L11,42 C9.34314575,42 8,40.6568542 8,39 L8,35 C8,34.4477153 8.44771525,34 9,34 L19,34 C19.5522847,34 20,34.4477153 20,35 L20,39 C20,40.6568542 18.6568542,42 17,42 Z M10,36 L10,39 C10,39.5522847 10.4477153,40 11,40 L17,40 C17.5522847,40 18,39.5522847 18,39 L18,36 L10,36 Z" id="Shape" fill="#428DFF"/><path d="M19,36 L9,36 C8.44771525,36 8,35.5522847 8,35 L8,34.114 C7.96816378,32.4248155 7.27988014,30.8143967 6.081,29.624 C1.91527752,25.3023067 1.98328565,18.4389626 6.23382815,14.2006652 C10.4843706,9.96236773 17.3478824,9.91416045 21.6575397,14.0923336 C25.967197,18.2705067 26.1316059,25.1322184 22.027,29.512 C20.7615983,30.8035546 20.0366335,32.5292354 20,34.337 L20,35 C20,35.5522847 19.5522847,36 19,36 Z M10,34 L18.008,34 C18.1294839,31.803201 19.0387142,29.7237939 20.569,28.143 C23.9270996,24.5594125 23.7923462,18.9453624 20.2661801,15.5270171 C16.740014,12.1086717 11.1244866,12.1482692 7.64687719,15.6160012 C4.16926778,19.0837332 4.11369805,24.6991253 7.522,28.235 C9.05253914,29.7706273 9.93891238,31.8327507 10,34 Z" id="Shape" fill="#428DFF"/><path d="M8.031,22.385 C7.999,22.385 7.966,22.385 7.931,22.38 C7.66658793,22.3547048 7.42310306,22.2252529 7.25426012,22.0202026 C7.08541719,21.8151522 7.00509022,21.5513526 7.031,21.287 C7.39183221,18.0334678 9.93691858,15.4519876 13.185,15.045 C13.4556873,15.0156906 13.7277314,15.0006698 14,15 C14.5522847,15 15,15.4477153 15,16 C15,16.5522847 14.5522847,17 14,17 C13.8015617,17.0006908 13.6032937,17.0117057 13.406,17.033 C11.0929562,17.3252851 9.28162693,19.164729 9.025,21.482 C8.97512077,21.9937984 8.54522282,22.3843395 8.031,22.385 Z" id="Shape" fill="#FFFFFF"/><path d="M16,39 C15.7340684,39.0022044 15.4783433,38.8977533 15.29,38.71 C15.201963,38.6125749 15.1309694,38.5010136 15.08,38.38 C15.0239476,38.2613445 14.9965453,38.1311833 15,38 C15.00158,37.8693227 15.028759,37.7402223 15.08,37.62 C15.128323,37.4976187 15.1996032,37.3856071 15.29,37.29 C15.3375135,37.2469872 15.3876065,37.2069128 15.44,37.17 C15.4957271,37.1321227 15.5562619,37.1018554 15.62,37.08 C15.6766624,37.0511123 15.7373375,37.0308873 15.8,37.02 C15.9948393,36.9786376 16.1977539,36.9996288 16.38,37.08 C16.6312303,37.1709238 16.8290762,37.3687697 16.92,37.62 C17.0267285,37.8620922 17.0267285,38.1379078 16.92,38.38 C16.8690306,38.5010136 16.798037,38.6125749 16.71,38.71 C16.5216567,38.8977533 16.2659316,39.0022044 16,39 Z" id="Shape" fill="#428DFF"/><path d="M22,42 L19,42 C18.4846328,42.0048181 17.9738704,41.9026657 17.5,41.7 C17.1615483,41.564428 16.9237036,41.2553995 16.8792902,40.89352 C16.8348769,40.5316405 16.9909345,40.1742685 17.2865581,39.9608767 C17.5821816,39.7474848 17.9705141,39.7118962 18.3,39.868 C18.5215743,39.9603363 18.7600144,40.0052993 19,40 L22,40 C22.5291328,40.0014546 23.0368565,39.7911633 23.41,39.416 L52.41,10.416 C52.8023789,10.0370278 53.4260848,10.0424476 53.8118186,10.4281814 C54.1975524,10.8139152 54.2029722,11.4376211 53.824,11.83 L24.824,40.83 C24.0766869,41.581481 23.0598079,42.00278 22,42 Z" id="Shape" fill="#428DFF"/><path d="M20.76,36 L19,36 C18.4477153,36 18,35.5522847 18,35 C18,34.4477153 18.4477153,34 19,34 L20.346,34 L48.173,6.173 C48.4240745,5.91304342 48.7958779,5.8087874 49.1455073,5.90030284 C49.4951368,5.99181828 49.7681817,6.26486324 49.8596972,6.61449268 C49.9512126,6.96412211 49.8469566,7.33592553 49.587,7.587 L21.467,35.707 C21.2795073,35.8945494 21.0251948,35.9999434 20.76,36 Z" id="Shape" fill="#428DFF"/><path d="M59,18 C58.7348052,17.9999434 58.4804927,17.8945494 58.293,17.707 L52.413,11.827 C52.0340278,11.4346211 52.0394476,10.8109152 52.4251814,10.4251814 C52.8109152,10.0394476 53.4346211,10.0340278 53.827,10.413 L58,14.586 L58,2 L45.414,2 L49.587,6.173 C49.9659722,6.56537889 49.9605524,7.18908478 49.5748186,7.57481858 C49.1890848,7.96055237 48.5653789,7.96597221 48.173,7.587 L42.293,1.707 C42.0070921,1.42100575 41.9215781,0.990963384 42.076322,0.617345442 C42.2310659,0.2437275 42.5956041,8.63480138e-05 43,0 L59,0 C59.5522847,0 60,0.44771525 60,1 L60,17 C60.0001018,17.4044291 59.7565907,17.7691037 59.383,17.924 C59.2616682,17.9745857 59.1314539,18.0004246 59,18 Z" id="Shape" fill="#428DFF"/><path d="M59,50 L1,50 C0.44771525,50 6.76353751e-17,49.5522847 0,49 C-6.76353751e-17,48.4477153 0.44771525,48 1,48 L59,48 C59.5522847,48 60,48.4477153 60,49 C60,49.5522847 59.5522847,50 59,50 Z" id="Shape" fill="#428DFF"/><path d="M1,6 C0.44771525,6 6.76353751e-17,5.55228475 0,5 L0,1 C-6.76353751e-17,0.44771525 0.44771525,0 1,0 C1.55228475,0 2,0.44771525 2,1 L2,5 C2,5.55228475 1.55228475,6 1,6 Z" id="Shape" fill="#428DFF"/><path d="M5,51 C4.44771525,51 4,50.5522847 4,50 L4,47 C4,46.4477153 4.44771525,46 5,46 C5.55228475,46 6,46.4477153 6,47 L6,50 C6,50.5522847 5.55228475,51 5,51 Z" id="Shape" fill="#428DFF"/><path d="M5,55 C4.86932274,54.99842 4.74022231,54.971241 4.62,54.92 C4.49886071,54.8692709 4.38726069,54.7982527 4.29,54.71 C4.00373062,54.4237738 3.92056338,53.9920962 4.08,53.62 C4.1709238,53.3687697 4.36876974,53.1709238 4.62,53.08 C4.86138104,52.969947 5.13861896,52.969947 5.38,53.08 C5.50113929,53.1307291 5.61273931,53.2017473 5.71,53.29 C5.80039684,53.3856071 5.87167695,53.4976187 5.92,53.62 C6.07943662,53.9920962 5.99626938,54.4237738 5.71,54.71 C5.61273931,54.7982527 5.50113929,54.8692709 5.38,54.92 C5.25977769,54.971241 5.13067726,54.99842 5,55 Z" id="Shape" fill="#428DFF"/><path d="M9,51 C8.44771525,51 8,50.5522847 8,50 L8,47 C8,46.4477153 8.44771525,46 9,46 C9.55228475,46 10,46.4477153 10,47 L10,50 C10,50.5522847 9.55228475,51 9,51 Z" id="Shape" fill="#428DFF"/><path d="M9,55 C8.86932274,54.99842 8.74022231,54.971241 8.62,54.92 C8.49886071,54.8692709 8.38726069,54.7982527 8.29,54.71 C8.00373062,54.4237738 7.92056338,53.9920962 8.08,53.62 C8.1709238,53.3687697 8.36876974,53.1709238 8.62,53.08 C8.86138104,52.969947 9.13861896,52.969947 9.38,53.08 C9.50113929,53.1307291 9.61273931,53.2017473 9.71,53.29 C9.80039684,53.3856071 9.87167695,53.4976187 9.92,53.62 C10.0794366,53.9920962 9.99626938,54.4237738 9.71,54.71 C9.61273931,54.7982527 9.50113929,54.8692709 9.38,54.92 C9.25977769,54.971241 9.13067726,54.99842 9,55 Z" id="Shape" fill="#428DFF"/><path d="M13,51 C12.4477153,51 12,50.5522847 12,50 L12,47 C12,46.4477153 12.4477153,46 13,46 C13.5522847,46 14,46.4477153 14,47 L14,50 C14,50.5522847 13.5522847,51 13,51 Z" id="Shape" fill="#428DFF"/><path d="M13,55 C12.8693227,54.99842 12.7402223,54.971241 12.62,54.92 C12.4988607,54.8692709 12.3872607,54.7982527 12.29,54.71 C12.0037306,54.4237738 11.9205634,53.9920962 12.08,53.62 C12.1709238,53.3687697 12.3687697,53.1709238 12.62,53.08 C12.861381,52.969947 13.138619,52.969947 13.38,53.08 C13.5011393,53.1307291 13.6127393,53.2017473 13.71,53.29 C13.8003968,53.3856071 13.871677,53.4976187 13.92,53.62 C14.0794366,53.9920962 13.9962694,54.4237738 13.71,54.71 C13.6127393,54.7982527 13.5011393,54.8692709 13.38,54.92 C13.2597777,54.971241 13.1306773,54.99842 13,55 Z" id="Shape" fill="#428DFF"/><path d="M17,51 C16.4477153,51 16,50.5522847 16,50 L16,47 C16,46.4477153 16.4477153,46 17,46 C17.5522847,46 18,46.4477153 18,47 L18,50 C18,50.5522847 17.5522847,51 17,51 Z" id="Shape" fill="#428DFF"/><path d="M17,55 C16.8693227,54.99842 16.7402223,54.971241 16.62,54.92 C16.4988607,54.8692709 16.3872607,54.7982527 16.29,54.71 C16.0037306,54.4237738 15.9205634,53.9920962 16.08,53.62 C16.1709238,53.3687697 16.3687697,53.1709238 16.62,53.08 C16.861381,52.969947 17.138619,52.969947 17.38,53.08 C17.5011393,53.1307291 17.6127393,53.2017473 17.71,53.29 C17.8003968,53.3856071 17.871677,53.4976187 17.92,53.62 C18.0794366,53.9920962 17.9962694,54.4237738 17.71,54.71 C17.6127393,54.7982527 17.5011393,54.8692709 17.38,54.92 C17.2597777,54.971241 17.1306773,54.99842 17,55 Z" id="Shape" fill="#428DFF"/><path d="M21,51 C20.4477153,51 20,50.5522847 20,50 L20,47 C20,46.4477153 20.4477153,46 21,46 C21.5522847,46 22,46.4477153 22,47 L22,50 C22,50.5522847 21.5522847,51 21,51 Z" id="Shape" fill="#428DFF"/><path d="M21,55 C20.8693227,54.99842 20.7402223,54.971241 20.62,54.92 C20.4988607,54.8692709 20.3872607,54.7982527 20.29,54.71 C20.0037306,54.4237738 19.9205634,53.9920962 20.08,53.62 C20.1709238,53.3687697 20.3687697,53.1709238 20.62,53.08 C20.861381,52.969947 21.138619,52.969947 21.38,53.08 C21.5011393,53.1307291 21.6127393,53.2017473 21.71,53.29 C21.8003968,53.3856071 21.871677,53.4976187 21.92,53.62 C22.0794366,53.9920962 21.9962694,54.4237738 21.71,54.71 C21.6127393,54.7982527 21.5011393,54.8692709 21.38,54.92 C21.2597777,54.971241 21.1306773,54.99842 21,55 Z" id="Shape" fill="#428DFF"/><path d="M25,51 C24.4477153,51 24,50.5522847 24,50 L24,47 C24,46.4477153 24.4477153,46 25,46 C25.5522847,46 26,46.4477153 26,47 L26,50 C26,50.5522847 25.5522847,51 25,51 Z" id="Shape" fill="#428DFF"/><path d="M25,55 C24.8693227,54.99842 24.7402223,54.971241 24.62,54.92 C24.4988607,54.8692709 24.3872607,54.7982527 24.29,54.71 C24.0037306,54.4237738 23.9205634,53.9920962 24.08,53.62 C24.1709238,53.3687697 24.3687697,53.1709238 24.62,53.08 C24.861381,52.969947 25.138619,52.969947 25.38,53.08 C25.5011393,53.1307291 25.6127393,53.2017473 25.71,53.29 C25.8003968,53.3856071 25.871677,53.4976187 25.92,53.62 C26.0794366,53.9920962 25.9962694,54.4237738 25.71,54.71 C25.6127393,54.7982527 25.5011393,54.8692709 25.38,54.92 C25.2597777,54.971241 25.1306773,54.99842 25,55 Z" id="Shape" fill="#428DFF"/><path d="M29,51 C28.4477153,51 28,50.5522847 28,50 L28,47 C28,46.4477153 28.4477153,46 29,46 C29.5522847,46 30,46.4477153 30,47 L30,50 C30,50.5522847 29.5522847,51 29,51 Z" id="Shape" fill="#428DFF"/><path d="M29,55 C28.8693227,54.99842 28.7402223,54.971241 28.62,54.92 C28.4988607,54.8692709 28.3872607,54.7982527 28.29,54.71 C28.0037306,54.4237738 27.9205634,53.9920962 28.08,53.62 C28.1709238,53.3687697 28.3687697,53.1709238 28.62,53.08 C28.861381,52.969947 29.138619,52.969947 29.38,53.08 C29.5011393,53.1307291 29.6127393,53.2017473 29.71,53.29 C29.8003968,53.3856071 29.871677,53.4976187 29.92,53.62 C30.0794366,53.9920962 29.9962694,54.4237738 29.71,54.71 C29.6127393,54.7982527 29.5011393,54.8692709 29.38,54.92 C29.2597777,54.971241 29.1306773,54.99842 29,55 Z" id="Shape" fill="#428DFF"/><path d="M33,51 C32.4477153,51 32,50.5522847 32,50 L32,47 C32,46.4477153 32.4477153,46 33,46 C33.5522847,46 34,46.4477153 34,47 L34,50 C34,50.5522847 33.5522847,51 33,51 Z" id="Shape" fill="#428DFF"/><path d="M33,55 C32.8693227,54.99842 32.7402223,54.971241 32.62,54.92 C32.4988607,54.8692709 32.3872607,54.7982527 32.29,54.71 C32.0037306,54.4237738 31.9205634,53.9920962 32.08,53.62 C32.1709238,53.3687697 32.3687697,53.1709238 32.62,53.08 C32.861381,52.969947 33.138619,52.969947 33.38,53.08 C33.5011393,53.1307291 33.6127393,53.2017473 33.71,53.29 C33.8003968,53.3856071 33.871677,53.4976187 33.92,53.62 C34.0794366,53.9920962 33.9962694,54.4237738 33.71,54.71 C33.6127393,54.7982527 33.5011393,54.8692709 33.38,54.92 C33.2597777,54.971241 33.1306773,54.99842 33,55 Z" id="Shape" fill="#428DFF"/><path d="M37,51 C36.4477153,51 36,50.5522847 36,50 L36,47 C36,46.4477153 36.4477153,46 37,46 C37.5522847,46 38,46.4477153 38,47 L38,50 C38,50.5522847 37.5522847,51 37,51 Z" id="Shape" fill="#428DFF"/><path d="M37,55 C36.8693227,54.99842 36.7402223,54.971241 36.62,54.92 C36.4988607,54.8692709 36.3872607,54.7982527 36.29,54.71 C36.0037306,54.4237738 35.9205634,53.9920962 36.08,53.62 C36.1709238,53.3687697 36.3687697,53.1709238 36.62,53.08 C36.861381,52.969947 37.138619,52.969947 37.38,53.08 C37.5011393,53.1307291 37.6127393,53.2017473 37.71,53.29 C37.8003968,53.3856071 37.871677,53.4976187 37.92,53.62 C38.0794366,53.9920962 37.9962694,54.4237738 37.71,54.71 C37.6127393,54.7982527 37.5011393,54.8692709 37.38,54.92 C37.2597777,54.971241 37.1306773,54.99842 37,55 Z" id="Shape" fill="#428DFF"/><path d="M41,51 C40.4477153,51 40,50.5522847 40,50 L40,47 C40,46.4477153 40.4477153,46 41,46 C41.5522847,46 42,46.4477153 42,47 L42,50 C42,50.5522847 41.5522847,51 41,51 Z" id="Shape" fill="#428DFF"/><path d="M41,55 C40.8693227,54.99842 40.7402223,54.971241 40.62,54.92 C40.4988607,54.8692709 40.3872607,54.7982527 40.29,54.71 C40.0037306,54.4237738 39.9205634,53.9920962 40.08,53.62 C40.1709238,53.3687697 40.3687697,53.1709238 40.62,53.08 C40.861381,52.969947 41.138619,52.969947 41.38,53.08 C41.5011393,53.1307291 41.6127393,53.2017473 41.71,53.29 C41.8003968,53.3856071 41.871677,53.4976187 41.92,53.62 C42.0794366,53.9920962 41.9962694,54.4237738 41.71,54.71 C41.6127393,54.7982527 41.5011393,54.8692709 41.38,54.92 C41.2597777,54.971241 41.1306773,54.99842 41,55 Z" id="Shape" fill="#428DFF"/><path d="M45,51 C44.4477153,51 44,50.5522847 44,50 L44,47 C44,46.4477153 44.4477153,46 45,46 C45.5522847,46 46,46.4477153 46,47 L46,50 C46,50.5522847 45.5522847,51 45,51 Z" id="Shape" fill="#428DFF"/><path d="M45,55 C44.8693227,54.99842 44.7402223,54.971241 44.62,54.92 C44.4988607,54.8692709 44.3872607,54.7982527 44.29,54.71 C44.0037306,54.4237738 43.9205634,53.9920962 44.08,53.62 C44.1709238,53.3687697 44.3687697,53.1709238 44.62,53.08 C44.861381,52.969947 45.138619,52.969947 45.38,53.08 C45.5011393,53.1307291 45.6127393,53.2017473 45.71,53.29 C45.8003968,53.3856071 45.871677,53.4976187 45.92,53.62 C46.0794366,53.9920962 45.9962694,54.4237738 45.71,54.71 C45.6127393,54.7982527 45.5011393,54.8692709 45.38,54.92 C45.2597777,54.971241 45.1306773,54.99842 45,55 Z" id="Shape" fill="#428DFF"/><path d="M49,51 C48.4477153,51 48,50.5522847 48,50 L48,47 C48,46.4477153 48.4477153,46 49,46 C49.5522847,46 50,46.4477153 50,47 L50,50 C50,50.5522847 49.5522847,51 49,51 Z" id="Shape" fill="#428DFF"/><path d="M49,55 C48.8693227,54.99842 48.7402223,54.971241 48.62,54.92 C48.4988607,54.8692709 48.3872607,54.7982527 48.29,54.71 C48.0037306,54.4237738 47.9205634,53.9920962 48.08,53.62 C48.1709238,53.3687697 48.3687697,53.1709238 48.62,53.08 C48.861381,52.969947 49.138619,52.969947 49.38,53.08 C49.5011393,53.1307291 49.6127393,53.2017473 49.71,53.29 C49.8003968,53.3856071 49.871677,53.4976187 49.92,53.62 C50.0794366,53.9920962 49.9962694,54.4237738 49.71,54.71 C49.6127393,54.7982527 49.5011393,54.8692709 49.38,54.92 C49.2597777,54.971241 49.1306773,54.99842 49,55 Z" id="Shape" fill="#428DFF"/><path d="M53,51 C52.4477153,51 52,50.5522847 52,50 L52,47 C52,46.4477153 52.4477153,46 53,46 C53.5522847,46 54,46.4477153 54,47 L54,50 C54,50.5522847 53.5522847,51 53,51 Z" id="Shape" fill="#428DFF"/><path d="M53,55 C52.8693227,54.99842 52.7402223,54.971241 52.62,54.92 C52.4988607,54.8692709 52.3872607,54.7982527 52.29,54.71 C52.0037306,54.4237738 51.9205634,53.9920962 52.08,53.62 C52.1709238,53.3687697 52.3687697,53.1709238 52.62,53.08 C52.861381,52.969947 53.138619,52.969947 53.38,53.08 C53.5011393,53.1307291 53.6127393,53.2017473 53.71,53.29 C53.8003968,53.3856071 53.871677,53.4976187 53.92,53.62 C54.0794366,53.9920962 53.9962694,54.4237738 53.71,54.71 C53.6127393,54.7982527 53.5011393,54.8692709 53.38,54.92 C53.2597777,54.971241 53.1306773,54.99842 53,55 Z" id="Shape" fill="#428DFF"/><path d="M57,51 C56.4477153,51 56,50.5522847 56,50 L56,47 C56,46.4477153 56.4477153,46 57,46 C57.5522847,46 58,46.4477153 58,47 L58,50 C58,50.5522847 57.5522847,51 57,51 Z" id="Shape" fill="#428DFF"/><path d="M57,55 C56.8693227,54.99842 56.7402223,54.971241 56.62,54.92 C56.4988607,54.8692709 56.3872607,54.7982527 56.29,54.71 C56.0037306,54.4237738 55.9205634,53.9920962 56.08,53.62 C56.1709238,53.3687697 56.3687697,53.1709238 56.62,53.08 C56.861381,52.969947 57.138619,52.969947 57.38,53.08 C57.5011393,53.1307291 57.6127393,53.2017473 57.71,53.29 C57.8003968,53.3856071 57.871677,53.4976187 57.92,53.62 C58.0794366,53.9920962 57.9962694,54.4237738 57.71,54.71 C57.6127393,54.7982527 57.5011393,54.8692709 57.38,54.92 C57.2597777,54.971241 57.1306773,54.99842 57,55 Z" id="Shape" fill="#428DFF"/><path d="M1,51 C0.44771525,51 6.76353751e-17,50.5522847 0,50 L0,46 C-6.76353751e-17,45.4477153 0.44771525,45 1,45 C1.55228475,45 2,45.4477153 2,46 L2,50 C2,50.5522847 1.55228475,51 1,51 Z" id="Shape" fill="#428DFF"/><path d="M1,55 C0.869322743,54.99842 0.740222313,54.971241 0.62,54.92 C0.498860708,54.8692709 0.387260691,54.7982527 0.29,54.71 C0.0037306154,54.4237738 -0.079436618,53.9920962 0.08,53.62 C0.12832305,53.4976187 0.199603156,53.3856071 0.29,53.29 C0.385607086,53.1996032 0.497618681,53.128323 0.62,53.08 C0.861381037,52.969947 1.13861896,52.969947 1.38,53.08 C1.50113929,53.1307291 1.61273931,53.2017473 1.71,53.29 C1.80039684,53.3856071 1.87167695,53.4976187 1.92,53.62 C2.07943662,53.9920962 1.99626938,54.4237738 1.71,54.71 C1.61273931,54.7982527 1.50113929,54.8692709 1.38,54.92 C1.25977769,54.971241 1.13067726,54.99842 1,55 Z" id="Shape" fill="#428DFF"/></g></g></svg>
