<svg id="svg" version="1.1" width="1000" height="433" xmlns="http://www.w3.org/2000/svg" xmlns:xlink="http://www.w3.org/1999/xlink" style="display: block;"><g id="svgg"><path id="path0" d="" stroke="none" fill="#000000" fill-rule="evenodd"></path><path id="path1" d="M395.604 1.068 C 394.397 1.395,393.317 1.791,393.204 1.948 C 393.092 2.105,392.211 2.488,391.247 2.798 C 390.283 3.109,389.290 3.551,389.041 3.781 C 388.792 4.012,387.871 4.558,386.994 4.996 C 386.117 5.434,385.310 5.888,385.200 6.005 C 385.090 6.123,384.465 6.560,383.810 6.977 C 382.327 7.924,382.416 7.854,378.800 10.880 C 374.751 14.269,366.400 22.946,366.400 23.765 C 366.400 23.874,365.995 24.399,365.500 24.930 C 365.005 25.462,364.240 26.366,363.800 26.939 C 363.360 27.512,362.685 28.390,362.299 28.891 C 361.913 29.391,360.879 30.790,360.000 32.000 C 359.121 33.210,358.125 34.560,357.786 35.000 C 356.006 37.313,354.400 39.578,354.400 39.776 C 354.400 39.899,354.085 40.342,353.700 40.760 C 353.315 41.177,352.550 42.186,352.000 43.000 C 351.450 43.814,350.730 44.781,350.400 45.147 C 350.070 45.513,349.473 46.317,349.073 46.933 C 348.177 48.315,348.170 48.324,343.289 54.200 C 338.955 59.418,334.259 63.991,331.986 65.208 C 331.588 65.421,331.022 65.821,330.728 66.097 C 329.772 66.996,325.051 69.136,323.000 69.600 C 321.900 69.849,320.687 70.221,320.305 70.427 C 319.489 70.866,314.665 70.932,314.243 70.510 C 314.084 70.350,312.913 70.008,311.642 69.748 C 310.371 69.489,308.139 68.720,306.682 68.039 C 305.225 67.357,303.846 66.800,303.617 66.800 C 303.388 66.800,303.200 66.616,303.200 66.390 C 303.200 66.165,302.738 65.804,302.173 65.590 C 301.608 65.375,300.556 64.749,299.835 64.200 C 299.114 63.650,298.356 63.200,298.151 63.200 C 297.946 63.200,297.481 62.885,297.117 62.500 C 296.754 62.115,295.522 61.170,294.379 60.400 C 293.237 59.630,291.931 58.595,291.479 58.100 C 291.026 57.605,290.482 57.200,290.270 57.200 C 290.058 57.200,289.505 56.830,289.042 56.377 C 288.281 55.633,283.390 51.662,281.400 50.172 C 280.960 49.843,279.210 48.499,277.511 47.187 C 275.811 45.874,274.236 44.800,274.011 44.800 C 273.785 44.800,273.600 44.638,273.600 44.440 C 273.600 44.241,273.015 43.712,272.300 43.264 C 271.585 42.816,270.009 41.763,268.798 40.925 C 267.587 40.086,266.147 39.172,265.598 38.894 C 265.049 38.615,263.790 37.854,262.800 37.202 C 261.117 36.093,260.638 35.837,258.300 34.801 C 257.805 34.581,257.130 34.229,256.800 34.018 C 255.433 33.144,250.036 30.787,248.864 30.553 C 248.169 30.414,247.600 30.162,247.600 29.993 C 247.600 29.824,246.295 29.372,244.700 28.988 C 243.105 28.605,241.614 28.146,241.388 27.969 C 241.161 27.792,239.271 27.356,237.188 26.999 C 235.104 26.642,233.089 26.182,232.709 25.977 C 230.289 24.673,206.557 24.666,204.091 25.970 C 203.711 26.170,202.050 26.550,200.400 26.813 C 198.750 27.076,196.680 27.614,195.800 28.009 C 194.920 28.404,193.516 28.855,192.680 29.012 C 191.845 29.168,190.912 29.545,190.609 29.848 C 190.305 30.152,189.808 30.400,189.503 30.400 C 188.600 30.400,181.160 34.283,177.590 36.617 C 170.534 41.230,156.303 54.510,154.639 58.035 C 154.440 58.456,154.136 58.800,153.964 58.800 C 153.791 58.800,151.564 61.455,149.015 64.700 C 146.467 67.945,143.927 71.140,143.373 71.800 C 141.781 73.694,141.512 74.035,139.920 76.179 C 139.094 77.290,138.009 78.670,137.509 79.244 C 137.009 79.819,135.880 81.159,135.000 82.224 C 133.494 84.045,126.505 91.123,124.977 92.373 C 114.629 100.844,102.778 100.944,90.708 92.663 C 87.024 90.136,75.600 79.128,75.600 78.106 C 75.600 77.895,73.551 75.467,71.769 73.567 C 71.236 72.998,70.800 72.389,70.800 72.213 C 70.800 72.036,70.395 71.482,69.900 70.980 C 69.405 70.479,68.519 69.468,67.930 68.734 C 56.175 54.072,47.451 46.359,37.049 41.433 C 34.986 40.457,32.512 39.454,31.549 39.204 C 30.587 38.955,29.080 38.497,28.200 38.187 C 20.630 35.515,6.248 36.673,0.913 40.383 L 0.025 41.000 0.013 107.100 L 0.000 173.200 200.000 173.200 L 400.000 173.200 400.000 86.800 L 400.000 0.400 398.900 0.436 C 398.295 0.456,396.812 0.740,395.604 1.068 " stroke="none" fill="#14adc4" fill-rule="evenodd"></path><path id="path2" d="" stroke="none" fill="#00ffff" fill-rule="evenodd"></path><path id="path3" d="" stroke="none" fill="#000080" fill-rule="evenodd"></path><path id="path4" d="" stroke="none" fill="#0000ff" fill-rule="evenodd"></path></g></svg>