<svg width="759px" height="114px" viewBox="0 0 759 114" version="1.1" xmlns="http://www.w3.org/2000/svg" xmlns:xlink="http://www.w3.org/1999/xlink">
    <g id="Page-1" stroke="none" stroke-width="1" fill="none" fill-rule="evenodd">
        <g id="01_LandingPage_dsk" transform="translate(-25.000000, -3520.000000)">
            <rect fill="none" x="0" y="0" width="1440" height="4974"></rect>
            <g id="06" transform="translate(0.000000, 2612.000000)" opacity="0.555989583" stroke="#FFFFFF">
                <g id="outline/educate" transform="translate(26.000000, 909.000000)">
                    <g id="educate/act">
                        <path d="M60.974321,64.8890972 C61.4890741,62.1271939 62,58.3621553 62,55.9771309 C62,40.7876003 52.007284,31 33.562284,31 C11.4011111,31 0,45.1826453 0,61.4990625 C0,79.0717425 9.22345679,92 33.1776543,92 C49.7014198,92 61.4890741,87.3555774 61.4890741,75.1810777 C61.4890741,74.1779424 61.3589506,72.9216795 61.2326543,71.792918 L41.1190123,69.9103987 C41.2472222,70.6622814 41.3754321,71.5416654 41.3754321,72.2935481 C41.3754321,75.4323302 39.9651235,77.942981 35.7380247,77.942981 C29.5916049,77.942981 26.7729012,72.1697968 26.6446914,64.8890972 L60.974321,64.8890972 Z M34.7142593,45.8089017 C38.5567284,45.8089017 40.0952469,48.4451787 40.0952469,52.4614699 C40.0952469,53.7177328 39.9651235,55.0977469 39.7106173,56.6052623 L26.6446914,56.6052623 C27.029321,51.3345833 29.4614815,45.8089017 34.7142593,45.8089017 Z" id="Stroke-5" opacity="0.66250465"></path>
                        <path d="M70,62.4452302 C70,77.6596911 76.5481203,93 94.9340231,93 C106.141636,93 113.570113,86.0839944 117.347368,75.2704572 L123.141166,91.7433982 L138,91.7433982 L138,8 L112.057706,8 L112.057706,45.0932314 C109.162688,37.6738338 102.992669,31.8904603 93.5495311,31.8904603 C77.4284766,31.8904603 70,46.4756812 70,62.4452302 Z M95.9404133,62.4452302 C95.9404133,52.6365987 98.961465,47.2307692 104.251127,47.2307692 C109.414756,47.2307692 112.057706,53.1399907 112.057706,62.4452302 C112.057706,71.6246216 109.036654,77.6596911 103.999059,77.6596911 C98.8373122,77.6596911 95.9404133,72.3778313 95.9404133,62.4452302 Z" id="Stroke-7" opacity="0.66250465"></path>
                        <path d="M154,33 L154,65.3951795 C154,82.9184032 160.865416,93 175.359704,93 C187.309136,93 194.174551,85.5640221 197.353723,71.3209892 L202.439638,91.7402712 L221,91.7402712 L221,33 L194.810766,33 L194.810766,50.6475019 C194.810766,64.387773 192.395051,73.3376852 185.656878,73.3376852 C181.843391,73.3376852 180.191134,70.9406226 180.191134,67.0333919 L180.191134,33 L154,33 Z" id="Stroke-9" opacity="0.66250465"></path>
                        <path d="M293.980451,55.0988812 C294.106227,54.5963915 294.235815,53.9682793 294.235815,53.0907973 C294.235815,39.1579578 284.156575,31 267.443597,31 C244.609516,31 233,44.9328395 233,61.5 C233,80.0752444 244.737198,92 267.443597,92 C284.922666,92 295,83.9657896 295,72.042909 C295,70.7885597 294.872318,69.2810906 294.616955,68.2779861 L274.205016,66.3936497 C274.332698,67.2730067 274.46038,68.4036085 274.46038,69.2810906 C274.46038,73.4228807 272.547058,76.4359439 268.082007,76.4359439 C262.086679,76.4359439 259.407266,70.1604475 259.407266,61.5 C259.407266,51.836448 262.340136,46.5640561 267.698961,46.5640561 C271.52751,46.5640561 273.313149,49.4496219 273.313149,53.8445319 C273.313149,54.9732587 273.185468,55.7269933 273.057786,56.4788529 L293.980451,55.0988812 Z" id="Stroke-11" opacity="0.66250465"></path>
                        <path d="M375,78.822365 C374.113182,79.1973688 373.101567,79.3248701 371.834684,79.3248701 C368.669368,79.3248701 367.911129,77.6917284 367.911129,74.8041988 L367.911129,55.0996219 C367.911129,39.0325823 357.91221,31 337.532415,31 C317.025932,31 305.762021,38.4044509 305.762021,49.450189 C305.762021,52.4614699 306.646948,55.8515046 308.418693,59.3671656 L331.708536,53.9689853 C331.203674,52.5889712 330.950297,51.3345833 330.950297,50.2039468 C330.950297,47.3164172 332.468666,45.1845203 336.267423,45.1845203 C339.937601,45.1845203 341.836035,47.693296 341.836035,52.2120923 L341.836035,62.6296991 C336.900864,62.0015676 332.215289,61.6265638 328.038358,61.6265638 C313.987304,61.6265638 305,65.7684812 305,76.186088 C305,85.9755633 311.962183,92 322.849811,92 C332.468666,92 339.557536,88.6137153 342.84765,81.2055144 C344.114533,86.6036947 348.166667,92 360.064019,92 C366.770935,92 371.581307,90.3687333 375,87.608705 L375,78.822365 Z M341.962723,70.6622814 C341.962723,75.1829527 340.571043,80.0767528 335.00054,80.0767528 C332.215289,80.0767528 330.570232,78.4454861 330.570232,76.0604617 C330.570232,71.6691667 334.747164,70.5385301 341.962723,69.5335198 L341.962723,70.6622814 Z" id="Stroke-13" opacity="0.66250465"></path>
                        <path d="M425.622628,77.5237936 C423.737643,78.1483305 421.475287,78.3981453 419.338721,78.3981453 C415.19138,78.3981453 413.809559,76.3996271 413.809559,72.5312268 L413.809559,43.327135 L426,43.327135 L426,32.5944215 L413.809559,32.5944215 L413.809559,14 L387.919187,15.9966538 L387.919187,32.5944215 L380,32.5944215 L380,43.327135 L387.919187,43.327135 L387.919187,71.1591099 C387.919187,84.3881068 393.823844,92 409.284846,92 C415.820334,92 421.223705,90.8776978 426,88.3814145 L425.622628,77.5237936 Z" id="Stroke-15" opacity="0.66250465"></path>
                        <path d="M493.974321,64.8890972 C494.489074,62.1271939 495,58.3621553 495,55.9771309 C495,40.7876003 485.007284,31 466.562284,31 C444.401111,31 433,45.1826453 433,61.4990625 C433,79.0717425 442.223457,92 466.177654,92 C482.70142,92 494.489074,87.3555774 494.489074,75.1810777 C494.489074,74.1779424 494.358951,72.9216795 494.232654,71.792918 L474.119012,69.9103987 C474.247222,70.6622814 474.375432,71.5416654 474.375432,72.2935481 C474.375432,75.4323302 472.965123,77.942981 468.738025,77.942981 C462.591605,77.942981 459.772901,72.1697968 459.644691,64.8890972 L493.974321,64.8890972 Z M467.714259,45.8089017 C471.556728,45.8089017 473.095247,48.4451787 473.095247,52.4614699 C473.095247,53.7177328 472.965123,55.0977469 472.710617,56.6052623 L459.644691,56.6052623 C460.029321,51.3345833 462.461481,45.8089017 467.714259,45.8089017 Z" id="Stroke-17" opacity="0.66250465"></path>
                        <polygon id="Stroke-19" opacity="0.66250465" points="560 0 542.085015 0 504 112 521.914985 112"></polygon>
                        <path d="M636,78.822365 C635.113182,79.1973688 634.101567,79.3248701 632.834684,79.3248701 C629.669368,79.3248701 628.911129,77.6917284 628.911129,74.8041988 L628.911129,55.0996219 C628.911129,39.0325823 618.91221,31 598.532415,31 C578.025932,31 566.762021,38.4044509 566.762021,49.450189 C566.762021,52.4614699 567.646948,55.8515046 569.418693,59.3671656 L592.708536,53.9689853 C592.203674,52.5889712 591.950297,51.3345833 591.950297,50.2039468 C591.950297,47.3164172 593.468666,45.1845203 597.267423,45.1845203 C600.937601,45.1845203 602.836035,47.693296 602.836035,52.2120923 L602.836035,62.6296991 C597.900864,62.0015676 593.215289,61.6265638 589.038358,61.6265638 C574.987304,61.6265638 566,65.7684812 566,76.186088 C566,85.9755633 572.962183,92 583.849811,92 C593.468666,92 600.557536,88.6137153 603.84765,81.2055144 C605.114533,86.6036947 609.166667,92 621.064019,92 C627.770935,92 632.581307,90.3687333 636,87.608705 L636,78.822365 Z M602.962723,70.6622814 C602.962723,75.1829527 601.571043,80.0767528 596.00054,80.0767528 C593.215289,80.0767528 591.570232,78.4454861 591.570232,76.0604617 C591.570232,71.6691667 595.747164,70.5385301 602.962723,69.5335198 L602.962723,70.6622814 Z" id="Stroke-21" opacity="0.66250465"></path>
                        <path d="M703.980451,55.0988812 C704.106227,54.5963915 704.235815,53.9682793 704.235815,53.0907973 C704.235815,39.1579578 694.156575,31 677.443597,31 C654.609516,31 643,44.9328395 643,61.5 C643,80.0752444 654.737198,92 677.443597,92 C694.922666,92 705,83.9657896 705,72.042909 C705,70.7885597 704.872318,69.2810906 704.616955,68.2779861 L684.205016,66.3936497 C684.332698,67.2730067 684.46038,68.4036085 684.46038,69.2810906 C684.46038,73.4228807 682.547058,76.4359439 678.082007,76.4359439 C672.086679,76.4359439 669.407266,70.1604475 669.407266,61.5 C669.407266,51.836448 672.340136,46.5640561 677.698961,46.5640561 C681.52751,46.5640561 683.313149,49.4496219 683.313149,53.8445319 C683.313149,54.9732587 683.185468,55.7269933 683.057786,56.4788529 L703.980451,55.0988812 Z" id="Stroke-23" opacity="0.66250465"></path>
                        <path d="M756.622628,77.5237936 C754.737643,78.1483305 752.475287,78.3981453 750.338721,78.3981453 C746.19138,78.3981453 744.809559,76.3996271 744.809559,72.5312268 L744.809559,43.327135 L757,43.327135 L757,32.5944215 L744.809559,32.5944215 L744.809559,14 L718.919187,15.9966538 L718.919187,32.5944215 L711,32.5944215 L711,43.327135 L718.919187,43.327135 L718.919187,71.1591099 C718.919187,84.3881068 724.823844,92 740.284846,92 C746.820334,92 752.223705,90.8776978 757,88.3814145 L756.622628,77.5237936 Z" id="Stroke-25" opacity="0.66250465"></path>
                    </g>
                </g>
            </g>
        </g>
    </g>
</svg>
