<?xml version="1.0" encoding="iso-8859-1"?>
<!-- Generator: Adobe Illustrator 16.0.0, SVG Export Plug-In . SVG Version: 6.00 Build 0)  -->
<!DOCTYPE svg PUBLIC "-//W3C//DTD SVG 1.1//EN" "http://www.w3.org/Graphics/SVG/1.1/DTD/svg11.dtd">
<svg version="1.1" id="Capa_1" xmlns="http://www.w3.org/2000/svg" xmlns:xlink="http://www.w3.org/1999/xlink" x="0px" y="0px"
	 width="190.117px" height="190.117px" viewBox="0 0 190.117 190.117" style="enable-background:new 0 0 190.117 190.117;"
	 xml:space="preserve">
<g>
	<g>
		<path d="M187.651,20.813c-8.401,1.744-15.832,6.111-23.686,9.369c-1.04,0.431-1.896,1.67-1.131,2.78
			c1.596,2.319,3.287,4.543,5.121,6.643c-11.831,12.206-23.261,24.792-35.188,36.908c-8.028,8.155-16.575,15.664-25.658,22.63
			c-4.46,3.421-19.272-26.704-21.404-30.051c-0.538-0.844-1.73-1.283-2.628-0.689c-29.614,19.592-54.337,45.439-82.405,67.071
			c-1.568,1.208-0.129,3.906,1.598,2.732c15.84-10.766,29.942-23.625,44.256-36.302c10.494-9.293,21.25-18.184,32.667-26.332
			c8.096-5.777,19.868,25.553,21.866,29.923c0.411,0.901,1.828,1.244,2.626,0.688c25.508-17.737,45.427-41.606,66.878-63.801
			c0.368,0.365,0.765,0.705,1.147,1.059c0.731,0.936,1.446,1.877,2.2,2.814c1.344,1.668,4.118-0.512,2.95-2.277
			c-0.043-0.065-0.087-0.13-0.13-0.195c2.538-1.659,4.213-5.241,5.701-7.659c2.535-4.119,4.854-8.368,7.397-12.484
			C190.771,22.12,189.232,20.484,187.651,20.813z"/>
		<path d="M9.937,140.797c-0.252-0.918-1.556-1.358-2.228-0.588c-2.126,2.44-1.921,6.853-2.192,9.943
			c-0.493,5.627-0.451,11.247,0.259,16.849c0.226,1.783,2.936,1.905,2.878,0c-0.139-4.57,0.025-9.168,0.279-13.732
			C9.149,149.421,10.949,144.489,9.937,140.797z"/>
		<path d="M18.392,133.313c-0.38-0.706-1.501-0.889-2.046-0.265c-2.776,3.187-2.036,10.486-2.35,14.487
			c-0.512,6.529-0.771,13.359,0.608,19.802c0.301,1.405,2.567,1.092,2.499-0.338c-0.309-6.518,0.137-12.968,0.667-19.464
			C18.09,143.631,20.315,136.881,18.392,133.313z"/>
		<path d="M28.121,124.563c-2.316,4.938-2.333,10.965-2.732,16.324c-0.626,8.435-1.193,16.943-1.518,25.396
			c-0.057,1.477,2.17,1.743,2.543,0.344c1.788-6.688,1.981-13.708,2.447-20.583c0.469-6.927,1.776-13.799,2.181-20.689
			C31.131,123.839,28.784,123.15,28.121,124.563z"/>
		<path d="M38.322,113.865c-2.111,17.088-3.259,34.487-2.327,51.7c0.096,1.778,2.65,1.772,2.756,0
			c1.041-17.273,1.292-34.499,3.418-51.7C42.473,111.407,38.622,111.437,38.322,113.865z"/>
		<path d="M51.673,103.4c-3.298,8.383-3.442,18.462-3.993,27.354c-0.74,11.931-1.329,24.359,0.129,36.247
			c0.166,1.354,1.939,1.354,2.106,0c2.569-20.869,2.523-42.226,4.808-63.188C54.928,101.934,52.261,101.906,51.673,103.4z"/>
		<path d="M64.532,93.329c-6.801,23.883-3.433,49.894-6.566,74.39c-0.238,1.862,2.942,2.282,3.273,0.443
			c4.39-24.423,2.56-49.415,6.419-73.971C67.975,92.173,65.118,91.273,64.532,93.329z"/>
		<path d="M76.774,83.336c-0.451-1.308-2.251-1.345-2.687,0c-3.377,10.405-0.488,25.632-0.562,36.474
			c-0.107,15.638,0.26,31.633-1.535,47.191c-0.176,1.528,2.074,1.624,2.529,0.342c4.663-13.13,2.655-30.318,2.816-43.977
			C77.471,111.681,80.639,94.54,76.774,83.336z"/>
		<path d="M89.22,87.297c-0.178-2.043-2.973-2.032-3.166,0c-2.449,25.865-2.506,53.81-0.589,79.704c0.137,1.854,2.856,1.893,2.908,0
			C89.093,140.899,91.483,113.301,89.22,87.297z"/>
		<path d="M97.263,140.875c0.409-10.543,2.334-20.88,3.658-31.318c0.256-2.024-3.082-2.423-3.526-0.478
			c-2.363,10.37-3.34,21.2-3.948,31.795c-0.454,7.907-1.685,20.706,3.884,27.203c0.321,0.375,0.82,0.032,0.865-0.359
			C99.195,159.162,96.922,149.677,97.263,140.875z"/>
		<path d="M108.775,136.075c0.531-8.273,2.526-17.245,1.051-25.459c-0.248-1.381-2.446-1.332-2.73,0
			c-3.629,17.007-4.671,39.068-0.791,56.063c0.438,1.921,3.142,1.054,2.877-0.794C107.763,155.963,108.135,146.044,108.775,136.075z
			"/>
		<path d="M118.372,102.659c-4.354,20.471-2.211,42.819-2.138,63.624c0.007,2.026,3.002,1.993,3.12,0
			c1.244-21.048,0.922-42.129,2.23-63.189C121.699,101.253,118.755,100.859,118.372,102.659z"/>
		<path d="M131.819,93.041c-0.082-2.337-3.605-2.349-3.635,0c-0.311,24.739,2.953,48.84-0.427,73.539
			c-0.269,1.955,2.552,2.881,3.052,0.842C136.7,143.397,132.672,117.463,131.819,93.041z"/>
		<path d="M145.568,82.989c-0.001-2.481-3.847-2.481-3.847,0c-0.005,27.976-0.666,56.055,0.454,84.012
			c0.076,1.895,2.861,1.895,2.938,0C146.234,139.044,145.573,110.965,145.568,82.989z"/>
		<path d="M160.654,109.558c-0.229-6.396,0.373-37.877-5.18-39.563c0.965,0.293,2.134-0.723,1.742-1.742
			c-0.028-0.071-0.056-0.143-0.082-0.214c-0.488-1.268-2.654-1.644-2.959,0c-2,10.803,1.465,24.2,2.381,34.945
			c1.835,21.521,0.794,43.277-1.063,64.736c-0.105,1.223,1.831,1.449,2.112,0.286C162.247,148.836,161.354,129.132,160.654,109.558z
			"/>
	</g>
</g>
<g>
</g>
<g>
</g>
<g>
</g>
<g>
</g>
<g>
</g>
<g>
</g>
<g>
</g>
<g>
</g>
<g>
</g>
<g>
</g>
<g>
</g>
<g>
</g>
<g>
</g>
<g>
</g>
<g>
</g>
</svg>
