<svg xmlns="http://www.w3.org/2000/svg" viewBox="0 0 742.94 198.53"><defs><style>.cls-1{fill:#4183d7;}</style></defs><title>Asset 3</title><g id="Layer_2" data-name="Layer 2"><g id="Capa_1" data-name="Capa 1"><g id="_Group_" data-name="&lt;Group&gt;"><path id="_Compound_Path_" data-name="&lt;Compound Path&gt;" class="cls-1" d="M742.91,151.38l-12.66.06-5.36-8.16c-3.75,2.19-7.32,4.49-11.08,6.43-20.58,10.63-55.26,3.17-65.91-26.91-6.42-18.12-6.1-36.31,3-53.6,7.15-13.59,19.09-20.91,34-23.69,11.87-2.22,23.08-.56,33.74,6.12V2.37L742.94,0S742.91,109.23,742.91,151.38ZM718.69,99.29c0-7.86,0-15.72,0-23.58a3.43,3.43,0,0,0-1.46-3.05,33.25,33.25,0,0,0-17.06-7.2c-12.86-1.56-23.59,4.36-28.41,16.38-4.43,11-4.33,22.31-.48,33.45,2.61,7.57,7.34,13.64,15.2,16.31,11.13,3.78,21.31,1.44,30.57-5.58a3.71,3.71,0,0,0,1.66-3.37C718.64,114.87,718.69,107.08,718.69,99.29Z"/><path id="_Compound_Path_2" data-name="&lt;Compound Path&gt;" class="cls-1" d="M111,198.53V47.44l12.09.06,5.5,6.4c3.39-1.85,6.58-3.83,10-5.41,21.33-10,57.22-1.67,66.28,31.38,4.32,15.77,4.1,31.48-2.94,46.55-6.91,14.8-18.82,23.43-34.69,26.66-11.07,2.25-21.83,1.5-32.14-4.46V196c-4.33.43-19.69,2.11-23.21,2.54Zm24-99.18c0,8.57,0,17.14,0,25.71a3,3,0,0,0,1.6,2.92,33.39,33.39,0,0,0,15,5.18c10.69,1,19.51-2.33,25.26-11.69,6.93-11.28,7.14-23.5,3.75-35.88-2.28-8.3-6.84-15.16-15.23-18.37-10.56-4-20.43-1.91-29.52,4.44a3,3,0,0,0-.78,2.2C135,82.35,135,90.85,135,99.35Z"/><path id="_Compound_Path_3" data-name="&lt;Compound Path&gt;" class="cls-1" d="M227.2,198.53V47.43l12.08.06,5.5,6.4c3.38-1.85,6.58-3.84,10-5.41,21.49-10,58.07-1.71,66.7,32.81,3.83,15.31,3.5,30.55-3.34,45.11-6.94,14.79-18.83,23.43-34.69,26.67-11.07,2.26-21.83,1.46-32.14-4.43V196c-4.34.43-19.7,2.11-23.21,2.54Zm24-99v20.35c0,8.09-.08,8.31,7.62,11.14,15.53,5.72,31.45,1.43,37.58-16.61a45.61,45.61,0,0,0-1.21-33.19C291.94,73.5,286.44,68,277.93,66c-9-2-17.2-.12-24.88,4.78a3.52,3.52,0,0,0-1.9,3.42C251.27,82.67,251.21,91.1,251.21,99.53Z"/><path id="_Compound_Path_4" data-name="&lt;Compound Path&gt;" class="cls-1" d="M0,117.94c.35-1.86.62-3.73,1.06-5.57,2.86-12,11-18.85,22.33-22.13a61.68,61.68,0,0,1,14.52-2c7.7-.32,15.42-.09,23.12-.09,1-8.6-3.09-19.86-14.17-21.23C37.2,65.72,28,67.9,19,71.09c-2.07.73-4.11,1.57-6.45,2.47l-6.78-20c3.19-1.32,6.29-2.87,9.56-3.91,9.6-3,19.38-5.5,29.54-4.93,15.31.87,28,6.86,36.33,20.24a30.13,30.13,0,0,1,4.49,16.26q0,33.64,0,67.29v2.73H69.55L66,141.06c-6,5.57-12.63,10-20.5,11.75-11.53,2.58-22.76,1.53-32.79-5.26C5.08,142.4,1.41,134.76.42,125.75a15.38,15.38,0,0,0-.42-1.8Q0,120.94,0,117.94Zm61.73-13.66c-8.56,0-16.84-.19-25.1.07a14.78,14.78,0,0,0-12.43,6.83c-3.26,5-4.07,10.41-1.43,15.82s7.43,7.73,13.46,7.73c10.09,0,17.95-4.77,25-11.39a2,2,0,0,0,.5-1.31C61.74,116.2,61.73,110.35,61.73,104.29Z"/><path id="_Compound_Path_5" data-name="&lt;Compound Path&gt;" class="cls-1" d="M522.22,142a63.32,63.32,0,0,1-26.33,11c-12.78,2.08-25.48,1.46-37.75-2.88-17.26-6.11-27.48-18.61-31.08-36.32-2.82-13.88-2.13-27.71,3.69-40.86C438.15,56.2,451.23,47.13,469.25,45a54.58,54.58,0,0,1,24.89,2.35C505.71,51.48,513,60,517.82,70.9A64.85,64.85,0,0,1,523,95c.13,3.55,0,7.12,0,10.9H451c1.24,9.4,4.43,17.46,12.6,22.68,4.92,3.14,10.45,4.31,16.19,4.85,11.83,1.12,22.47-2.57,32.72-7.94.69-.36,1.4-.69,2.32-1.14Zm-70.7-52.43h48.19C496.9,72.94,489,65.11,475,65.29,462.41,65.45,453.48,74.06,451.52,89.53Z"/><path id="_Compound_Path_6" data-name="&lt;Compound Path&gt;" class="cls-1" d="M631.88,105.93H560.05c1.38,15.44,10.66,25.1,25.48,27.08a53.71,53.71,0,0,0,32.26-5.78c1.9-1,3.83-1.87,6-2.92l7.33,17.62a62.69,62.69,0,0,1-15.23,8c-10.14,3.77-20.63,4.6-31.34,3.7a63.94,63.94,0,0,1-22.25-5.49c-13.32-6.3-21.85-16.76-25.49-30.91-3.86-15-3.42-30,2.86-44.37C547,56.18,560.11,47.13,578.13,45A54.59,54.59,0,0,1,603,47.37C614.6,51.47,621.88,60,626.7,70.9A64.86,64.86,0,0,1,631.86,95C632,98.51,631.88,102.07,631.88,105.93ZM560.42,89.52H608.6C605.66,72.74,597.82,65,583.67,65.3,571.21,65.54,562.36,74.12,560.42,89.52Z"/><path id="_Path_" data-name="&lt;Path&gt;" class="cls-1" d="M335.56,144.27a76.38,76.38,0,0,0,23.08,8.61c12.42,2.33,24.73,2,36.55-2.81,13.87-5.63,19.5-16.76,18.39-30.53-.67-8.34-5.52-14.49-11.86-19.53-7.28-5.79-15.71-9.39-24.37-12.5-5.36-1.93-10.78-3.78-15.2-7.53-3.07-2.61-3.41-6-1.23-9.37a13.1,13.1,0,0,1,8.93-5.75,40.77,40.77,0,0,1,21,1.89c3.93,1.34,11.76,4.4,11.76,4.4l7.48-16.26s-1.86-1.2-2.78-1.71a68.21,68.21,0,0,0-26.72-8.21c-10.31-1.09-20.32.13-29.71,4.9-17.07,8.67-21.28,32.32-5.64,44.95,6.58,5.32,14.07,8.83,22,11.58,6.58,2.28,13.26,4.32,18.79,8.85,6.62,5.42,5.73,12.81-2,16.48-6.11,2.91-12.57,3-19.06,2.31-7.63-.81-14.79-3.36-21.88-6.73Z"/></g></g></g></svg>