
<svg width="18px" height="20px" viewBox="0 0 18 20" version="1.1" xmlns="http://www.w3.org/2000/svg" xmlns:xlink="http://www.w3.org/1999/xlink">
    <g id="Product-List-Offsite" stroke="none" stroke-width="1" fill="none" fill-rule="evenodd">
        <g id="Desktop-HD" transform="translate(-1127.000000, -32.000000)" fill="#000000">
            <g id="Menu" transform="translate(101.000000, 1.000000)">
                <g id="My-Account" transform="translate(25.054986, 0.000000)">
                    <path d="M1009.43478,41.7743271 C1009.45549,41.7743271 1009.47619,41.7743271 1009.50104,41.7743271 C1009.50932,41.7743271 1009.5176,41.7743271 1009.52588,41.7743271 C1009.5383,41.7743271 1009.55487,41.7743271 1009.56729,41.7743271 C1010.78054,41.7536232 1011.7619,41.3271222 1012.48654,40.5113872 C1014.08075,38.7142857 1013.81573,35.6335404 1013.78675,35.3395445 C1013.68323,33.1325052 1012.63975,32.0766046 1011.77847,31.5838509 C1011.13665,31.2153209 1010.38716,31.0165631 1009.55072,31 L1009.52174,31 C1009.5176,31 1009.50932,31 1009.50518,31 L1009.48033,31 C1009.0207,31 1008.11801,31.0745342 1007.25259,31.5672878 C1006.38302,32.0600414 1005.32298,33.115942 1005.21946,35.3395445 C1005.19048,35.6335404 1004.92547,38.7142857 1006.51967,40.5113872 C1007.24017,41.3271222 1008.22153,41.7536232 1009.43478,41.7743271 Z M1006.32505,35.4430642 C1006.32505,35.4306418 1006.32919,35.4182195 1006.32919,35.4099379 C1006.46584,32.4409938 1008.5735,32.1221532 1009.47619,32.1221532 L1009.49275,32.1221532 C1009.50104,32.1221532 1009.51346,32.1221532 1009.52588,32.1221532 C1010.64389,32.1469979 1012.54451,32.6024845 1012.67288,35.4099379 C1012.67288,35.4223602 1012.67288,35.4347826 1012.67702,35.4430642 C1012.68116,35.4720497 1012.97101,38.2877847 1011.65424,39.7701863 C1011.13251,40.3581781 1010.43685,40.6480331 1009.52174,40.6563147 C1009.51346,40.6563147 1009.50932,40.6563147 1009.50104,40.6563147 C1009.49275,40.6563147 1009.48861,40.6563147 1009.48033,40.6563147 C1008.56936,40.6480331 1007.86957,40.3581781 1007.35197,39.7701863 C1006.03934,38.2960663 1006.32091,35.4679089 1006.32505,35.4430642 Z" id="Shape" fill-rule="nonzero"></path>
                    <path d="M1018.01035,46.884058 C1018.01035,46.8799172 1018.01035,46.8757764 1018.01035,46.8716356 C1018.01035,46.8385093 1018.00621,46.805383 1018.00621,46.7681159 C1017.98137,45.9482402 1017.92754,44.0310559 1016.13043,43.4182195 C1016.11801,43.4140787 1016.10145,43.4099379 1016.08903,43.4057971 C1014.22153,42.9296066 1012.66874,41.8530021 1012.65217,41.8405797 C1012.39959,41.6625259 1012.05176,41.7246377 1011.87371,41.9772257 C1011.69565,42.2298137 1011.75776,42.5776398 1012.01035,42.7556936 C1012.08075,42.805383 1013.72878,43.952381 1015.79089,44.4824017 C1016.75569,44.826087 1016.86335,45.8571429 1016.89234,46.8012422 C1016.89234,46.8385093 1016.89234,46.8716356 1016.89648,46.9047619 C1016.90062,47.2774327 1016.87578,47.8530021 1016.80952,48.184265 C1016.13872,48.5652174 1013.50932,49.8819876 1009.50932,49.8819876 C1005.52588,49.8819876 1002.87992,48.5610766 1002.20497,48.1801242 C1002.13872,47.8488613 1002.10973,47.2732919 1002.11801,46.9006211 C1002.11801,46.8674948 1002.12215,46.8343685 1002.12215,46.7971014 C1002.15114,45.8530021 1002.2588,44.8219462 1003.2236,44.4782609 C1005.28571,43.9482402 1006.93375,42.7971014 1007.00414,42.7515528 C1007.25673,42.573499 1007.31884,42.2256729 1007.14079,41.9730849 C1006.96273,41.7204969 1006.61491,41.6583851 1006.36232,41.8364389 C1006.34576,41.8488613 1004.80124,42.9254658 1002.92547,43.4016563 C1002.9089,43.4057971 1002.89648,43.4099379 1002.88406,43.4140787 C1001.08696,44.0310559 1001.03313,45.9482402 1001.00828,46.7639752 C1001.00828,46.8012422 1001.00828,46.8343685 1001.00414,46.8674948 C1001.00414,46.8716356 1001.00414,46.8757764 1001.00414,46.8799172 C1001,47.0952381 1000.99586,48.2008282 1001.21532,48.7556936 C1001.25673,48.863354 1001.33126,48.9544513 1001.43064,49.0165631 C1001.55487,49.0993789 1004.53209,50.9958592 1009.51346,50.9958592 C1014.49482,50.9958592 1017.47205,49.0952381 1017.59627,49.0165631 C1017.69151,48.9544513 1017.77019,48.863354 1017.81159,48.7556936 C1018.01863,48.2049689 1018.01449,47.0993789 1018.01035,46.884058 Z" id="Path"></path>
                </g>
            </g>
        </g>
    </g>
</svg>