<?xml version="1.0" encoding="utf-8"?>
<!-- Generator: Adobe Illustrator 16.0.3, SVG Export Plug-In . SVG Version: 6.00 Build 0)  -->
<!DOCTYPE svg PUBLIC "-//W3C//DTD SVG 1.1//EN" "http://www.w3.org/Graphics/SVG/1.1/DTD/svg11.dtd">
<svg version="1.1" id="Layer_1" xmlns="http://www.w3.org/2000/svg" xmlns:xlink="http://www.w3.org/1999/xlink" x="0px" y="0px"
	 width="18px" height="20px" viewBox="0 0 18 20" enable-background="new 0 0 18 20" xml:space="preserve">
<g id="Product-List-Offsite">
	<g id="Desktop-HD" transform="translate(-1127.000000, -32.000000)">
		<g id="Menu" transform="translate(101.000000, 1.000000)">
			<g id="My-Account" transform="translate(25.054986, 0.000000)">
				<path id="Shape" fill="#FFFFFF" d="M1009.435,41.774c0.021,0,0.042,0,0.066,0c0.008,0,0.017,0,0.025,0c0.012,0,0.029,0,0.041,0
					c1.214-0.021,2.194-0.447,2.919-1.263c1.595-1.797,1.33-4.877,1.301-5.172c-0.104-2.207-1.146-3.263-2.008-3.755
					c-0.643-0.369-1.392-0.567-2.229-0.584h-0.029c-0.004,0-0.012,0-0.017,0h-0.025c-0.459,0-1.362,0.075-2.228,0.567
					c-0.87,0.493-1.93,1.549-2.033,3.772c-0.029,0.294-0.294,3.375,1.3,5.172C1007.24,41.327,1008.221,41.754,1009.435,41.774z
					 M1006.325,35.443c0-0.012,0.004-0.025,0.004-0.033c0.137-2.969,2.244-3.288,3.147-3.288h0.017c0.008,0,0.021,0,0.033,0
					c1.118,0.025,3.019,0.48,3.147,3.288c0,0.012,0,0.024,0.004,0.033c0.004,0.029,0.293,2.845-1.023,4.327
					c-0.521,0.588-1.217,0.878-2.132,0.886c-0.008,0-0.012,0-0.021,0s-0.013,0-0.021,0c-0.911-0.008-1.61-0.298-2.128-0.886
					C1006.039,38.296,1006.321,35.468,1006.325,35.443z"/>
				<path id="Path" fill="#FFFFFF" d="M1018.01,46.884c0-0.004,0-0.008,0-0.013c0-0.033-0.005-0.066-0.005-0.104
					c-0.024-0.819-0.078-2.736-1.875-3.35c-0.013-0.004-0.029-0.008-0.041-0.012c-1.868-0.477-3.421-1.553-3.438-1.565
					c-0.252-0.179-0.6-0.116-0.778,0.136c-0.179,0.254-0.116,0.602,0.137,0.779c0.07,0.049,1.718,1.196,3.78,1.727
					c0.965,0.344,1.072,1.375,1.102,2.318c0,0.037,0,0.07,0.004,0.104c0.004,0.373-0.021,0.949-0.087,1.279
					c-0.671,0.382-3.3,1.698-7.3,1.698c-3.983,0-6.629-1.321-7.305-1.702c-0.066-0.331-0.095-0.906-0.087-1.279
					c0-0.033,0.004-0.066,0.004-0.104c0.029-0.943,0.137-1.975,1.101-2.318c2.063-0.53,3.71-1.682,3.781-1.727
					c0.252-0.179,0.315-0.526,0.137-0.779c-0.178-0.252-0.526-0.314-0.778-0.137c-0.017,0.013-1.561,1.09-3.437,1.566
					c-0.017,0.004-0.029,0.008-0.042,0.012c-1.797,0.617-1.851,2.534-1.875,3.35c0,0.037,0,0.07-0.004,0.104
					c0,0.004,0,0.009,0,0.013c-0.004,0.216-0.008,1.321,0.211,1.876c0.041,0.107,0.116,0.199,0.215,0.261
					c0.124,0.083,3.101,1.979,8.083,1.979s7.959-1.9,8.083-1.979c0.095-0.062,0.174-0.153,0.216-0.261
					C1018.019,48.205,1018.014,47.1,1018.01,46.884z"/>
			</g>
		</g>
	</g>
</g>
</svg>
