
<svg width="17px" height="20px" viewBox="0 0 17 20" version="1.1" xmlns="http://www.w3.org/2000/svg" xmlns:xlink="http://www.w3.org/1999/xlink">
    <g id="Product-List-Offsite" stroke="none" stroke-width="1" fill="none" fill-rule="evenodd">
        <g id="Desktop-HD" transform="translate(-1267.000000, -31.000000)" fill="#000000" fill-rule="nonzero">
            <g id="Menu" transform="translate(101.000000, 1.000000)">
                <g id="Basket" transform="translate(1166.000000, 0.000000)">
                    <path d="M16.0368098,47.2883436 L14.8916155,34.392638 C14.8670757,34.1063395 14.6257669,33.8895706 14.3435583,33.8895706 L11.9877301,33.8895706 C11.9550102,31.7382413 10.196319,30 8.03680982,30 C5.87730061,30 4.11860941,31.7382413 4.08588957,33.8895706 L1.73006135,33.8895706 C1.44376278,33.8895706 1.20654397,34.1063395 1.18200409,34.392638 L0.036809816,47.2883436 C0.036809816,47.3047035 0.0327198364,47.3210634 0.0327198364,47.3374233 C0.0327198364,48.805726 1.37832311,50 3.03476483,50 L13.0388548,50 C14.6952965,50 16.0408998,48.805726 16.0408998,47.3374233 C16.0408998,47.3210634 16.0408998,47.3047035 16.0368098,47.2883436 Z M8.03680982,31.1042945 C9.58691207,31.1042945 10.8507157,32.3476483 10.8834356,33.8895706 L5.19018405,33.8895706 C5.22290389,32.3476483 6.48670757,31.1042945 8.03680982,31.1042945 Z M13.0388548,48.8957055 L3.03476483,48.8957055 C1.99591002,48.8957055 1.15337423,48.208589 1.13701431,47.3619632 L2.23312883,34.997955 L4.08179959,34.997955 L4.08179959,36.6748466 C4.08179959,36.9815951 4.32719836,37.2269939 4.63394683,37.2269939 C4.9406953,37.2269939 5.18609407,36.9815951 5.18609407,36.6748466 L5.18609407,34.997955 L10.8834356,34.997955 L10.8834356,36.6748466 C10.8834356,36.9815951 11.1288344,37.2269939 11.4355828,37.2269939 C11.7423313,37.2269939 11.9877301,36.9815951 11.9877301,36.6748466 L11.9877301,34.997955 L13.8364008,34.997955 L14.9366053,47.3619632 C14.9202454,48.208589 14.0736196,48.8957055 13.0388548,48.8957055 Z" id="Shape"></path>
                </g>
            </g>
        </g>
    </g>
</svg>