<?xml version="1.0" encoding="utf-8"?>
<!-- Generator: Adobe Illustrator 16.0.3, SVG Export Plug-In . SVG Version: 6.00 Build 0)  -->
<!DOCTYPE svg PUBLIC "-//W3C//DTD SVG 1.1//EN" "http://www.w3.org/Graphics/SVG/1.1/DTD/svg11.dtd">
<svg version="1.1" id="Layer_1" xmlns="http://www.w3.org/2000/svg" xmlns:xlink="http://www.w3.org/1999/xlink" x="0px" y="0px"
	 width="17px" height="20px" viewBox="0 0 17 20" enable-background="new 0 0 17 20" xml:space="preserve">
<g id="Product-List-Offsite">
	<g id="Desktop-HD" transform="translate(-1267.000000, -31.000000)">
		<g id="Menu" transform="translate(101.000000, 1.000000)">
			<g id="Basket" transform="translate(1166.000000, 0.000000)">
				<path id="Shape" fill="#FFFFFF" d="M16.037,47.288l-1.146-12.896c-0.024-0.286-0.266-0.503-0.548-0.503h-2.355
					C11.955,31.738,10.196,30,8.037,30c-2.159,0-3.918,1.738-3.951,3.89H1.73c-0.286,0-0.523,0.217-0.548,0.503L0.037,47.288
					c0,0.017-0.004,0.033-0.004,0.05C0.033,48.806,1.378,50,3.035,50h10.004c1.656,0,3.002-1.194,3.002-2.662
					C16.041,47.321,16.041,47.305,16.037,47.288z M8.037,31.104c1.55,0,2.814,1.243,2.846,2.785H5.19
					C5.223,32.348,6.487,31.104,8.037,31.104z M13.039,48.896H3.035c-1.039,0-1.881-0.687-1.897-1.534l1.096-12.363h1.849v1.677
					c0,0.307,0.245,0.552,0.552,0.552c0.307,0,0.552-0.246,0.552-0.552v-1.677h5.697v1.677c0,0.307,0.246,0.552,0.553,0.552
					s0.553-0.246,0.553-0.552v-1.677h1.848l1.101,12.363C14.92,48.209,14.074,48.896,13.039,48.896z"/>
			</g>
		</g>
	</g>
</g>
</svg>
