<svg id="Layer_1" data-name="Layer 1" xmlns="http://www.w3.org/2000/svg" viewBox="0 0 273.43 51.13"><defs><style>.cls-1,.cls-2{fill:#fff;}.cls-1{fill-rule:evenodd;}</style></defs><title>Hubbingtons white</title><path class="cls-1" d="M21.61,91.67h-2l.12-.31,4.12-10.55.05-.13H25.7l.05.13,4.12,10.55.11.31H27.82l-.05-.14-.9-2.4H22.7l-.91,2.4-.05.14Zm3.17-8-1.31,3.43h2.64l-1.33-3.43Zm16,8H34V80.76h2v8.8H41v2.11Zm11.21,0H45.23V80.76h2v8.8h4.92v2.11Zm7.6-3.7H55.44V85.75h4.34V88Zm5.22,3.7h-2l.12-.31,4.12-10.55.05-.13H68.9l0,.13,4.12,10.55.12.31H71l0-.14-.89-2.4H65.9L65,91.53l0,.14Zm3.17-8-1.31,3.43h2.64L68,83.64Zm11.06,8H77.23V80.76h2l.06.1L82,85.52l2.69-4.66.05-.1h2V91.67h-2v-7L82.18,89l-.06.1h-.26L81.8,89l-2.57-4.31v7Zm19.92,0h-7.2V80.76h7.33v2.07h-5.3v2.3h4.69v2.08H93.79v2.37h5.36v2.09Zm6.52,0h-1.84V80.76H108a4.43,4.43,0,0,1,1.6.28,3.24,3.24,0,0,1,1.23.82h0a3.33,3.33,0,0,1,.62,1.09h0a4.25,4.25,0,0,1,.21,1.32v0a3.62,3.62,0,0,1-.62,2.14,3.3,3.3,0,0,1-1.5,1.15l2.38,3.72.21.35h-2.41l-.06-.1L107.44,88h-1.77v3.66Zm.19-8.8V86h2.22a1.88,1.88,0,0,0,1.28-.43,1.43,1.43,0,0,0,.45-1.1v0a1.43,1.43,0,0,0-.43-1.11,2,2,0,0,0-1.32-.4Zm12.49,8.8h-1.83V80.76h2V91.67Zm12.05-.35a4.86,4.86,0,0,1-5.8-1.09,6,6,0,0,1-1.43-4v0a6,6,0,0,1,1.45-4A4.67,4.67,0,0,1,128,80.58a4.93,4.93,0,0,1,2.22.47,5.36,5.36,0,0,1,1.58,1.22l.13.14-.12.16-1.05,1.36-.13.16-.15-.14a4.35,4.35,0,0,0-1.14-.91A2.76,2.76,0,0,0,128,82.7a2.66,2.66,0,0,0-2.06,1h0a3.86,3.86,0,0,0-.84,2.49v0a3.94,3.94,0,0,0,.85,2.51,2.62,2.62,0,0,0,2,1,2.8,2.8,0,0,0,1.39-.34h0a5,5,0,0,0,1.17-1l.13-.15.14.16,1.05,1.19.13.15-.13.15a5.61,5.61,0,0,1-1.66,1.4Zm7.06.35h-2l.11-.31,4.12-10.55,0-.13h1.78l.05.13,4.12,10.55.12.31h-2.16l0-.14-.9-2.4h-4.18l-.91,2.4-.05.14Zm3.17-8-1.32,3.43h2.64l-1.32-3.43Zm11.05,8h-1.81V80.76h1.81l.06.08,4.67,6.75V80.76h2V91.67h-1.66l-.06-.09-4.82-7v7Zm17.53,0h-1.84V80.76h7.35v2.11h-5.32v2.42h4.72V87.4h-4.72v4.27Zm17-1.14a4.37,4.37,0,0,1-6.2,0A5.3,5.3,0,0,1,178.73,87V80.76h2v6.17a3.29,3.29,0,0,0,.57,2.07,2,2,0,0,0,1.61.71,2,2,0,0,0,1.59-.69h0a3.12,3.12,0,0,0,.56-2V80.76h2v6.15A5.4,5.4,0,0,1,186,90.53Zm7.74,1.14h-1.84V80.76h4.37a4.49,4.49,0,0,1,1.61.28,3.32,3.32,0,0,1,1.23.82h0a3.16,3.16,0,0,1,.62,1.09h0a4,4,0,0,1,.21,1.32v0a3.69,3.69,0,0,1-.61,2.14,3.38,3.38,0,0,1-1.51,1.15l2.38,3.72.22.35H198l-.06-.1L195.72,88H194v3.66Zm.2-8.8V86h2.21a1.88,1.88,0,0,0,1.28-.43,1.43,1.43,0,0,0,.45-1.1v0a1.43,1.43,0,0,0-.43-1.11h0a2,2,0,0,0-1.31-.4Zm12.37,8.8h-1.81V80.76h1.81l.06.08,4.67,6.75V80.76h2V91.67H211.4l-.06-.09-4.82-7v7Zm13.61,0H218.1V80.76h2V91.67Zm9.38,0h-1.85V82.89h-3V80.76h8v2.13h-3v8.78Zm14.59-1.14a4.37,4.37,0,0,1-6.2,0,5.25,5.25,0,0,1-1.1-3.55V80.76h2v6.17a3.29,3.29,0,0,0,.57,2.07,2,2,0,0,0,1.6.71,2,2,0,0,0,1.61-.69h0a3.18,3.18,0,0,0,.56-2V80.76h2v6.15a5.45,5.45,0,0,1-1.1,3.62Zm7.73,1.14h-1.83V80.76h4.36a4.39,4.39,0,0,1,1.6.28,3.28,3.28,0,0,1,1.24.82h0a3.16,3.16,0,0,1,.62,1.09h0a4,4,0,0,1,.21,1.32v0a3.62,3.62,0,0,1-.62,2.14,3.3,3.3,0,0,1-1.5,1.15l2.38,3.72.22.35H255.9l-.06-.1L253.6,88h-1.77v3.66Zm.19-8.8V86h2.22a1.88,1.88,0,0,0,1.28-.43,1.43,1.43,0,0,0,.45-1.1v0a1.43,1.43,0,0,0-.43-1.11h0a2,2,0,0,0-1.32-.4Zm17.77,8.8h-7.2V80.76h7.33v2.07h-5.3v2.3h4.69v2.08h-4.69v2.37h5.36v2.09Z" transform="translate(-7.28 -40.71)"/><path class="cls-2" d="M27.07,41.2h5.31V70H27.07V57H12.59V70H7.28V41.2h5.31V52.77H27.07ZM56,58.17c0,5.38-2.51,8.22-7.28,8.22-4.48,0-7-2.92-7-8.22v-17H36.43V58.05c0,8,4.31,12.36,12.13,12.36,8.1,0,12.74-4.55,12.74-12.49V41.2H56Zm30.85,3.36a7.38,7.38,0,0,1-3,6c-2.26,1.81-6,2.7-11.43,2.7a58.13,58.13,0,0,1-6.52-.33l-.49-.06V41.72l.45-.09A42.47,42.47,0,0,1,73.56,41c4.25,0,7.06.65,9.11,2.11a6.09,6.09,0,0,1,3,5.34c0,2.55-1.65,4.78-4.41,6C84.06,55.5,86.83,57.76,86.83,61.53ZM80.27,48.82c0-2.63-2.18-4-6.47-4a26,26,0,0,0-3.13.16v7.92h3.22C77.71,52.94,80.27,51.28,80.27,48.82Zm1,12.67c0-4.43-5.94-4.78-7.76-4.78H70.67v9.5c.72.07,1.65.1,2.94.1C76.49,66.31,81.32,65.68,81.32,61.49Zm29.41,0a7.38,7.38,0,0,1-3,6c-2.26,1.81-6,2.7-11.43,2.7a58,58,0,0,1-6.52-.33l-.49-.06V41.72l.45-.09A42.47,42.47,0,0,1,97.46,41c4.25,0,7.06.65,9.11,2.11a6.09,6.09,0,0,1,3,5.34c0,2.55-1.65,4.78-4.41,6C108,55.5,110.73,57.76,110.73,61.53Zm-6.56-12.71c0-2.63-2.18-4-6.47-4a26,26,0,0,0-3.13.16v7.92h3.22C101.61,52.94,104.17,51.28,104.17,48.82Zm1,12.67c0-4.43-5.94-4.78-7.76-4.78H94.57v9.5c.72.07,1.65.1,2.94.1C100.39,66.31,105.22,65.68,105.22,61.49ZM113.15,70h5.32V41.2h-5.32Zm29.74-16.63c0,3.26.05,6.15.28,9.15-1.22-2.08-2.74-4.38-4.68-7.06L128.05,41.2h-5.43V70h5V57.59c0-3.67,0-6.54-.17-9.34,1.26,2.14,2.88,4.56,5,7.46L142.87,70h5V41.2h-5Zm23.13,5h6.5v7.3a16.47,16.47,0,0,1-5,.57c-7.32,0-11.87-4.07-11.87-10.61S160.41,45,168.06,45A18.06,18.06,0,0,1,175,46.17l.54.22,1.43-4-.49-.21a24,24,0,0,0-8.3-1.31c-10.76,0-18,6-18,14.83a13.73,13.73,0,0,0,4.7,10.72c3.1,2.55,7.16,3.78,12.4,3.78a34.09,34.09,0,0,0,10.11-1.54l.38-.13V54.33H166Zm36.2-17.12h-25v4.15h9.8V70h5.32V45.35h9.85ZM230,55.3c0,9-6.24,15.11-15.52,15.11-8.85,0-15-6-15-14.62,0-8.88,6.37-15.08,15.47-15.08S230,46.57,230,55.3Zm-5.51.16c0-5.16-3-10.72-9.72-10.72s-9.82,5.51-9.82,11c0,5.14,3.06,10.68,9.77,10.68S224.53,60.9,224.53,55.46Zm28.06-2.13c0,3.26,0,6.16.28,9.15-1.22-2.08-2.74-4.38-4.68-7.06L237.75,41.2h-5.43V70h5V57.59c0-3.66,0-6.53-.16-9.34,1.25,2.14,2.88,4.56,5,7.46L252.58,70h5V41.2h-5Zm28.12,8.53c0-4.08-2.56-6.66-8.56-8.65-4.56-1.51-6-2.68-6-4.8,0-1.79,1.71-3.59,5.51-3.59a12.64,12.64,0,0,1,5.82,1.25l.54.29,1.57-4-.46-.23a16.38,16.38,0,0,0-7.32-1.42c-6.46,0-11,3.32-11,8.07,0,3.84,2.83,6.51,8.9,8.4,4.73,1.52,5.68,3,5.68,4.93,0,2.57-2.37,4.16-6.18,4.16a15.14,15.14,0,0,1-7.14-1.74l-.57-.31-1.48,4,.4.24a19.63,19.63,0,0,0,8.5,1.87C277.62,70.41,280.71,65.81,280.71,61.86Z" transform="translate(-7.28 -40.71)"/></svg>