<svg width="15px" height="15px" viewBox="0 0 15 15" version="1.1" xmlns="http://www.w3.org/2000/svg" xmlns:xlink="http://www.w3.org/1999/xlink">
    <g id="Product-List-Offsite" stroke="none" stroke-width="1" fill="none" fill-rule="evenodd">
        <g id="Desktop-HD" transform="translate(-101.000000, -34.000000)" fill="#000000" fill-rule="nonzero">
            <g id="Menu" transform="translate(101.000000, 1.000000)">
                <g id="Search" transform="translate(0.000000, 33.000000)">
                    <path d="M14.7857143,13.9168831 L10.6246753,9.71688312 C11.438961,8.6961039 11.9298701,7.4025974 11.9298701,5.9961039 C11.9298701,2.7038961 9.26103896,0.0350649351 5.96493506,0.0350649351 C2.66883117,0.0350649351 0,2.70779221 0,6 C0,9.29220779 2.66883117,11.961039 5.96493506,11.961039 C7.39090909,11.961039 8.6961039,11.4623377 9.72467532,10.6285714 L13.8584416,14.8012987 C13.9831169,14.9337662 14.1545455,15 14.3220779,15 C14.4818182,15 14.6415584,14.9415584 14.7623377,14.8246753 C15.0194805,14.5792208 15.0272727,14.174026 14.7857143,13.9168831 Z M5.96493506,10.6792208 C4.71428571,10.6792208 3.53766234,10.1922078 2.65324675,9.30779221 C1.76883117,8.42337662 1.28181818,7.24675325 1.28181818,6 C1.28181818,4.74935065 1.76883117,3.57272727 2.65324675,2.69220779 C3.53766234,1.80779221 4.71428571,1.32077922 5.96493506,1.32077922 C7.21558442,1.32077922 8.39220779,1.80779221 9.27662338,2.69220779 C10.161039,3.57662338 10.6480519,4.75324675 10.6480519,6 C10.6480519,7.25064935 10.161039,8.42727273 9.27662338,9.30779221 C8.39220779,10.1922078 7.21558442,10.6792208 5.96493506,10.6792208 Z" id="Shape"></path>
                </g>
            </g>
        </g>
    </g>
</svg>