<?xml version="1.0" encoding="utf-8"?>
<!-- Generator: Adobe Illustrator 16.0.3, SVG Export Plug-In . SVG Version: 6.00 Build 0)  -->
<!DOCTYPE svg PUBLIC "-//W3C//DTD SVG 1.1//EN" "http://www.w3.org/Graphics/SVG/1.1/DTD/svg11.dtd">
<svg version="1.1" id="Layer_1" xmlns="http://www.w3.org/2000/svg" xmlns:xlink="http://www.w3.org/1999/xlink" x="0px" y="0px"
	 width="15px" height="15px" viewBox="0 0 15 15" enable-background="new 0 0 15 15" xml:space="preserve">
<g id="Product-List-Offsite">
	<g id="Desktop-HD" transform="translate(-101.000000, -34.000000)">
		<g id="Menu" transform="translate(101.000000, 1.000000)">
			<g id="Search" transform="translate(0.000000, 33.000000)">
				<path id="Shape" fill="#FFFFFF" d="M14.785,13.917l-4.16-4.2c0.814-1.021,1.305-2.314,1.305-3.721
					c0-3.292-2.668-5.961-5.965-5.961C2.669,0.035,0,2.708,0,6s2.669,5.961,5.965,5.961c1.426,0,2.731-0.498,3.76-1.332l4.134,4.172
					C13.982,14.934,14.154,15,14.322,15c0.16,0,0.319-0.059,0.439-0.176C15.02,14.579,15.027,14.174,14.785,13.917z M5.965,10.68
					c-1.25,0-2.427-0.487-3.312-1.372C1.769,8.424,1.282,7.247,1.282,6c0-1.25,0.487-2.427,1.372-3.308
					c0.884-0.885,2.061-1.372,3.312-1.372c1.251,0,2.428,0.487,3.313,1.372C10.161,3.577,10.648,4.753,10.648,6
					c0,1.25-0.487,2.428-1.371,3.308C8.393,10.192,7.216,10.68,5.965,10.68z"/>
			</g>
		</g>
	</g>
</g>
</svg>
