<svg id="svg" version="1.1" width="934" height="500" xmlns="http://www.w3.org/2000/svg" xmlns:xlink="http://www.w3.org/1999/xlink" style="display: block;"><g id="svgg"><path id="path0" d="" stroke="none" fill="#000000" fill-rule="evenodd"></path><path id="path1" d="M292.077 0.650 C 287.430 1.293,281.789 2.509,281.156 3.006 C 280.921 3.191,279.861 3.570,278.801 3.849 C 275.121 4.817,265.807 9.654,261.309 12.933 C 254.329 18.021,243.430 29.261,239.590 35.332 C 239.143 36.039,238.659 36.713,238.514 36.831 C 238.224 37.067,231.128 47.895,229.769 50.176 C 229.300 50.963,228.492 52.281,227.972 53.105 C 227.452 53.929,226.293 55.825,225.398 57.318 C 224.502 58.811,223.191 60.966,222.484 62.108 C 221.777 63.249,220.537 65.304,219.727 66.674 C 218.917 68.044,217.934 69.647,217.542 70.236 C 217.150 70.824,215.740 72.944,214.410 74.946 C 208.756 83.454,206.005 86.909,200.868 91.955 C 196.892 95.860,194.002 98.204,191.435 99.602 C 190.610 100.051,189.647 100.645,189.293 100.920 C 188.940 101.196,186.916 102.098,184.797 102.925 C 167.173 109.796,155.374 105.264,137.991 84.945 C 135.374 81.887,130.499 75.599,129.659 74.197 C 129.199 73.431,128.691 72.805,128.530 72.805 C 128.368 72.805,127.879 72.200,127.442 71.461 C 127.006 70.722,126.338 69.801,125.958 69.415 C 125.578 69.029,124.740 67.947,124.094 67.012 C 123.449 66.076,122.154 64.251,121.218 62.955 C 120.282 61.660,119.044 59.908,118.468 59.062 C 117.892 58.216,117.162 57.253,116.847 56.921 C 116.532 56.589,115.696 55.450,114.990 54.390 C 114.285 53.330,113.601 52.366,113.471 52.248 C 113.341 52.131,112.776 51.360,112.215 50.535 C 111.654 49.711,110.940 48.747,110.629 48.394 C 110.318 48.041,109.019 46.306,107.742 44.540 C 106.465 42.773,105.164 41.032,104.851 40.671 C 104.539 40.310,103.711 39.257,103.013 38.331 C 102.315 37.405,101.448 36.300,101.086 35.875 C 100.724 35.450,99.915 34.480,99.287 33.718 C 90.993 23.658,80.772 13.684,74.564 9.591 C 70.246 6.745,67.599 5.267,65.051 4.281 C 63.780 3.789,62.144 3.112,61.415 2.776 C 58.943 1.635,52.301 0.740,48.450 1.029 C 44.587 1.319,38.972 2.450,38.972 2.939 C 38.972 3.104,38.120 3.491,37.078 3.799 C 35.354 4.307,30.744 6.916,26.185 9.961 C 19.945 14.129,2.943 31.258,0.499 35.839 C 0.124 36.543,0.000 58.767,0.000 125.454 L 0.000 214.133 200.000 214.133 L 400.000 214.133 400.000 144.767 L 400.000 75.401 399.092 73.782 C 398.592 72.891,397.654 71.392,397.007 70.450 C 395.458 68.197,394.330 66.298,392.680 63.169 C 391.934 61.756,391.205 60.503,391.058 60.385 C 390.912 60.268,390.167 58.919,389.402 57.388 C 385.454 49.482,379.288 37.839,378.559 36.913 C 378.103 36.333,377.730 35.696,377.730 35.497 C 377.730 35.052,373.563 28.797,372.502 27.649 C 372.080 27.193,371.734 26.669,371.734 26.486 C 371.734 26.303,371.108 25.472,370.343 24.639 C 369.577 23.807,368.373 22.447,367.666 21.617 C 363.476 16.696,351.789 8.509,346.895 7.066 C 346.306 6.892,345.029 6.394,344.056 5.958 C 343.084 5.522,340.771 4.763,338.917 4.272 C 337.063 3.781,335.161 3.203,334.690 2.987 C 329.556 0.632,302.820 -0.834,292.077 0.650 " stroke="none" fill="#14869d" fill-rule="evenodd"></path><path id="path2" d="" stroke="none" fill="#00ffff" fill-rule="evenodd"></path><path id="path3" d="" stroke="none" fill="#000080" fill-rule="evenodd"></path><path id="path4" d="" stroke="none" fill="#0000ff" fill-rule="evenodd"></path></g></svg>