
<svg width="45px" height="41px" viewBox="0 0 45 41" version="1.1" xmlns="http://www.w3.org/2000/svg" xmlns:xlink="http://www.w3.org/1999/xlink">
    <g id="Symbols" stroke="none" stroke-width="1" fill="none" fill-rule="evenodd">
        <g id="a" transform="translate(-25.000000, -27.000000)" stroke="#FFFFFF">
            <g>
                <path d="M69,58.5740741 L69,64.191358 C66.9005425,65.9567901 63.9457505,67 59.8245931,67 C52.5153707,67 50.0271248,63.5493827 49.2495479,60.0987654 C47.2278481,64.8333333 42.8734177,67 36.9638336,67 C30.2766727,67 26,63.1481481 26,56.8888889 C26,50.2283951 31.5207957,47.5802469 40.1518987,47.5802469 C42.7179024,47.5802469 45.5949367,47.8209877 48.6274864,48.2222222 L48.6274864,41.5617284 C48.6274864,38.6728395 47.4611212,37.0679012 45.2061483,37.0679012 C42.8734177,37.0679012 41.9403255,38.4320988 41.9403255,40.2777778 C41.9403255,41 42.0958409,41.8024691 42.4068716,42.6851852 L28.0994575,46.1358025 C27.0108499,43.8888889 26.4665461,41.7222222 26.4665461,39.7962963 C26.4665461,32.7345679 33.3869801,28 45.9837251,28 C58.5027125,28 64.6455696,33.1358025 64.6455696,43.4074074 L64.6455696,56.0061728 C64.6455696,57.8518519 65.1121157,58.8950617 67.0560579,58.8950617 C67.8336347,58.8950617 68.4556962,58.8148148 69,58.5740741 Z M48.7052441,53.3580247 L48.7052441,52.6358025 C44.2730561,53.2777778 41.7070524,54 41.7070524,56.808642 C41.7070524,58.3333333 42.7179024,59.3765432 44.4285714,59.3765432 C47.8499096,59.3765432 48.7052441,56.2469136 48.7052441,53.3580247 Z"></path>
            </g>
        </g>
    </g>
</svg>