
<svg width="44px" height="56px" viewBox="0 0 44 56" version="1.1" xmlns="http://www.w3.org/2000/svg" xmlns:xlink="http://www.w3.org/1999/xlink">
    <g id="Symbols" stroke="none" stroke-width="1" fill="none" fill-rule="evenodd">
        <g id="b" transform="translate(-28.000000, -20.000000)" stroke="#FFFFFF">
            <path d="M71,55.5887574 C71,65.2544379 66.6444444,75 55.2111111,75 C48.0555556,75 43.3111111,69.8076923 41.7555556,63.7366864 L38.1777778,74.2011834 L29,74.2011834 L29,21 L45.0222222,21 L45.0222222,44.5650888 C46.7333333,40.1715976 50.6222222,36.1775148 56.4555556,36.1775148 C66.4111111,36.1775148 71,45.443787 71,55.5887574 Z M54.9777778,55.5887574 C54.9777778,49.3579882 53.2666667,45.9230769 50,45.9230769 C46.8111111,45.9230769 45.0222222,49.4378698 45.0222222,55.5887574 C45.0222222,61.4201183 46.8111111,65.2544379 49.9222222,65.2544379 C53.1111111,65.2544379 54.9777778,61.8994083 54.9777778,55.5887574 Z"></path>
        </g>
    </g>
</svg>