
<svg width="45px" height="42px" viewBox="0 0 45 42" version="1.1" xmlns="http://www.w3.org/2000/svg" xmlns:xlink="http://www.w3.org/1999/xlink">
    <g id="Symbols" stroke="none" stroke-width="1" fill="none" fill-rule="evenodd">
        <g id="icon/email" transform="translate(-25.000000, -27.000000)" fill="#F9F7F7">
            <path d="M50.0497885,42.0891368 C49.8356539,42.0261505 49.4668664,41.9395445 48.9711843,41.9395445 C47.0756962,41.9395445 45.5470127,43.7149686 45.5470127,45.7895773 C45.5470127,46.730434 46.018902,47.4154091 46.9686288,47.4154091 C48.2177476,47.4154091 49.3597991,45.8328803 49.5957437,44.506233 L50.0497885,42.0891368 Z M47.3988809,52.1866154 C43.8656591,52.1866154 40.8697568,49.6179586 40.8697568,45.5120442 C40.8697568,41.104977 43.9509165,37.2982473 48.7352397,37.2982473 C52.4845788,37.2982473 55.0046264,39.9082388 55.0046264,43.4787703 C55.0046264,46.6871309 53.1943955,48.5708126 51.1680472,48.5708126 C50.3075432,48.5708126 49.5104864,47.994095 49.5759165,46.6871309 L49.4886764,46.6871309 C48.7352397,47.950792 47.7438756,48.5708126 46.4511368,48.5708126 C45.202018,48.5708126 44.1234138,47.5650014 44.1234138,45.874215 C44.1234138,43.2228887 46.2350194,40.8057925 49.2309217,40.8057925 C50.1568558,40.8057925 50.9757226,40.9986878 51.534852,41.2565376 L50.805208,45.1262536 C50.4800405,46.7520855 50.7397779,47.5020152 51.4495946,47.5236667 C52.5500088,47.5453182 53.7773176,46.0907302 53.7773176,43.6086794 C53.7773176,40.5066079 51.9036394,38.282407 48.5627423,38.282407 C45.0513306,38.282407 42.0990483,41.0419908 42.0990483,45.3821352 C42.0990483,48.9546349 44.4465985,51.1591527 47.6348255,51.1591527 C48.864117,51.1591527 50.0061685,50.9032712 50.8904653,50.4111913 L51.23546,51.3303965 C50.0497885,51.9504171 48.8442897,52.1866154 47.3988809,52.1866154 L47.3988809,52.1866154 Z M68.635883,43.5594714 L47.7161174,61.1444372 L47.6982728,61.1286906 L38.6411703,53.6608867 L26.364117,43.5397882 L26.364117,67.6477646 L68.635883,67.6477646 L68.635883,43.5594714 Z M26.8260927,42.1639329 L29.8120814,44.6243322 L29.8120814,40.2212016 L26.8260927,42.1639329 Z M31.1742157,45.7167495 L39.5096052,52.6176774 L47.6724974,59.3768863 L47.6903419,59.3611398 L63.8218188,45.7206861 L63.8218188,39.2901865 L63.8218188,37.6643547 L63.8218188,32.4837379 L55.9603014,32.4837379 L53.4957702,32.4837379 L41.7025026,32.4837379 L39.2161614,32.4837379 L31.1742157,32.4837379 L31.1742157,37.715531 L31.1742157,39.3354579 L31.1742157,45.7167495 Z M43.7843673,31.1295342 L51.4416637,31.1295342 L47.6368082,28.6218952 L43.7843673,31.1295342 Z M65.1859358,44.6853501 L68.1838209,42.1659012 L65.1859358,40.1877402 L65.1859358,44.6853501 Z M70,41.7368076 L70,69 L25,69 L25,41.7328709 L29.8120814,38.603243 L29.8120814,31.1295342 L41.2960434,31.1295342 L47.6427564,27 L53.9061949,31.1295342 L65.1859358,31.1295342 L65.1859358,38.5638767 L70,41.7368076 Z M47.6903419,59.3611398 L39.5096052,52.6176774 L47.6724974,59.3768863 L47.6903419,59.3611398 Z M38.6411703,53.6608867 L47.6982728,61.1286906 L47.6784455,61.1464055 L38.6411703,53.6608867 Z" id="Fill-4"></path>
        </g>
    </g>
</svg>