
<svg width="47px" height="47px" viewBox="0 0 47 47" version="1.1" xmlns="http://www.w3.org/2000/svg" xmlns:xlink="http://www.w3.org/1999/xlink">
    <g id="Symbols" stroke="none" stroke-width="1" fill="none" fill-rule="evenodd">
        <g id="icon/phone" transform="translate(-25.000000, -25.000000)" fill="#FFFFFF">
            <path d="M32.9723242,25.979548 C32.3096839,25.979548 31.6450831,26.2304377 31.1412412,26.7361374 L27.3281187,30.5484853 C23.3346325,34.5431202 28.7043717,46.6603104 39.0576365,57.011472 C49.4089408,67.3606735 61.5266325,72.7312818 65.5240396,68.7366469 L69.3371622,64.924299 C70.344846,63.9148598 70.344846,62.2742761 69.3371622,61.264837 L62.3186642,54.2477647 C61.3070594,53.2383256 59.6661424,53.2383256 58.6604191,54.2477647 L56.2941266,56.6116164 C54.3062057,58.6030537 49.0462531,56.4646107 44.325431,51.7427875 C39.6046088,47.0229244 37.4657313,41.7679606 39.4575732,39.7765233 L41.8219053,37.4126716 C42.8295891,36.4032324 42.8295891,34.7626488 41.8219053,33.7551697 L34.8014468,26.7361374 C34.2976049,26.2304377 33.6349646,25.979548 32.9723242,25.979548 M28.1917042,28.3004619 C28.196965,28.2946188 28.2023901,28.2888713 28.2079796,28.2832254 C28.2146875,28.2764497 28.2215441,28.2699131 28.2285392,28.2636154 L30.4491938,26.0422704 C31.8391701,24.6525765 34.1035179,24.6525765 35.4934942,26.0422704 L42.5139527,33.0613028 C43.903929,34.4509967 43.903929,36.7148845 42.5139527,38.1065385 L40.3235375,40.2946943 C40.3094631,40.3137914 40.2938371,40.3321023 40.2766594,40.3494535 C40.2589322,40.3671771 40.2401368,40.383232 40.220495,40.3976305 L40.1476602,40.4703902 C38.7694468,41.8483237 40.3966404,46.4309815 45.0194389,51.0508807 C49.6383163,55.6707799 54.2219053,57.2996031 55.6001187,55.9177495 L57.9664112,53.5538978 C59.3563875,52.1622438 61.6187748,52.1642039 63.0107116,53.5538978 L70.0292096,60.5729301 C70.7036128,61.2471963 71.0761029,62.142951 71.0761029,63.095548 C71.0761029,64.0461849 70.7036128,64.9419396 70.0292096,65.6162058 L66.2180476,69.4285537 C65.1084191,70.5379567 63.5341582,71.0652172 61.6285772,71.0652172 C55.7608776,71.0652172 46.7368144,66.0787837 38.3636286,57.7033788 C27.2653835,46.6073883 22.1152175,34.3765138 26.6360713,29.8565784 L28.1917042,28.3004619 Z" id="Fill-32"></path>
        </g>
    </g>
</svg>