
<svg width="57px" height="41px" viewBox="0 0 57 41" version="1.1" xmlns="http://www.w3.org/2000/svg" xmlns:xlink="http://www.w3.org/1999/xlink">
    <g id="Symbols" stroke="none" stroke-width="1" fill="none" fill-rule="evenodd">
        <g id="icon/review" transform="translate(-19.000000, -28.000000)" fill="#FFFFFF">
            <path d="M25.4342767,60.1295665 C25.0715889,60.1648479 24.8069249,60.4843403 24.840253,60.8469544 C24.8755415,61.2095684 25.1950988,61.4761388 25.5577866,61.4408574 L41.2984348,61.4408574 C41.6591621,61.4467376 41.9591146,61.1566464 41.9630356,60.7940323 C41.968917,60.4333783 41.6787668,60.1354468 41.3180395,60.1295665 L41.2984348,60.1295665 L25.5577866,60.1295665 C25.5381818,60.1295665 25.5166166,60.1295665 25.4950514,60.1295665 C25.4754466,60.1295665 25.4558419,60.1295665 25.4342767,60.1295665 L25.4342767,60.1295665 Z M25.4342767,54.2277776 C25.0715889,54.2630589 24.8069249,54.5825513 24.840253,54.9451654 C24.8755415,55.3077795 25.1950988,55.5743498 25.5577866,55.5390684 L46.544664,55.5390684 C46.9073518,55.5449487 47.2033834,55.2548574 47.2092648,54.8942034 C47.2151462,54.5315894 46.924996,54.2336578 46.5623083,54.2277776 L46.544664,54.2277776 L25.5577866,54.2277776 C25.5381818,54.2277776 25.5166166,54.2277776 25.4950514,54.2277776 C25.4754466,54.2277776 25.4558419,54.2277776 25.4342767,54.2277776 L25.4342767,54.2277776 Z M25.4342767,48.9826141 C25.0715889,49.0178954 24.8069249,49.3373878 24.840253,49.7000019 C24.8755415,50.062616 25.1950988,50.3291863 25.5577866,50.2939049 L41.2984348,50.2939049 C41.6591621,50.2997852 41.9591146,50.0096939 41.9630356,49.6470798 C41.968917,49.2864259 41.6787668,48.9884943 41.3180395,48.9826141 L41.2984348,48.9826141 L25.5577866,48.9826141 C25.5381818,48.9826141 25.5166166,48.9826141 25.4950514,48.9826141 C25.4754466,48.9826141 25.4558419,48.9826141 25.4342767,48.9826141 L25.4342767,48.9826141 Z M25.4342767,43.0808251 C25.0715889,43.1161065 24.8069249,43.4355989 24.840253,43.7982129 C24.8755415,44.160827 25.1950988,44.4273973 25.5577866,44.392116 L49.1677787,44.392116 C49.5304664,44.3979962 49.826498,44.1079049 49.8323794,43.747251 C49.8382609,43.3846369 49.5500711,43.0867053 49.1854229,43.0808251 L49.1677787,43.0808251 L25.5577866,43.0808251 C25.5381818,43.0808251 25.5166166,43.0808251 25.4950514,43.0808251 C25.4754466,43.0808251 25.4558419,43.0808251 25.4342767,43.0808251 L25.4342767,43.0808251 Z M59.6621976,41.7695342 C63.292996,41.7695342 66.2199842,44.6978878 66.2199842,48.3279487 C66.2199842,51.9560494 63.292996,54.884403 59.6621976,54.884403 C56.0313992,54.884403 53.1024506,51.9560494 53.1024506,48.3279487 C53.1024506,44.6978878 56.0313992,41.7695342 59.6621976,41.7695342 L59.6621976,41.7695342 Z M20.3115573,37.1809962 L62.2853123,37.1809962 L62.2853123,40.9090608 C61.461913,40.6170095 60.5836206,40.4582433 59.6621976,40.4582433 C55.3217075,40.4582433 51.7908933,43.9903004 51.7908933,48.3279487 C51.7908933,52.665597 55.3217075,56.1956939 59.6621976,56.1956939 C60.5836206,56.1956939 61.461913,56.0388878 62.2853123,55.7448764 L62.2853123,65.37473 C62.2853123,66.4762928 61.4168221,67.3426464 60.316996,67.3426464 L22.2798735,67.3426464 C21.178087,67.3426464 20.3115573,66.4762928 20.3115573,65.37473 L20.3115573,37.1809962 Z M58.3486798,31.9338726 C58.72117,31.9338726 59.0054387,32.2200437 59.0054387,32.5904981 C59.0054387,32.9609525 58.72117,33.2471236 58.3486798,33.2471236 C57.9801107,33.2471236 57.6938814,32.9609525 57.6938814,32.5904981 C57.6938814,32.2200437 57.9801107,31.9338726 58.3486798,31.9338726 L58.3486798,31.9338726 Z M52.4456917,31.9338726 C52.8181818,31.9338726 53.1024506,32.2200437 53.1024506,32.5904981 C53.1024506,32.9609525 52.8181818,33.2471236 52.4456917,33.2471236 C52.0771225,33.2471236 51.7908933,32.9609525 51.7908933,32.5904981 C51.7908933,32.2200437 52.0771225,31.9338726 52.4456917,31.9338726 L52.4456917,31.9338726 Z M58.3486798,30.6225817 C57.270419,30.6225817 56.3823241,31.5104962 56.3823241,32.5904981 C56.3823241,33.6685399 57.270419,34.5584144 58.3486798,34.5584144 C59.4289012,34.5584144 60.316996,33.6685399 60.316996,32.5904981 C60.316996,31.5104962 59.4289012,30.6225817 58.3486798,30.6225817 L58.3486798,30.6225817 Z M52.4456917,30.6225817 C51.3693913,30.6225817 50.479336,31.5104962 50.479336,32.5904981 C50.479336,33.6685399 51.3693913,34.5584144 52.4456917,34.5584144 C53.525913,34.5584144 54.4140079,33.6685399 54.4140079,32.5904981 C54.4140079,31.5104962 53.525913,30.6225817 52.4456917,30.6225817 L52.4456917,30.6225817 Z M22.2798735,29.3112909 L60.316996,29.3112909 C61.4168221,29.3112909 62.2853123,30.1776445 62.2853123,31.2792072 L62.2853123,35.8697053 L20.3115573,35.8697053 L20.3115573,31.2792072 C20.3115573,30.1776445 21.178087,29.3112909 22.2798735,29.3112909 L22.2798735,29.3112909 Z M22.2798735,28 C20.4742767,28 19,29.4739772 19,31.2792072 L19,65.37473 C19,67.1799601 20.4742767,68.6539373 22.2798735,68.6539373 L60.316996,68.6539373 C62.1225929,68.6539373 63.5968696,67.1799601 63.5968696,65.37473 L63.5968696,55.1509734 C64.0046482,54.9138042 64.3849802,54.6335133 64.743747,54.3316616 L74.2736126,63.879192 C74.5343557,64.1398821 74.9578182,64.1398821 75.2185613,63.879192 C75.4773439,63.6185019 75.4773439,63.1970856 75.2185613,62.9363954 L65.66517,53.4084658 C66.8316522,52.0344525 67.5315415,50.2605837 67.5315415,48.3279487 C67.5315415,45.4191958 65.9513992,42.8691369 63.5968696,41.504924 L63.5968696,31.2792072 C63.5968696,29.4739772 62.1225929,28 60.316996,28 L22.2798735,28 Z" id="Fill-30"></path>
        </g>
    </g>
</svg>