
<svg width="542px" height="558px" viewBox="0 0 542 558" version="1.1" xmlns="http://www.w3.org/2000/svg" xmlns:xlink="http://www.w3.org/1999/xlink">
    <g id="Page-1" stroke="none" stroke-width="1" fill="none" fill-rule="evenodd">
        <g id="07_Process_dsk" transform="translate(-447.000000, -2424.000000)">
            <rect fill="none" x="0" y="0" width="1440" height="3731"></rect>
            <g id="03" transform="translate(0.000000, 2277.000000)">
                <g id="thermostate" transform="translate(447.000000, 146.000000)">
                    <g id="thermo">
                        <g id="Group">
                            <path d="M0.66175415,278.842723 L40.2491771,278.842723 L40.2748846,280.240146 L0.663896443,280.240146 C0.663896443,279.775765 0.66175415,279.309244 0.66175415,278.842723" id="Fill-38" fill="#FFFFFF"></path>
                            <path d="M116.659394,53.1640118 C124.487331,63.9410765 132.315268,74.7160012 140.141062,85.4909259 C139.459813,86.000247 138.776422,86.5095682 138.095173,87.0167494 C130.228675,76.3188649 122.362177,65.6209804 114.493537,54.9230959 C115.215489,54.3367345 115.937442,53.7503732 116.659394,53.1640118" id="Fill-40" fill="#FFFFFF"></path>
                            <path d="M280.371244,1.07244052 C280.362675,14.385411 280.351964,27.7005215 280.343394,41.013492 C279.492904,41.024192 278.642414,41.034892 277.791924,41.0455921 C277.723371,27.7732817 277.652675,14.4966913 277.586264,1.22438087 C278.516019,1.17302075 279.443632,1.12380064 280.371244,1.07244052" id="Fill-42" fill="#FFFFFF"></path>
                            <path d="M86.9329439,421.370259 C76.174351,429.185557 65.4157581,437.000855 54.6571652,444.816153 C54.128019,444.094971 53.5988727,443.37593 53.0697265,442.654748 C63.7919004,434.86513 74.5162166,427.077652 85.2383905,419.288034 C85.8039557,419.983536 86.3673787,420.676898 86.9329439,421.370259" id="Fill-44" fill="#FFFFFF"></path>
                            <path d="M192.242258,544.66921 C196.334037,532.088121 200.423674,519.504892 204.515452,506.921663 C205.329523,507.184884 206.143594,507.445964 206.959808,507.709185 C202.883025,520.294554 198.8041,532.882063 194.727318,545.469571 L192.242258,544.66921 Z" id="Fill-46" fill="#FFFFFF"></path>
                            <path d="M54.6751605,114.724677 C65.4101881,122.503595 76.1430735,130.280372 86.8759589,138.05715 C86.3446704,138.804012 85.8155241,139.553014 85.2842356,140.297735 C74.527785,132.484578 63.7691921,124.66928 53.0127415,116.856122 C53.565453,116.14564 54.1203067,115.435158 54.6751605,114.724677" id="Fill-48" fill="#FFFFFF"></path>
                            <path d="M114.439765,504.706116 C122.289125,493.933331 130.138485,483.160547 137.987844,472.387762 C138.722651,472.909923 139.457457,473.432084 140.190121,473.952106 C132.366469,484.71847 124.542817,495.482695 116.719164,506.24906 C115.960793,505.733318 115.198137,505.219717 114.439765,504.706116" id="Fill-50" fill="#FFFFFF"></path>
                            <path d="M51.7149407,207.060538 C39.0925534,202.977409 26.470166,198.89428 13.8456364,194.80901 C14.1091383,193.991528 14.3747826,193.174047 14.6404269,192.354425 C27.1985455,196.411874 39.7523794,200.469323 52.3083557,204.528913 C52.1134071,205.372074 51.9141739,206.215236 51.7149407,207.060538" id="Fill-54" fill="#FFFFFF"></path>
                            <path d="M194.754739,14.1549325 C198.816526,26.6568411 202.878312,39.1587498 206.940099,51.6585184 C206.151735,51.928159 205.363372,52.1999396 204.575008,52.4695802 C200.461806,40.0468518 196.348605,27.6219833 192.233261,15.1971149 C193.075182,14.8504341 193.91496,14.5037533 194.754739,14.1549325" id="Fill-58" fill="#FFFFFF"></path>
                            <path d="M13.9004791,364.676821 C26.4436016,360.621512 38.9888664,356.566203 51.5298466,352.510893 C51.7976332,353.326235 52.0654198,354.141577 52.331064,354.956919 C39.7900838,359.014368 27.244819,363.069678 14.7038387,367.127127 C14.4360522,366.309645 14.1682656,365.494303 13.9004791,364.676821" id="Fill-60" fill="#FFFFFF"></path>
                            <path d="M39.3402024,342.795057 L9.56662134,350.481955 C9.33739605,349.623813 9.10817075,348.767811 8.87894545,347.911809 C18.8491747,345.328823 28.8172617,342.747977 38.7853486,340.164991 C38.9695858,341.042393 39.1559652,341.917655 39.3402024,342.795057" id="Fill-62" fill="#FFFFFF"></path>
                            <path d="M350.487406,9.92200279 L342.7623,39.6060108 C341.926806,39.3962903 341.091311,39.1887098 340.260102,38.9811293 C342.822284,29.0836067 345.386608,19.186084 347.94879,9.29070134 C348.794995,9.50042182 349.639058,9.7101423 350.487406,9.92200279" id="Fill-64" fill="#FFFFFF"></path>
                            <path d="M122.364534,471.956123 L102.876099,495.382757 C102.201277,494.839195 101.524312,494.297774 100.84949,493.756353 C107.30636,485.913235 113.761087,478.070117 120.217957,470.226999 C120.933482,470.8048 121.649008,471.380462 122.364534,471.956123" id="Fill-66" fill="#FFFFFF"></path>
                            <path d="M87.6632514,482.229859 C94.6578364,474.737701 101.648137,467.247684 108.640579,459.755527 C109.311117,460.350448 109.981655,460.94751 110.652192,461.542431 C103.625473,469.066688 96.6008957,476.590946 89.5763186,484.115203 C88.9379154,483.486041 88.3016545,482.85688 87.6632514,482.229859" id="Fill-68" fill="#FFFFFF"></path>
                            <path d="M172.781674,55.7397217 C168.419966,46.5270006 164.058258,37.3121395 159.696551,28.0972784 L161.9481,27.0015959 C166.3398,36.1629569 170.733642,45.3243179 175.125342,54.4856789 C174.343405,54.9029798 173.561468,55.3224208 172.781674,55.7397217" id="Fill-70" fill="#FFFFFF"></path>
                            <path d="M89.0523138,439.093352 C81.2136656,445.592547 73.3728751,452.091742 65.5320846,458.588796 C64.9558079,457.916835 64.3795312,457.242733 63.8032545,456.570772 C71.6354759,450.048037 79.4676972,443.525302 87.2999186,437.002567 C87.8847644,437.700209 88.4696103,438.39571 89.0523138,439.093352" id="Fill-72" fill="#FFFFFF"></path>
                            <path d="M55.6207684,386.619362 C46.2889423,390.972132 36.9528316,395.327042 27.6188632,399.679811 C27.2525312,398.89015 26.8840569,398.100488 26.5155826,397.310826 C35.8324126,392.913116 45.1449581,388.517546 54.4617881,384.121976 C54.8474008,384.954438 55.2330134,385.7869 55.6207684,386.619362" id="Fill-74" fill="#FFFFFF"></path>
                            <path d="M325.035043,35.7097039 L330.684269,6.22043631 C331.506909,6.36809665 332.329549,6.51575699 333.15219,6.66341733 L327.70434,35.9857645 C326.815289,35.8937443 325.924095,35.8017241 325.035043,35.7097039" id="Fill-76" fill="#FFFFFF"></path>
                            <path d="M175.800592,538.606576 C179.511043,529.137054 183.225778,519.669672 186.936228,510.202291 C187.765296,510.514731 188.592221,510.827172 189.417003,511.139613 C185.670134,520.594154 181.923264,530.050836 178.176394,539.505378 C177.383746,539.205777 176.59324,538.906176 175.800592,538.606576" id="Fill-78" fill="#FFFFFF"></path>
                            <path d="M5.4463502,330.711734 C15.3972988,328.815689 25.3482474,326.919645 35.299196,325.02146 C35.4684372,325.847502 35.6398206,326.673544 35.8090617,327.501726 C25.8623976,329.421311 15.9178759,331.343035 5.97121186,333.264759 C5.79554387,332.413037 5.62201818,331.561315 5.4463502,330.711734" id="Fill-84" fill="#FFFFFF"></path>
                            <path d="M20.681049,175.891581 C30.1264166,179.634449 39.5717842,183.375178 49.0171518,187.115907 L48.0873968,189.561932 C38.639887,185.825484 29.1945194,182.086895 19.7448672,178.350447 C20.0576419,177.530825 20.3682743,176.711203 20.681049,175.891581" id="Fill-86" fill="#FFFFFF"></path>
                            <path d="M99.4833502,450.590528 C92.0131763,457.592624 84.5408601,464.59686 77.0706862,471.601096 C76.483698,470.978355 75.8945676,470.357753 75.3075794,469.737152 C82.7756111,462.730776 90.245785,455.7244 97.7138166,448.718024 L99.4833502,450.590528 Z" id="Fill-90" fill="#FFFFFF"></path>
                            <path d="M262.799733,31.864329 L261.036626,1.96846057 C261.85284,1.91282045 262.666911,1.85932032 263.485266,1.8058202 L265.41333,31.6931287 C264.541417,31.7509088 263.669504,31.8065489 262.799733,31.864329" id="Fill-92" fill="#FFFFFF"></path>
                            <path d="M97.7031051,110.81981 C90.2586387,103.836974 82.8141723,96.8562779 75.3675636,89.8734419 C75.9481249,89.2378605 76.5244016,88.602279 77.1049628,87.9666975 C84.5644253,94.9324135 92.0238877,101.900269 99.4833502,108.865985 C98.8899352,109.516547 98.2965202,110.167108 97.7031051,110.81981" id="Fill-94" fill="#FFFFFF"></path>
                            <path d="M6.08453913,226.283988 C15.9455115,228.162913 25.8043415,230.041837 35.6631715,231.918621 C35.5089265,232.761783 35.3568237,233.607085 35.2047209,234.450247 C25.4251557,232.614123 15.6498751,230.775859 5.87030988,228.937594 C5.94314783,228.053772 6.01384348,227.16995 6.08453913,226.283988" id="Fill-96" fill="#FFFFFF"></path>
                            <path d="M19.7123043,381.155287 C29.1662411,377.408138 38.6201779,373.66099 48.0741146,369.911701 C48.4104545,370.733463 48.7425099,371.557365 49.0745652,372.379127 L20.7063281,383.612013 C20.376415,382.792391 20.0422174,381.974909 19.7123043,381.155287" id="Fill-98" fill="#FFFFFF"></path>
                            <path d="M89.6360885,75.511869 C96.5878277,82.926986 103.539567,90.339963 110.489164,97.75508 C109.895749,98.3350213 109.302334,98.9128226 108.706776,99.4927639 C101.707907,92.1268671 94.7047526,84.7588302 87.705883,77.3929333 C88.3464285,76.7659119 88.9912585,76.1388904 89.6360885,75.511869" id="Fill-100" fill="#FFFFFF"></path>
                            <path d="M294.084701,31.7534768 C294.701681,21.7682139 295.318662,11.780811 295.935642,1.79554818 C296.786132,1.83834827 297.63448,1.87686836 298.482828,1.91752846 C297.874417,11.9049313 297.261721,21.8944742 296.65331,31.8818771 C295.796393,31.839077 294.939476,31.7962769 294.084701,31.7534768" id="Fill-102" fill="#FFFFFF"></path>
                            <path d="M32.8944727,249.866842 C22.949951,248.621359 13.0097138,247.375877 3.06733439,246.130394 C3.16373755,245.342872 3.25799842,244.55749 3.35440158,243.772108 C13.3139194,244.964091 23.2755794,246.158214 33.2350972,247.350197 C33.1194134,248.189079 33.0080142,249.02796 32.8944727,249.866842" id="Fill-104" fill="#FFFFFF"></path>
                            <path d="M34.4615597,412.94506 L61.4308798,398.228246 C61.8486269,398.977248 62.2663739,399.72625 62.6841209,400.475251 C53.7036308,405.399403 44.725283,410.325694 35.7469352,415.249845 C35.3163344,414.481583 34.8900182,413.713322 34.4615597,412.94506" id="Fill-106" fill="#FFFFFF"></path>
                            <path d="M43.375853,428.096509 C52.0071494,422.588136 60.6384458,417.081903 69.2697423,411.575671 C69.7560427,412.333232 70.2444854,413.090794 70.7350704,413.850496 C62.0737818,419.311788 53.4146356,424.773081 44.7554893,430.236513 C44.2948964,429.523892 43.8364458,428.80913 43.375853,428.096509" id="Fill-108" fill="#FFFFFF"></path>
                            <path d="M228.845254,5.94501768 C230.721902,15.8553804 232.59855,25.7657431 234.475198,35.6782458 C233.622566,35.8430262 232.772076,36.0078065 231.921586,36.1725869 C230.029942,26.2665042 228.14044,16.3582815 226.250938,6.45005884 C227.114281,6.28099845 227.979768,6.11407807 228.845254,5.94501768" id="Fill-110" fill="#FFFFFF"></path>
                            <path d="M31.503268,265.407986 C21.5137581,264.770264 11.5242482,264.132543 1.53259605,263.494822 C1.56901502,262.6859 1.60757628,261.876978 1.64399526,261.070196 C11.5906593,261.598777 21.535181,262.127358 31.4797028,262.65594 C31.4882719,263.574002 31.4946988,264.489924 31.503268,265.407986" id="Fill-112" fill="#FFFFFF"></path>
                            <path d="M54.3383921,175.297944 C45.0601233,170.932334 35.7797123,166.568864 26.4993012,162.203254 C26.857064,161.417872 27.2126846,160.63035 27.5704474,159.844968 L55.4738071,172.858338 C55.0967636,173.67154 54.7175779,174.484742 54.3383921,175.297944" id="Fill-114" fill="#FFFFFF"></path>
                            <path d="M131.266402,43.6636741 C136.77852,52.2686338 142.290639,60.8714535 147.802757,69.4764132 C147.04867,69.9557743 146.294583,70.4372754 145.540496,70.9166365 C140.051943,62.2988368 134.561247,53.681037 129.072694,45.0632373 C129.801074,44.5967162 130.533738,44.1301951 131.266402,43.6636741" id="Fill-116" fill="#FFFFFF"></path>
                            <path d="M9.67652095,209.168229 C19.5610585,211.714835 29.4477383,214.261441 39.3365605,216.808047 C39.1287581,217.642649 38.923098,218.47939 38.7195802,219.313992 C28.8200466,216.780227 18.9183708,214.246461 9.01669486,211.710555 C9.23735099,210.863113 9.45586482,210.015671 9.67652095,209.168229" id="Fill-118" fill="#FFFFFF"></path>
                            <path d="M87.3911802,122.565869 C79.588951,116.107334 71.788864,109.650939 63.9887771,103.192404 C64.5072119,102.558963 65.0299312,101.927662 65.548366,101.29422 C73.4084372,107.699255 81.2685083,114.104289 89.1264372,120.511464 C88.5480182,121.196266 87.9695992,121.881067 87.3911802,122.565869" id="Fill-120" fill="#FFFFFF"></path>
                            <path d="M247.247118,33.4556367 C246.017442,23.4725138 244.789908,13.491531 243.55809,3.5084081 C244.400011,3.41210788 245.23979,3.31794766 246.081711,3.22378745 L249.7536,33.173156 C248.918106,33.2673163 248.082612,33.3614765 247.247118,33.4556367" id="Fill-122" fill="#FFFFFF"></path>
                            <path d="M3.00499368,313.366994 C13.0030727,312.127931 23.0011518,310.888868 32.9992308,309.649805 C33.095634,310.490827 33.1920372,311.331849 33.2884403,312.172871 C23.288219,313.388394 13.2858553,314.606057 3.28563399,315.821579 C3.19137312,315.004098 3.09711225,314.184476 3.00499368,313.366994" id="Fill-126" fill="#FFFFFF"></path>
                            <path d="M129.088547,514.430298 C134.555677,505.846739 140.020666,497.263179 145.485654,488.677479 C146.235456,489.14186 146.985258,489.604101 147.737203,490.068482 L131.350808,515.829861 C130.596721,515.36334 129.844776,514.896819 129.088547,514.430298" id="Fill-128" fill="#FFFFFF"></path>
                            <path d="M31.5366877,296.701492 C21.5514625,297.317813 11.5640949,297.934134 1.57886957,298.550456 C1.51460079,297.698734 1.4546166,296.849152 1.39249012,295.99743 C11.4248458,295.344729 21.4572016,294.694167 31.4916996,294.039326 C31.5045534,294.927428 31.5216917,295.81339 31.5366877,296.701492" id="Fill-130" fill="#FFFFFF"></path>
                            <path d="M211.518606,9.31894941 C214.065792,19.173672 216.617262,29.0283945 219.164448,38.8831171 C218.376085,39.1013976 217.589863,39.3196781 216.8015,39.5379586 C214.200757,29.7046361 211.602156,19.8713136 209.003555,10.035851 C209.841191,9.7961705 210.678828,9.55862996 211.518606,9.31894941" id="Fill-132" fill="#FFFFFF"></path>
                            <path d="M175.208462,504.825314 C170.784628,514.164296 166.358652,523.503277 161.93696,532.840118 C161.144312,532.474178 160.347379,532.110377 159.554731,531.744436 C163.969996,522.401175 168.380976,513.057913 172.794099,503.714652 C173.599601,504.084873 174.40296,504.455093 175.208462,504.825314" id="Fill-134" fill="#FFFFFF"></path>
                            <path d="M35.7585036,144.278359 C44.7004324,149.17897 53.6423613,154.079581 62.5821478,158.978052 C62.1965352,159.699234 61.8109225,160.418275 61.4253099,161.139457 C52.4598158,156.283786 43.4943217,151.430255 34.5288277,146.576724 L35.7585036,144.278359 Z" id="Fill-138" fill="#FFFFFF"></path>
                            <path d="M144.107517,523.446995 C149.019794,514.536015 153.934213,505.627174 158.848632,496.718334 C159.592007,497.122795 160.33324,497.525116 161.076616,497.929577 C156.181477,506.849117 151.284197,515.766517 146.384774,524.686058 L144.107517,523.446995 Z" id="Fill-142" fill="#FFFFFF"></path>
                            <path d="M178.200174,20.0326699 C181.942759,29.4979116 185.683202,38.9652933 189.423644,48.430535 C188.633138,48.7451157 187.842632,49.0575564 187.049984,49.3678571 C183.32668,39.8961954 179.601233,30.4223937 175.877929,20.950732 L178.200174,20.0326699 Z" id="Fill-144" fill="#FFFFFF"></path>
                            <path d="M158.865127,62.9361302 C153.954993,53.9780697 149.047001,45.0200092 144.139009,36.0640887 C144.89738,35.6339477 145.657894,35.2038067 146.418408,34.7736657 L161.161665,61.5108869 C160.396866,61.985968 159.629926,62.4610491 158.865127,62.9361302" id="Fill-146" fill="#FFFFFF"></path>
                            <path d="M102.822327,63.9967166 C109.317758,71.8804947 115.813189,79.7664128 122.310762,87.6501908 C121.659505,88.2087321 121.008248,88.7715534 120.359134,89.3300947 C113.844422,81.5062367 107.329711,73.6802388 100.814999,65.8542409 C101.483394,65.2357795 102.153932,64.6173181 102.822327,63.9967166" id="Fill-148" fill="#FFFFFF"></path>
                            <path d="M315.940798,3.47780603 L312.213209,33.4870948 C311.369145,33.3865145 310.527225,33.2837943 309.683161,33.1810741 C310.897841,23.2129312 312.116806,13.2426484 313.333628,3.27450556 C314.201256,3.34298572 315.073169,3.40932587 315.940798,3.47780603" id="Fill-150" fill="#FFFFFF"></path>
                            <path d="M281.488236,558.165578 C281.479666,544.852608 281.468955,531.539637 281.460386,518.224527 C280.609896,518.215967 279.757263,518.203127 278.908915,518.192427 L278.701113,558.013638 C279.630868,558.064998 280.558481,558.116358 281.488236,558.165578" id="Fill-152" fill="#FFFFFF"></path>
                            <path d="M351.604398,549.316016 C349.029362,539.422774 346.454326,529.527391 343.879291,519.634148 L341.374951,520.25689 C343.939275,530.154412 346.501457,540.051935 349.065781,549.949458 C349.911987,549.737597 350.75605,549.527877 351.604398,549.316016" id="Fill-154" fill="#FFFFFF"></path>
                            <path d="M326.152249,523.528315 C328.035324,533.357358 329.918399,543.18854 331.801474,553.017583 C332.624115,552.869922 333.446755,552.722262 334.269395,552.574602 L328.821545,523.252254 C327.932494,523.344275 327.0413,523.436295 326.152249,523.528315" id="Fill-156" fill="#FFFFFF"></path>
                            <path d="M263.916938,527.37476 C263.32995,537.340763 262.74082,547.304626 262.153832,557.270628 L264.60033,557.433269 C265.24516,547.471546 265.887847,537.507683 266.530535,527.54596 C265.658622,527.48818 264.786709,527.4304 263.916938,527.37476" id="Fill-158" fill="#FFFFFF"></path>
                            <path d="M295.201907,527.485612 C295.818887,537.470875 296.435867,547.456138 297.052847,557.443541 C297.903338,557.400741 298.751685,557.360081 299.600033,557.321561 C298.991622,547.332018 298.378926,537.344615 297.768373,527.357212 C296.913598,527.400012 296.056681,527.442812 295.201907,527.485612" id="Fill-160" fill="#FFFFFF"></path>
                            <path d="M229.962459,553.293001 C231.839108,543.382639 233.715756,533.472276 235.592404,523.561913 C234.739772,523.397133 233.889281,523.230212 233.038791,523.065432 C231.147147,532.973655 229.257645,542.881877 227.366001,552.7901 C228.231487,552.957021 229.096973,553.123941 229.962459,553.293001" id="Fill-162" fill="#FFFFFF"></path>
                            <path d="M248.364323,525.783238 C247.134647,535.766361 245.904972,545.747344 244.675296,555.730467 C245.517217,555.824627 246.356995,555.920927 247.198916,556.015088 C248.422165,546.031965 249.647557,536.048842 250.870806,526.065719 C250.033169,525.971559 249.199817,525.877399 248.364323,525.783238" id="Fill-164" fill="#FFFFFF"></path>
                            <path d="M212.63367,549.92014 C215.182998,540.065417 217.732326,530.210694 220.281654,520.355972 C219.49329,520.137691 218.704926,519.917271 217.918705,519.69899 C215.317962,529.534453 212.719361,539.367775 210.12076,549.203238 C210.958397,549.440778 211.796033,549.680459 212.63367,549.92014" id="Fill-166" fill="#FFFFFF"></path>
                            <path d="M317.058003,555.761069 C315.815474,545.758686 314.572944,535.754163 313.330414,525.75178 C312.486351,525.85236 311.64443,525.955081 310.798225,526.057801 C312.015047,536.025944 313.234011,545.996227 314.448691,555.964369 C315.318462,555.895889 316.190375,555.829549 317.058003,555.761069" id="Fill-168" fill="#FFFFFF"></path>
                            <path d="M69.1838364,147.805943 L43.274951,131.473425 C43.7569668,130.703023 44.2389826,129.930482 44.7231407,129.16008 C53.4101368,134.674873 62.0949905,140.189665 70.7841289,145.704458 C70.250698,146.404239 69.7172672,147.106161 69.1838364,147.805943" id="Fill-170" fill="#FFFFFF"></path>
                            <path d="M361.098395,14.1549325 C361.098395,14.1549325 496.761209,47.9691499 541.989289,194.535946 L512.586324,204.204488 C512.586324,204.204488 472.527597,81.2141261 351.603755,43.5307798 L361.098395,14.1549325 Z" id="Fill-172" fill="#000000"></path>
                            <polygon id="Fill-174" fill="#FFFFFF" points="362.49367 10.8101048 257.99907 396.884109 255.338342 396.165067 359.835085 10.0932032"></polygon>
                        </g>
                        <path d="M303.185374,281.679727 C308.605374,291.106449 305.351232,303.139696 295.912291,308.553909 C286.47335,313.968121 274.429382,310.715314 269.009382,301.288592 C263.589382,291.859731 266.845666,279.828623 276.282465,274.412271 C285.721406,268.998058 297.767516,272.250866 303.185374,281.679727" id="Fill-176" fill="#FFFFFF"></path>
                        <path d="M293.668454,286.858325 C296.046398,290.997095 294.617489,296.278627 290.474296,298.656172 C286.331102,301.033718 281.041782,299.606334 278.661695,295.467565 C276.28375,291.326655 277.712659,286.045123 281.855853,283.667578 C285.999047,281.290032 291.288367,282.719556 293.668454,286.858325" id="Fill-178" fill="#FFFFFF"></path>
                    </g>
                </g>
            </g>
        </g>
    </g>
</svg>