<?xml version="1.0" encoding="iso-8859-1"?>
<!-- Generator: Adobe Illustrator 19.0.0, SVG Export Plug-In . SVG Version: 6.00 Build 0)  -->
<svg version="1.1" id="Capa_1" xmlns="http://www.w3.org/2000/svg" xmlns:xlink="http://www.w3.org/1999/xlink" x="0px" y="0px"
	 viewBox="0 0 512.047 512.047" style="enable-background:new 0 0 512.047 512.047;" xml:space="preserve">
<g transform="translate(0 -1)">
	<g transform="translate(0 1)">
		<g>
			<g>
				<rect x="187.757" y="413.572" style="fill:#7FACFA;" width="136.533" height="77.483"/>
				<path style="fill:#7FACFA;" d="M42.69,85.38h426.667c18.851,0,34.133,15.282,34.133,34.133v281.6
					c0,18.851-15.282,34.133-34.133,34.133H42.69c-18.851,0-34.133-15.282-34.133-34.133v-281.6
					C8.557,100.662,23.839,85.38,42.69,85.38z"/>
				<path style="fill:#7FACFA;" d="M128.023,469.38h256c4.713,0,8.533,3.82,8.533,8.533v17.067c0,4.713-3.82,8.533-8.533,8.533h-256
					c-4.713,0-8.533-3.82-8.533-8.533v-17.067C119.49,473.201,123.311,469.38,128.023,469.38z"/>
			</g>
			<g>
				<polygon style="fill:#E3E7F2;" points="298.69,413.572 298.69,491.055 162.157,491.055 162.157,469.38 187.757,469.38 
					187.757,435.247 162.157,435.247 162.157,413.572 				"/>
				<path style="fill:#E3E7F2;" d="M42.69,85.38h401.067c18.851,0,34.133,15.282,34.133,34.133v281.6
					c0,18.851-15.282,34.133-34.133,34.133H42.69c-18.851,0-34.133-15.282-34.133-34.133v-281.6
					C8.557,100.662,23.839,85.38,42.69,85.38z"/>
				<path style="fill:#E3E7F2;" d="M128.023,469.38h230.4c4.713,0,8.533,3.82,8.533,8.533v17.067c0,4.713-3.82,8.533-8.533,8.533
					h-230.4c-4.713,0-8.533-3.82-8.533-8.533v-17.067C119.49,473.201,123.311,469.38,128.023,469.38z"/>
			</g>
			<path style="fill:#7FACFA;" d="M503.49,366.98V119.513c0.002-9.053-3.593-17.737-9.995-24.139
				c-6.402-6.402-15.085-9.997-24.139-9.995H42.69c-9.053-0.002-17.737,3.593-24.139,9.995c-6.402,6.402-9.997,15.085-9.995,24.139
				l0,247.467H503.49z"/>
			
				<linearGradient id="SVGID_1_" gradientUnits="userSpaceOnUse" x1="-48.7619" y1="652.668" x2="-47.9826" y2="651.3691" gradientTransform="matrix(469.3565 0 0 -281.6 22947.0508 183844.3438)">
				<stop  offset="0" style="stop-color:#D4E1F4"/>
				<stop  offset="0.1717" style="stop-color:#D4E1F4"/>
				<stop  offset="0.2" style="stop-color:#D4E1F4"/>
				<stop  offset="0.2001" style="stop-color:#DAE4F4"/>
				<stop  offset="0.2007" style="stop-color:#EBEBF4"/>
				<stop  offset="0.2014" style="stop-color:#F6F1F4"/>
				<stop  offset="0.2023" style="stop-color:#FDF4F4"/>
				<stop  offset="0.205" style="stop-color:#FFF5F4"/>
				<stop  offset="0.2522" style="stop-color:#FFF5F4"/>
				<stop  offset="0.26" style="stop-color:#FFF5F4"/>
				<stop  offset="0.26" style="stop-color:#D4E1F4"/>
				<stop  offset="0.3974" style="stop-color:#D4E1F4"/>
				<stop  offset="0.42" style="stop-color:#D4E1F4"/>
				<stop  offset="0.4201" style="stop-color:#DAE4F4"/>
				<stop  offset="0.4207" style="stop-color:#EBEBF4"/>
				<stop  offset="0.4214" style="stop-color:#F6F1F4"/>
				<stop  offset="0.4223" style="stop-color:#FDF4F4"/>
				<stop  offset="0.425" style="stop-color:#FFF5F4"/>
				<stop  offset="0.4894" style="stop-color:#FFF5F4"/>
				<stop  offset="0.5" style="stop-color:#FFF5F4"/>
				<stop  offset="0.5" style="stop-color:#F9F2F4"/>
				<stop  offset="0.5001" style="stop-color:#E8EBF4"/>
				<stop  offset="0.5003" style="stop-color:#DDE5F4"/>
				<stop  offset="0.5005" style="stop-color:#D6E2F4"/>
				<stop  offset="0.501" style="stop-color:#D4E1F4"/>
				<stop  offset="0.7062" style="stop-color:#D4E1F4"/>
				<stop  offset="0.74" style="stop-color:#D4E1F4"/>
				<stop  offset="0.741" style="stop-color:#FFF5F4"/>
				<stop  offset="0.8346" style="stop-color:#FFF5F4"/>
				<stop  offset="0.85" style="stop-color:#FFF5F4"/>
				<stop  offset="0.851" style="stop-color:#D4E1F4"/>
			</linearGradient>
			<path style="fill:url(#SVGID_1_);" d="M477.89,366.98V119.513c0.48-18.361-14.007-33.638-32.368-34.133H40.924
				c-18.36,0.495-32.847,15.773-32.368,34.133V366.98H477.89z"/>
		</g>
		<path style="fill:#7FACFA;" d="M252.439,106.884c-6.229,31.744-34.389,69.547-59.136,96.427c-3.84-1.109-7.851-2.389-11.861-3.755
			l-6.741-4.096c22.869-26.027,46.507-59.819,52.139-88.576c9.643-42.752-0.597-79.957-25.685-93.099
			c-2.94-1.554-6.066-2.73-9.301-3.499c11.662-3.236,24.114-1.988,34.901,3.499C251.842,26.927,262.082,64.132,252.439,106.884z"/>
		<g>
			<path style="fill:#E3E7F2;" d="M226.839,106.884c-5.632,28.758-29.269,62.549-52.139,88.576l-90.709-55.296
				c-23.04-29.099-29.696-61.013-16.555-82.432c6.78-10.672,17.418-18.314,29.696-21.333c11.572-2.915,23.791-1.801,34.645,3.157
				c7.737,3.553,14.697,8.599,20.48,14.848c3.583-21.112,18.992-38.28,39.595-44.117c3.236,0.769,6.361,1.944,9.301,3.499
				C226.242,26.927,236.482,64.132,226.839,106.884z"/>
			<path style="fill:#E3E7F2;" d="M117.662,167.899c18.421-24.266,46.807-19.741,58.885-4.215s7.85,42.055-10.572,66.32
				c-13.107,18.313-41.825,34.136-65.228,44.006c-19.174-16.658-41.55-40.626-48.313-62.106
				c-9.964-28.791-5.735-55.319,10.572-66.32S107.698,139.108,117.662,167.899z"/>
			<path style="fill:#E3E7F2;" d="M199.137,271.263c-0.551-7.421,2.479-14.659,8.152-19.475c5.673-4.816,13.307-6.63,20.54-4.881
				c12.087,3.533,19.948,18.929,19.654,38.49c0.187,14.462-8.597,33.505-16.9,47.45c-16.164-1.451-36.74-5.502-48.346-14.134
				c-16.017-11.231-23.878-26.627-19.654-38.49c2.825-6.885,8.77-12.004,15.998-13.776
				C185.809,264.676,193.448,266.465,199.137,271.263z"/>
		</g>
		<g>
			<path style="fill:#7FACFA;" d="M298.69,119.513h153.6c9.426,0,17.067,7.641,17.067,17.067v76.8
				c0,9.426-7.641,17.067-17.067,17.067h-153.6c-9.426,0-17.067-7.641-17.067-17.067v-76.8
				C281.623,127.154,289.264,119.513,298.69,119.513z"/>
			<path style="fill:#E3E7F2;" d="M298.69,119.513h128c9.426,0,17.067,7.641,17.067,17.067v76.8c0,9.426-7.641,17.067-17.067,17.067
				h-128c-9.426,0-17.067-7.641-17.067-17.067v-76.8C281.623,127.154,289.264,119.513,298.69,119.513z"/>
		</g>
	</g>
	<g transform="translate(0 11)">
		<path style="fill:#FFFFFF;" d="M68.29,425.247h-25.6c-9.053,0.002-17.737-3.593-24.139-9.995s-9.997-15.085-9.995-24.139v-281.6
			C8.082,91.165,22.551,75.895,40.898,75.38h19.968l0.085,0.512c-15.837,3.335-27.078,17.44-26.795,33.621v281.6
			c-0.002,9.053,3.593,17.737,9.995,24.139S59.237,425.249,68.29,425.247z"/>
		<path style="fill:#FFFFFF;" d="M145.09,467.913v17.067c0.014,4.707,3.826,8.519,8.533,8.533h-25.6
			c-4.707-0.014-8.519-3.826-8.533-8.533v-17.067c0.014-4.707,3.826-8.519,8.533-8.533h25.6
			C148.916,459.394,145.104,463.206,145.09,467.913z"/>
		<rect x="187.757" y="425.247" style="fill:#FFFFFF;" width="25.6" height="34.133"/>
	</g>
	<g>
		<polygon style="fill:#FFFFFF;" points="17.09,120.513 17.09,231.447 17.09,367.98 0.023,367.98 0.023,231.447 0.023,120.513 		"/>
		<g>
			<path style="fill:#428DFF;" d="M8.557,197.313c2.259-0.034,4.422-0.918,6.059-2.475c3.3-3.365,3.3-8.752,0-12.117l-1.279-1.025
				c-0.476-0.324-0.993-0.583-1.538-0.771c-0.484-0.246-1.003-0.417-1.538-0.509c-0.563-0.096-1.133-0.153-1.704-0.171
				c-2.259,0.031-4.423,0.915-6.059,2.475c-3.222,3.397-3.222,8.721,0,12.117c0.815,0.771,1.77,1.379,2.813,1.792
				C6.338,197.068,7.44,197.3,8.557,197.313z"/>
			<path style="fill:#428DFF;" d="M469.357,77.847H264.571c0.278-32.784-11.771-59.046-33.848-70.608
				c-15.968-8.077-34.772-8.323-50.946-0.667c-14.476,6.813-25.806,18.893-31.679,33.775c-12.673-9.791-28.614-14.36-44.55-12.767
				c-17.804,1.726-33.815,11.573-43.387,26.684c-4.32,7.171-6.929,15.241-7.624,23.583H42.69
				C19.137,77.874,0.051,96.961,0.023,120.513v34.133c0,4.713,3.821,8.533,8.533,8.533s8.533-3.821,8.533-8.533v-34.133
				c0.015-14.132,11.468-25.585,25.6-25.6h10.425c2.437,14.146,7.777,27.635,15.685,39.615c-3.746,1.138-7.305,2.818-10.564,4.985
				c-19.817,13.367-25.259,43.267-13.942,75.95c8.221,26.117,35.392,52.558,50.859,65.992c1.552,1.35,3.539,2.093,5.596,2.092
				c1.14,0.003,2.268-0.227,3.317-0.675c18.875-7.958,52.917-24.642,68.708-46.708c5.823-7.622,10.549-16.023,14.037-24.958
				c1.369,0.423,2.79,0.921,4.126,1.308c3.107,0.894,6.453-0.041,8.646-2.417c19.696-21.4,53.846-62.925,61.183-100.342
				c1.137-5.041,1.964-9.981,2.595-14.842h205.996c14.132,0.015,25.585,11.468,25.6,25.6v238.933H17.09V222.913
				c0-4.713-3.821-8.533-8.533-8.533s-8.533,3.821-8.533,8.533v179.2c0.028,23.553,19.114,42.639,42.667,42.667h136.533v17.067
				H119.49c-2.263-0.001-4.434,0.898-6.035,2.499c-1.6,1.6-2.499,3.771-2.499,6.035v34.133c-0.001,2.263,0.898,4.434,2.499,6.035
				c1.6,1.6,3.771,2.499,6.035,2.499h273.067c2.263,0.001,4.434-0.898,6.035-2.499c1.6-1.6,2.499-3.771,2.499-6.035V470.38
				c0.001-2.263-0.898-4.434-2.499-6.035c-1.6-1.6-3.771-2.499-6.035-2.499h-59.733V444.78h136.533
				c23.553-0.028,42.639-19.114,42.667-42.667v-281.6C511.996,96.961,492.909,77.874,469.357,77.847z M159.04,226.038
				c-9.3,12.992-29.808,27.058-56.7,38.992c-21.85-19.7-36.971-39.458-41.842-54.917c-8.516-24.6-5.521-47.817,7.283-56.45
				c4.128-2.693,8.963-4.1,13.892-4.042c2.942-0.001,5.865,0.469,8.658,1.392c9.391,3.366,16.571,11.07,19.267,20.675
				c1.03,2.974,3.613,5.139,6.72,5.634c3.108,0.495,6.235-0.761,8.138-3.267c5.547-8.292,14.769-13.383,24.742-13.658h0.154
				c7.907-0.073,15.425,3.427,20.459,9.525C179.294,182.113,174.923,205.105,159.04,226.038z M191.475,193.606
				c1.959-12.027-0.993-24.337-8.193-34.167c-8.242-10.282-20.743-16.219-33.921-16.108h-0.267
				c-10.657,0.114-20.942,3.939-29.083,10.817c-5.595-9.07-14.18-15.902-24.275-19.317c-2.278-0.739-4.612-1.292-6.98-1.655
				C69.683,107.748,64.061,80.553,74.715,63.18c6.853-10.542,18.125-17.397,30.637-18.633c15.457-1.168,30.556,5.039,40.721,16.742
				c2.171,2.28,5.42,3.18,8.455,2.342s5.361-3.279,6.054-6.35c2.719-15.246,12.491-28.306,26.35-35.217
				c11.377-5.354,24.571-5.25,35.863,0.283c17.715,9.285,26.622,33.761,24.295,63.912l-0.025,0.122l0.009,0.044
				c-0.527,6.668-1.533,13.29-3.009,19.814C237.847,137.929,207.994,175.021,191.475,193.606L191.475,193.606z M384.023,495.98h-256
				v-17.067h256V495.98z M315.757,461.847H196.29V444.78h119.467V461.847z M469.357,427.713H42.69
				c-14.132-0.015-25.585-11.468-25.6-25.6v-25.6h477.867v25.6C494.941,416.245,483.489,427.698,469.357,427.713z"/>
			<path style="fill:#428DFF;" d="M229.819,342.347c0.254,0.025,0.513,0.033,0.763,0.033c3.008,0,5.793-1.583,7.333-4.167
				c6.858-11.517,18.338-33.583,18.1-51.692c0.358-23.75-9.767-42.125-25.792-46.808c-9.078-2.532-18.818-0.707-26.363,4.942
				c-5.139,3.8-9.011,9.063-11.108,15.1c-6.119-1.842-12.651-1.792-18.742,0.142c-9.002,2.803-16.193,9.625-19.467,18.466
				c-5.6,15.725,3.346,34.7,22.6,48.2C191.853,337.505,216.461,341.147,229.819,342.347z M170.619,284.088
				c1.499-3.812,4.657-6.73,8.575-7.925c1.406-0.448,2.874-0.676,4.35-0.675c3.869,0.105,7.608,1.419,10.692,3.758
				c2.587,1.816,5.966,2.053,8.782,0.615s4.605-4.313,4.652-7.474c-0.299-5.418,2.06-10.641,6.321-14
				c3.262-2.476,7.478-3.321,11.442-2.292c8.192,2.392,13.75,14.8,13.517,30.408c-1.304,13.594-5.753,26.698-12.996,38.275
				c-13.701-0.935-26.994-5.062-38.817-12.05C174.548,303.897,167.761,292.122,170.619,284.088L170.619,284.088z"/>
			<path style="fill:#428DFF;" d="M477.89,137.58c-0.015-14.132-11.468-25.585-25.6-25.6h-153.6
				c-14.132,0.015-25.585,11.468-25.6,25.6v76.8c0.015,14.132,11.468,25.585,25.6,25.6h153.6c14.132-0.015,25.585-11.468,25.6-25.6
				V137.58z M460.823,214.38c-0.005,4.711-3.822,8.529-8.533,8.533h-153.6c-4.711-0.005-8.529-3.822-8.533-8.533v-76.8
				c0.005-4.711,3.822-8.529,8.533-8.533h153.6c4.711,0.005,8.529,3.822,8.533,8.533V214.38z"/>
			<path style="fill:#428DFF;" d="M281.623,274.113h51.2c4.713,0,8.533-3.82,8.533-8.533s-3.82-8.533-8.533-8.533h-51.2
				c-4.713,0-8.533,3.82-8.533,8.533S276.911,274.113,281.623,274.113z"/>
			<path style="fill:#428DFF;" d="M281.623,308.247h51.2c4.713,0,8.533-3.821,8.533-8.533s-3.82-8.533-8.533-8.533h-51.2
				c-4.713,0-8.533,3.82-8.533,8.533S276.911,308.247,281.623,308.247z"/>
			<path style="fill:#428DFF;" d="M281.623,342.38h51.2c4.713,0,8.533-3.821,8.533-8.533c0-4.713-3.82-8.533-8.533-8.533h-51.2
				c-4.713,0-8.533,3.821-8.533,8.533C273.09,338.56,276.911,342.38,281.623,342.38z"/>
			<path style="fill:#428DFF;" d="M469.357,257.047h-102.4c-4.713,0-8.533,3.82-8.533,8.533s3.82,8.533,8.533,8.533h102.4
				c4.713,0,8.533-3.82,8.533-8.533S474.07,257.047,469.357,257.047z"/>
			<path style="fill:#428DFF;" d="M469.357,291.18h-102.4c-4.713,0-8.533,3.82-8.533,8.533s3.82,8.533,8.533,8.533h102.4
				c4.713,0,8.533-3.821,8.533-8.533S474.07,291.18,469.357,291.18z"/>
			<path style="fill:#428DFF;" d="M469.357,325.313h-102.4c-4.713,0-8.533,3.821-8.533,8.533c0,4.713,3.82,8.533,8.533,8.533h102.4
				c4.713,0,8.533-3.821,8.533-8.533C477.89,329.134,474.07,325.313,469.357,325.313z"/>
		</g>
	</g>
</g>
<g>
</g>
<g>
</g>
<g>
</g>
<g>
</g>
<g>
</g>
<g>
</g>
<g>
</g>
<g>
</g>
<g>
</g>
<g>
</g>
<g>
</g>
<g>
</g>
<g>
</g>
<g>
</g>
<g>
</g>
</svg>
