<?xml version="1.0" encoding="iso-8859-1"?>
<!-- Generator: Adobe Illustrator 19.0.0, SVG Export Plug-In . SVG Version: 6.00 Build 0)  -->
<svg version="1.1" id="Capa_1" xmlns="http://www.w3.org/2000/svg" xmlns:xlink="http://www.w3.org/1999/xlink" x="0px" y="0px"
	 viewBox="0 0 512 512" style="enable-background:new 0 0 512 512;" xml:space="preserve">
<g>
	<g transform="translate(0 1)">
		<path style="fill:#7FACFA;" d="M503.467,67.267V485.4c-0.028,9.414-7.653,17.039-17.067,17.067H25.6
			c-9.414-0.028-17.039-7.653-17.067-17.067V67.267H503.467z"/>
		<path style="fill:#E3E7F2;" d="M477.871,67.267L477.867,485.4c0.21,9.169-7.017,16.79-16.184,17.067H24.717
			C15.55,502.19,8.323,494.569,8.533,485.4L8.529,67.267H477.871z"/>
		<path style="fill:#7FACFA;" d="M503.467,24.6v68.267H8.533V24.6C8.561,15.186,16.186,7.561,25.6,7.533h460.8
			C495.814,7.561,503.439,15.186,503.467,24.6z"/>
		<g>
			<path style="fill:#E3E7F2;" d="M477.867,24.6l0.004,68.267H8.529L8.533,24.6C8.323,15.431,15.55,7.81,24.717,7.533h436.966
				C470.85,7.81,478.077,15.431,477.867,24.6z"/>
			<circle style="fill:#E3E7F2;" cx="59.733" cy="50.2" r="17.067"/>
			<circle style="fill:#E3E7F2;" cx="119.467" cy="50.2" r="17.067"/>
			<circle style="fill:#E3E7F2;" cx="179.2" cy="50.2" r="17.067"/>
			<path style="fill:#E3E7F2;" d="M443.733,33.133H460.8c4.713,0,8.533,3.821,8.533,8.533v17.067c0,4.713-3.82,8.533-8.533,8.533
				h-17.067c-4.713,0-8.533-3.821-8.533-8.533V41.667C435.2,36.954,439.021,33.133,443.733,33.133z"/>
		</g>
		<path style="fill:#7FACFA;" d="M469.335,468.333H42.665c-0.026-10.656,0.773-21.297,2.39-31.829
			c0.853-5.632,1.877-11.264,3.242-16.725c3.659-16.071,9.276-31.633,16.725-46.336v-0.085c2.416-5.128,5.122-10.114,8.107-14.933
			c8.494-14.124,18.603-27.211,30.123-38.997c3.925-4.096,8.021-7.936,12.288-11.691h0.085
			c12.383-10.905,26.019-20.301,40.619-27.989c5.021-2.731,10.176-5.209,15.445-7.424c15.162-6.584,31.064-11.311,47.36-14.08
			c5.547-1.024,11.179-1.792,16.896-2.304c6.656-0.597,13.312-0.939,20.053-0.939c6.741,0,13.397,0.341,20.053,0.939
			c5.718,0.512,11.35,1.28,16.896,2.304c16.321,2.781,32.25,7.508,47.445,14.08c5.291,2.304,10.411,4.693,15.36,7.424
			c34.346,18.177,63.083,45.379,83.115,78.677c2.98,4.866,5.714,9.879,8.192,15.019c7.409,14.712,12.997,30.272,16.64,46.336
			c1.365,5.461,2.389,11.093,3.242,16.725C468.561,447.036,469.36,457.678,469.335,468.333z"/>
		
			<linearGradient id="SVGID_1_" gradientUnits="userSpaceOnUse" x1="-48.6854" y1="651.1428" x2="-48.0703" y2="649.9866" gradientTransform="matrix(401.0704 0 0 -213.3333 19646.1133 139209.3438)">
			<stop  offset="0" style="stop-color:#D4E1F4"/>
			<stop  offset="0.1717" style="stop-color:#D4E1F4"/>
			<stop  offset="0.2" style="stop-color:#D4E1F4"/>
			<stop  offset="0.2001" style="stop-color:#DAE4F4"/>
			<stop  offset="0.2007" style="stop-color:#EBEBF4"/>
			<stop  offset="0.2014" style="stop-color:#F6F1F4"/>
			<stop  offset="0.2023" style="stop-color:#FDF4F4"/>
			<stop  offset="0.205" style="stop-color:#FFF5F4"/>
			<stop  offset="0.2522" style="stop-color:#FFF5F4"/>
			<stop  offset="0.26" style="stop-color:#FFF5F4"/>
			<stop  offset="0.26" style="stop-color:#D4E1F4"/>
			<stop  offset="0.3974" style="stop-color:#D4E1F4"/>
			<stop  offset="0.42" style="stop-color:#D4E1F4"/>
			<stop  offset="0.4201" style="stop-color:#DAE4F4"/>
			<stop  offset="0.4207" style="stop-color:#EBEBF4"/>
			<stop  offset="0.4214" style="stop-color:#F6F1F4"/>
			<stop  offset="0.4223" style="stop-color:#FDF4F4"/>
			<stop  offset="0.425" style="stop-color:#FFF5F4"/>
			<stop  offset="0.4894" style="stop-color:#FFF5F4"/>
			<stop  offset="0.5" style="stop-color:#FFF5F4"/>
			<stop  offset="0.5" style="stop-color:#F9F2F4"/>
			<stop  offset="0.5001" style="stop-color:#E8EBF4"/>
			<stop  offset="0.5003" style="stop-color:#DDE5F4"/>
			<stop  offset="0.5005" style="stop-color:#D6E2F4"/>
			<stop  offset="0.501" style="stop-color:#D4E1F4"/>
			<stop  offset="0.7062" style="stop-color:#D4E1F4"/>
			<stop  offset="0.74" style="stop-color:#D4E1F4"/>
			<stop  offset="0.741" style="stop-color:#FFF5F4"/>
			<stop  offset="0.8346" style="stop-color:#FFF5F4"/>
			<stop  offset="0.85" style="stop-color:#FFF5F4"/>
			<stop  offset="0.851" style="stop-color:#D4E1F4"/>
		</linearGradient>
		<path style="fill:url(#SVGID_1_);" d="M443.735,468.333H42.665c-0.025-10.65,0.726-21.288,2.247-31.829
			c0.802-5.632,1.764-11.264,3.048-16.725c3.417-16.005,8.693-31.556,15.722-46.336v-0.085c2.264-5.114,4.807-10.099,7.62-14.933
			c7.92-14.036,17.421-27.121,28.315-38.997c3.69-4.096,7.54-7.936,11.551-11.691h0.08c11.549-10.839,24.37-20.237,38.182-27.989
			c4.708-2.725,9.554-5.203,14.519-7.424c14.183-6.562,29.142-11.293,44.519-14.08c5.214-1.024,10.508-1.792,15.883-2.304
			c6.256-0.597,12.513-0.939,18.85-0.939c6.337,0,12.594,0.341,18.85,0.939c5.375,0.512,10.669,1.28,15.883,2.304
			c15.399,2.799,30.384,7.529,44.599,14.08c4.973,2.304,9.786,4.693,14.438,7.424c32.724,18.618,59.739,45.824,78.128,78.677
			c2.807,4.864,5.374,9.899,7.701,15.019c6.99,14.788,12.239,30.337,15.642,46.336c1.283,5.461,2.246,11.093,3.048,16.725
			C443.009,447.045,443.76,457.683,443.735,468.333z"/>
		<polygon style="fill:#A4C2F7;" points="259.84,425.923 375.467,329.411 287.317,439.405 		"/>
		<path style="fill:#E3E7F2;" d="M179.2,186.733c-0.025,31.259-21.245,58.521-51.541,66.219c-10.983,2.73-22.468,2.73-33.451,0
			c-30.296-7.697-51.516-34.96-51.541-66.219c-0.023-12.099,3.22-23.98,9.387-34.389c2.85-5.018,6.35-9.638,10.411-13.739
			c10.764-10.795,24.814-17.7,39.936-19.627c5.668-0.683,11.398-0.683,17.067,0c15.122,1.927,29.172,8.832,39.936,19.627
			c4.06,4.101,7.561,8.72,10.411,13.739C175.98,162.754,179.223,174.634,179.2,186.733z"/>
		<path style="fill:#A4C2F7;" d="M127.317,252.952c-10.983,2.73-22.468,2.73-33.451,0l16.725-91.819L127.317,252.952z"/>
		<path style="fill:#E3E7F2;" d="M469.333,186.733c-0.025,31.259-21.245,58.521-51.541,66.219c-10.983,2.73-22.468,2.73-33.451,0
			c-30.297-7.697-51.516-34.96-51.541-66.219c-0.023-12.099,3.22-23.98,9.387-34.389c2.85-5.018,6.35-9.638,10.411-13.739
			c10.764-10.795,24.814-17.7,39.936-19.627c5.668-0.683,11.398-0.683,17.067,0c15.122,1.927,29.172,8.832,39.936,19.627
			c4.06,4.101,7.561,8.72,10.411,13.739C466.113,162.754,469.356,174.634,469.333,186.733z"/>
		<g>
			<path style="fill:#A4C2F7;" d="M417.792,252.952c-10.983,2.73-22.468,2.73-33.451,0l16.725-91.819L417.792,252.952z"/>
			<path style="fill:#A4C2F7;" d="M213.333,468.333c0-23.564,19.103-42.667,42.667-42.667c23.564,0,42.667,19.103,42.667,42.667"/>
		</g>
		<path style="fill:#FFFFFF;" d="M50.347,502.467h-25.6c-9.182-0.253-16.431-7.884-16.213-17.067V24.6
			C8.315,15.417,15.564,7.786,24.747,7.533h25.515C41.109,7.824,33.906,15.446,34.133,24.6v460.8
			C33.916,494.583,41.164,502.214,50.347,502.467z"/>
	</g>
	<g>
		<polygon style="fill:#FFFFFF;" points="17.067,93.867 17.067,204.8 17.067,486.4 0,486.4 0,204.8 0,93.867 		"/>
		<g>
			<path style="fill:#428DFF;" d="M8.533,170.667c2.259-0.034,4.422-0.918,6.059-2.475c3.3-3.365,3.3-8.752,0-12.117l-1.279-1.025
				c-0.476-0.324-0.993-0.583-1.538-0.771c-0.484-0.246-1.003-0.417-1.538-0.509c-0.563-0.096-1.133-0.153-1.704-0.171
				c-2.259,0.031-4.423,0.915-6.059,2.475c-3.222,3.397-3.222,8.721,0,12.117c0.815,0.771,1.77,1.379,2.813,1.792
				C6.314,170.422,7.417,170.654,8.533,170.667z"/>
			<path style="fill:#428DFF;" d="M486.4,0H25.6C11.468,0.015,0.015,11.468,0,25.6V128c0,4.713,3.821,8.533,8.533,8.533
				s8.533-3.821,8.533-8.533v-25.6h477.867v384c-0.003,4.711-3.822,8.53-8.533,8.533H25.6c-4.712-0.003-8.53-3.822-8.533-8.533
				V196.267c0-4.713-3.821-8.533-8.533-8.533S0,191.554,0,196.267V486.4c0.015,14.132,11.468,25.585,25.6,25.6h460.8
				c14.132-0.015,25.585-11.468,25.6-25.6V25.6C511.985,11.468,500.532,0.015,486.4,0z M17.067,85.333V25.6
				c0.003-4.712,3.822-8.53,8.533-8.533h460.8c4.711,0.003,8.53,3.822,8.533,8.533v59.733H17.067z"/>
			<path style="fill:#428DFF;" d="M59.733,25.6c-14.138,0-25.6,11.462-25.6,25.6s11.462,25.6,25.6,25.6s25.6-11.462,25.6-25.6
				C85.318,37.068,73.865,25.615,59.733,25.6z M59.733,59.733c-4.713,0-8.533-3.821-8.533-8.533s3.821-8.533,8.533-8.533
				s8.533,3.821,8.533,8.533C68.263,55.912,64.445,59.73,59.733,59.733z"/>
			<path style="fill:#428DFF;" d="M119.467,25.6c-14.138,0-25.6,11.462-25.6,25.6s11.462,25.6,25.6,25.6s25.6-11.462,25.6-25.6
				C145.051,37.068,133.599,25.615,119.467,25.6z M119.467,59.733c-4.713,0-8.533-3.821-8.533-8.533s3.821-8.533,8.533-8.533
				c4.713,0,8.533,3.821,8.533,8.533C127.997,55.912,124.178,59.73,119.467,59.733z"/>
			<path style="fill:#428DFF;" d="M179.2,25.6c-14.139,0-25.6,11.462-25.6,25.6s11.462,25.6,25.6,25.6
				c14.138,0,25.6-11.462,25.6-25.6C204.785,37.068,193.332,25.615,179.2,25.6z M179.2,59.733c-4.713,0-8.533-3.821-8.533-8.533
				s3.821-8.533,8.533-8.533s8.533,3.821,8.533,8.533C187.73,55.912,183.912,59.73,179.2,59.733z"/>
			<path style="fill:#428DFF;" d="M460.8,25.6h-17.067c-9.421,0.012-17.054,7.646-17.067,17.067v17.067
				c0.012,9.421,7.646,17.054,17.067,17.067H460.8c9.421-0.012,17.054-7.646,17.067-17.067V42.667
				C477.854,33.246,470.221,25.612,460.8,25.6z M443.733,59.733V42.667H460.8l0.017,17.067H443.733z"/>
			<path style="fill:#428DFF;" d="M42.667,477.867h426.667c2.264,0.001,4.435-0.897,6.035-2.498
				c1.601-1.601,2.499-3.772,2.498-6.035c0.004-14.86-1.484-29.682-4.441-44.244c-0.009-0.044,0.009-0.086-0.001-0.131l-0.04-0.094
				c-4.568-22.286-12.562-43.729-23.697-63.567c-0.089-0.189-0.084-0.395-0.188-0.58c-0.115-0.204-0.311-0.319-0.44-0.51
				c-22.559-39.751-56.772-71.622-98.02-91.311c-0.092-0.047-0.146-0.135-0.24-0.179c-0.111-0.053-0.23-0.037-0.343-0.085
				c-20.513-9.685-42.401-16.14-64.887-19.136c-0.092-0.015-0.161-0.075-0.254-0.087c-0.097-0.013-0.185,0.029-0.282,0.019
				c-19.263-2.614-38.791-2.615-58.054-0.002c-0.088,0.009-0.167-0.029-0.255-0.017c-0.083,0.011-0.146,0.066-0.229,0.079
				c-22.527,2.994-44.455,9.46-65.003,19.167c-0.082,0.036-0.17,0.023-0.251,0.062c-0.069,0.032-0.108,0.096-0.176,0.131
				c-20.382,9.703-39.169,22.45-55.719,37.802c-0.196,0.154-0.437,0.21-0.622,0.384c-0.169,0.212-0.326,0.432-0.472,0.66
				c-16.368,15.37-30.323,33.122-41.395,52.656c-0.09,0.14-0.234,0.22-0.316,0.367c-0.074,0.132-0.068,0.281-0.134,0.415
				c-18.569,33.037-28.307,70.304-28.274,108.201c-0.001,2.264,0.897,4.435,2.498,6.035
				C38.232,476.969,40.403,477.868,42.667,477.867z M286.24,428.11c-2.651-1.95-5.483-3.639-8.458-5.045l37.752-31.507
				L286.24,428.11z M256,435.2c15.522,0.045,29.054,10.568,32.922,25.6h-65.843C226.946,445.768,240.478,435.245,256,435.2z
				 M110.347,325.578l11.411,12.239c2.078,2.23,5.188,3.182,8.158,2.497c2.97-0.685,5.35-2.902,6.242-5.817
				c0.892-2.915,0.162-6.084-1.917-8.314l-11.427-12.256c11.684-10.046,24.461-18.747,38.089-25.939l7.196,15.237
				c1.412,2.988,4.421,4.893,7.725,4.892c1.257,0.001,2.498-0.278,3.633-0.817c4.261-2.012,6.086-7.096,4.075-11.358l-7.196-15.237
				c14.193-6.01,29.025-10.384,44.208-13.037l2.221,16.7c0.562,4.238,4.175,7.406,8.45,7.408c0.379,0,0.758-0.025,1.133-0.075
				c2.244-0.297,4.278-1.474,5.653-3.271c1.376-1.797,1.98-4.068,1.68-6.312l-2.223-16.714c6.111-0.552,12.288-0.87,18.54-0.87
				c6.266,0,12.457,0.319,18.581,0.872l-2.222,16.711c-0.3,2.243,0.305,4.514,1.68,6.312s3.409,2.974,5.653,3.271
				c0.376,0.05,0.754,0.075,1.133,0.075c4.275-0.002,7.888-3.17,8.45-7.408l2.22-16.692c15.181,2.657,30.011,7.033,44.202,13.045
				l-7.189,15.222c-2.011,4.262-0.186,9.347,4.075,11.358c1.135,0.539,2.377,0.818,3.633,0.817c3.304,0.001,6.313-1.904,7.725-4.892
				l7.188-15.22c32.437,17.128,59.72,42.596,79.036,73.78l-14.598,8.198c-2.659,1.492-4.32,4.288-4.357,7.337
				c-0.038,3.048,1.554,5.885,4.175,7.442c2.621,1.557,5.874,1.597,8.532,0.105l14.649-8.227
				c7.044,13.807,12.485,28.374,16.218,43.418l-16.509,3.368c-4.289,0.877-7.218,4.858-6.779,9.214
				c0.438,4.356,4.102,7.673,8.479,7.678c0.577-0.001,1.152-0.06,1.717-0.175l16.465-3.359c1.295,7.95,2.119,15.97,2.468,24.018
				H306.429c-1.22-7.304-4.019-14.254-8.202-20.364l83.898-104.694c2.74-3.42,2.444-8.36-0.686-11.427
				c-3.13-3.068-8.075-3.265-11.439-0.456l-113,94.326c-0.336-0.007-0.663-0.051-1-0.051c-24.958,0.042-46.254,18.061-50.429,42.667
				H51.375c0.35-8.05,1.174-16.072,2.47-24.025l16.505,3.367c0.565,0.115,1.14,0.174,1.717,0.175
				c4.378-0.005,8.041-3.322,8.479-7.678c0.438-4.356-2.491-8.336-6.779-9.214l-16.548-3.376
				c3.735-15.047,9.178-29.618,16.225-43.428l14.682,8.245c4.11,2.306,9.311,0.843,11.617-3.267
				c2.306-4.11,0.843-9.311-3.267-11.617l-14.629-8.216C89.964,348.677,99.524,336.538,110.347,325.578z"/>
			<path style="fill:#428DFF;" d="M92.675,262.342c0.119,0.023,0.228-0.021,0.347-0.003c11.69,2.908,23.911,2.926,35.61,0.055
				c0.187-0.022,0.372-0.015,0.559-0.051c0.243-0.044,0.426-0.199,0.66-0.263c26.72-6.754,47.759-27.329,55.107-53.892
				s-0.126-55.025-19.576-74.551c-0.06-0.064-0.078-0.148-0.14-0.211c-0.063-0.062-0.147-0.08-0.211-0.14
				c-29.908-29.802-78.287-29.802-108.195,0c-0.064,0.06-0.148,0.078-0.211,0.14c-0.062,0.063-0.08,0.147-0.14,0.211
				c-19.45,19.526-26.924,47.988-19.576,74.551s28.387,47.138,55.106,53.892C92.249,262.142,92.432,262.298,92.675,262.342z
				 M104.136,247.051l6.797-37.3l6.797,37.301C113.216,247.605,108.651,247.605,104.136,247.051L104.136,247.051z M51.2,187.733
				c0.005-12.885,4.204-25.418,11.961-35.705l5.538,5.538c3.332,3.332,8.735,3.332,12.067,0c3.332-3.332,3.332-8.735,0-12.067
				l-5.538-5.538c7.967-5.981,17.311-9.86,27.172-11.28v7.852c0,4.713,3.821,8.533,8.533,8.533c4.713,0,8.533-3.821,8.533-8.533
				v-7.852c9.86,1.42,19.205,5.299,27.172,11.28L141.1,145.5c-2.156,2.156-2.997,5.297-2.208,8.242
				c0.789,2.944,3.089,5.244,6.033,6.033c2.944,0.789,6.086-0.053,8.242-2.208l5.538-5.538
				c11.026,14.661,14.683,33.585,9.912,51.298c-4.771,17.713-17.437,32.24-34.336,39.38L119.325,160.6c-0.739-4.054-4.271-7-8.392-7
				c-4.121,0-7.653,2.946-8.392,7l-14.956,82.106C65.544,233.32,51.228,211.69,51.2,187.733z"/>
			<path style="fill:#428DFF;" d="M382.808,262.342c0.119,0.023,0.228-0.021,0.347-0.003c11.69,2.908,23.911,2.926,35.61,0.055
				c0.187-0.022,0.372-0.015,0.559-0.051c0.243-0.044,0.426-0.199,0.66-0.263c26.72-6.754,47.759-27.329,55.107-53.892
				c7.348-26.563-0.126-55.025-19.576-74.551c-0.06-0.064-0.078-0.148-0.14-0.211c-0.063-0.062-0.147-0.08-0.211-0.14
				c-29.908-29.802-78.287-29.802-108.195,0c-0.064,0.06-0.148,0.078-0.211,0.14c-0.062,0.063-0.08,0.147-0.14,0.211
				c-19.45,19.526-26.924,47.988-19.576,74.551s28.387,47.138,55.106,53.892C382.382,262.142,382.566,262.298,382.808,262.342z
				 M394.27,247.051l6.797-37.3l6.797,37.301C403.349,247.605,398.784,247.605,394.27,247.051L394.27,247.051z M341.333,187.733
				c0.005-12.885,4.204-25.418,11.961-35.705l5.538,5.538c3.332,3.332,8.735,3.332,12.067,0c3.332-3.332,3.332-8.735,0-12.067
				l-5.538-5.538c7.967-5.981,17.311-9.86,27.172-11.28v7.852c0,4.713,3.82,8.533,8.533,8.533s8.533-3.821,8.533-8.533v-7.852
				c9.86,1.42,19.205,5.299,27.172,11.28l-5.538,5.538c-2.155,2.156-2.997,5.297-2.208,8.242c0.789,2.944,3.089,5.244,6.033,6.033
				c2.944,0.789,6.086-0.053,8.242-2.208l5.538-5.538c11.026,14.661,14.683,33.585,9.912,51.298
				c-4.771,17.713-17.437,32.24-34.336,39.38L409.458,160.6c-0.739-4.054-4.271-7-8.392-7c-4.121,0-7.653,2.946-8.392,7
				l-14.956,82.106C355.677,233.32,341.361,211.69,341.333,187.733z"/>
		</g>
	</g>
</g>
<g>
</g>
<g>
</g>
<g>
</g>
<g>
</g>
<g>
</g>
<g>
</g>
<g>
</g>
<g>
</g>
<g>
</g>
<g>
</g>
<g>
</g>
<g>
</g>
<g>
</g>
<g>
</g>
<g>
</g>
</svg>
