<svg width="73px" height="20px" viewBox="0 0 73 20" version="1.1" xmlns="http://www.w3.org/2000/svg" xmlns:xlink="http://www.w3.org/1999/xlink">
    <g id="Symbols" stroke="none" stroke-width="1" fill="none" fill-rule="evenodd">
        <g id="logo" transform="translate(-27.000000, -20.000000)">
            <g id="Group" transform="translate(27.000000, 20.000000)">
                <path d="M8.26653295,16.5291271 L8.3348514,18.4931341 C7.46948431,18.94463 6.49025314,19.1478031 5.3060666,19.1478031 C2.50500998,19.1478031 1.43468754,17.7707407 1.43468754,15.3778126 L1.43468754,10.3436337 L0,10.3436337 L0,8.40220143 L1.43468754,8.40220143 L1.43468754,5.39975389 L6.12588805,5.03855719 L6.12588805,8.40220143 L8.3348514,8.40220143 L8.3348514,10.3436337 L6.12588805,10.3436337 L6.12588805,15.6261354 C6.12588805,16.325954 6.37638905,16.6871507 7.12789204,16.6871507 C7.51502995,16.6871507 7.92494068,16.6420011 8.26653295,16.5291271 Z M24.9590086,18.9220552 L20.5866275,18.9220552 L18.8786662,12.7591366 L17.1707048,18.9220552 L12.7983237,18.9220552 L9.29130976,8.40220143 L13.8003277,8.40220143 L15.1666968,14.9714663 L17.0112951,8.40220143 L20.7460372,8.40220143 L22.5906355,14.9714663 L23.9570046,8.40220143 L28.4660225,8.40220143 L24.9590086,18.9220552 Z M41.173255,13.6621283 C41.173255,17.0031978 38.5999266,19.1478031 34.9335029,19.1478031 C31.289852,19.1478031 28.6937507,17.0031978 28.6937507,13.6621283 C28.6937507,10.3210589 31.289852,8.17645349 34.9335029,8.17645349 C38.5999266,8.17645349 41.173255,10.3210589 41.173255,13.6621283 Z M36.4820545,13.6621283 C36.4820545,11.6529717 35.8444156,10.9305783 34.9335029,10.9305783 C34.0225901,10.9305783 33.3849512,11.6529717 33.3849512,13.6621283 C33.3849512,15.6712849 34.0225901,16.3936783 34.9335029,16.3936783 C35.8444156,16.3936783 36.4820545,15.6712849 36.4820545,13.6621283 Z M49.2348326,18.9220552 L44.5436321,18.9220552 L44.5436321,7.88298118 L41.674257,7.88298118 L41.674257,5.91897414 L42.5168513,5.91897414 C44.2248126,5.91897414 45.1129525,5.30945471 45.8189099,4.33873859 L49.2348326,4.33873859 L49.2348326,18.9220552 Z M63.6272536,18.9220552 L51.55766,18.9220552 L51.55766,16.9354734 C51.7398426,16.8000246 51.8992523,16.6645759 52.058662,16.5517019 C53.8349418,15.1746395 54.7914002,14.4522461 56.7270897,12.8042862 C58.3667326,11.404649 58.8677346,10.2759093 58.8677346,8.8536973 C58.8677346,7.86040638 58.4578239,7.1154382 57.3647286,7.1154382 C56.2944062,7.1154382 55.816177,7.92813076 55.816177,9.07944523 C55.816177,9.77926383 56.0439052,10.5693816 56.4082703,11.2240506 L51.7626154,10.5919564 C51.5348872,9.86956301 51.4210231,9.21489399 51.4210231,8.58279978 C51.4210231,5.82867497 53.6072137,4.11299066 57.4785927,4.11299066 C61.1905621,4.11299066 63.5589351,5.82867497 63.5589351,8.4925006 C63.5589351,10.8854287 62.1242476,12.4882391 58.8677346,14.5425453 C57.8885034,15.1520647 57.2508645,15.5809858 56.6359985,15.9421825 L63.6272536,15.9421825 L63.6272536,18.9220552 Z" id="two12" fill="#FFFFFF"></path>
                <path d="M72.9734856,3.91989406 C72.9734856,5.94840295 71.4111058,7.25048636 69.1850601,7.25048636 C66.9728409,7.25048636 65.3966346,5.94840295 65.3966346,3.91989406 C65.3966346,1.89138517 66.9728409,0.589301761 69.1850601,0.589301761 C71.4111058,0.589301761 72.9734856,1.89138517 72.9734856,3.91989406 Z M70.1252533,3.91989406 C70.1252533,2.7000475 69.738115,2.26145098 69.1850601,2.26145098 C68.6320053,2.26145098 68.2448669,2.7000475 68.2448669,3.91989406 C68.2448669,5.13974063 68.6320053,5.57833714 69.1850601,5.57833714 C69.738115,5.57833714 70.1252533,5.13974063 70.1252533,3.91989406 Z" id="o" fill="#000000"></path>
            </g>
        </g>
    </g>
</svg>