<svg height="512pt" viewBox="0 -96 512 512" width="512pt" xmlns="http://www.w3.org/2000/svg"><g fill-rule="evenodd"><path d="m376.246094 93.257812c-28.75-.3125-50.789063 47.894532-52.289063 76.742188h103.5c12.3125-10.324219 21.792969-27.976562 2.996094-46.867188-21.332031-21.441406-40.703125-29.730468-54.207031-29.875zm0 0" fill="#fd4848"/><path d="m340.027344 120.453125c-4.203125-4.773437-9.851563-9.148437-15.597656-10.695313-13.082032-3.519531-33.839844-.765624-59.742188 14.160157-22.824219 13.152343-18.03125 32.773437-8.6875 46.082031h67.957031c.753907-14.496094 6.695313-33.886719 16.070313-49.546875zm0 0" fill="#ff836c"/><path d="m264.683594 123.917969c25.90625-14.925781 46.664062-17.683594 59.746094-14.160157 5.746093 1.546876 11.394531 5.921876 15.59375 10.695313 9.28125-15.5 21.921874-27.351563 36.222656-27.195313 13.503906.144532 32.875 8.433594 54.207031 29.875 18.796875 18.894532 9.316406 36.546876-2.996094 46.867188h44.542969v-128c0-17.601562-14.398438-32-32-32h-152c-17.597656 0-32 14.398438-32 32v6c0 17.601562-14.398438 32-32 32h-152c-17.601562 0-32 14.398438-32 32v58h216c-9.34375-13.308594-14.140625-32.929688 8.683594-46.082031zm0 0" fill="#ffba4a"/><path d="m323.957031 170h-283.957031c-16.5 0-30 13.5-30 30s13.5 30 30 30h432.003906c16.496094 0 29.996094-13.5 29.996094-30s-13.5-30-29.996094-30zm0 0" fill="#ffba4a"/><path d="m443.515625 230h-375.03125l-8.875 30h392.78125zm0 0" fill="#db8c60"/><path d="m59.609375 260 8.875-30h-28.484375l-15.605469 64.988281c-1.695312 6.335938 2.097657 12.90625 8.433594 14.605469s12.910156-2.097656 14.609375-8.433594zm0 0" fill="#fcac81"/><path d="m452.390625 260 12.171875 41.160156c1.699219 6.335938 8.273438 10.132813 14.609375 8.433594s10.128906-8.269531 8.433594-14.605469l-15.605469-64.988281h-28.484375zm0 0" fill="#fcac81"/></g><path d="m512 200c0-18.605469-12.765625-34.28125-30-38.734375v-119.265625c0-23.160156-18.839844-42-42-42h-152c-23.160156 0-42 18.839844-42 42v6c0 12.132812-9.871094 22-22 22h-83.039062c-5.519532 0-10 4.476562-10 10s4.480468 10 10 10h83.039062c23.160156 0 42-18.839844 42-42v-6c0-12.132812 9.867188-22 22-22h152c12.132812 0 22 9.867188 22 22v118h-14.265625c1.960937-4.328125 3.09375-8.804688 3.296875-13.304688.492188-10.828124-4.046875-21.125-13.488281-30.617187-20.859375-20.964844-42.589844-32.621094-61.1875-32.820313-.128907 0-.253907-.003906-.382813-.003906-13.519531 0-26.660156 7.785156-37.808594 22.183594-3.203124-2.222656-6.960937-4.214844-11.136718-5.335938-18.035156-4.855468-41.949219.523438-67.332032 15.152344-11.382812 6.558594-18.328124 15.191406-20.648437 25.652344-1.339844 6.058594-.980469 12.554688.96875 19.09375h-190.015625v-48c0-12.132812 9.867188-22 22-22 5.523438 0 10-4.476562 10-10s-4.476562-10-10-10c-23.160156 0-42 18.839844-42 42v49.265625c-17.234375 4.453125-30 20.132813-30 38.734375 0 17.792969 11.679688 32.902344 27.773438 38.082031l-13.074219 54.460938c-1.460938 5.601562-.667969 11.449219 2.238281 16.488281 2.933594 5.078125 7.660156 8.710938 13.304688 10.222656 1.894531.507813 3.792968.75 5.667968.75 9.632813 0 18.476563-6.40625 21.144532-16.113281l10.027343-33.890625h377.835938l10.027343 33.890625c2.667969 9.707031 11.511719 16.113281 21.144532 16.113281 1.875 0 3.777344-.242187 5.671875-.75 11.628906-3.117187 18.574219-15.078125 15.539062-26.710937l-13.074219-54.460938c16.09375-5.179687 27.773438-20.289062 27.773438-38.082031zm-135.863281-96.742188c12.933593.140626 30.589843 10.207032 47.226562 26.929688 5.328125 5.351562 7.914063 10.605469 7.691407 15.605469-.261719 5.800781-4.09375 10.847656-7.46875 14.207031h-88.265626c2.265626-11.335938 7.015626-23.875 13.15625-34.191406 8.582032-14.429688 18.691407-22.609375 27.660157-22.550782zm-117.5625 41.972657c1.054687-4.753907 4.789062-9.007813 11.105469-12.648438 20.148437-11.609375 39.648437-16.535156 52.152343-13.167969 1.71875.460938 3.699219 1.535157 5.6875 3.019532-6.09375 11.945312-10.542969 25.320312-12.511719 37.566406h-53.441406c-2.214844-4.132812-4.144531-9.5625-2.992187-14.769531zm-220.796875 153.34375c-.269532 1.007812-1.355469 1.632812-2.359375 1.359375-.621094-.164063-.972657-.582032-1.15625-.902344-.1875-.320312-.371094-.835938-.207031-1.453125.023437-.085937.042968-.171875.0625-.253906l13.765624-57.324219h7.21875l-17.253906 58.324219c-.027344.082031-.046875.167969-.070312.25zm35.21875-48.574219 2.960937-10h360.085938l2.960937 10zm403.589844 49.933594c-1.011719.269531-2.09375-.351563-2.363282-1.359375-.019531-.082031-.042968-.167969-.070312-.25l-17.25-58.324219h7.214844l13.765624 57.324219c.019532.082031.039063.167969.0625.25.269532 1.011719-.351562 2.089843-1.359374 2.359375zm-4.585938-79.933594h-432c-11.027344 0-20-8.972656-20-20s8.972656-20 20-20h432c11.027344 0 20 8.972656 20 20s-8.972656 20-20 20zm0 0"/><path d="m100.730469 90h.265625c5.523437 0 10-4.476562 10-10s-4.476563-10-10-10h-.265625c-5.523438 0-10 4.476562-10 10s4.476562 10 10 10zm0 0"/><path d="m443.035156 189.996094h-41.035156c-5.523438 0-10 4.480468-10 10 0 5.523437 4.476562 10 10 10h41.035156c5.523438 0 10-4.476563 10-10 0-5.519532-4.476562-10-10-10zm0 0"/><path d="m472 190h-.234375c-5.523437 0-10 4.476562-10 10s4.476563 10 10 10h.234375c5.523438 0 10-4.476562 10-10s-4.476562-10-10-10zm0 0"/></svg>