<svg height="511pt" viewBox="1 -65 511.999 511" width="511pt" xmlns="http://www.w3.org/2000/svg"><g fill-rule="evenodd"><path d="m205.648438 133.816406 77.273437-20.707031 25.878906 96.59375-77.273437 20.703125zm121.078124-28.058594v-60h80v60zm100.773438 154.992188c8.800781 0 16-7.199219 16-16v-218.25c0-8.800781-7.199219-16-16-16h-343c-8.800781 0-16 7.199219-16 16v218.25c0 8.800781 7.199219 16 16 16zm-259.773438-201.242188v120h-60v-120zm0 0" fill="#e1ac91"/><path d="m107.726562 59.507812h60v120h-60zm0 0" fill="#a6f074"/><path d="m205.636719 133.816406 77.273437-20.703125 25.878906 96.589844-77.273437 20.703125zm0 0" fill="#f7f7f7"/><path d="m326.726562 45.757812h80.003907v60h-80.003907zm0 0" fill="#ffd777"/><path d="m427.5 260.75h-401.5c-8.800781 0-16 7.199219-16 16.003906 0 8.796875 7.199219 15.996094 16 15.996094h460c8.800781 0 16-7.199219 16-15.996094 0-8.800781-7.199219-16-16-16h-58.5zm0 0" fill="#fcac81"/><path d="m68.5 324.75v-32h-32v61.75c0 8.796875 7.199219 16 16 16s16-7.203125 16-16zm0 0" fill="#db8c60"/><path d="m68.5 292.75h375v32h-375zm0 0" fill="#ae5e3c"/><path d="m443.5 324.75v29.75c0 8.796875 7.199219 16 16 16s16-7.203125 16-16v-61.75h-32zm0 0" fill="#db8c60"/></g><path d="m486 250.75h-33.207031c.457031-1.925781.707031-3.933594.707031-6v-218.25c0-14.335938-11.664062-26-26-26h-274.035156c-5.523438 0-10 4.476562-10 10 0 5.519531 4.476562 10 10 10h274.035156c3.253906 0 6 2.746094 6 6v218.25c0 3.253906-2.746094 6-6 6h-343c-3.25 0-6-2.746094-6-6v-218.25c0-3.253906 2.75-6 6-6 5.523438 0 10-4.480469 10-10 0-5.523438-4.476562-10-10-10-14.335938 0-26 11.664062-26 26v218.25c0 2.066406.25 4.074219.707031 6h-33.207031c-14.335938 0-26 11.664062-26 26 0 14.339844 11.664062 26 26 26h.5v51.75c0 14.335938 11.664062 26 26 26s26-11.664062 26-26v-19.75h355v19.75c0 14.335938 11.664062 26 26 26s26-11.664062 26-26v-51.75h.5c14.335938 0 26-11.664062 26-26s-11.664062-26-26-26zm-427.5 103.75c0 3.25-2.75 6-6 6-3.253906 0-6-2.75-6-6v-51.75h12zm20-39.75v-12h355v12zm387 39.75c0 3.25-2.746094 6-6 6s-6-2.75-6-6v-51.75h12zm20.5-71.75h-460c-3.253906 0-6-2.746094-6-6s2.746094-6 6-6h460c3.253906 0 6 2.746094 6 6s-2.746094 6-6 6zm0 0"/><path d="m107.726562 189.507812h60c5.519532 0 10-4.476562 10-10v-120c0-5.519531-4.480468-10-10-10h-60c-5.523437 0-10 4.480469-10 10v120c0 5.523438 4.476563 10 10 10zm10-120h40v100h-40zm0 0"/><path d="m196.988281 128.816406c-1.328125 2.296875-1.6875 5.027344-1 7.585938l25.882813 96.59375c1.195312 4.46875 5.234375 7.414062 9.652344 7.414062.855468 0 1.726562-.109375 2.59375-.34375l77.273437-20.703125c2.5625-.6875 4.746094-2.363281 6.070313-4.660156 1.328124-2.296875 1.6875-5.023437 1-7.585937l-25.882813-96.59375c-1.429687-5.335938-6.914063-8.503907-12.246094-7.070313l-77.273437 20.703125c-2.5625.6875-4.746094 2.363281-6.070313 4.660156zm78.859375-3.457031 20.707032 77.273437-57.957032 15.527344-20.703125-77.273437zm0 0"/><path d="m406.726562 35.757812h-80c-5.519531 0-10 4.476563-10 10v60c0 5.519532 4.480469 10 10 10h80c5.523438 0 10-4.480468 10-10v-60c0-5.523437-4.476562-10-10-10zm-10 60h-60v-40h60zm0 0"/><path d="m346.230469 152.503906c0-5.523437-4.476563-10-10-10h-.234375c-5.523438 0-10 4.476563-10 10 0 5.519532 4.476562 10 10 10h.234375c5.523437 0 10-4.476562 10-10zm0 0"/><path d="m230.964844 78.257812c5.523437 0 10-4.476562 10-10 0-5.523437-4.476563-10-10-10h-.234375c-5.523438 0-10 4.476563-10 10 0 5.523438 4.476562 10 10 10zm0 0"/><path d="m135.230469 211.757812c-5.523438 0-10 4.476563-10 10 0 5.519532 4.476562 10 10 10h.234375c5.523437 0 10-4.480468 10-10 0-5.523437-4.476563-10-10-10zm0 0"/><path d="m413.261719 220.75c-5.519531 0-10 4.476562-10 10 0 5.519531 4.480469 10 10 10h.238281c5.519531 0 10-4.480469 10-10 0-5.523438-4.480469-10-10-10zm0 0"/><path d="m343.496094 240.746094h41.035156c5.523438 0 10-4.476563 10-9.996094 0-5.523438-4.476562-10-10-10h-41.035156c-5.519532 0-10 4.476562-10 10 0 5.519531 4.480468 9.996094 10 9.996094zm0 0"/><path d="m398.480469 178.253906c0-5.523437-4.476563-10-10-10h-.234375c-5.523438 0-10 4.476563-10 10 0 5.519532 4.476562 10 10 10h.234375c5.523437 0 10-4.476562 10-10zm0 0"/><path d="m113.230469 20.5h.269531c5.523438 0 10-4.480469 10-10 0-5.523438-4.476562-10-10-10h-.269531c-5.523438 0-10 4.476562-10 10 0 5.519531 4.476562 10 10 10zm0 0"/></svg>