<svg id="svg" version="1.1" width="400" height="107" xmlns="http://www.w3.org/2000/svg" xmlns:xlink="http://www.w3.org/1999/xlink" style="display: block;"><g id="svgg"><path id="path0" d="M43.813 1.926 C 23.819 9.744,21.471 21.089,35.138 43.842 C 43.556 57.856,44.195 63.040,38.241 68.994 C 34.711 72.524,33.681 73.000,29.568 73.000 C 15.875 73.000,10.471 58.341,21.034 49.852 C 31.039 41.812,19.055 41.107,8.039 49.087 C -14.267 65.245,17.964 91.399,43.783 78.091 C 57.451 71.046,60.538 58.201,52.009 43.862 C 39.027 22.038,38.025 14.614,47.299 8.960 C 56.794 3.170,62.539 9.815,55.928 18.941 C 50.961 25.797,53.153 27.859,60.704 23.433 C 68.628 18.790,72.887 10.395,70.029 5.055 C 67.445 0.226,52.670 -1.537,43.813 1.926 M195.423 3.967 C 189.704 6.281,183.432 15.463,178.356 28.953 L 175.139 37.500 169.695 37.166 C 158.360 36.470,142.000 51.255,142.000 62.195 C 142.000 71.005,124.454 77.830,118.452 71.354 C 114.470 67.057,115.143 65.000,120.532 65.000 C 136.171 65.000,144.465 46.022,132.035 38.680 C 120.762 32.021,102.000 46.947,102.000 62.575 C 102.000 70.959,85.991 77.527,79.637 71.750 C 74.691 67.253,75.140 65.000,80.982 65.000 C 95.886 65.000,104.312 48.331,93.857 39.533 C 78.882 26.933,53.186 58.426,65.382 74.431 C 72.362 83.591,91.143 83.790,100.706 74.806 L 102.937 72.710 106.822 76.220 C 115.146 83.740,129.718 83.345,139.341 75.339 L 142.183 72.975 144.378 76.238 C 149.291 83.540,159.219 83.205,167.849 75.446 L 172.592 71.181 173.862 74.050 C 177.014 81.170,188.376 83.667,195.660 78.840 L 199.500 76.296 199.192 84.898 C 198.707 98.456,205.078 107.000,215.672 107.000 C 225.037 107.000,230.553 91.649,224.250 83.124 C 221.377 79.238,221.335 79.363,225.750 78.649 C 227.813 78.316,231.187 76.893,233.248 75.487 L 236.997 72.930 240.411 76.344 C 246.223 82.157,256.152 83.179,264.350 78.809 C 265.368 78.266,268.634 77.674,271.608 77.492 C 275.037 77.283,278.676 76.235,281.552 74.627 L 286.088 72.092 289.556 75.930 C 293.360 80.141,299.953 82.512,304.759 81.398 C 308.673 80.492,315.998 76.136,316.011 74.708 C 316.017 74.044,317.131 74.906,318.486 76.625 C 321.621 80.602,328.343 82.523,333.892 81.029 C 337.850 79.963,346.000 74.634,346.000 73.111 C 346.000 72.630,347.704 73.939,349.786 76.022 C 356.034 82.269,366.976 83.403,373.669 78.497 C 374.678 77.757,376.685 77.391,378.140 77.680 C 385.323 79.111,400.000 70.701,400.000 65.155 C 400.000 62.038,396.932 62.417,393.544 65.954 C 390.571 69.057,385.269 72.000,382.652 72.000 C 381.421 72.000,381.693 70.886,383.989 66.521 C 392.216 50.882,385.991 36.959,370.800 37.022 C 358.219 37.074,347.578 47.132,345.388 61.042 C 344.133 69.018,336.302 76.156,332.380 72.900 C 330.212 71.102,331.059 63.060,334.466 53.075 C 338.010 42.689,335.915 37.000,328.546 37.000 C 325.069 37.000,320.593 46.629,317.028 61.780 C 314.147 74.026,301.445 78.222,299.450 67.586 C 298.388 61.926,299.913 58.087,306.193 50.611 C 322.296 31.440,330.030 14.274,325.607 7.522 C 314.949 -8.743,290.743 21.473,285.784 57.231 C 284.479 66.638,284.057 67.420,278.857 70.073 C 272.395 73.370,271.586 72.751,274.595 66.813 C 279.789 56.562,278.819 45.252,272.321 40.296 C 259.361 30.410,236.000 44.398,236.000 62.043 C 236.000 70.132,219.941 77.454,215.071 71.585 C 212.861 68.923,214.988 61.932,219.499 57.034 C 242.265 32.308,250.909 9.739,239.667 4.378 C 227.062 -1.633,210.818 21.440,202.971 56.500 C 198.796 75.154,186.561 80.808,185.225 64.699 C 184.781 59.350,184.875 59.129,192.429 47.641 C 201.424 33.961,207.348 23.152,209.058 17.302 C 211.737 8.139,203.945 0.519,195.423 3.967 M202.988 12.750 C 202.966 17.566,188.180 48.041,187.237 45.212 C 186.818 43.953,192.624 25.917,195.666 19.034 C 199.455 10.458,203.012 7.406,202.988 12.750 M336.301 11.958 C 330.253 15.646,329.741 26.144,335.538 27.599 C 343.022 29.477,350.455 17.455,345.113 12.113 C 342.492 9.492,340.406 9.455,336.301 11.958 M238.737 14.927 C 237.825 21.727,222.104 50.437,220.287 48.620 C 219.027 47.360,228.768 22.432,233.327 15.250 C 236.885 9.645,239.466 9.491,238.737 14.927 M321.187 14.093 C 320.422 19.988,304.000 49.333,302.376 47.709 C 300.856 46.189,313.471 17.505,317.761 12.726 C 319.857 10.391,321.579 11.078,321.187 14.093 M90.612 44.430 C 92.027 48.118,83.328 59.000,78.965 59.000 C 76.469 59.000,76.492 57.681,79.078 52.339 C 82.435 45.404,89.204 40.762,90.612 44.430 M130.000 45.162 C 130.000 49.265,125.076 56.064,120.678 58.033 C 115.618 60.298,115.663 60.343,117.514 54.920 C 120.350 46.604,130.000 39.063,130.000 45.162 M172.167 54.100 C 171.805 65.394,170.102 68.759,162.813 72.578 C 151.872 78.311,155.785 52.863,167.020 45.227 C 172.124 41.758,172.539 42.473,172.167 54.100 M264.965 44.934 C 266.834 48.427,264.197 67.858,262.035 66.522 C 260.294 65.446,255.811 70.230,256.277 72.667 C 257.165 77.315,251.998 76.824,250.030 72.073 C 245.618 61.421,259.899 35.469,264.965 44.934 M373.800 44.200 C 377.407 47.807,374.071 63.813,369.000 67.233 C 366.382 68.998,365.490 70.320,365.461 72.476 C 365.414 76.040,363.542 76.798,360.831 74.353 C 359.018 72.717,358.830 71.622,359.223 65.000 C 360.011 51.739,368.799 39.199,373.800 44.200 M219.099 89.434 C 221.448 98.013,216.978 105.726,213.526 99.050 C 211.950 96.002,211.306 80.027,212.703 78.630 C 213.665 77.668,217.780 84.619,219.099 89.434 " stroke="none" fill="#000000" fill-rule="evenodd"></path></g></svg>