<?xml version="1.0" standalone="no"?>
<!DOCTYPE svg PUBLIC "-//W3C//DTD SVG 20010904//EN"
 "http://www.w3.org/TR/2001/REC-SVG-20010904/DTD/svg10.dtd">
<svg version="1.0" xmlns="http://www.w3.org/2000/svg"
 width="398.000000pt" height="398.000000pt" viewBox="0 0 398.000000 398.000000"
 preserveAspectRatio="xMidYMid meet">
<metadata>
Created by potrace 1.15, written by Peter Selinger 2001-2017
</metadata>
<g transform="translate(0.000000,398.000000) scale(0.100000,-0.100000)"
fill="#000000" stroke="none">
<path d="M1829 2979 c-289 -42 -500 -164 -588 -340 -23 -47 -42 -67 -93 -102
-86 -59 -121 -116 -125 -205 -1 -37 -8 -99 -14 -139 -10 -57 -10 -101 0 -221
l13 -149 -28 -43 c-24 -36 -29 -56 -33 -117 -7 -139 30 -261 114 -376 54 -74
85 -97 130 -97 19 0 26 -7 31 -27 23 -102 39 -153 60 -195 30 -59 156 -194
236 -254 48 -35 55 -44 43 -54 -8 -6 -19 -27 -25 -45 -11 -33 -16 -36 -136
-75 -69 -22 -162 -45 -206 -51 -79 -10 -158 -40 -158 -59 0 -13 195 -110 290
-145 112 -40 243 -73 354 -90 86 -12 103 -12 127 0 15 8 29 20 31 27 3 8 12 0
21 -17 9 -16 16 -26 17 -22 0 5 -5 18 -11 29 -7 14 -8 23 -1 30 7 7 14 -3 23
-31 7 -22 18 -41 26 -41 17 0 17 6 -6 71 -41 119 -66 155 -149 211 -75 51 -76
53 -47 58 21 4 31 12 33 27 l3 21 57 -21 c42 -15 81 -20 147 -20 82 0 113 6
188 38 13 6 17 2 17 -17 0 -16 8 -28 21 -34 20 -9 15 -14 -48 -60 -71 -52
-102 -97 -138 -203 -24 -69 -25 -68 68 -63 90 5 117 14 117 40 0 9 4 24 10 32
7 12 12 12 29 -4 11 -10 18 -22 15 -27 -8 -14 39 -21 66 -10 14 5 19 10 13 10
-15 1 -18 41 -3 41 6 0 27 -7 48 -15 57 -25 69 -19 188 88 48 43 70 47 86 12
6 -14 15 -25 21 -25 16 0 217 104 217 113 0 14 -83 46 -150 56 -36 6 -126 29
-199 51 -74 22 -135 40 -137 40 -4 0 -55 93 -52 94 30 15 133 105 187 161 90
95 117 143 145 257 20 83 25 93 47 96 53 6 81 27 130 95 62 84 85 135 104 225
28 130 17 231 -31 282 -23 25 -24 28 -14 129 5 56 13 107 16 113 4 6 8 69 10
140 4 140 -7 191 -62 301 -14 27 -21 46 -15 42 19 -11 12 9 -18 56 -15 24 -59
74 -97 110 -103 97 -218 164 -379 217 l-30 10 35 1 c64 2 68 18 9 36 -134 40
-398 57 -550 34z m-172 -613 c84 -42 216 -69 333 -70 108 0 214 17 226 36 5 8
-1 9 -17 4 -39 -11 -266 -18 -249 -8 8 5 90 18 182 28 189 20 307 13 413 -27
96 -36 103 -46 116 -179 6 -63 20 -140 30 -172 17 -49 20 -85 21 -280 0 -222
0 -224 -35 -373 -19 -82 -41 -177 -47 -210 -21 -105 -55 -162 -159 -265 -97
-95 -258 -212 -347 -251 -110 -49 -244 -42 -353 17 -177 97 -382 276 -434 381
-14 26 -32 86 -42 133 -9 47 -32 149 -50 227 -33 135 -34 150 -36 350 -1 193
0 212 21 263 15 38 26 98 35 196 17 182 19 185 93 178 61 -7 160 9 202 32 34
18 41 17 97 -10z m-555 -620 c4 -32 3 -33 -17 -20 -35 23 -36 5 -2 -25 l31
-28 -18 -57 c-12 -36 -16 -69 -12 -91 10 -53 21 -49 21 8 0 29 4 61 8 72 8 19
9 19 27 -5 13 -16 20 -41 20 -70 0 -25 7 -72 15 -105 8 -33 14 -66 15 -72 0
-21 -22 -15 -54 15 l-29 27 22 -32 c14 -21 31 -33 45 -33 20 0 26 -8 35 -44 6
-25 11 -47 11 -50 0 -2 -12 -1 -27 3 -32 9 -101 92 -137 166 -62 129 -64 344
-4 368 33 14 46 7 50 -27z m1778 24 c57 -30 51 -250 -9 -368 -38 -74 -108
-159 -136 -164 -26 -5 -26 -5 -20 36 9 52 9 52 43 59 17 3 37 18 47 34 l18 28
-30 -27 c-16 -16 -36 -28 -45 -28 -14 0 -13 9 3 78 10 42 19 100 19 127 0 28
7 58 14 68 12 16 14 16 27 1 8 -9 13 -41 14 -74 0 -62 8 -70 19 -19 4 19 -1
57 -11 92 l-16 60 31 28 c37 33 27 48 -12 18 l-26 -20 0 34 c0 18 3 37 7 40 9
10 42 8 63 -3z m-391 -1270 c22 -6 41 -16 41 -22 0 -7 12 -25 27 -40 26 -27
27 -30 13 -55 -19 -34 -101 -102 -127 -108 -15 -2 -23 3 -28 18 -7 20 -8 19
-14 -10 -5 -26 -9 -30 -21 -23 -8 5 -25 10 -37 10 -25 0 -26 3 -17 38 6 22 7
22 28 5 21 -18 21 -18 3 4 -17 20 -18 27 -6 99 15 88 37 118 74 104 12 -5 41
-14 64 -20z"/>
<path d="M1535 2084 c-110 -28 -168 -71 -200 -148 l-17 -40 24 18 c12 9 52 31
88 49 60 29 73 32 160 32 80 -1 105 -5 159 -27 36 -15 68 -25 73 -22 4 3 8 21
8 39 0 39 -17 54 -90 80 -46 16 -170 28 -205 19z"/>
<path d="M2230 2077 c-84 -19 -124 -46 -128 -86 -2 -19 0 -37 5 -42 5 -5 38 4
73 18 55 23 80 27 160 28 87 0 100 -3 160 -32 36 -18 75 -40 87 -49 22 -16 22
-16 10 16 -20 55 -82 116 -134 134 -65 22 -167 28 -233 13z"/>
<path d="M1515 1810 c-55 -9 -95 -32 -137 -78 -49 -54 -54 -76 -28 -109 40
-51 48 -53 234 -57 l176 -4 34 27 c20 14 35 34 36 44 0 30 -37 92 -74 125 -51
44 -153 66 -241 52z m7 -63 c-31 -32 -37 -78 -18 -116 16 -30 18 -31 86 -31
60 0 71 3 84 22 25 36 20 87 -11 121 l-28 29 25 -7 c45 -13 84 -40 107 -75 29
-42 29 -66 1 -84 -28 -18 -39 -18 -211 -17 -132 1 -139 2 -162 26 -31 30 -31
34 -2 76 23 35 96 79 131 79 19 0 19 -1 -2 -23z"/>
<path d="M2289 1809 c-54 -8 -100 -30 -130 -62 -21 -22 -73 -116 -67 -122 2
-2 20 -17 41 -33 l37 -30 178 4 c176 5 177 5 205 32 44 41 50 58 33 89 -18 35
-72 86 -111 106 -37 19 -123 26 -186 16z m198 -71 c46 -27 77 -81 63 -107 -18
-34 -45 -41 -157 -39 -60 1 -83 3 -52 5 38 3 62 10 73 22 21 23 33 81 17 81
-7 0 -10 4 -7 9 3 5 -4 21 -16 36 l-21 27 34 -7 c19 -4 48 -16 66 -27z"/>
<path d="M2279 1054 c-78 -40 -398 -52 -544 -19 -44 10 -93 18 -109 19 -34 1
-48 -23 -17 -31 11 -3 23 -14 26 -24 12 -38 91 -106 151 -130 50 -19 78 -23
179 -23 158 -1 208 16 282 93 82 84 93 97 93 108 0 17 -35 21 -61 7z m-503
-59 c147 -22 308 -19 459 10 l40 8 -30 -35 c-80 -95 -248 -130 -420 -87 -52
13 -107 50 -135 88 -12 17 -20 31 -17 31 2 0 48 -7 103 -15z"/>
</g>
</svg>
