<?xml version="1.0" standalone="no"?>
<!DOCTYPE svg PUBLIC "-//W3C//DTD SVG 20010904//EN"
 "http://www.w3.org/TR/2001/REC-SVG-20010904/DTD/svg10.dtd">
<svg version="1.0" xmlns="http://www.w3.org/2000/svg"
 width="374.000000pt" height="143.000000pt" viewBox="0 0 374.000000 143.000000"
 preserveAspectRatio="xMidYMid meet">
<metadata>
Created by potrace 1.14, written by Peter Selinger 2001-2017
</metadata>
<g transform="translate(0.000000,143.000000) scale(0.100000,-0.100000)"
fill="#000000" stroke="none">
<path d="M1325 1401 c-41 -25 -60 -49 -75 -94 -41 -130 93 -232 221 -166 97
49 106 204 16 259 -42 26 -121 26 -162 1z"/>
<path d="M1882 1379 c-90 -9 -166 -19 -169 -22 -3 -3 -6 -20 -6 -38 -2 -30 1
-34 46 -48 38 -12 47 -19 47 -38 0 -12 -31 -260 -70 -550 -38 -290 -70 -543
-70 -561 0 -48 16 -71 63 -93 49 -22 149 -25 210 -7 22 7 63 33 90 58 50 46
51 47 38 78 l-13 31 -39 -22 c-35 -20 -40 -21 -54 -6 -15 14 -9 66 60 595 41
318 77 587 79 597 3 11 -5 22 -22 30 -23 11 -54 11 -190 -4z"/>
<path d="M2970 1362 c-74 -8 -138 -19 -142 -26 -4 -6 -8 -23 -8 -38 0 -23 7
-29 50 -43 28 -9 50 -18 50 -19 0 -11 -141 -1169 -145 -1193 l-6 -33 140 0
c138 0 141 0 146 23 2 12 18 141 35 287 18 153 37 280 46 300 25 55 84 130
127 161 48 35 90 38 111 7 26 -36 20 -178 -15 -373 -37 -207 -45 -310 -27
-345 24 -46 72 -62 173 -57 96 4 141 20 203 72 28 23 30 29 20 55 -12 34 -15
36 -46 14 -12 -8 -32 -14 -45 -12 -34 5 -33 54 8 297 57 349 44 455 -64 510
-123 63 -294 13 -395 -116 -20 -25 -36 -40 -36 -33 0 16 58 483 65 526 4 26 1
33 -20 42 -31 14 -49 14 -225 -6z"/>
<path d="M155 1268 c-2 -7 -6 -30 -10 -50 l-6 -37 61 -12 c33 -6 60 -14 60
-18 0 -16 -131 -1007 -135 -1018 -2 -6 -24 -15 -48 -18 -58 -9 -63 -13 -71
-62 l-6 -43 325 0 325 0 0 44 0 45 -42 6 c-24 3 -74 9 -113 13 -67 7 -70 9
-68 32 5 58 54 435 57 437 1 2 87 -4 191 -13 150 -13 189 -14 195 -4 4 7 11
42 15 78 4 36 9 71 12 79 4 10 -33 13 -196 13 -111 0 -201 2 -201 5 0 3 14 96
30 207 17 110 30 202 30 204 0 2 65 4 145 4 l144 0 6 -32 c3 -18 9 -64 13
-103 l7 -70 93 -3 c50 -1 92 -1 93 0 5 17 35 315 32 321 -2 4 -213 7 -469 7
-363 0 -465 -3 -469 -12z"/>
<path d="M2419 1148 c-13 -29 -40 -78 -60 -109 -31 -48 -45 -59 -88 -75 -62
-22 -67 -27 -76 -81 l-7 -43 46 0 c41 0 46 -2 46 -22 0 -13 -18 -153 -40 -313
-22 -159 -40 -314 -40 -345 0 -102 55 -150 172 -150 111 1 212 36 291 103 36
31 37 33 26 65 -6 17 -12 32 -14 32 -1 0 -22 -9 -46 -20 -53 -24 -112 -26
-133 -4 -9 9 -16 32 -16 54 0 36 64 525 75 578 5 21 10 22 89 22 l84 0 7 43
c3 23 8 54 11 70 l6 27 -88 0 -87 0 7 55 c3 30 9 80 12 110 l7 55 -80 0 -80 0
-24 -52z"/>
<path d="M1276 969 c-77 -11 -141 -21 -143 -23 -2 -2 -6 -19 -9 -38 -6 -33 -4
-36 40 -62 25 -15 46 -30 46 -34 0 -4 -21 -166 -47 -361 -52 -395 -53 -388 17
-423 49 -25 171 -24 226 1 42 19 124 86 124 102 0 4 -4 19 -10 33 l-9 25 -41
-22 c-40 -21 -41 -21 -55 -3 -8 10 -12 30 -9 45 2 14 27 190 55 391 47 344 49
365 33 377 -22 16 -46 15 -218 -8z"/>
</g>
</svg>
