<?xml version="1.0" standalone="no"?>
<!DOCTYPE svg PUBLIC "-//W3C//DTD SVG 20010904//EN"
 "http://www.w3.org/TR/2001/REC-SVG-20010904/DTD/svg10.dtd">
<svg version="1.0" xmlns="http://www.w3.org/2000/svg"
 width="300.000000pt" height="130.000000pt" viewBox="0 0 300.000000 130.000000"
 preserveAspectRatio="xMidYMid meet">
<metadata>
Created by potrace 1.10, written by Peter Selinger 2001-2011
</metadata>
<g transform="translate(0.000000,130.000000) scale(0.100000,-0.100000)"
fill="#14adc4" stroke="none">
<path d="M2925 1266 c-77 -36 -134 -93 -258 -259 -148 -198 -196 -237 -293
-237 -59 0 -102 23 -248 134 -148 112 -191 138 -292 173 -68 23 -96 27 -194
27 -136 1 -212 -20 -307 -85 -79 -55 -121 -97 -211 -209 -151 -188 -199 -233
-264 -251 -90 -24 -195 32 -299 159 -94 115 -187 208 -238 241 -89 56 -214 77
-286 47 -33 -14 -42 -26 -29 -38 3 -4 22 1 42 9 67 28 205 1 273 -54 67 -54
118 -106 185 -189 119 -148 206 -207 303 -207 91 0 166 50 267 178 21 28 41
52 44 55 3 3 23 27 45 55 177 221 353 296 587 251 124 -24 216 -74 388 -210
153 -121 230 -143 331 -93 65 32 121 88 213 215 116 161 165 212 248 256 96
51 90 78 -7 32z"/>
</g>
</svg>
