<svg id="svg" version="1.1" width="400" height="85" xmlns="http://www.w3.org/2000/svg" xmlns:xlink="http://www.w3.org/1999/xlink" ><g id="svgg"><path id="path0" d="M29.471 1.133 C -3.119 9.898,-11.057 60.001,17.264 78.175 C 45.900 96.550,80.324 74.087,78.683 38.096 C 77.510 12.358,53.839 -5.420,29.471 1.133 M254.935 1.093 C 217.793 10.472,214.655 69.375,250.596 82.553 C 264.686 87.720,286.012 81.882,294.949 70.411 C 297.988 66.511,298.065 65.770,295.616 63.987 L 293.741 62.621 290.200 66.069 C 268.913 86.803,242.294 73.273,242.294 41.719 L 242.294 36.783 253.161 36.313 C 259.137 36.054,271.443 35.842,280.507 35.842 L 296.987 35.842 296.549 30.166 C 294.866 8.339,276.647 -4.389,254.935 1.093 M356.896 0.760 C 352.872 1.712,346.396 4.769,342.552 7.531 L 339.068 10.033 339.068 5.375 L 339.068 0.717 336.491 0.717 C 335.073 0.717,333.025 1.350,331.939 2.123 C 329.436 3.905,324.811 4.978,319.534 5.000 L 315.412 5.018 315.412 8.602 L 315.412 12.186 320.609 12.186 L 325.806 12.185 325.632 38.172 C 325.395 73.451,325.076 75.184,318.595 76.399 C 316.361 76.819,316.129 77.091,316.129 79.291 L 316.129 81.720 332.616 81.720 L 349.104 81.720 349.104 78.232 L 349.104 74.743 343.976 75.110 L 338.847 75.477 339.316 73.133 C 339.574 71.843,339.785 59.012,339.785 44.619 L 339.785 18.449 342.473 15.913 C 351.160 7.719,363.851 6.503,370.332 13.242 C 375.913 19.045,377.428 28.399,376.910 53.854 C 376.528 72.642,376.125 74.086,370.755 75.964 C 368.042 76.912,367.742 77.251,367.742 79.369 L 367.742 81.720 383.871 81.720 L 400.000 81.720 400.000 78.219 L 400.000 74.717 395.341 75.091 L 390.681 75.465 390.681 50.964 C 390.681 23.575,390.124 18.639,386.202 11.258 C 381.379 2.180,369.252 -2.164,356.896 0.760 M90.323 5.735 L 90.323 9.319 94.444 9.342 L 98.566 9.365 110.753 45.896 L 122.939 82.426 126.269 82.431 L 129.600 82.437 132.424 74.373 C 133.978 69.937,138.447 56.860,142.356 45.313 C 148.956 25.812,149.522 24.460,150.302 26.316 C 150.763 27.416,155.279 40.489,160.337 55.368 L 169.534 82.421 173.118 82.425 L 176.703 82.429 188.419 49.924 C 202.971 9.551,202.970 9.552,212.007 8.184 C 214.990 7.732,215.054 7.664,215.054 4.937 L 215.054 2.151 201.075 2.151 L 187.097 2.151 187.097 5.735 L 187.097 9.319 191.116 9.319 C 194.677 9.319,195.072 9.462,194.582 10.573 C 194.277 11.263,191.330 19.570,188.032 29.032 C 184.735 38.495,180.832 49.674,179.360 53.876 L 176.683 61.515 167.800 35.596 C 162.914 21.341,158.299 7.984,157.543 5.914 L 156.169 2.151 152.806 2.151 L 149.442 2.151 139.792 31.162 C 134.484 47.118,129.930 59.780,129.671 59.298 C 128.223 56.604,116.662 19.138,116.350 16.129 C 115.891 11.704,117.719 8.907,121.536 8.191 C 123.858 7.755,124.014 7.550,124.014 4.938 L 124.014 2.151 107.168 2.151 L 90.323 2.151 90.323 5.735 M48.377 9.237 C 68.044 20.270,66.449 71.043,46.257 76.697 C 30.299 81.165,17.949 66.923,16.736 42.652 C 15.416 16.248,31.186 -0.406,48.377 9.237 M272.313 8.555 C 276.439 10.763,280.337 18.177,281.289 25.627 L 281.770 29.391 262.108 29.391 L 242.446 29.391 243.124 26.344 C 246.478 11.269,260.929 2.462,272.313 8.555 " stroke="none" fill="#252525" fill-rule="evenodd"></path></g></svg>