<svg id="svg" version="1.1" width="400" height="83" xmlns="http://www.w3.org/2000/svg" xmlns:xlink="http://www.w3.org/1999/xlink" style="display: block;"><g id="svgg"><path id="path0" d="M295.455 2.455 C 292.134 5.775,292.010 12.193,295.223 14.443 C 301.202 18.632,309.000 14.477,309.000 7.102 C 309.000 0.150,300.631 -2.722,295.455 2.455 M14.939 4.727 L 10.378 5.094 5.572 39.297 C 2.929 58.109,0.548 74.686,0.281 76.136 C -0.442 80.063,7.135 82.438,20.500 82.473 C 38.362 82.521,47.807 73.824,51.166 54.237 C 54.917 32.365,41.563 19.479,24.532 28.534 L 19.766 31.068 20.331 28.784 C 20.642 27.528,21.393 22.450,22.000 17.500 C 22.607 12.550,23.354 7.488,23.660 6.250 C 24.126 4.365,23.834 4.029,21.858 4.180 C 20.561 4.279,17.448 4.526,14.939 4.727 M186.436 14.681 C 184.873 14.991,184.011 16.477,182.890 20.795 L 181.409 26.500 176.705 26.805 C 172.933 27.049,172.000 27.471,172.000 28.930 C 172.000 29.931,171.719 32.156,171.375 33.875 C 170.756 36.971,170.788 37.000,174.875 37.000 C 177.144 37.000,179.000 37.428,179.000 37.952 C 179.000 38.476,178.063 45.338,176.917 53.202 C 174.368 70.702,174.693 75.154,178.822 79.284 C 183.307 83.769,195.540 84.194,201.919 80.087 C 204.105 78.679,200.482 69.564,198.142 70.587 C 188.796 74.673,187.789 72.361,190.368 52.750 L 192.439 37.000 198.101 37.000 L 203.763 37.000 204.881 32.557 C 205.497 30.114,206.000 27.864,206.000 27.557 C 206.000 27.251,203.295 27.000,199.988 27.000 L 193.976 27.000 194.551 22.750 C 194.867 20.413,195.331 17.488,195.582 16.250 C 196.050 13.942,192.897 13.401,186.436 14.681 M77.500 27.867 C 58.106 36.708,52.278 69.214,68.197 79.749 C 74.370 83.834,87.854 83.799,96.250 79.676 C 102.748 76.486,102.774 76.427,99.901 71.557 C 97.460 67.420,97.809 67.526,93.700 69.669 C 83.615 74.928,73.000 71.800,73.000 63.569 C 73.000 61.966,73.461 61.817,84.047 59.984 C 102.771 56.742,112.961 43.901,105.620 32.799 C 101.362 26.358,86.520 23.755,77.500 27.867 M133.173 27.269 C 114.196 33.341,106.099 69.026,121.148 80.261 C 126.817 84.494,136.664 83.731,142.600 78.600 L 146.492 75.236 149.496 78.554 C 154.336 83.900,158.091 83.999,160.249 78.838 C 161.891 74.913,161.895 74.541,160.311 72.791 C 158.725 71.038,158.788 69.839,161.377 52.714 C 162.891 42.696,164.213 33.600,164.315 32.500 C 164.747 27.832,142.888 24.160,133.173 27.269 M339.419 27.886 C 337.724 28.920,335.376 31.055,334.201 32.633 L 332.063 35.500 332.032 31.250 L 332.000 27.000 326.000 27.000 C 322.700 27.000,320.000 27.410,320.000 27.912 C 320.000 28.413,318.684 38.200,317.076 49.662 C 315.467 61.123,313.840 73.088,313.460 76.250 L 312.770 82.000 319.276 82.000 L 325.783 82.000 327.410 70.250 C 330.598 47.227,336.216 37.777,345.875 39.195 C 348.625 39.599,352.000 32.887,352.000 27.015 C 352.000 25.235,342.712 25.878,339.419 27.886 M367.868 28.800 C 349.725 38.278,345.250 70.531,360.741 80.163 C 366.554 83.777,381.377 83.530,388.750 79.696 C 394.646 76.631,394.846 76.105,391.918 71.368 C 389.455 67.383,389.958 67.471,384.768 70.118 C 375.997 74.593,367.268 72.208,365.477 64.848 C 364.895 62.455,365.158 62.133,368.166 61.553 C 391.883 56.981,398.795 52.765,399.695 42.324 C 400.898 28.367,383.141 20.821,367.868 28.800 M211.379 35.750 C 211.745 40.563,212.706 52.600,213.515 62.500 C 214.325 72.400,214.990 80.856,214.993 81.290 C 214.997 81.725,218.713 81.950,223.250 81.790 L 231.500 81.500 237.898 62.500 C 241.417 52.050,244.454 43.312,244.648 43.083 C 245.587 41.972,245.871 44.908,246.546 62.750 L 247.275 82.000 255.516 82.000 L 263.756 82.000 265.860 76.250 C 269.236 67.021,283.000 27.767,283.000 27.366 C 283.000 27.165,280.152 27.000,276.670 27.000 L 270.341 27.000 263.420 48.667 L 256.500 70.333 255.786 57.917 C 255.393 51.087,254.789 41.337,254.443 36.250 L 253.813 27.000 247.151 27.000 L 240.489 27.000 234.679 43.750 C 231.483 52.962,228.022 62.750,226.987 65.500 L 225.104 70.500 225.048 60.000 C 225.016 54.225,224.699 44.438,224.343 38.250 L 223.694 27.000 217.204 27.000 L 210.713 27.000 211.379 35.750 M291.616 28.750 C 291.330 29.712,290.602 34.325,289.998 39.000 C 288.667 49.290,285.179 74.249,284.442 78.750 L 283.909 82.000 290.751 82.000 L 297.592 82.000 300.856 58.250 C 302.651 45.188,304.375 32.813,304.688 30.750 L 305.256 27.000 298.695 27.000 C 293.312 27.000,292.042 27.314,291.616 28.750 M91.777 36.557 C 98.867 41.522,91.463 49.579,77.101 52.527 L 73.702 53.224 74.311 49.472 C 75.918 39.567,85.724 32.317,91.777 36.557 M383.777 36.557 C 388.977 40.199,384.711 48.332,376.344 50.728 C 364.657 54.075,363.937 53.431,368.750 43.929 C 372.637 36.254,378.935 33.165,383.777 36.557 M35.927 38.635 C 41.871 46.191,35.321 68.639,26.152 72.135 C 22.312 73.600,15.005 72.326,14.983 70.189 C 14.921 64.210,18.533 43.236,19.906 41.607 C 24.869 35.713,32.514 34.295,35.927 38.635 M149.227 36.534 C 150.402 36.985,150.342 38.886,148.842 48.784 C 147.865 55.228,147.051 61.253,147.033 62.173 C 146.941 66.818,137.836 73.562,133.070 72.515 C 123.435 70.399,126.837 43.277,137.500 37.201 C 139.579 36.016,146.807 35.605,149.227 36.534 " stroke="none" fill="#ffffff" fill-rule="evenodd"></path></g></svg>