<svg id="svg" version="1.1" width="1843" height="1835" viewBox="0 0 1843 1835" xmlns="http://www.w3.org/2000/svg" xmlns:xlink="http://www.w3.org/1999/xlink"><g id="svgg"><path id="path0" d="M262.290 0.130 C 261.812 0.174,260.201 0.315,258.709 0.442 C 231.871 2.728,203.910 13.727,174.281 33.655 C 139.133 57.295,108.205 105.990,101.418 148.375 L 100.814 152.148 89.094 158.908 L 77.374 165.668 75.682 176.215 C 74.751 182.015,73.996 186.907,74.003 187.086 C 74.011 187.290,79.265 190.203,88.098 194.900 L 102.180 202.387 102.774 204.666 C 104.388 210.868,108.464 221.473,110.515 224.808 C 110.757 225.202,110.920 225.558,110.877 225.598 C 110.659 225.798,94.830 216.184,89.853 212.829 C 41.607 180.302,31.685 136.691,59.765 80.579 L 62.042 76.028 46.594 60.626 C 38.097 52.154,30.398 44.515,29.485 43.649 L 27.826 42.075 26.646 43.989 C 5.935 77.602,-3.911 121.541,1.436 156.484 C 8.369 201.783,37.494 238.173,89.562 266.591 C 124.454 285.634,180.963 290.997,220.727 279.039 C 222.100 278.627,224.151 278.077,225.285 277.818 C 227.822 277.239,233.252 275.667,235.610 274.830 L 237.363 274.208 250.586 281.213 C 257.859 285.067,263.922 288.196,264.060 288.168 C 264.534 288.072,279.978 273.405,279.974 273.056 C 279.971 272.864,279.543 266.799,279.023 259.577 L 278.076 246.447 280.081 244.059 C 282.926 240.669,285.074 237.760,287.557 233.930 C 293.051 225.459,294.832 223.036,294.990 223.814 C 295.665 227.139,295.965 251.167,295.422 258.492 C 294.454 271.558,292.858 280.484,289.812 289.853 C 277.836 326.695,246.790 347.329,197.662 351.099 L 192.720 351.478 192.517 352.245 C 191.968 354.317,181.443 397.837,181.443 398.035 C 181.443 399.352,206.062 397.276,218.715 394.891 C 287.486 381.930,330.256 339.091,339.656 273.755 C 342.630 253.085,342.582 229.292,339.533 212.914 C 330.890 166.478,303.390 121.594,269.761 99.031 L 267.484 97.503 266.872 88.415 C 266.536 83.417,266.194 79.098,266.113 78.818 C 265.974 78.338,247.391 68.169,246.627 68.155 C 246.487 68.152,242.337 70.479,237.403 73.326 C 232.469 76.173,228.206 78.621,227.929 78.767 C 227.512 78.987,227.030 78.939,225.107 78.483 C 216.807 76.514,205.582 75.447,197.667 75.875 C 195.667 75.983,194.031 76.063,194.031 76.052 C 194.037 75.522,214.300 62.746,220.836 59.152 C 271.004 31.563,314.249 42.508,351.144 92.132 C 352.475 93.923,353.789 95.677,354.063 96.030 L 354.562 96.671 377.281 89.130 C 392.190 84.181,400.000 81.490,400.000 81.301 C 400.000 80.031,390.466 66.646,384.294 59.251 C 357.761 27.463,325.337 7.316,291.590 1.649 C 283.803 0.341,268.499 -0.452,262.290 0.130 M211.177 118.790 C 253.989 126.401,273.645 175.663,247.688 210.292 C 226.767 238.202,185.772 241.088,161.032 216.392 C 136.242 191.647,139.084 150.656,167.047 129.640 C 179.635 120.179,196.150 116.119,211.177 118.790 " stroke="none" fill="#000000" fill-rule="evenodd"></path></g></svg>
