<?xml version="1.0" encoding="iso-8859-1"?>
<!-- Generator: Adobe Illustrator 19.0.0, SVG Export Plug-In . SVG Version: 6.00 Build 0)  -->
<svg version="1.1" id="Capa_1" xmlns="http://www.w3.org/2000/svg" xmlns:xlink="http://www.w3.org/1999/xlink" x="0px" y="0px"
	 viewBox="0 0 512.121 512.121" style="enable-background:new 0 0 512.121 512.121;" xml:space="preserve">
<g transform="translate(-1 -1)">
	<g transform="translate(2 2)">
		<path style="fill:#B2CDF8;" d="M502.517,33.198v366.933H7.584l0-366.933c-0.009-6.792,2.685-13.309,7.488-18.112
			s11.32-7.497,18.112-7.488h443.733c6.792-0.009,13.309,2.685,18.112,7.488C499.832,19.889,502.526,26.405,502.517,33.198z"/>
		
			<linearGradient id="SVGID_1_" gradientUnits="userSpaceOnUse" x1="-49.7963" y1="651.7307" x2="-48.8941" y2="650.6519" gradientTransform="matrix(469.3334 0 0 -392.5334 23401.5957 255825.6406)">
			<stop  offset="0" style="stop-color:#D3DFF2"/>
			<stop  offset="0.1717" style="stop-color:#D3DFF2"/>
			<stop  offset="0.2" style="stop-color:#D3DFF2"/>
			<stop  offset="0.2002" style="stop-color:#DAE2F2"/>
			<stop  offset="0.2007" style="stop-color:#EBEAF2"/>
			<stop  offset="0.2014" style="stop-color:#F6EFF2"/>
			<stop  offset="0.2023" style="stop-color:#FDF2F2"/>
			<stop  offset="0.205" style="stop-color:#FFF3F2"/>
			<stop  offset="0.2522" style="stop-color:#FFF3F2"/>
			<stop  offset="0.26" style="stop-color:#FFF3F2"/>
			<stop  offset="0.26" style="stop-color:#D3DFF2"/>
			<stop  offset="0.3974" style="stop-color:#D3DFF2"/>
			<stop  offset="0.42" style="stop-color:#D3DFF2"/>
			<stop  offset="0.4202" style="stop-color:#DAE2F2"/>
			<stop  offset="0.4207" style="stop-color:#EBEAF2"/>
			<stop  offset="0.4214" style="stop-color:#F6EFF2"/>
			<stop  offset="0.4223" style="stop-color:#FDF2F2"/>
			<stop  offset="0.425" style="stop-color:#FFF3F2"/>
			<stop  offset="0.4894" style="stop-color:#FFF3F2"/>
			<stop  offset="0.5" style="stop-color:#FFF3F2"/>
			<stop  offset="0.5" style="stop-color:#F8F0F2"/>
			<stop  offset="0.5001" style="stop-color:#E7E8F2"/>
			<stop  offset="0.5003" style="stop-color:#DCE3F2"/>
			<stop  offset="0.5005" style="stop-color:#D5E0F2"/>
			<stop  offset="0.501" style="stop-color:#D3DFF2"/>
			<stop  offset="0.7062" style="stop-color:#D3DFF2"/>
			<stop  offset="0.74" style="stop-color:#D3DFF2"/>
			<stop  offset="0.741" style="stop-color:#FFF3F2"/>
			<stop  offset="0.8346" style="stop-color:#FFF3F2"/>
			<stop  offset="0.85" style="stop-color:#FFF3F2"/>
			<stop  offset="0.851" style="stop-color:#D3DFF2"/>
		</linearGradient>
		<path style="fill:url(#SVGID_1_);" d="M476.917,33.198v366.933H7.584l0-366.933c-0.009-6.792,2.685-13.309,7.488-18.112
			s11.32-7.497,18.112-7.488h418.133c6.792-0.009,13.309,2.685,18.112,7.488C474.232,19.889,476.926,26.405,476.917,33.198z"/>
		<rect x="212.384" y="408.664" style="fill:#B2CDF8;" width="85.333" height="85.333"/>
		<g>
			<rect x="212.384" y="408.664" style="fill:#E7EBF4;" width="59.733" height="85.333"/>
			<path style="fill:#E7EBF4;" d="M348.917,502.531H161.184c0.016-9.051,3.604-17.729,9.984-24.149
				c0.499-0.528,1.042-1.013,1.621-1.451c6.223-5.488,14.231-8.522,22.528-8.533h119.467c9.054-0.003,17.737,3.593,24.139,9.995
				C345.324,484.794,348.92,493.478,348.917,502.531z"/>
		</g>
		<path style="fill:#F0F7FF;" d="M161.184,502.531l1.109-8.533h-1.109c0.016-9.051,3.604-17.729,9.984-24.149
			c0.499-0.528,1.042-1.013,1.621-1.451h116.395c2.882-0.026,5.754,0.347,8.533,1.109c12.029,3.069,21.422,12.462,24.491,24.491
			c0.762,2.78,1.135,5.651,1.111,8.533H161.184z"/>
		<path style="fill:#E7EBF4;" d="M502.517,383.064v25.6c0.009,6.792-2.685,13.309-7.488,18.112
			c-4.803,4.803-11.32,7.497-18.112,7.488H33.184c-6.792,0.009-13.309-2.685-18.112-7.488s-7.497-11.32-7.488-18.112l0-25.6H502.517
			z"/>
		<path style="fill:#F0F7FF;" d="M476.917,383.064v25.6c0.009,6.792-2.685,13.309-7.488,18.112
			c-4.803,4.803-11.32,7.497-18.112,7.488H33.184c-6.792,0.009-13.309-2.685-18.112-7.488s-7.497-11.32-7.488-18.112l0-25.6H476.917
			z"/>
		<polygon style="fill:#E7EBF4;" points="246.517,297.731 186.016,356.696 161.952,332.632 212.384,280.664 		"/>
		<path style="fill:#F0F7FF;" d="M186.016,368.814l-16.299,16.299l-36.181-36.181l16.299-16.299c3.354-3.327,8.763-3.327,12.117,0
			l24.064,24.064C189.344,360.05,189.344,365.46,186.016,368.814z"/>
		<g>
			<path style="fill:#E7EBF4;" d="M169.717,385.112L54.858,500.056c-3.353,3.328-8.764,3.328-12.117,0l-24.149-24.149
				c-3.327-3.354-3.327-8.764,0-12.117l114.944-114.859L169.717,385.112z"/>
			<path style="fill:#E7EBF4;" d="M356.597,313.944c-46.657,46.656-122.302,46.656-168.958-0.001s-46.656-122.302,0-168.958
				s122.301-46.657,168.958-0.001c22.5,22.355,35.153,52.762,35.153,84.48S379.097,291.589,356.597,313.944z"/>
		</g>
		<path style="fill:#FFFFFF;" d="M33.184,434.264h14.955L18.592,463.79c-3.327,3.354-3.327,8.764,0,12.117l24.149,24.149
			c3.353,3.328,8.764,3.328,12.117,0l6.739-6.744l-17.406-17.406c-3.327-3.354-3.327-8.764,0-12.117l29.547-29.525H58.784
			c-6.792,0.009-13.309-2.685-18.112-7.488s-7.497-11.32-7.488-18.112V33.198c-0.009-6.792,2.685-13.309,7.488-18.112
			s11.32-7.497,18.112-7.488h-25.6c-6.792-0.009-13.309,2.685-18.112,7.488s-7.497,11.32-7.488,18.112v375.467
			c-0.009,6.792,2.685,13.309,7.488,18.112S26.391,434.274,33.184,434.264z"/>
	</g>
	<g>
		<path style="fill:#FFFFFF;" d="M1.05,410.664V43.675c-0.132-4.469-0.004-8.942,0.383-13.397C3.017,19.344,9.801,9.855,19.635,4.82
			c4.844-2.459,10.199-3.745,15.631-3.755H474.22c2.236,0.037,3.608-0.083,6.554,0.083c13.961,0.694,26.064,9.887,30.479,23.149
			c1.48,4.774,2.089,9.775,1.798,14.764v365.795l-0.015,6.19c-0.036,2.708-0.392,5.401-1.059,8.026
			c-2.712,10.712-10.452,19.443-20.762,23.42c-2.53,0.986-5.172,1.656-7.866,1.995c-1.339,0.174-2.687,0.273-4.037,0.296
			l-3.145,0.016H122.565v-17.067h353.602l2.95-0.014c0.681-0.015,1.362-0.067,2.038-0.155c1.343-0.164,2.661-0.498,3.92-0.993
			c5.144-1.981,9.006-6.337,10.357-11.682c0.336-1.317,0.517-2.669,0.539-4.029l0.014-6.002V39.06
			c0.292-3.138-0.017-6.303-0.908-9.326c-2.186-6.633-8.242-11.227-15.219-11.545c-1.113-0.116-3.809-0.033-5.637-0.058H35.266
			c-2.73,0.008-5.42,0.652-7.857,1.882c-4.909,2.51-8.296,7.246-9.083,12.703c-0.348,2.083-0.157,7.15-0.208,10.958v366.99H1.05z"/>
		<g>
			<path style="fill:#51A1FF;" d="M146.117,52.264c-0.011-9.421-7.645-17.056-17.067-17.067h-17.067
				c-9.421,0.011-17.056,7.645-17.067,17.067v17.067c0.011,9.421,7.645,17.056,17.067,17.067h17.067
				c9.421-0.011,17.056-7.645,17.067-17.067V52.264z M111.984,69.331V52.264h17.067l0.009,17.067H111.984z"/>
			<path style="fill:#51A1FF;" d="M60.784,146.131c0.011,9.421,7.645,17.056,17.067,17.067h17.067
				c9.421-0.011,17.056-7.645,17.067-17.067v-17.067c-0.011-9.421-7.645-17.056-17.067-17.067H77.85
				c-9.421,0.011-17.056,7.645-17.067,17.067V146.131z M77.85,129.064h17.067l0.009,17.067H77.85V129.064z"/>
			<path style="fill:#51A1FF;" d="M77.85,77.864V43.731c0-4.713-3.821-8.533-8.533-8.533c-4.713,0-8.533,3.821-8.533,8.533v34.133
				c0,4.713,3.82,8.533,8.533,8.533C74.03,86.398,77.85,82.577,77.85,77.864z"/>
			<path style="fill:#51A1FF;" d="M60.784,231.464c0,4.713,3.82,8.533,8.533,8.533c4.713,0,8.533-3.821,8.533-8.533v-34.133
				c0-4.713-3.821-8.533-8.533-8.533c-4.713,0-8.533,3.821-8.533,8.533V231.464z"/>
			<path style="fill:#51A1FF;" d="M94.917,197.331v34.133c0,4.713,3.821,8.533,8.533,8.533c4.713,0,8.533-3.821,8.533-8.533v-34.133
				c0-4.713-3.821-8.533-8.533-8.533C98.738,188.798,94.917,192.618,94.917,197.331z"/>
			<path style="fill:#51A1FF;" d="M120.517,274.131v34.133c0,4.713,3.821,8.533,8.533,8.533s8.533-3.821,8.533-8.533v-34.133
				c0-4.713-3.82-8.533-8.533-8.533S120.517,269.418,120.517,274.131z"/>
			<path style="fill:#51A1FF;" d="M146.117,154.664v-34.133c0-4.713-3.821-8.533-8.533-8.533c-4.713,0-8.533,3.821-8.533,8.533
				v34.133c0,4.713,3.821,8.533,8.533,8.533C142.297,163.198,146.117,159.377,146.117,154.664z"/>
			<path style="fill:#51A1FF;" d="M180.25,77.864V43.731c0-4.713-3.821-8.533-8.533-8.533c-4.713,0-8.533,3.821-8.533,8.533v34.133
				c0,4.713,3.821,8.533,8.533,8.533C176.43,86.398,180.25,82.577,180.25,77.864z"/>
			<path style="fill:#51A1FF;" d="M214.384,222.931c2.263,0.001,4.434-0.898,6.035-2.499s2.499-3.771,2.499-6.035v-51.2
				c0-4.713-3.821-8.533-8.533-8.533c-4.713,0-8.533,3.821-8.533,8.533v51.2c-0.001,2.263,0.898,4.434,2.499,6.035
				S212.12,222.932,214.384,222.931z"/>
			<path style="fill:#51A1FF;" d="M333.85,222.931c2.263,0.001,4.434-0.898,6.035-2.499c1.6-1.6,2.499-3.771,2.499-6.035v-51.2
				c0-4.713-3.82-8.533-8.533-8.533s-8.533,3.821-8.533,8.533v51.2c-0.001,2.263,0.898,4.434,2.499,6.035
				S331.587,222.932,333.85,222.931z"/>
			<path style="fill:#51A1FF;" d="M214.384,77.864V43.731c0-4.713-3.82-8.533-8.533-8.533s-8.533,3.821-8.533,8.533v34.133
				c0,4.713,3.821,8.533,8.533,8.533S214.384,82.577,214.384,77.864z"/>
			<path style="fill:#51A1FF;" d="M333.85,86.398c9.421-0.011,17.056-7.645,17.067-17.067V52.264
				c-0.011-9.421-7.645-17.056-17.067-17.067h-17.067c-9.421,0.011-17.056,7.645-17.067,17.067v17.067
				c0.011,9.421,7.645,17.056,17.067,17.067H333.85z M316.784,52.264h17.067l0.009,17.067h-17.075V52.264z"/>
			<path style="fill:#51A1FF;" d="M410.65,282.664v17.067c0.011,9.421,7.645,17.056,17.067,17.067h17.067
				c9.421-0.011,17.056-7.645,17.067-17.067v-17.067c-0.011-9.421-7.645-17.056-17.067-17.067h-17.067
				C418.296,265.609,410.661,273.243,410.65,282.664z M444.792,299.731h-17.075v-17.067h17.067L444.792,299.731z"/>
			<path style="fill:#51A1FF;" d="M52.25,282.664v17.067c0.011,9.421,7.645,17.056,17.067,17.067h17.067
				c9.421-0.011,17.056-7.645,17.067-17.067v-17.067c-0.011-9.421-7.645-17.056-17.067-17.067H69.317
				C59.896,265.609,52.261,273.243,52.25,282.664z M69.317,282.664h17.067l0.009,17.067H69.317V282.664z"/>
			<path style="fill:#51A1FF;" d="M265.584,86.398c9.421-0.011,17.056-7.645,17.067-17.067V52.264
				c-0.011-9.421-7.645-17.056-17.067-17.067h-17.067c-9.421,0.011-17.056,7.645-17.067,17.067v17.067
				c0.011,9.421,7.645,17.056,17.067,17.067H265.584z M248.517,52.264h17.067l0.009,17.067h-17.075V52.264z"/>
			<path style="fill:#51A1FF;" d="M257.05,222.931h34.133c9.421-0.011,17.056-7.645,17.067-17.067v-34.133
				c-0.011-9.421-7.645-17.056-17.067-17.067H257.05c-9.421,0.011-17.056,7.645-17.067,17.067v34.133
				C239.995,215.286,247.629,222.92,257.05,222.931z M257.05,171.731h34.133l0.009,34.133H257.05V171.731z"/>
			<path style="fill:#51A1FF;" d="M299.717,239.998c-2.263-0.001-4.434,0.898-6.035,2.499s-2.499,3.771-2.499,6.035v51.2
				c0,4.713,3.821,8.533,8.533,8.533c4.713,0,8.533-3.82,8.533-8.533v-51.2c0.001-2.263-0.898-4.434-2.499-6.035
				S301.98,239.997,299.717,239.998z"/>
			<path style="fill:#51A1FF;" d="M333.85,308.264c2.263,0.001,4.434-0.898,6.035-2.499c1.6-1.6,2.499-3.771,2.499-6.035v-51.2
				c0-4.713-3.82-8.533-8.533-8.533s-8.533,3.821-8.533,8.533v51.2c-0.001,2.263,0.898,4.434,2.499,6.035
				C329.416,307.366,331.587,308.265,333.85,308.264z"/>
			<path style="fill:#51A1FF;" d="M222.917,308.264h34.133c9.421-0.011,17.056-7.645,17.067-17.067v-34.133
				c-0.011-9.421-7.645-17.056-17.067-17.067h-34.133c-9.421,0.011-17.056,7.645-17.067,17.067v34.133
				C205.861,300.619,213.496,308.254,222.917,308.264z M222.917,257.064h34.133l0.009,34.133h-34.142V257.064z"/>
			<path style="fill:#51A1FF;" d="M385.05,77.864V43.731c0-4.713-3.82-8.533-8.533-8.533s-8.533,3.821-8.533,8.533v34.133
				c0,4.713,3.82,8.533,8.533,8.533S385.05,82.577,385.05,77.864z"/>
			<path style="fill:#51A1FF;" d="M410.65,35.198c-2.263-0.001-4.434,0.898-6.035,2.499c-1.6,1.6-2.499,3.771-2.499,6.035v34.133
				c0,4.713,3.82,8.533,8.533,8.533s8.533-3.821,8.533-8.533V43.731c0.001-2.263-0.898-4.434-2.499-6.035
				C415.085,36.096,412.914,35.197,410.65,35.198z"/>
			<path style="fill:#51A1FF;" d="M444.784,86.398c2.263,0.001,4.434-0.898,6.035-2.499c1.6-1.6,2.499-3.771,2.499-6.035V43.731
				c0-4.713-3.821-8.533-8.533-8.533s-8.533,3.821-8.533,8.533v34.133c-0.001,2.263,0.898,4.434,2.499,6.035
				C440.35,85.5,442.52,86.398,444.784,86.398z"/>
			<path style="fill:#51A1FF;" d="M402.117,154.664c0,4.713,3.82,8.533,8.533,8.533s8.533-3.821,8.533-8.533v-34.133
				c0-4.713-3.82-8.533-8.533-8.533s-8.533,3.821-8.533,8.533V154.664z"/>
			<path style="fill:#51A1FF;" d="M436.25,154.664c0,4.713,3.82,8.533,8.533,8.533s8.533-3.821,8.533-8.533v-34.133
				c0-4.713-3.821-8.533-8.533-8.533s-8.533,3.821-8.533,8.533V154.664z"/>
			<path style="fill:#51A1FF;" d="M436.25,231.464c0,4.713,3.82,8.533,8.533,8.533s8.533-3.821,8.533-8.533v-34.133
				c0-4.713-3.821-8.533-8.533-8.533s-8.533,3.821-8.533,8.533V231.464z"/>
			<path style="fill:#51A1FF;" d="M488.761,2.514c-2.599-0.77-5.28-1.228-7.987-1.367c-2.945-0.165-4.318-0.045-6.554-0.082H35.266
				c-5.433,0.01-10.787,1.297-15.631,3.755C9.801,9.855,3.018,19.344,1.434,30.277c-0.388,4.454-0.516,8.928-0.383,13.397v264.59
				c0,4.713,3.821,8.533,8.533,8.533s8.533-3.821,8.533-8.533V43.674c0.051-3.808-0.14-8.875,0.208-10.958
				c0.788-5.457,4.174-10.193,9.083-12.704c2.437-1.23,5.127-1.874,7.857-1.882H474.22c1.827,0.026,4.524-0.058,5.637,0.058
				c6.977,0.318,13.033,4.912,15.219,11.545c0.892,3.023,1.2,6.188,0.908,9.327v337.471H194.332
				c4.1-4.305,5.652-10.439,4.093-16.176l15.744-15.747c58.165,30.951,130.318,12.83,166.958-41.93s25.861-128.369-24.94-170.326
				s-125.121-38.63-171.97,7.698s-51.008,120.606-9.622,171.873l-12.302,12.299c-5.873-1.608-12.158,0.048-16.476,4.342
				l-47.968,47.967H18.117c0-4.713-3.821-8.533-8.533-8.533s-8.533,3.821-8.533,8.533v34.133
				c0.045,16.843,12.386,31.128,29.044,33.619l-15.511,15.51c-6.658,6.668-6.658,17.469,0,24.138l24.133,24.133
				c6.668,6.656,17.466,6.656,24.133,0l63.269-63.267h79.731v17.067h-8.533c-23.553,0.028-42.639,19.114-42.667,42.667
				c-0.001,2.263,0.898,4.434,2.499,6.035c1.6,1.6,3.771,2.499,6.035,2.499h187.733c2.263,0.001,4.434-0.898,6.035-2.499
				c1.6-1.6,2.499-3.771,2.499-6.035c-0.028-23.553-19.114-42.639-42.667-42.667h-8.533v-17.067h167.917l3.145-0.016
				c1.35-0.023,2.698-0.122,4.037-0.296c2.694-0.339,5.336-1.009,7.866-1.995c10.31-3.977,18.05-12.708,20.762-23.42
				c0.667-2.624,1.022-5.318,1.059-8.025l0.015-6.191V39.06c0.291-4.989-0.318-9.99-1.798-14.764
				C507.712,13.83,499.336,5.718,488.761,2.514z M182.017,364.769l-10.3,10.299l-24.134-24.136l10.301-10.301L182.017,364.769z
				 M188.017,346.63l-11.999-11.999l10.249-10.248c4.133,3.906,8.519,7.535,13.13,10.864L188.017,346.63z M195.675,153.023
				c37.423-37.422,96.069-43.199,140.073-13.796s61.111,85.795,40.858,134.69c-20.253,48.895-72.224,76.674-124.131,66.349
				c-51.907-10.325-89.291-55.878-89.291-108.802C163.104,202.027,174.804,173.781,195.675,153.023L195.675,153.023z
				 M35.184,427.731c-9.421-0.011-17.056-7.645-17.067-17.067v-17.067h62.665l-34.134,34.133H35.184z M50.784,495.998L26.65,471.865
				l80.726-80.726l0.099-0.099l28.041-28.041l24.134,24.136L50.784,495.998z M340.926,495.998h-167.75
				c3.63-10.22,13.296-17.053,24.142-17.067h119.467C327.63,478.945,337.295,485.777,340.926,495.998z M291.184,461.864h-68.267
				v-17.067h68.267V461.864z M495.97,410.857c-0.021,1.359-0.202,2.711-0.539,4.029c-1.351,5.345-5.212,9.701-10.357,11.682
				c-1.259,0.496-2.576,0.83-3.92,0.993c-0.676,0.088-1.356,0.14-2.038,0.155l-2.95,0.015H143.186l34.134-34.133h318.663v11.257
				L495.97,410.857z"/>
			<path style="fill:#51A1FF;" d="M6.342,350.252c0.484,0.246,1.002,0.417,1.537,0.508c0.563,0.096,1.133,0.153,1.704,0.171
				c2.259-0.031,4.423-0.915,6.059-2.475c3.221-3.397,3.221-8.72,0-12.117c-0.815-0.771-1.77-1.379-2.813-1.792
				c-1.027-0.438-2.13-0.67-3.246-0.683c-2.259,0.034-4.422,0.918-6.059,2.475c-3.3,3.365-3.3,8.752,0,12.117l1.279,1.025
				C5.28,349.806,5.798,350.065,6.342,350.252z"/>
		</g>
	</g>
</g>
<g>
</g>
<g>
</g>
<g>
</g>
<g>
</g>
<g>
</g>
<g>
</g>
<g>
</g>
<g>
</g>
<g>
</g>
<g>
</g>
<g>
</g>
<g>
</g>
<g>
</g>
<g>
</g>
<g>
</g>
</svg>
