<?xml version="1.0" encoding="utf-8"?>
<!-- Generator: Adobe Illustrator 20.1.0, SVG Export Plug-In . SVG Version: 6.00 Build 0)  -->
<svg version="1.1" id="Layer_1" xmlns="http://www.w3.org/2000/svg" xmlns:xlink="http://www.w3.org/1999/xlink" x="0px" y="0px"
	 viewBox="0 0 569 47.3" style="enable-background:new 0 0 569 47.3;" xml:space="preserve">
<g>
	<path class="st0" d="M41.9,32.3l5.8-32.2h10.9L48.1,46.5H36.4l-7-32.7l-7,32.7H10.6L0,0.1h11.1l6.3,32.1l6.3-32.1H35L41.9,32.3z"/>
	<path class="st0" d="M77,36.8h22.3v9.7H66.1V0.1H77V36.8z"/>
	<path class="st0" d="M120.2,0.1h12l17.5,46.4h-11.9l-2.8-8.3h-17.9l-2.8,8.3h-11.7L120.2,0.1z M120.2,29.4h12l-6-17.7L120.2,29.4z"
		/>
</g>
<g>
	<path class="st0" d="M190.8,40.8L202.3,0h4.6l-13.9,46.4h-4.9L177.9,7.5l-10.2,38.9h-4.9L148.8,0h4.7l11.8,40.8L175.5,0h4.8
		L190.8,40.8z"/>
	<path class="st0" d="M216.4,0v6.3h-4V0H216.4z M216.4,12v34.4h-4V12H216.4z"/>
	<path class="st0" d="M229.9,46.4h-4V0h4V46.4z"/>
	<path class="st0" d="M243.5,46.4h-4V0h4V46.4z"/>
	<path class="st0" d="M257.1,0v6.3h-4V0H257.1z M257.1,12v34.4h-4V12H257.1z"/>
	<path class="st0" d="M288.3,41.2c-2.2,3.6-6.5,6.1-12.9,6.1c-6.4,0-11.4-3.7-11.4-9.4c0-7.8,7.7-10.7,24.3-12.4v-1.2
		c0-7.8-4.6-9.5-9.6-9.5c-5.8,0-9.3,3.3-9.7,7.7h-4.2c0.9-6.8,6.4-11.3,14.1-11.3c8,0,13.3,3.3,13.3,13.6c0,4.7-0.1,7.9-0.1,10.6
		c0,3.9,0.2,7.3,0.4,11h-4L288.3,41.2z M276.3,43.7c6.4,0,12.2-3.3,12.2-13.1V29c-14,1.5-20,3.4-20,8.8
		C268.4,41.4,271.8,43.7,276.3,43.7z"/>
	<path class="st0" d="M304.5,46.4h-4V12h4v5.8c1.7-3.3,4.7-6.4,10.8-6.4c5.5,0,8.7,2.4,10.1,6.9c2.6-4.4,6.1-6.9,11.7-6.9
		c7.8,0,10.9,4.9,10.9,13.3v21.7h-4V25.8c0-6.5-1.3-10.8-8-10.8c-5.6,0-9.8,5-9.8,12.3v19.1h-4V25.8c0-6.5-1.3-10.8-8-10.8
		c-5.6,0-9.8,5-9.8,12.3V46.4z"/>
	<path class="st0" d="M377.3,21.4c-0.8-4.1-4.6-6.5-9.5-6.5c-3.8,0-8.8,1.5-8.8,5.6c0,3.4,2.7,5.2,6.5,5.9l4.9,0.9
		c5.6,1,11.9,2.9,11.9,9.5c0,6.9-6.2,10.5-13.7,10.5c-7.1,0-13.3-3.5-14.3-11.4h4.2c0.8,5.4,5.1,7.9,10.4,7.9c4.2,0,9.3-1.7,9.3-6.3
		c0-4-3.8-5.4-8.5-6.3l-5.4-1c-5-1-9.3-3.8-9.3-9.2c0-5.4,5.4-9.5,13.2-9.5c7.4,0,12.4,4.5,13.3,10.1H377.3z"/>
	<path class="st0" d="M395,42.5h24.6v4h-28.9V0h4.3V42.5z"/>
	<path class="st0" d="M421.1,29.3c0-11.1,6.9-17.9,16.1-17.9c9.7,0,15.9,8.2,15.4,19h-27.4c0.1,8.3,5.4,13.3,12.4,13.3
		c5.4,0,9.2-2.8,10.5-7.5h4.2c-1.7,7.1-7.4,11.1-14.9,11.1C427.2,47.3,421.1,40,421.1,29.3z M425.3,26.7h22.9
		c0-5.8-4.2-11.7-11.1-11.7C430.7,15,426.1,19.1,425.3,26.7z"/>
	<path class="st0" d="M480.2,21.4c-0.8-4.1-4.6-6.5-9.5-6.5c-3.8,0-8.8,1.5-8.8,5.6c0,3.4,2.7,5.2,6.5,5.9l4.9,0.9
		c5.6,1,11.9,2.9,11.9,9.5c0,6.9-6.2,10.5-13.7,10.5c-7.1,0-13.3-3.5-14.3-11.4h4.2c0.8,5.4,5.1,7.9,10.4,7.9c4.2,0,9.3-1.7,9.3-6.3
		c0-4-3.8-5.4-8.5-6.3l-5.4-1c-5-1-9.3-3.8-9.3-9.2c0-5.4,5.4-9.5,13.2-9.5c7.4,0,12.4,4.5,13.3,10.1H480.2z"/>
	<path class="st0" d="M494.6,4.2h4V12h6.8v3.5h-6.8v22c0,4.5,0.1,5.4,4.7,5.4h2v3.6h-3.3c-6.1,0-7.6-1.4-7.6-8.2V15.4h-5.7V12h5.7
		V4.2z"/>
	<path class="st0" d="M509.6,29.3c0-11.1,6.9-17.9,16.1-17.9c9.7,0,15.9,8.2,15.4,19h-27.4c0.1,8.3,5.4,13.3,12.4,13.3
		c5.4,0,9.2-2.8,10.5-7.5h4.2c-1.7,7.1-7.4,11.1-14.9,11.1C515.7,47.3,509.6,40,509.6,29.3z M513.8,26.7h22.9
		c0-5.8-4.2-11.7-11.1-11.7C519.2,15,514.6,19.1,513.8,26.7z"/>
	<path class="st0" d="M563.1,16c-0.6-0.1-1.2-0.1-1.8-0.1c-7.1,0-9.4,5.1-9.4,12.4v18.1H548V12h3.8v6.3c1.5-4,6-6.5,10.2-6.5
		c0.3,0,0.8,0,1.2,0.1V16z"/>
	<path class="st0" d="M563.5,46.4v-6h5.6v6H563.5z"/>
</g>
</svg>
