
<svg width="60px" height="60px" viewBox="0 0 60 60" version="1.1" xmlns="http://www.w3.org/2000/svg" xmlns:xlink="http://www.w3.org/1999/xlink">
    <g id="Page-1" stroke="none" stroke-width="1" fill="none" fill-rule="evenodd">
        <g id="08_Mission_dsk" transform="translate(-253.000000, -1307.000000)">
            <rect fill="none" x="0" y="0" width="1440" height="5781"></rect>
            <g id="02" transform="translate(158.000000, 1150.000000)">
                <g id="02a" transform="translate(95.000000, 157.000000)">
                    <g id="1">
                        <g id="icon/circlediamond">
                            <path d="M60,30 C60,46.5683447 46.5686214,60 30.0006179,60 C13.4313786,60 0,46.5683447 0,30 C0,13.4316553 13.4313786,0 30.0006179,0 C46.5686214,0 60,13.4316553 60,30" id="Fill-12" fill="#FC643A"></path>
                            <g stroke-width="1" transform="translate(12.000000, 17.000000)" fill="#FFFFFF" id="icon/diamond">
                                <path d="M6.96602571,0.218103779 L0.0959682425,9.84280075 C-0.0437053104,10.0380749 -0.0293310363,10.3308793 0.128733132,10.5111817 L17.5681098,30.8299639 C17.765756,31.0566787 18.1631624,31.0566787 18.3608087,30.8299639 L35.8001854,10.5111817 C35.9582495,10.3308793 35.9726238,10.0380749 35.8329502,9.84280075 L28.9628928,0.218103779 C28.864281,0.0828769368 28.699611,-0.000376599499 28.5335142,0.000906692005 L7.39487583,0.000906692005 C7.18158697,-0.0113915182 7.05306405,0.103516542 6.96602571,0.218103779 L6.96602571,0.218103779 Z M8.15507411,1.07031628 L16.9077916,1.07031628 L11.0450959,9.12431792 L8.15507411,1.07031628 Z M19.0216554,1.07031628 L27.7743728,1.07031628 L24.884351,9.12431792 L19.0216554,1.07031628 Z M17.9647235,1.43792582 L23.9264536,9.62560366 L12.0029933,9.62560366 L17.9647235,1.43792582 Z M7.23025869,1.65517638 L10.1037923,9.62560366 L1.54924963,9.62560366 L7.23025869,1.65517638 Z M28.6991883,1.65517638 L34.3801973,9.62560366 L25.8421428,9.62560366 L28.6991883,1.65517638 Z M1.68136612,10.6950132 L10.4836537,10.6950132 L16.8252452,28.3235886 L1.68136612,10.6950132 Z M11.6066438,10.6950132 L24.3228031,10.6950132 L17.9647235,28.3736905 L11.6066438,10.6950132 Z M25.4457933,10.6950132 L34.2480808,10.6950132 L19.1042018,28.3235886 L25.4457933,10.6950132 Z" fill-rule="nonzero"></path>
                            </g>
                        </g>
                    </g>
                </g>
            </g>
        </g>
    </g>
</svg>