
<svg width="60px" height="60px" viewBox="0 0 60 60" version="1.1" xmlns="http://www.w3.org/2000/svg" xmlns:xlink="http://www.w3.org/1999/xlink">
    <g id="Page-1" stroke="none" stroke-width="1" fill="none" fill-rule="evenodd">
        <g id="08_Mission_dsk" transform="translate(-639.000000, -1307.000000)">
            <rect fill="none" x="0" y="0" width="1440" height="5781"></rect>
            <g id="02" transform="translate(158.000000, 1150.000000)">
                <g id="02a" transform="translate(95.000000, 157.000000)">
                    <g id="2" transform="translate(386.000000, 0.000000)">
                        <g id="icon/circleplanet">
                            <path d="M60,30 C60,46.5683447 46.5686214,60 30.0006179,60 C13.4313786,60 0,46.5683447 0,30 C0,13.4316553 13.4313786,0 30.0006179,0 C46.5686214,0 60,13.4316553 60,30" id="Fill-12" fill="#FC643A" fill-rule="evenodd"></path>
                            <path d="M30,10 C19,10 10,19 10,30 C10,41 19,50 30,50 C41,50 50,41 50,30 C50,19 41,10 30,10 Z M31.0615385,21.6717557 C33.4,21.610687 35.6769231,21.4274809 37.7076923,21 C38.4461538,23.3816794 38.9384615,26.0687023 39,29 L31,28.9389313 L31.0615385,21.6717557 Z M31,19 L31,12 C33.4123711,12.5338983 35.5773196,14.9661017 37,18.4067797 C35.1443299,18.7627119 33.1030928,18.940678 31,19 Z M29,12 L29,19 C26.8787879,18.940678 24.8787879,18.7627119 23,18.4661017 C24.4545455,14.9067797 26.5757576,12.4745763 29,12 Z M29,21.6717557 L29,29 L21,28.9389313 C21.1230769,26.0687023 21.5538462,23.3816794 22.2923077,21 C24.3846154,21.4274809 26.6615385,21.6717557 29,21.6717557 Z M18.7555556,29 L12,29 C12.1777778,25.2345679 13.4814815,21.7777778 15.6148148,19 C16.8592593,19.617284 18.4,20.1728395 20,20.6049383 C19.2888889,23.0740741 18.8148148,25.9753086 18.7555556,29 Z M18.8571429,31 C18.9172932,34 19.3383459,36.8125 20,39.3125 C18.3157895,39.75 16.8120301,40.3125 15.4887218,41 C13.443609,38.1875 12.1804511,34.75 12,31 L18.8571429,31 Z M21,31 L29,31.0629921 L29,38.3070866 C26.6,38.3700787 24.2615385,38.6220472 22.1692308,39 C21.4307692,36.6062992 21.0615385,33.8976378 21,31 Z M29,40 L29,48 C26.5643564,47.4375 24.4257426,44.625 23,40.625 C24.8415842,40.25 26.9207921,40 29,40 Z M31,48 L31,40 C33.0970874,40.0625 35.1359223,40.25 37,40.625 C35.6019417,44.625 33.4466019,47.5 31,48 Z M31,38.2380952 L31,31 L39,31.0634921 C38.9384615,33.9206349 38.5076923,36.5873016 37.8923077,39 C35.7384615,38.5555556 33.4,38.3015873 31,38.2380952 Z M41.0909091,31 L48,31 C47.8181818,34.7341772 46.5454545,38.2151899 44.4848485,41 C43.1515152,40.3037975 41.6363636,39.7341772 40,39.2911392 C40.6666667,36.8227848 41.030303,33.9746835 41.0909091,31 Z M41.2444444,28.9390244 C41.1851852,25.8902439 40.7111111,23.0243902 40,20.5853659 C41.6592593,20.1585366 43.1407407,19.6097561 44.3851852,19 C46.5185185,21.804878 47.8222222,25.2195122 48,29 L41.2444444,28.9390244 Z M43,17.7010309 C41.784,18.1958763 40.44,18.628866 38.904,19 C37.88,16.5257732 36.6,14.4226804 35,13 C38.072,13.9278351 40.824,15.5360825 43,17.7010309 Z M25,13 C23.464,14.4226804 22.12,16.5257732 21.096,19 C19.56,18.628866 18.216,18.1958763 17,17.7010309 C19.24,15.5360825 21.992,13.9278351 25,13 Z M17,42.3333333 C18.1900826,41.7878788 19.6446281,41.3636364 21.231405,41 C22.2231405,43.4848485 23.4793388,45.4848485 25,47 C21.892562,46.0909091 19.1818182,44.4545455 17,42.3333333 Z M35,47 C36.5206612,45.4848485 37.8429752,43.4848485 38.768595,41 C40.3553719,41.3636364 41.7438017,41.7878788 43,42.3333333 C40.8181818,44.4545455 38.107438,46.0909091 35,47 Z" id="Shape" fill="#FFFFFF" fill-rule="nonzero"></path>
                        </g>
                    </g>
                </g>
            </g>
        </g>
    </g>
</svg>