
<svg width="60px" height="60px" viewBox="0 0 60 60" version="1.1" xmlns="http://www.w3.org/2000/svg" xmlns:xlink="http://www.w3.org/1999/xlink">
    <g id="Page-1" stroke="none" stroke-width="1" fill="none" fill-rule="evenodd">
        <g id="08_Mission_dsk" transform="translate(-639.000000, -1833.000000)">
            <rect fill="none" x="0" y="0" width="1440" height="5781"></rect>
            <g id="02" transform="translate(158.000000, 1150.000000)">
                <g id="02b" transform="translate(95.000000, 683.000000)">
                    <g id="2" transform="translate(386.000000, 0.000000)">
                        <g id="icon/circlerespect">
                            <path d="M60,30 C60,46.5683447 46.5686214,60 30.0006179,60 C13.4313786,60 0,46.5683447 0,30 C0,13.4316553 13.4313786,0 30.0006179,0 C46.5686214,0 60,13.4316553 60,30" id="Fill-12" fill="#FC643A" fill-rule="evenodd"></path>
                            <path d="M46.7863048,32.0007368 L52.001,28.0295147 L42.8348123,16.0005059 L37.6216348,19.9722339 L37.8057781,20.2135425 L27.5529426,20.2135425 C26.877076,20.2135425 25.2344571,20.360756 24.3177878,21.6214293 L22.6913573,20.8742325 L23.3783535,19.971728 L18.1651759,16 L9,28.0295147 L14.2146952,32.0007368 L15.2143302,30.6894747 L16.400638,31.5955204 L16.2453303,31.8090052 C15.8340432,32.3675057 15.6645707,33.0519724 15.7687837,33.7359332 C15.8699613,34.4021879 16.2210477,34.9849711 16.7547597,35.3775403 C17.1837529,35.6942263 17.6957117,35.8611694 18.2334708,35.8611694 C18.404461,35.8611694 18.5724159,35.8338514 18.7383472,35.8004628 C18.5319448,36.754062 18.8693722,37.7749443 19.6909346,38.3809984 C20.1199278,38.6961667 20.629863,38.8636157 21.1676222,38.8636157 C21.412472,38.8636157 21.6502395,38.8175798 21.8814304,38.7497908 C21.8581595,38.9622639 21.8520889,39.1772663 21.882948,39.3927747 C21.9790668,40.0706648 22.3306591,40.6645775 22.8744888,41.0647351 C23.3039879,41.3799034 23.8134173,41.5463406 24.3511764,41.5463406 C24.9648187,41.5463406 25.5556961,41.3237498 26.0185838,40.9321924 C26.1339263,41.5326816 26.4546594,42.0901704 26.9787595,42.4761631 C27.4097762,42.7933549 27.9212292,42.9608039 28.4589883,42.9608039 C28.9749942,42.9608039 29.4641881,42.7898137 29.8845812,42.5075281 L30.328751,42.8267436 C30.7749443,43.1495002 31.2980327,43.3174551 31.8362977,43.3174551 C31.9754169,43.3174551 32.1165597,43.3063255 32.2566908,43.2835606 C32.9224396,43.1742887 33.504211,42.8161199 33.8917213,42.2748196 C34.2382547,41.7952376 34.3748445,41.2316782 34.3424677,40.6772247 L34.4021625,40.721237 C34.8620148,41.0495584 35.3926915,41.2079014 35.9157799,41.2079014 C36.7054713,41.2079014 37.4789743,40.8461914 37.9671564,40.16476 C38.3551726,39.6184008 38.4851859,38.9673227 38.3956437,38.3455862 C38.6936118,38.4589051 39.0027095,38.5221412 39.312313,38.5221412 C40.1020044,38.5221412 40.8765192,38.160937 41.3657131,37.4789998 C41.7704236,36.9118991 41.9024604,36.2284442 41.7896474,35.5849545 C42.0248854,35.6517317 42.2651822,35.6896733 42.5049732,35.6896733 C43.2946647,35.6896733 44.0671559,35.3274574 44.5558439,34.6470378 C44.9494249,34.0981491 45.1011913,33.424812 44.9833194,32.7504631 C44.8902359,32.2253511 44.6403272,31.7548752 44.2705229,31.3830474 L45.5661025,30.3990949 L46.7863048,32.0007368 Z M42.6638221,17.2652263 L50.7352678,27.8585245 L46.9567891,30.7370282 L38.8868611,20.1432241 L42.6638221,17.2652263 Z M14.043705,30.7375341 L10.2652263,27.8590304 L18.336672,17.2657322 L22.113633,20.14373 L14.043705,30.7375341 Z M17.2889776,34.6515908 C16.9490208,34.4011762 16.7254182,34.0278307 16.6601586,33.6003552 C16.5923696,33.1541618 16.7031591,32.7084743 16.9738093,32.3411995 L17.7994188,31.2009276 C18.1176224,30.7688991 18.6245224,30.5119079 19.1557049,30.5119079 C19.4997089,30.5119079 19.8255009,30.6186503 20.0991864,30.8184762 C20.4396491,31.0683849 20.6632517,31.4427422 20.7285112,31.8712294 C20.7952885,32.316411 20.6850049,32.7620985 20.4148606,33.1293733 L20.3440362,33.2270097 L19.517415,34.3490697 C18.9730793,34.9880064 17.9587735,35.1443259 17.2889776,34.6515908 Z M20.2251525,37.6540371 C19.5042619,37.1228545 19.3616014,36.0862896 19.9054312,35.3446576 L20.2519646,34.8741816 C20.2722001,34.8483813 20.2995181,34.8291575 20.3187418,34.8023455 L21.0952802,33.7283449 L22.2618583,32.1428914 C22.5790502,31.7128864 23.0849383,31.4558952 23.615615,31.4558952 C23.9591131,31.4558952 24.284905,31.5616259 24.5590964,31.7634753 C25.2789753,32.2931402 25.4236593,33.3256579 24.8838766,34.0677958 L24.2843992,34.8817699 L22.5239083,37.2715856 C21.9987964,37.9823585 20.9187252,38.1644782 20.2251525,37.6540371 Z M23.4092126,40.3362561 C23.0626792,40.0828061 22.8380649,39.7018724 22.7753348,39.2657968 C22.7136164,38.8261799 22.8249118,38.3875749 23.0879736,38.029912 L25.144409,35.2338681 L25.6072967,34.6060609 C25.6078026,34.6050491 25.6078026,34.6040373 25.6098262,34.6025196 L26.700521,33.1192555 C27.0177129,32.6887447 27.5236011,32.4327653 28.0557954,32.4327653 C28.3997994,32.4327653 28.7266031,32.5384959 28.998771,32.7393335 C29.3453044,32.9943012 29.5694128,33.3737173 29.6311312,33.8087811 C29.6928495,34.2483979 29.5815541,34.6875089 29.3184923,35.0461836 L28.053266,36.7646857 C28.0330305,36.790486 28.0072302,36.8097097 27.9880064,36.8365218 L26.4688243,38.9091456 C26.4576947,38.9238164 26.4511182,38.9415224 26.4404945,38.9566991 L25.705439,39.9563341 C25.1833624,40.6660952 24.1022794,40.8487208 23.4092126,40.3362561 Z M27.5134833,41.7497077 C26.8067576,41.2301605 26.6610618,40.2244548 27.1715029,39.4848463 L28.7731449,37.3075037 C29.0923603,36.9179698 29.5678952,36.6822259 30.0702421,36.6822259 C30.4127284,36.6822259 30.7380145,36.7879565 31.0101823,36.9877823 C31.7325906,37.5209885 31.8772746,38.5560357 31.3309154,39.2976677 L29.8117333,41.3697856 C29.2911743,42.0800526 28.2131267,42.2647018 27.5134833,41.7497077 Z M33.1597011,41.7471782 C32.9113101,42.0937116 32.5379646,42.3228789 32.110995,42.3926915 C31.6627781,42.4614923 31.2231612,42.3598088 30.8558864,42.0947234 L30.5579183,41.8797209 L32.0583826,39.8318856 C32.1909253,39.6522953 32.2875499,39.4585401 32.3674803,39.260232 L33.0630765,39.7585318 C33.5315289,40.3281619 33.5957767,41.142136 33.1597011,41.7471782 Z M43.8218001,34.1199023 C43.3017471,34.8468636 42.2672058,35.0057125 41.5169736,34.4674475 L38.5716927,32.3669998 L37.5148924,31.6101911 L37.5133747,31.6127206 L36.2496661,30.7112279 L35.7265777,31.4462834 L38.1356171,33.1642796 L40.2193705,34.6586732 C40.9670732,35.1944088 41.1507106,36.2254089 40.6306576,36.9528761 C40.1080751,37.6808491 39.0745456,37.8356509 38.3253252,37.3009271 L35.9132504,35.5849545 L35.9132504,35.5849545 L33.8532738,34.1052316 L33.3266442,34.8382635 L36.8192961,37.3469629 C37.5659871,37.8811808 37.7501304,38.9101574 37.231595,39.6396481 C36.7110361,40.3671153 35.6770007,40.522423 34.9262626,39.9861815 L33.6863307,39.097336 C33.5633999,38.9602403 33.4263042,38.8332624 33.2715024,38.7199434 L32.5506118,38.2044434 C32.5232938,37.4577524 32.1848546,36.7328147 31.5444002,36.2593034 C31.0582417,35.903664 30.4547171,35.7731449 29.8633339,35.8252513 L30.0439359,35.5793897 C30.4486465,35.030501 30.6196367,34.356658 30.5240238,33.6833208 C30.4284109,33.0049248 30.0763128,32.411518 29.532483,32.0118663 C28.4761885,31.235328 26.8649347,31.4827073 26.0388193,32.5121897 C25.9113355,31.9385126 25.5976848,31.4068241 25.0928084,31.0360081 C24.027408,30.2528932 22.394401,30.5083667 21.5758739,31.5631435 C21.4438371,30.9697367 21.1200687,30.4491778 20.6323925,30.0905031 C19.5477683,29.2962587 17.879855,29.5684265 17.069928,30.6682274 L16.9292911,30.8640061 L15.7596777,29.9721253 L22.1303273,21.6097939 L23.7749698,22.3655908 L22.8461591,23.6611704 C22.434872,24.219165 22.2653995,24.9026199 22.3701183,25.5875925 C22.4723077,26.2538472 22.8223824,26.8371363 23.3545767,27.2266702 C23.8877828,27.6202512 24.5484728,27.7826413 25.2157393,27.6819695 C25.9007119,27.5787683 26.5037305,27.2155406 26.9170412,26.6555224 L28.2950805,24.7518653 L30.5943423,24.7437711 C30.9049576,26.5513095 32.6254832,28.1559867 34.363715,28.1559867 L38.263101,28.1559867 L43.4125366,31.8246877 C43.7747525,32.0852201 44.0160612,32.4681775 44.0929562,32.9042531 C44.1688394,33.3383051 44.0727207,33.7703336 43.8218001,34.1199023 Z M43.5364792,30.805829 L38.552469,27.2539881 L34.3642209,27.2539881 C32.9578518,27.2539881 31.5145528,25.7773006 31.450305,24.2727892 L31.4305754,23.8397489 L27.8342164,23.8518902 L26.1890681,26.1233281 C25.9214533,26.4865558 25.5278723,26.7228056 25.0821848,26.7890769 C24.6526857,26.8553483 24.2312809,26.7521471 23.8898064,26.499203 C23.5508613,26.2508119 23.3287764,25.8779723 23.2625051,25.4520145 C23.1947161,25.0058211 23.3049997,24.5601337 23.5761557,24.1918471 L24.9941603,22.2128126 C25.6811564,21.1949656 27.1269848,21.116047 27.5534485,21.116047 L38.493786,21.116047 L45.0187315,29.6797219 L43.5364792,30.805829 Z" id="Shape" fill="#FFFFFF" fill-rule="nonzero"></path>
                        </g>
                    </g>
                </g>
            </g>
        </g>
    </g>
</svg>