
<svg width="60px" height="60px" viewBox="0 0 60 60" version="1.1" xmlns="http://www.w3.org/2000/svg" xmlns:xlink="http://www.w3.org/1999/xlink">
    <g id="Page-1" stroke="none" stroke-width="1" fill="none" fill-rule="evenodd">
        <g id="08_Mission_dsk" transform="translate(-253.000000, -1833.000000)">
            <rect fill="none" x="0" y="0" width="1440" height="5781"></rect>
            <g id="02" transform="translate(158.000000, 1150.000000)">
                <g id="02b" transform="translate(95.000000, 683.000000)">
                    <g id="1">
                        <g id="icon/circlepuzzle">
                            <path d="M60,30 C60,46.5683447 46.5686214,60 30.0006179,60 C13.4313786,60 0,46.5683447 0,30 C0,13.4316553 13.4313786,0 30.0006179,0 C46.5686214,0 60,13.4316553 60,30" id="Fill-12" fill="#FC643A" fill-rule="evenodd"></path>
                            <path d="M30.7373374,12 C33.6094382,12 35.9478842,14.3384697 35.9478842,17.2105469 C35.9478842,18.4755587 35.4858982,19.6228453 34.7340636,20.5263494 L44.0005475,20.5263494 C44.2621463,20.5263756 44.4742074,20.7384367 44.4742336,21.0000355 L44.4742336,30.2368903 C45.3754214,29.4930137 46.532447,29.0526751 47.7900361,29.0526751 C50.6621369,29.0526751 53.000583,31.3911685 53.000583,34.263222 C53.000583,37.1352754 50.6621369,39.4738162 47.7900361,39.4738162 C46.532447,39.4738162 45.3754214,39.0186986 44.4742336,38.2747746 L44.4742336,47.5264795 C44.4742074,47.7880783 44.2621463,48.0001394 44.0005475,48.0001656 L17.4741281,48.0001656 C17.2125294,48.0001394 17.0004682,47.7880783 17.0004421,47.5264795 L17.0004421,37.1053858 C16.9914248,36.8959501 17.121126,36.7054906 17.3193043,36.6371533 C17.5174826,36.5688159 17.7370098,36.6388518 17.8589981,36.809332 C18.6370275,37.846894 19.8636376,38.526444 21.2636168,38.526444 C23.623662,38.526444 25.5267905,36.6232681 25.5267905,34.263222 C25.5267905,31.9031758 23.623662,30.0000473 21.2636168,30.0000473 C19.8636376,30.0000473 18.6370275,30.6647709 17.8589981,31.7023803 C17.7384866,31.8702666 17.5230509,31.9406592 17.3266606,31.8763191 C17.1302702,31.8119789 16.9982504,31.627755 17.0004421,31.4211055 L17.0004421,21.0000355 C17.0004682,20.7384367 17.2125294,20.5263756 17.4741281,20.5263494 L26.7406111,20.5263494 C25.9887765,19.6228453 25.5267905,18.4755587 25.5267905,17.2105469 C25.5267905,14.3384697 27.8652366,12 30.7373374,12 L30.7373374,12 Z M30.7373374,12.9473722 C28.3772912,12.9473722 26.4741627,14.850477 26.4741627,17.2105469 C26.4741627,18.6105355 27.1388863,19.8371598 28.1764957,20.6151655 C28.344382,20.735677 28.4147746,20.9511127 28.3504345,21.147503 C28.2860943,21.3438934 28.1018704,21.4759132 27.8952209,21.4737215 L17.9478142,21.4737215 L17.9478142,30.2368903 C18.849002,29.4930137 20.0060276,29.0526751 21.2636168,29.0526751 C24.1357166,29.0526751 26.4741627,31.3911685 26.4741627,34.263222 C26.4741627,37.1352754 24.1357166,39.4738162 21.2636168,39.4738162 C20.0060276,39.4738162 18.849002,39.0186986 17.9478142,38.2747746 L17.9478142,47.0527934 L43.5268615,47.0527934 L43.5268615,37.1053858 C43.5178442,36.8959501 43.6475454,36.7054906 43.8457237,36.6371533 C44.043902,36.5688159 44.2634292,36.6388518 44.3854175,36.809332 C45.1634468,37.846894 46.3900569,38.526444 47.7900361,38.526444 C50.1500823,38.526444 52.0532108,36.6232681 52.0532108,34.263222 C52.0532108,31.9031758 50.1500823,30.0000473 47.7900361,30.0000473 C46.3900569,30.0000473 45.1634468,30.6647709 44.3854175,31.7023803 C44.264906,31.8702666 44.0494703,31.9406592 43.85308,31.8763191 C43.6566896,31.8119789 43.5246698,31.627755 43.5268615,31.4211055 L43.5268615,21.4737215 L33.5794538,21.4737215 C33.3728043,21.4759132 33.1885804,21.3438934 33.1242403,21.147503 C33.0599001,20.9511127 33.1302927,20.735677 33.298179,20.6151655 C34.3357884,19.8371598 35.0005121,18.6105355 35.0005121,17.2105469 C35.0005121,14.850477 33.0973835,12.9473722 30.7373374,12.9473722 L30.7373374,12.9473722 Z" id="Shape" stroke="#FFFFFF" stroke-width="0.5" fill="#FFFFFF" fill-rule="nonzero" transform="translate(35.000292, 30.000083) rotate(45.000000) translate(-35.000292, -30.000083) "></path>
                        </g>
                    </g>
                </g>
            </g>
        </g>
    </g>
</svg>