
<svg width="60px" height="60px" viewBox="0 0 60 60" version="1.1" xmlns="http://www.w3.org/2000/svg" xmlns:xlink="http://www.w3.org/1999/xlink">
    <g id="Page-1" stroke="none" stroke-width="1" fill="none" fill-rule="evenodd">
        <g id="08_Mission_dsk" transform="translate(-1026.000000, -1307.000000)">
            <rect fill="none" x="0" y="0" width="1440" height="5781"></rect>
            <g id="02" transform="translate(158.000000, 1150.000000)">
                <g id="02a" transform="translate(95.000000, 157.000000)">
                    <g id="3" transform="translate(772.000000, 0.000000)">
                        <g id="icon/circlediversity" transform="translate(1.000000, 0.000000)">
                            <path d="M60,30 C60,46.5683447 46.5686214,60 30.0006179,60 C13.4313786,60 0,46.5683447 0,30 C0,13.4316553 13.4313786,0 30.0006179,0 C46.5686214,0 60,13.4316553 60,30" id="Fill-12" fill="#FC643A" fill-rule="evenodd"></path>
                            <polygon id="Path" stroke="#FFFFFF" stroke-width="1" points="39.3866667 38.3077103 34.6088889 31.7623832 42.3488889 29.2485981 43.4955556 32.853271 52 23.5095794 39.5777778 20.9009346 40.7722222 24.4581776 33.0322222 26.9719626 33.0322222 18.9088785 36.8544444 18.9088785 30.5 8 24.1455556 18.9088785 27.9677778 18.9088785 27.9677778 26.9719626 20.2277778 24.4581776 21.4222222 20.9009346 9 23.5095794 17.5044444 32.853271 18.6511111 29.2485981 26.3911111 31.7623832 21.6133333 38.3077103 18.5555556 36.0785047 17.2177778 48.6 28.78 43.4775701 25.7222222 41.2483645 30.5 34.7504673 35.2777778 41.2483645 32.22 43.4775701 43.7822222 48.6 42.4444444 36.0785047"></polygon>
                        </g>
                    </g>
                </g>
            </g>
        </g>
    </g>
</svg>