
<svg width="60px" height="60px" viewBox="0 0 60 60" version="1.1" xmlns="http://www.w3.org/2000/svg" xmlns:xlink="http://www.w3.org/1999/xlink">
    <g id="Page-1" stroke="none" stroke-width="1" fill="none" fill-rule="evenodd">
        <g id="08_Mission_dsk" transform="translate(-1026.000000, -1833.000000)">
            <rect fill="none" x="0" y="0" width="1440" height="5781"></rect>
            <g id="02" transform="translate(158.000000, 1150.000000)">
                <g id="02b" transform="translate(95.000000, 683.000000)">
                    <g id="3" transform="translate(772.000000, 0.000000)">
                        <g id="icon/circlefun" transform="translate(1.000000, 0.000000)">
                            <path d="M60,30 C60,46.5683447 46.5686214,60 30.0006179,60 C13.4313786,60 0,46.5683447 0,30 C0,13.4316553 13.4313786,0 30.0006179,0 C46.5686214,0 60,13.4316553 60,30" id="Fill-12" fill="#FC643A" fill-rule="evenodd"></path>
                            <path d="M17.978125,34.415625 C22.7290072,34.4209765 26.5790235,38.2709928 26.584375,43.021875 C26.584375,43.2859361 26.7984389,43.5 27.0625,43.5 C27.3265611,43.5 27.540625,43.2859361 27.540625,43.021875 C27.5459765,38.2709928 31.3959928,34.4209765 36.146875,34.415625 C36.4109361,34.415625 36.625,34.2015611 36.625,33.9375 C36.625,33.6734389 36.4109361,33.459375 36.146875,33.459375 C31.3959928,33.4540235 27.5459765,29.6040072 27.540625,24.853125 C27.540625,24.5890639 27.3265611,24.375 27.0625,24.375 C26.7984389,24.375 26.584375,24.5890639 26.584375,24.853125 C26.5790235,29.6040072 22.7290072,33.4540235 17.978125,33.459375 C17.7140639,33.459375 17.5,33.6734389 17.5,33.9375 C17.5,34.2015611 17.7140639,34.415625 17.978125,34.415625 L17.978125,34.415625 Z M27.0625,27.75 C28.0318312,30.6740885 30.3259115,32.9681688 33.25,33.9375 C30.3259115,34.9068312 28.0318312,37.2009115 27.0625,40.125 C26.0931688,37.2009115 23.7990885,34.9068312 20.875,33.9375 C23.7990885,32.9681688 26.0931688,30.6740885 27.0625,27.75 Z M35.9699711,24.2825862 C37.6246891,24.2844223 38.9656808,25.625311 38.9676441,27.2800289 C38.9676441,27.5395868 39.1780573,27.75 39.4376151,27.75 C39.697173,27.75 39.9075862,27.5395868 39.9075862,27.2800289 C39.9095234,25.6253901 41.2503901,24.2845234 42.9050289,24.2825862 C43.1645868,24.2825862 43.375,24.072173 43.375,23.8126151 C43.375,23.5530573 43.1645868,23.3426441 42.9050289,23.3426441 C41.250311,23.3406808 39.9094223,21.9996891 39.9075862,20.3449711 C39.9075862,20.0854132 39.697173,19.875 39.4376151,19.875 C39.1780573,19.875 38.9676441,20.0854132 38.9676441,20.3449711 C38.9657793,21.9997671 37.6247671,23.3407793 35.9699711,23.3426441 C35.7104132,23.3426441 35.5,23.5530573 35.5,23.8126151 C35.5,24.072173 35.7104132,24.2825862 35.9699711,24.2825862 L35.9699711,24.2825862 Z M39.4376212,22.125 C39.823766,22.8398349 40.4102206,23.4263737 41.125,23.8126212 C40.4102856,24.1988451 39.8238451,24.7852856 39.4376212,25.5 C39.0513737,24.7852206 38.4648349,24.198766 37.75,23.8126212 C38.4649001,23.4264532 39.0514532,22.8399001 39.4376212,22.125 L39.4376212,22.125 Z M42.25,37.3123767 C42.25,37.5903408 42.4753443,37.8156752 42.7533206,37.8156752 C43.7502718,37.8168652 44.5581255,38.6247938 44.5591794,39.6217015 C44.5591794,39.8996656 44.7845237,40.125 45.0625,40.125 C45.3404763,40.125 45.5658206,39.8996656 45.5658206,39.6217015 C45.5668745,38.6247938 46.3747282,37.8168652 47.3716794,37.8156752 C47.6496557,37.8156752 47.875,37.5903408 47.875,37.3123767 C47.875,37.0344126 47.6496557,36.8090782 47.3716794,36.8090782 C46.3747773,36.8080019 45.5668969,36.0001569 45.5658206,35.0032985 C45.5658206,34.7253344 45.3404763,34.5 45.0625,34.5 C44.7845237,34.5 44.5591794,34.7253344 44.5591794,35.0032985 C44.5581031,36.0001569 43.7502227,36.8080019 42.7533206,36.8090782 C42.4753443,36.8090782 42.25,37.0344126 42.25,37.3123767 L42.25,37.3123767 Z M45.0625,36.75 C45.2153076,36.9692494 45.4057506,37.1596924 45.625,37.3125 C45.4057506,37.4653076 45.2153076,37.6557506 45.0625,37.875 C44.9096924,37.6557506 44.7192494,37.4653076 44.5,37.3125 C44.7192494,37.1596924 44.9096924,36.9692494 45.0625,36.75 L45.0625,36.75 Z M37.075,39.45 L37.075,40.8 L38.425,40.8 C38.6735281,40.8 38.875,41.0014719 38.875,41.25 C38.875,41.4985281 38.6735281,41.7 38.425,41.7 L37.075,41.7 L37.075,43.05 C37.075,43.2985281 36.8735281,43.5 36.625,43.5 C36.3764719,43.5 36.175,43.2985281 36.175,43.05 L36.175,41.7 L34.825,41.7 C34.5764719,41.7 34.375,41.4985281 34.375,41.25 C34.375,41.0014719 34.5764719,40.8 34.825,40.8 L36.175,40.8 L36.175,39.45 C36.175,39.2014719 36.3764719,39 36.625,39 C36.8735281,39 37.075,39.2014719 37.075,39.45 Z M17.05,44.175 L17.05,42.825 C17.05,42.5764719 17.2514719,42.375 17.5,42.375 C17.7485281,42.375 17.95,42.5764719 17.95,42.825 L17.95,44.175 L19.3,44.175 C19.5485281,44.175 19.75,44.3764719 19.75,44.625 C19.75,44.8735281 19.5485281,45.075 19.3,45.075 L17.95,45.075 L17.95,46.425 C17.95,46.6735281 17.7485281,46.875 17.5,46.875 C17.2514719,46.875 17.05,46.6735281 17.05,46.425 L17.05,45.075 L15.7,45.075 C15.4514719,45.075 15.25,44.8735281 15.25,44.625 C15.25,44.3764719 15.4514719,44.175 15.7,44.175 L17.05,44.175 Z M18.625,16.5 C18.625,16.2514719 18.8264719,16.05 19.075,16.05 L20.425,16.05 L20.425,14.7 C20.425,14.4514719 20.6264719,14.25 20.875,14.25 C21.1235281,14.25 21.325,14.4514719 21.325,14.7 L21.325,16.05 L22.675,16.05 C22.9235281,16.05 23.125,16.2514719 23.125,16.5 C23.125,16.7485281 22.9235281,16.95 22.675,16.95 L21.325,16.95 L21.325,18.3 C21.325,18.5485281 21.1235281,18.75 20.875,18.75 C20.6264719,18.75 20.425,18.5485281 20.425,18.3 L20.425,16.95 L19.075,16.95 C18.8264719,16.95 18.625,16.7485281 18.625,16.5 Z M32.125,13.6875 C32.125,13.3768398 32.3768398,13.125 32.6875,13.125 L33.25,13.125 L33.25,12.5625 C33.25,12.2518398 33.5018398,12 33.8125,12 C34.1231602,12 34.375,12.2518398 34.375,12.5625 L34.375,13.125 L34.9375,13.125 C35.2481602,13.125 35.5,13.3768398 35.5,13.6875 C35.5,13.9981602 35.2481602,14.25 34.9375,14.25 L34.375,14.25 L34.375,14.8125 C34.375,15.1231602 34.1231602,15.375 33.8125,15.375 C33.5018398,15.375 33.25,15.1231602 33.25,14.8125 L33.25,14.25 L32.6875,14.25 C32.3768398,14.25 32.125,13.9981602 32.125,13.6875 Z M13,26.0625 C13,25.7518398 13.2518398,25.5 13.5625,25.5 L14.125,25.5 L14.125,24.9375 C14.125,24.6268398 14.3768398,24.375 14.6875,24.375 C14.9981602,24.375 15.25,24.6268398 15.25,24.9375 L15.25,25.5 L15.8125,25.5 C16.1231602,25.5 16.375,25.7518398 16.375,26.0625 C16.375,26.3731602 16.1231602,26.625 15.8125,26.625 L15.25,26.625 L15.25,27.1875 C15.25,27.4981602 14.9981602,27.75 14.6875,27.75 C14.3768398,27.75 14.125,27.4981602 14.125,27.1875 L14.125,26.625 L13.5625,26.625 C13.2518398,26.625 13,26.3731602 13,26.0625 Z M42.25,45.1875 L42.25,45.75 L42.8125,45.75 C43.1231602,45.75 43.375,46.0018398 43.375,46.3125 C43.375,46.6231602 43.1231602,46.875 42.8125,46.875 L42.25,46.875 L42.25,47.4375 C42.25,47.7481602 41.9981602,48 41.6875,48 C41.3768398,48 41.125,47.7481602 41.125,47.4375 L41.125,46.875 L40.5625,46.875 C40.2518398,46.875 40,46.6231602 40,46.3125 C40,46.0018398 40.2518398,45.75 40.5625,45.75 L41.125,45.75 L41.125,45.1875 C41.125,44.8768398 41.3768398,44.625 41.6875,44.625 C41.9981602,44.625 42.25,44.8768398 42.25,45.1875 Z" id="Shape" fill="#FFFFFF" fill-rule="nonzero"></path>
                        </g>
                    </g>
                </g>
            </g>
        </g>
    </g>
</svg>